<?xml version="1.0" encoding="utf-8" standalone="no"?>
<!DOCTYPE svg PUBLIC "-//W3C//DTD SVG 1.1//EN"
  "http://www.w3.org/Graphics/SVG/1.1/DTD/svg11.dtd">
<svg xmlns:xlink="http://www.w3.org/1999/xlink" width="1097.402187pt" height="397.635312pt" viewBox="0 0 1097.402187 397.635312" xmlns="http://www.w3.org/2000/svg" version="1.1">
 <metadata>
  <rdf:RDF xmlns:dc="http://purl.org/dc/elements/1.1/" xmlns:cc="http://creativecommons.org/ns#" xmlns:rdf="http://www.w3.org/1999/02/22-rdf-syntax-ns#">
   <cc:Work>
    <dc:type rdf:resource="http://purl.org/dc/dcmitype/StillImage"/>
    <dc:date>2026-03-25T09:44:11.651617</dc:date>
    <dc:format>image/svg+xml</dc:format>
    <dc:creator>
     <cc:Agent>
      <dc:title>Matplotlib v3.10.8, https://matplotlib.org/</dc:title>
     </cc:Agent>
    </dc:creator>
   </cc:Work>
  </rdf:RDF>
 </metadata>
 <defs>
  <style type="text/css">*{stroke-linejoin: round; stroke-linecap: butt}</style>
 </defs>
 <g id="figure_1">
  <g id="patch_1">
   <path d="M 0 397.635312 
L 1097.402187 397.635312 
L 1097.402187 0 
L 0 0 
z
" style="fill: #ffffff"/>
  </g>
  <g id="axes_1">
   <g id="patch_2">
    <path d="M 62.872188 340.84 
L 364.442187 340.84 
L 364.442187 87.92 
L 62.872188 87.92 
z
" style="fill: #ffffff"/>
   </g>
   <g id="matplotlib.axis_1">
    <g id="xtick_1">
     <g id="line2d_1">
      <path d="M 76.579915 340.84 
L 76.579915 87.92 
" clip-path="url(#p259b36482d)" style="fill: none; stroke: #dee2e6; stroke-opacity: 0.7; stroke-width: 0.5; stroke-linecap: square"/>
     </g>
     <g id="line2d_2">
      <defs>
       <path id="mb66596a13d" d="M 0 0 
L 0 3.5 
" style="stroke: #000000; stroke-width: 0.8"/>
      </defs>
      <g>
       <use xlink:href="#mb66596a13d" x="76.579915" y="340.84" style="stroke: #000000; stroke-width: 0.8"/>
      </g>
     </g>
     <g id="text_1">
      <!-- 0 -->
      <g transform="translate(72.762415 356.958125) scale(0.12 -0.12)">
       <defs>
        <path id="DejaVuSans-30" d="M 2034 4250 
Q 1547 4250 1301 3770 
Q 1056 3291 1056 2328 
Q 1056 1369 1301 889 
Q 1547 409 2034 409 
Q 2525 409 2770 889 
Q 3016 1369 3016 2328 
Q 3016 3291 2770 3770 
Q 2525 4250 2034 4250 
z
M 2034 4750 
Q 2819 4750 3233 4129 
Q 3647 3509 3647 2328 
Q 3647 1150 3233 529 
Q 2819 -91 2034 -91 
Q 1250 -91 836 529 
Q 422 1150 422 2328 
Q 422 3509 836 4129 
Q 1250 4750 2034 4750 
z
" transform="scale(0.015625)"/>
       </defs>
       <use xlink:href="#DejaVuSans-30"/>
      </g>
     </g>
    </g>
    <g id="xtick_2">
     <g id="line2d_3">
      <path d="M 120.212966 340.84 
L 120.212966 87.92 
" clip-path="url(#p259b36482d)" style="fill: none; stroke: #dee2e6; stroke-opacity: 0.7; stroke-width: 0.5; stroke-linecap: square"/>
     </g>
     <g id="line2d_4">
      <g>
       <use xlink:href="#mb66596a13d" x="120.212966" y="340.84" style="stroke: #000000; stroke-width: 0.8"/>
      </g>
     </g>
     <g id="text_2">
      <!-- 1 -->
      <g transform="translate(116.395466 356.958125) scale(0.12 -0.12)">
       <defs>
        <path id="DejaVuSans-31" d="M 794 531 
L 1825 531 
L 1825 4091 
L 703 3866 
L 703 4441 
L 1819 4666 
L 2450 4666 
L 2450 531 
L 3481 531 
L 3481 0 
L 794 0 
L 794 531 
z
" transform="scale(0.015625)"/>
       </defs>
       <use xlink:href="#DejaVuSans-31"/>
      </g>
     </g>
    </g>
    <g id="xtick_3">
     <g id="line2d_5">
      <path d="M 163.846017 340.84 
L 163.846017 87.92 
" clip-path="url(#p259b36482d)" style="fill: none; stroke: #dee2e6; stroke-opacity: 0.7; stroke-width: 0.5; stroke-linecap: square"/>
     </g>
     <g id="line2d_6">
      <g>
       <use xlink:href="#mb66596a13d" x="163.846017" y="340.84" style="stroke: #000000; stroke-width: 0.8"/>
      </g>
     </g>
     <g id="text_3">
      <!-- 2 -->
      <g transform="translate(160.028517 356.958125) scale(0.12 -0.12)">
       <defs>
        <path id="DejaVuSans-32" d="M 1228 531 
L 3431 531 
L 3431 0 
L 469 0 
L 469 531 
Q 828 903 1448 1529 
Q 2069 2156 2228 2338 
Q 2531 2678 2651 2914 
Q 2772 3150 2772 3378 
Q 2772 3750 2511 3984 
Q 2250 4219 1831 4219 
Q 1534 4219 1204 4116 
Q 875 4013 500 3803 
L 500 4441 
Q 881 4594 1212 4672 
Q 1544 4750 1819 4750 
Q 2544 4750 2975 4387 
Q 3406 4025 3406 3419 
Q 3406 3131 3298 2873 
Q 3191 2616 2906 2266 
Q 2828 2175 2409 1742 
Q 1991 1309 1228 531 
z
" transform="scale(0.015625)"/>
       </defs>
       <use xlink:href="#DejaVuSans-32"/>
      </g>
     </g>
    </g>
    <g id="xtick_4">
     <g id="line2d_7">
      <path d="M 207.479068 340.84 
L 207.479068 87.92 
" clip-path="url(#p259b36482d)" style="fill: none; stroke: #dee2e6; stroke-opacity: 0.7; stroke-width: 0.5; stroke-linecap: square"/>
     </g>
     <g id="line2d_8">
      <g>
       <use xlink:href="#mb66596a13d" x="207.479068" y="340.84" style="stroke: #000000; stroke-width: 0.8"/>
      </g>
     </g>
     <g id="text_4">
      <!-- 3 -->
      <g transform="translate(203.661568 356.958125) scale(0.12 -0.12)">
       <defs>
        <path id="DejaVuSans-33" d="M 2597 2516 
Q 3050 2419 3304 2112 
Q 3559 1806 3559 1356 
Q 3559 666 3084 287 
Q 2609 -91 1734 -91 
Q 1441 -91 1130 -33 
Q 819 25 488 141 
L 488 750 
Q 750 597 1062 519 
Q 1375 441 1716 441 
Q 2309 441 2620 675 
Q 2931 909 2931 1356 
Q 2931 1769 2642 2001 
Q 2353 2234 1838 2234 
L 1294 2234 
L 1294 2753 
L 1863 2753 
Q 2328 2753 2575 2939 
Q 2822 3125 2822 3475 
Q 2822 3834 2567 4026 
Q 2313 4219 1838 4219 
Q 1578 4219 1281 4162 
Q 984 4106 628 3988 
L 628 4550 
Q 988 4650 1302 4700 
Q 1616 4750 1894 4750 
Q 2613 4750 3031 4423 
Q 3450 4097 3450 3541 
Q 3450 3153 3228 2886 
Q 3006 2619 2597 2516 
z
" transform="scale(0.015625)"/>
       </defs>
       <use xlink:href="#DejaVuSans-33"/>
      </g>
     </g>
    </g>
    <g id="xtick_5">
     <g id="line2d_9">
      <path d="M 251.112119 340.84 
L 251.112119 87.92 
" clip-path="url(#p259b36482d)" style="fill: none; stroke: #dee2e6; stroke-opacity: 0.7; stroke-width: 0.5; stroke-linecap: square"/>
     </g>
     <g id="line2d_10">
      <g>
       <use xlink:href="#mb66596a13d" x="251.112119" y="340.84" style="stroke: #000000; stroke-width: 0.8"/>
      </g>
     </g>
     <g id="text_5">
      <!-- 4 -->
      <g transform="translate(247.294619 356.958125) scale(0.12 -0.12)">
       <defs>
        <path id="DejaVuSans-34" d="M 2419 4116 
L 825 1625 
L 2419 1625 
L 2419 4116 
z
M 2253 4666 
L 3047 4666 
L 3047 1625 
L 3713 1625 
L 3713 1100 
L 3047 1100 
L 3047 0 
L 2419 0 
L 2419 1100 
L 313 1100 
L 313 1709 
L 2253 4666 
z
" transform="scale(0.015625)"/>
       </defs>
       <use xlink:href="#DejaVuSans-34"/>
      </g>
     </g>
    </g>
    <g id="xtick_6">
     <g id="line2d_11">
      <path d="M 294.74517 340.84 
L 294.74517 87.92 
" clip-path="url(#p259b36482d)" style="fill: none; stroke: #dee2e6; stroke-opacity: 0.7; stroke-width: 0.5; stroke-linecap: square"/>
     </g>
     <g id="line2d_12">
      <g>
       <use xlink:href="#mb66596a13d" x="294.74517" y="340.84" style="stroke: #000000; stroke-width: 0.8"/>
      </g>
     </g>
     <g id="text_6">
      <!-- 5 -->
      <g transform="translate(290.92767 356.958125) scale(0.12 -0.12)">
       <defs>
        <path id="DejaVuSans-35" d="M 691 4666 
L 3169 4666 
L 3169 4134 
L 1269 4134 
L 1269 2991 
Q 1406 3038 1543 3061 
Q 1681 3084 1819 3084 
Q 2600 3084 3056 2656 
Q 3513 2228 3513 1497 
Q 3513 744 3044 326 
Q 2575 -91 1722 -91 
Q 1428 -91 1123 -41 
Q 819 9 494 109 
L 494 744 
Q 775 591 1075 516 
Q 1375 441 1709 441 
Q 2250 441 2565 725 
Q 2881 1009 2881 1497 
Q 2881 1984 2565 2268 
Q 2250 2553 1709 2553 
Q 1456 2553 1204 2497 
Q 953 2441 691 2322 
L 691 4666 
z
" transform="scale(0.015625)"/>
       </defs>
       <use xlink:href="#DejaVuSans-35"/>
      </g>
     </g>
    </g>
    <g id="xtick_7">
     <g id="line2d_13">
      <path d="M 338.378221 340.84 
L 338.378221 87.92 
" clip-path="url(#p259b36482d)" style="fill: none; stroke: #dee2e6; stroke-opacity: 0.7; stroke-width: 0.5; stroke-linecap: square"/>
     </g>
     <g id="line2d_14">
      <g>
       <use xlink:href="#mb66596a13d" x="338.378221" y="340.84" style="stroke: #000000; stroke-width: 0.8"/>
      </g>
     </g>
     <g id="text_7">
      <!-- 6 -->
      <g transform="translate(334.560721 356.958125) scale(0.12 -0.12)">
       <defs>
        <path id="DejaVuSans-36" d="M 2113 2584 
Q 1688 2584 1439 2293 
Q 1191 2003 1191 1497 
Q 1191 994 1439 701 
Q 1688 409 2113 409 
Q 2538 409 2786 701 
Q 3034 994 3034 1497 
Q 3034 2003 2786 2293 
Q 2538 2584 2113 2584 
z
M 3366 4563 
L 3366 3988 
Q 3128 4100 2886 4159 
Q 2644 4219 2406 4219 
Q 1781 4219 1451 3797 
Q 1122 3375 1075 2522 
Q 1259 2794 1537 2939 
Q 1816 3084 2150 3084 
Q 2853 3084 3261 2657 
Q 3669 2231 3669 1497 
Q 3669 778 3244 343 
Q 2819 -91 2113 -91 
Q 1303 -91 875 529 
Q 447 1150 447 2328 
Q 447 3434 972 4092 
Q 1497 4750 2381 4750 
Q 2619 4750 2861 4703 
Q 3103 4656 3366 4563 
z
" transform="scale(0.015625)"/>
       </defs>
       <use xlink:href="#DejaVuSans-36"/>
      </g>
     </g>
    </g>
    <g id="text_8">
     <!-- x -->
     <g transform="translate(209.81 373.331719) scale(0.13 -0.13)">
      <defs>
       <path id="DejaVuSans-78" d="M 3513 3500 
L 2247 1797 
L 3578 0 
L 2900 0 
L 1881 1375 
L 863 0 
L 184 0 
L 1544 1831 
L 300 3500 
L 978 3500 
L 1906 2253 
L 2834 3500 
L 3513 3500 
z
" transform="scale(0.015625)"/>
      </defs>
      <use xlink:href="#DejaVuSans-78"/>
     </g>
    </g>
   </g>
   <g id="matplotlib.axis_2">
    <g id="ytick_1">
     <g id="line2d_15">
      <path d="M 62.872188 325.0325 
L 364.442187 325.0325 
" clip-path="url(#p259b36482d)" style="fill: none; stroke: #dee2e6; stroke-opacity: 0.7; stroke-width: 0.5; stroke-linecap: square"/>
     </g>
     <g id="line2d_16">
      <defs>
       <path id="m7b8529dec4" d="M 0 0 
L -3.5 0 
" style="stroke: #000000; stroke-width: 0.8"/>
      </defs>
      <g>
       <use xlink:href="#m7b8529dec4" x="62.872188" y="325.0325" style="stroke: #000000; stroke-width: 0.8"/>
      </g>
     </g>
     <g id="text_9">
      <!-- −3 -->
      <g transform="translate(38.181562 329.591562) scale(0.12 -0.12)">
       <defs>
        <path id="DejaVuSans-2212" d="M 678 2272 
L 4684 2272 
L 4684 1741 
L 678 1741 
L 678 2272 
z
" transform="scale(0.015625)"/>
       </defs>
       <use xlink:href="#DejaVuSans-2212"/>
       <use xlink:href="#DejaVuSans-33" transform="translate(83.789062 0)"/>
      </g>
     </g>
    </g>
    <g id="ytick_2">
     <g id="line2d_17">
      <path d="M 62.872188 293.4175 
L 364.442187 293.4175 
" clip-path="url(#p259b36482d)" style="fill: none; stroke: #dee2e6; stroke-opacity: 0.7; stroke-width: 0.5; stroke-linecap: square"/>
     </g>
     <g id="line2d_18">
      <g>
       <use xlink:href="#m7b8529dec4" x="62.872188" y="293.4175" style="stroke: #000000; stroke-width: 0.8"/>
      </g>
     </g>
     <g id="text_10">
      <!-- −2 -->
      <g transform="translate(38.181562 297.976562) scale(0.12 -0.12)">
       <use xlink:href="#DejaVuSans-2212"/>
       <use xlink:href="#DejaVuSans-32" transform="translate(83.789062 0)"/>
      </g>
     </g>
    </g>
    <g id="ytick_3">
     <g id="line2d_19">
      <path d="M 62.872188 261.8025 
L 364.442187 261.8025 
" clip-path="url(#p259b36482d)" style="fill: none; stroke: #dee2e6; stroke-opacity: 0.7; stroke-width: 0.5; stroke-linecap: square"/>
     </g>
     <g id="line2d_20">
      <g>
       <use xlink:href="#m7b8529dec4" x="62.872188" y="261.8025" style="stroke: #000000; stroke-width: 0.8"/>
      </g>
     </g>
     <g id="text_11">
      <!-- −1 -->
      <g transform="translate(38.181562 266.361562) scale(0.12 -0.12)">
       <use xlink:href="#DejaVuSans-2212"/>
       <use xlink:href="#DejaVuSans-31" transform="translate(83.789062 0)"/>
      </g>
     </g>
    </g>
    <g id="ytick_4">
     <g id="line2d_21">
      <path d="M 62.872188 230.1875 
L 364.442187 230.1875 
" clip-path="url(#p259b36482d)" style="fill: none; stroke: #dee2e6; stroke-opacity: 0.7; stroke-width: 0.5; stroke-linecap: square"/>
     </g>
     <g id="line2d_22">
      <g>
       <use xlink:href="#m7b8529dec4" x="62.872188" y="230.1875" style="stroke: #000000; stroke-width: 0.8"/>
      </g>
     </g>
     <g id="text_12">
      <!-- 0 -->
      <g transform="translate(48.237188 234.746562) scale(0.12 -0.12)">
       <use xlink:href="#DejaVuSans-30"/>
      </g>
     </g>
    </g>
    <g id="ytick_5">
     <g id="line2d_23">
      <path d="M 62.872188 198.5725 
L 364.442187 198.5725 
" clip-path="url(#p259b36482d)" style="fill: none; stroke: #dee2e6; stroke-opacity: 0.7; stroke-width: 0.5; stroke-linecap: square"/>
     </g>
     <g id="line2d_24">
      <g>
       <use xlink:href="#m7b8529dec4" x="62.872188" y="198.5725" style="stroke: #000000; stroke-width: 0.8"/>
      </g>
     </g>
     <g id="text_13">
      <!-- 1 -->
      <g transform="translate(48.237188 203.131562) scale(0.12 -0.12)">
       <use xlink:href="#DejaVuSans-31"/>
      </g>
     </g>
    </g>
    <g id="ytick_6">
     <g id="line2d_25">
      <path d="M 62.872188 166.9575 
L 364.442187 166.9575 
" clip-path="url(#p259b36482d)" style="fill: none; stroke: #dee2e6; stroke-opacity: 0.7; stroke-width: 0.5; stroke-linecap: square"/>
     </g>
     <g id="line2d_26">
      <g>
       <use xlink:href="#m7b8529dec4" x="62.872188" y="166.9575" style="stroke: #000000; stroke-width: 0.8"/>
      </g>
     </g>
     <g id="text_14">
      <!-- 2 -->
      <g transform="translate(48.237188 171.516562) scale(0.12 -0.12)">
       <use xlink:href="#DejaVuSans-32"/>
      </g>
     </g>
    </g>
    <g id="ytick_7">
     <g id="line2d_27">
      <path d="M 62.872188 135.3425 
L 364.442187 135.3425 
" clip-path="url(#p259b36482d)" style="fill: none; stroke: #dee2e6; stroke-opacity: 0.7; stroke-width: 0.5; stroke-linecap: square"/>
     </g>
     <g id="line2d_28">
      <g>
       <use xlink:href="#m7b8529dec4" x="62.872188" y="135.3425" style="stroke: #000000; stroke-width: 0.8"/>
      </g>
     </g>
     <g id="text_15">
      <!-- 3 -->
      <g transform="translate(48.237188 139.901562) scale(0.12 -0.12)">
       <use xlink:href="#DejaVuSans-33"/>
      </g>
     </g>
    </g>
    <g id="ytick_8">
     <g id="line2d_29">
      <path d="M 62.872188 103.7275 
L 364.442187 103.7275 
" clip-path="url(#p259b36482d)" style="fill: none; stroke: #dee2e6; stroke-opacity: 0.7; stroke-width: 0.5; stroke-linecap: square"/>
     </g>
     <g id="line2d_30">
      <g>
       <use xlink:href="#m7b8529dec4" x="62.872188" y="103.7275" style="stroke: #000000; stroke-width: 0.8"/>
      </g>
     </g>
     <g id="text_16">
      <!-- 4 -->
      <g transform="translate(48.237188 108.286562) scale(0.12 -0.12)">
       <use xlink:href="#DejaVuSans-34"/>
      </g>
     </g>
    </g>
    <g id="text_17">
     <!-- y -->
     <g transform="translate(31.477969 218.227187) rotate(-90) scale(0.13 -0.13)">
      <defs>
       <path id="DejaVuSans-79" d="M 2059 -325 
Q 1816 -950 1584 -1140 
Q 1353 -1331 966 -1331 
L 506 -1331 
L 506 -850 
L 844 -850 
Q 1081 -850 1212 -737 
Q 1344 -625 1503 -206 
L 1606 56 
L 191 3500 
L 800 3500 
L 1894 763 
L 2988 3500 
L 3597 3500 
L 2059 -325 
z
" transform="scale(0.015625)"/>
      </defs>
      <use xlink:href="#DejaVuSans-79"/>
     </g>
    </g>
   </g>
   <g id="line2d_31">
    <path d="M 76.579915 198.5725 
L 80.42577 198.695226 
L 84.271625 199.062451 
L 88.117481 199.671325 
L 91.963336 200.517119 
L 95.809192 201.593269 
L 99.655047 202.891417 
L 104.05031 204.633847 
L 108.445573 206.635351 
L 112.840837 208.875637 
L 117.785508 211.653011 
L 123.279587 215.016196 
L 129.323074 218.990984 
L 137.014785 224.349489 
L 163.386364 243.040418 
L 169.429851 246.905248 
L 174.92393 250.142702 
L 179.868601 252.78762 
L 184.263864 254.896236 
L 188.659128 256.754343 
L 192.504983 258.159817 
L 196.350838 259.348119 
L 200.196694 260.310025 
L 204.042549 261.038066 
L 207.888404 261.52659 
L 211.73426 261.771804 
L 215.580115 261.771804 
L 219.425971 261.52659 
L 223.271826 261.038066 
L 227.117681 260.310025 
L 230.963537 259.348119 
L 234.809392 258.159817 
L 238.655247 256.754343 
L 243.050511 254.896236 
L 247.445774 252.78762 
L 252.390445 250.142702 
L 257.335116 247.241787 
L 262.829195 243.763665 
L 269.42209 239.311266 
L 278.212617 233.069587 
L 296.343077 220.11555 
L 302.935972 215.719435 
L 308.430051 212.303812 
L 313.374723 209.470406 
L 318.319394 206.902771 
L 322.714657 204.870258 
L 327.10992 203.094423 
L 330.955776 201.765343 
L 334.801631 200.656927 
L 338.647486 199.777781 
L 342.493342 199.134729 
L 346.339197 198.732763 
L 350.185052 198.575006 
L 350.73446 198.5725 
L 350.73446 198.5725 
" clip-path="url(#p259b36482d)" style="fill: none; stroke-dasharray: 5.55,2.4; stroke-dashoffset: 0; stroke: #868e96; stroke-opacity: 0.6; stroke-width: 1.5"/>
   </g>
   <g id="line2d_32">
    <path d="M 62.872188 230.1875 
L 364.442187 230.1875 
" clip-path="url(#p259b36482d)" style="fill: none; stroke: #dee2e6; stroke-width: 0.5; stroke-linecap: square"/>
   </g>
   <g id="patch_3">
    <path d="M 62.872188 340.84 
L 62.872188 87.92 
" style="fill: none; stroke: #868e96; stroke-width: 0.8; stroke-linejoin: miter; stroke-linecap: square"/>
   </g>
   <g id="patch_4">
    <path d="M 62.872187 340.84 
L 364.442187 340.84 
" style="fill: none; stroke: #868e96; stroke-width: 0.8; stroke-linejoin: miter; stroke-linecap: square"/>
   </g>
   <g id="line2d_33">
    <path d="M 76.579915 214.38 
L 82.073994 211.066758 
L 87.018665 208.342295 
L 91.413928 206.154808 
L 95.809192 204.210974 
L 100.204455 202.530503 
L 104.05031 201.289592 
L 107.896165 200.273038 
L 111.742021 199.488733 
L 115.587876 198.942767 
L 119.433731 198.639379 
L 123.279587 198.580923 
L 127.125442 198.767854 
L 130.971298 199.198721 
L 134.817153 199.870178 
L 138.663008 200.777012 
L 142.508864 201.912182 
L 146.354719 203.266876 
L 150.749982 205.070336 
L 155.145245 207.128444 
L 159.540509 209.420335 
L 164.48518 212.24914 
L 169.979259 215.660475 
L 176.022746 219.676422 
L 183.714457 225.068247 
L 207.888404 242.247716 
L 213.931891 246.16706 
L 219.425971 249.466374 
L 224.370642 252.176154 
L 228.765905 254.349038 
L 233.161168 256.276961 
L 237.556431 257.940378 
L 241.402287 259.165563 
L 245.248142 260.165769 
L 249.093997 260.933229 
L 252.939853 261.461987 
L 256.785708 261.747935 
L 260.631564 261.788856 
L 264.477419 261.58443 
L 268.323274 261.136245 
L 272.16913 260.447781 
L 276.014985 259.524383 
L 279.86084 258.373219 
L 283.706696 257.003227 
L 288.101959 255.183289 
L 292.497222 253.109932 
L 296.892485 250.804178 
L 301.837157 247.961607 
L 307.331236 244.537454 
L 313.374723 240.510653 
L 321.066433 235.110239 
L 344.690973 218.311512 
L 350.73446 214.38 
L 350.73446 214.38 
" clip-path="url(#p259b36482d)" style="fill: none; stroke: #339af0; stroke-width: 2.5; stroke-linecap: square"/>
   </g>
   <g id="text_18">
    <!-- Step 1: Shift right by π/3 -->
    <g transform="translate(129.19125 79.92) scale(0.12 -0.12)">
     <defs>
      <path id="DejaVuSans-Bold-53" d="M 3834 4519 
L 3834 3531 
Q 3450 3703 3084 3790 
Q 2719 3878 2394 3878 
Q 1963 3878 1756 3759 
Q 1550 3641 1550 3391 
Q 1550 3203 1689 3098 
Q 1828 2994 2194 2919 
L 2706 2816 
Q 3484 2659 3812 2340 
Q 4141 2022 4141 1434 
Q 4141 663 3683 286 
Q 3225 -91 2284 -91 
Q 1841 -91 1394 -6 
Q 947 78 500 244 
L 500 1259 
Q 947 1022 1364 901 
Q 1781 781 2169 781 
Q 2563 781 2772 912 
Q 2981 1044 2981 1288 
Q 2981 1506 2839 1625 
Q 2697 1744 2272 1838 
L 1806 1941 
Q 1106 2091 782 2419 
Q 459 2747 459 3303 
Q 459 4000 909 4375 
Q 1359 4750 2203 4750 
Q 2588 4750 2994 4692 
Q 3400 4634 3834 4519 
z
" transform="scale(0.015625)"/>
      <path id="DejaVuSans-Bold-74" d="M 1759 4494 
L 1759 3500 
L 2913 3500 
L 2913 2700 
L 1759 2700 
L 1759 1216 
Q 1759 972 1856 886 
Q 1953 800 2241 800 
L 2816 800 
L 2816 0 
L 1856 0 
Q 1194 0 917 276 
Q 641 553 641 1216 
L 641 2700 
L 84 2700 
L 84 3500 
L 641 3500 
L 641 4494 
L 1759 4494 
z
" transform="scale(0.015625)"/>
      <path id="DejaVuSans-Bold-65" d="M 4031 1759 
L 4031 1441 
L 1416 1441 
Q 1456 1047 1700 850 
Q 1944 653 2381 653 
Q 2734 653 3104 758 
Q 3475 863 3866 1075 
L 3866 213 
Q 3469 63 3072 -14 
Q 2675 -91 2278 -91 
Q 1328 -91 801 392 
Q 275 875 275 1747 
Q 275 2603 792 3093 
Q 1309 3584 2216 3584 
Q 3041 3584 3536 3087 
Q 4031 2591 4031 1759 
z
M 2881 2131 
Q 2881 2450 2695 2645 
Q 2509 2841 2209 2841 
Q 1884 2841 1681 2658 
Q 1478 2475 1428 2131 
L 2881 2131 
z
" transform="scale(0.015625)"/>
      <path id="DejaVuSans-Bold-70" d="M 1656 506 
L 1656 -1331 
L 538 -1331 
L 538 3500 
L 1656 3500 
L 1656 2988 
Q 1888 3294 2169 3439 
Q 2450 3584 2816 3584 
Q 3463 3584 3878 3070 
Q 4294 2556 4294 1747 
Q 4294 938 3878 423 
Q 3463 -91 2816 -91 
Q 2450 -91 2169 54 
Q 1888 200 1656 506 
z
M 2400 2772 
Q 2041 2772 1848 2508 
Q 1656 2244 1656 1747 
Q 1656 1250 1848 986 
Q 2041 722 2400 722 
Q 2759 722 2948 984 
Q 3138 1247 3138 1747 
Q 3138 2247 2948 2509 
Q 2759 2772 2400 2772 
z
" transform="scale(0.015625)"/>
      <path id="DejaVuSans-Bold-20" transform="scale(0.015625)"/>
      <path id="DejaVuSans-Bold-31" d="M 750 831 
L 1813 831 
L 1813 3847 
L 722 3622 
L 722 4441 
L 1806 4666 
L 2950 4666 
L 2950 831 
L 4013 831 
L 4013 0 
L 750 0 
L 750 831 
z
" transform="scale(0.015625)"/>
      <path id="DejaVuSans-Bold-3a" d="M 716 3500 
L 1844 3500 
L 1844 2291 
L 716 2291 
L 716 3500 
z
M 716 1209 
L 1844 1209 
L 1844 0 
L 716 0 
L 716 1209 
z
" transform="scale(0.015625)"/>
      <path id="DejaVuSans-Bold-68" d="M 4056 2131 
L 4056 0 
L 2931 0 
L 2931 347 
L 2931 1625 
Q 2931 2084 2911 2256 
Q 2891 2428 2841 2509 
Q 2775 2619 2662 2680 
Q 2550 2741 2406 2741 
Q 2056 2741 1856 2470 
Q 1656 2200 1656 1722 
L 1656 0 
L 538 0 
L 538 4863 
L 1656 4863 
L 1656 2988 
Q 1909 3294 2193 3439 
Q 2478 3584 2822 3584 
Q 3428 3584 3742 3212 
Q 4056 2841 4056 2131 
z
" transform="scale(0.015625)"/>
      <path id="DejaVuSans-Bold-69" d="M 538 3500 
L 1656 3500 
L 1656 0 
L 538 0 
L 538 3500 
z
M 538 4863 
L 1656 4863 
L 1656 3950 
L 538 3950 
L 538 4863 
z
" transform="scale(0.015625)"/>
      <path id="DejaVuSans-Bold-66" d="M 2841 4863 
L 2841 4128 
L 2222 4128 
Q 1984 4128 1890 4042 
Q 1797 3956 1797 3744 
L 1797 3500 
L 2753 3500 
L 2753 2700 
L 1797 2700 
L 1797 0 
L 678 0 
L 678 2700 
L 122 2700 
L 122 3500 
L 678 3500 
L 678 3744 
Q 678 4316 997 4589 
Q 1316 4863 1984 4863 
L 2841 4863 
z
" transform="scale(0.015625)"/>
      <path id="DejaVuSans-Bold-72" d="M 3138 2547 
Q 2991 2616 2845 2648 
Q 2700 2681 2553 2681 
Q 2122 2681 1889 2404 
Q 1656 2128 1656 1613 
L 1656 0 
L 538 0 
L 538 3500 
L 1656 3500 
L 1656 2925 
Q 1872 3269 2151 3426 
Q 2431 3584 2822 3584 
Q 2878 3584 2943 3579 
Q 3009 3575 3134 3559 
L 3138 2547 
z
" transform="scale(0.015625)"/>
      <path id="DejaVuSans-Bold-67" d="M 2919 594 
Q 2688 288 2409 144 
Q 2131 0 1766 0 
Q 1125 0 706 504 
Q 288 1009 288 1791 
Q 288 2575 706 3076 
Q 1125 3578 1766 3578 
Q 2131 3578 2409 3434 
Q 2688 3291 2919 2981 
L 2919 3500 
L 4044 3500 
L 4044 353 
Q 4044 -491 3511 -936 
Q 2978 -1381 1966 -1381 
Q 1638 -1381 1331 -1331 
Q 1025 -1281 716 -1178 
L 716 -306 
Q 1009 -475 1290 -558 
Q 1572 -641 1856 -641 
Q 2406 -641 2662 -400 
Q 2919 -159 2919 353 
L 2919 594 
z
M 2181 2772 
Q 1834 2772 1640 2515 
Q 1447 2259 1447 1791 
Q 1447 1309 1634 1061 
Q 1822 813 2181 813 
Q 2531 813 2725 1069 
Q 2919 1325 2919 1791 
Q 2919 2259 2725 2515 
Q 2531 2772 2181 2772 
z
" transform="scale(0.015625)"/>
      <path id="DejaVuSans-Bold-62" d="M 2400 722 
Q 2759 722 2948 984 
Q 3138 1247 3138 1747 
Q 3138 2247 2948 2509 
Q 2759 2772 2400 2772 
Q 2041 2772 1848 2508 
Q 1656 2244 1656 1747 
Q 1656 1250 1848 986 
Q 2041 722 2400 722 
z
M 1656 2988 
Q 1888 3294 2169 3439 
Q 2450 3584 2816 3584 
Q 3463 3584 3878 3070 
Q 4294 2556 4294 1747 
Q 4294 938 3878 423 
Q 3463 -91 2816 -91 
Q 2450 -91 2169 54 
Q 1888 200 1656 506 
L 1656 0 
L 538 0 
L 538 4863 
L 1656 4863 
L 1656 2988 
z
" transform="scale(0.015625)"/>
      <path id="DejaVuSans-Bold-79" d="M 78 3500 
L 1197 3500 
L 2138 1125 
L 2938 3500 
L 4056 3500 
L 2584 -331 
Q 2363 -916 2067 -1148 
Q 1772 -1381 1288 -1381 
L 641 -1381 
L 641 -647 
L 991 -647 
Q 1275 -647 1404 -556 
Q 1534 -466 1606 -231 
L 1638 -134 
L 78 3500 
z
" transform="scale(0.015625)"/>
      <path id="DejaVuSans-Bold-3c0" d="M 269 3500 
L 4684 3500 
L 4684 2700 
L 4072 2700 
L 4072 1131 
Q 4072 728 4148 629 
Q 4225 531 4400 531 
Q 4578 531 4678 544 
L 4678 -44 
Q 4484 -122 3822 -122 
Q 3613 -122 3409 -63 
Q 3084 34 2994 319 
Q 2953 453 2953 728 
L 2953 2700 
L 2000 2700 
L 2000 0 
L 881 0 
L 881 2700 
L 269 2700 
L 269 3500 
z
" transform="scale(0.015625)"/>
      <path id="DejaVuSans-Bold-2f" d="M 1644 4666 
L 2338 4666 
L 691 -594 
L 0 -594 
L 1644 4666 
z
" transform="scale(0.015625)"/>
      <path id="DejaVuSans-Bold-33" d="M 2981 2516 
Q 3453 2394 3698 2092 
Q 3944 1791 3944 1325 
Q 3944 631 3412 270 
Q 2881 -91 1863 -91 
Q 1503 -91 1142 -33 
Q 781 25 428 141 
L 428 1069 
Q 766 900 1098 814 
Q 1431 728 1753 728 
Q 2231 728 2486 893 
Q 2741 1059 2741 1369 
Q 2741 1688 2480 1852 
Q 2219 2016 1709 2016 
L 1228 2016 
L 1228 2791 
L 1734 2791 
Q 2188 2791 2409 2933 
Q 2631 3075 2631 3366 
Q 2631 3634 2415 3781 
Q 2200 3928 1806 3928 
Q 1516 3928 1219 3862 
Q 922 3797 628 3669 
L 628 4550 
Q 984 4650 1334 4700 
Q 1684 4750 2022 4750 
Q 2931 4750 3382 4451 
Q 3834 4153 3834 3553 
Q 3834 3144 3618 2883 
Q 3403 2622 2981 2516 
z
" transform="scale(0.015625)"/>
     </defs>
     <use xlink:href="#DejaVuSans-Bold-53"/>
     <use xlink:href="#DejaVuSans-Bold-74" transform="translate(72.021484 0)"/>
     <use xlink:href="#DejaVuSans-Bold-65" transform="translate(119.824219 0)"/>
     <use xlink:href="#DejaVuSans-Bold-70" transform="translate(187.646484 0)"/>
     <use xlink:href="#DejaVuSans-Bold-20" transform="translate(259.228516 0)"/>
     <use xlink:href="#DejaVuSans-Bold-31" transform="translate(294.042969 0)"/>
     <use xlink:href="#DejaVuSans-Bold-3a" transform="translate(363.623047 0)"/>
     <use xlink:href="#DejaVuSans-Bold-20" transform="translate(403.613281 0)"/>
     <use xlink:href="#DejaVuSans-Bold-53" transform="translate(438.427734 0)"/>
     <use xlink:href="#DejaVuSans-Bold-68" transform="translate(510.449219 0)"/>
     <use xlink:href="#DejaVuSans-Bold-69" transform="translate(581.640625 0)"/>
     <use xlink:href="#DejaVuSans-Bold-66" transform="translate(615.917969 0)"/>
     <use xlink:href="#DejaVuSans-Bold-74" transform="translate(659.423828 0)"/>
     <use xlink:href="#DejaVuSans-Bold-20" transform="translate(707.226562 0)"/>
     <use xlink:href="#DejaVuSans-Bold-72" transform="translate(742.041016 0)"/>
     <use xlink:href="#DejaVuSans-Bold-69" transform="translate(791.357422 0)"/>
     <use xlink:href="#DejaVuSans-Bold-67" transform="translate(825.634766 0)"/>
     <use xlink:href="#DejaVuSans-Bold-68" transform="translate(897.216797 0)"/>
     <use xlink:href="#DejaVuSans-Bold-74" transform="translate(968.408203 0)"/>
     <use xlink:href="#DejaVuSans-Bold-20" transform="translate(1016.210938 0)"/>
     <use xlink:href="#DejaVuSans-Bold-62" transform="translate(1051.025391 0)"/>
     <use xlink:href="#DejaVuSans-Bold-79" transform="translate(1122.607422 0)"/>
     <use xlink:href="#DejaVuSans-Bold-20" transform="translate(1187.792969 0)"/>
     <use xlink:href="#DejaVuSans-Bold-3c0" transform="translate(1222.607422 0)"/>
     <use xlink:href="#DejaVuSans-Bold-2f" transform="translate(1301.708984 0)"/>
     <use xlink:href="#DejaVuSans-Bold-33" transform="translate(1338.232422 0)"/>
    </g>
   </g>
   <g id="legend_1">
    <g id="patch_5">
     <path d="M 255.820625 121.540625 
L 358.142187 121.540625 
Q 359.942187 121.540625 359.942187 119.740625 
L 359.942187 94.22 
Q 359.942187 92.42 358.142187 92.42 
L 255.820625 92.42 
Q 254.020625 92.42 254.020625 94.22 
L 254.020625 119.740625 
Q 254.020625 121.540625 255.820625 121.540625 
z
" style="fill: #ffffff; opacity: 0.9; stroke: #dee2e6; stroke-linejoin: miter"/>
    </g>
    <g id="line2d_34">
     <path d="M 257.620625 99.708594 
L 266.620625 99.708594 
L 275.620625 99.708594 
" style="fill: none; stroke-dasharray: 5.55,2.4; stroke-dashoffset: 0; stroke: #868e96; stroke-opacity: 0.6; stroke-width: 1.5"/>
    </g>
    <g id="text_19">
     <!-- y = cos x -->
     <g transform="translate(282.820625 102.858594) scale(0.09 -0.09)">
      <defs>
       <path id="DejaVuSans-20" transform="scale(0.015625)"/>
       <path id="DejaVuSans-3d" d="M 678 2906 
L 4684 2906 
L 4684 2381 
L 678 2381 
L 678 2906 
z
M 678 1631 
L 4684 1631 
L 4684 1100 
L 678 1100 
L 678 1631 
z
" transform="scale(0.015625)"/>
       <path id="DejaVuSans-63" d="M 3122 3366 
L 3122 2828 
Q 2878 2963 2633 3030 
Q 2388 3097 2138 3097 
Q 1578 3097 1268 2742 
Q 959 2388 959 1747 
Q 959 1106 1268 751 
Q 1578 397 2138 397 
Q 2388 397 2633 464 
Q 2878 531 3122 666 
L 3122 134 
Q 2881 22 2623 -34 
Q 2366 -91 2075 -91 
Q 1284 -91 818 406 
Q 353 903 353 1747 
Q 353 2603 823 3093 
Q 1294 3584 2113 3584 
Q 2378 3584 2631 3529 
Q 2884 3475 3122 3366 
z
" transform="scale(0.015625)"/>
       <path id="DejaVuSans-6f" d="M 1959 3097 
Q 1497 3097 1228 2736 
Q 959 2375 959 1747 
Q 959 1119 1226 758 
Q 1494 397 1959 397 
Q 2419 397 2687 759 
Q 2956 1122 2956 1747 
Q 2956 2369 2687 2733 
Q 2419 3097 1959 3097 
z
M 1959 3584 
Q 2709 3584 3137 3096 
Q 3566 2609 3566 1747 
Q 3566 888 3137 398 
Q 2709 -91 1959 -91 
Q 1206 -91 779 398 
Q 353 888 353 1747 
Q 353 2609 779 3096 
Q 1206 3584 1959 3584 
z
" transform="scale(0.015625)"/>
       <path id="DejaVuSans-73" d="M 2834 3397 
L 2834 2853 
Q 2591 2978 2328 3040 
Q 2066 3103 1784 3103 
Q 1356 3103 1142 2972 
Q 928 2841 928 2578 
Q 928 2378 1081 2264 
Q 1234 2150 1697 2047 
L 1894 2003 
Q 2506 1872 2764 1633 
Q 3022 1394 3022 966 
Q 3022 478 2636 193 
Q 2250 -91 1575 -91 
Q 1294 -91 989 -36 
Q 684 19 347 128 
L 347 722 
Q 666 556 975 473 
Q 1284 391 1588 391 
Q 1994 391 2212 530 
Q 2431 669 2431 922 
Q 2431 1156 2273 1281 
Q 2116 1406 1581 1522 
L 1381 1569 
Q 847 1681 609 1914 
Q 372 2147 372 2553 
Q 372 3047 722 3315 
Q 1072 3584 1716 3584 
Q 2034 3584 2315 3537 
Q 2597 3491 2834 3397 
z
" transform="scale(0.015625)"/>
      </defs>
      <use xlink:href="#DejaVuSans-79"/>
      <use xlink:href="#DejaVuSans-20" transform="translate(59.179688 0)"/>
      <use xlink:href="#DejaVuSans-3d" transform="translate(90.966797 0)"/>
      <use xlink:href="#DejaVuSans-20" transform="translate(174.755859 0)"/>
      <use xlink:href="#DejaVuSans-63" transform="translate(206.542969 0)"/>
      <use xlink:href="#DejaVuSans-6f" transform="translate(261.523438 0)"/>
      <use xlink:href="#DejaVuSans-73" transform="translate(322.705078 0)"/>
      <use xlink:href="#DejaVuSans-20" transform="translate(374.804688 0)"/>
      <use xlink:href="#DejaVuSans-78" transform="translate(406.591797 0)"/>
     </g>
    </g>
    <g id="line2d_35">
     <path d="M 257.620625 112.918906 
L 266.620625 112.918906 
L 275.620625 112.918906 
" style="fill: none; stroke: #339af0; stroke-width: 2.5; stroke-linecap: square"/>
    </g>
    <g id="text_20">
     <!-- y = cos(x − π/3) -->
     <g transform="translate(282.820625 116.068906) scale(0.09 -0.09)">
      <defs>
       <path id="DejaVuSans-28" d="M 1984 4856 
Q 1566 4138 1362 3434 
Q 1159 2731 1159 2009 
Q 1159 1288 1364 580 
Q 1569 -128 1984 -844 
L 1484 -844 
Q 1016 -109 783 600 
Q 550 1309 550 2009 
Q 550 2706 781 3412 
Q 1013 4119 1484 4856 
L 1984 4856 
z
" transform="scale(0.015625)"/>
       <path id="DejaVuSans-3c0" d="M 231 3500 
L 3584 3500 
L 3584 2925 
L 3144 2925 
L 3144 775 
Q 3144 550 3220 451 
Q 3297 353 3469 353 
Q 3516 353 3584 361 
Q 3653 369 3675 372 
L 3675 -44 
Q 3566 -84 3450 -103 
Q 3334 -122 3219 -122 
Q 2844 -122 2700 83 
Q 2556 288 2556 838 
L 2556 2925 
L 1266 2925 
L 1266 0 
L 678 0 
L 678 2925 
L 231 2925 
L 231 3500 
z
" transform="scale(0.015625)"/>
       <path id="DejaVuSans-2f" d="M 1625 4666 
L 2156 4666 
L 531 -594 
L 0 -594 
L 1625 4666 
z
" transform="scale(0.015625)"/>
       <path id="DejaVuSans-29" d="M 513 4856 
L 1013 4856 
Q 1481 4119 1714 3412 
Q 1947 2706 1947 2009 
Q 1947 1309 1714 600 
Q 1481 -109 1013 -844 
L 513 -844 
Q 928 -128 1133 580 
Q 1338 1288 1338 2009 
Q 1338 2731 1133 3434 
Q 928 4138 513 4856 
z
" transform="scale(0.015625)"/>
      </defs>
      <use xlink:href="#DejaVuSans-79"/>
      <use xlink:href="#DejaVuSans-20" transform="translate(59.179688 0)"/>
      <use xlink:href="#DejaVuSans-3d" transform="translate(90.966797 0)"/>
      <use xlink:href="#DejaVuSans-20" transform="translate(174.755859 0)"/>
      <use xlink:href="#DejaVuSans-63" transform="translate(206.542969 0)"/>
      <use xlink:href="#DejaVuSans-6f" transform="translate(261.523438 0)"/>
      <use xlink:href="#DejaVuSans-73" transform="translate(322.705078 0)"/>
      <use xlink:href="#DejaVuSans-28" transform="translate(374.804688 0)"/>
      <use xlink:href="#DejaVuSans-78" transform="translate(413.818359 0)"/>
      <use xlink:href="#DejaVuSans-20" transform="translate(472.998047 0)"/>
      <use xlink:href="#DejaVuSans-2212" transform="translate(504.785156 0)"/>
      <use xlink:href="#DejaVuSans-20" transform="translate(588.574219 0)"/>
      <use xlink:href="#DejaVuSans-3c0" transform="translate(620.361328 0)"/>
      <use xlink:href="#DejaVuSans-2f" transform="translate(680.566406 0)"/>
      <use xlink:href="#DejaVuSans-33" transform="translate(714.257812 0)"/>
      <use xlink:href="#DejaVuSans-29" transform="translate(777.880859 0)"/>
     </g>
    </g>
   </g>
  </g>
  <g id="axes_2">
   <g id="patch_6">
    <path d="M 418.552187 340.84 
L 720.122187 340.84 
L 720.122187 87.92 
L 418.552187 87.92 
z
" style="fill: #ffffff"/>
   </g>
   <g id="matplotlib.axis_3">
    <g id="xtick_8">
     <g id="line2d_36">
      <path d="M 432.259915 340.84 
L 432.259915 87.92 
" clip-path="url(#p367aa3a60e)" style="fill: none; stroke: #dee2e6; stroke-opacity: 0.7; stroke-width: 0.5; stroke-linecap: square"/>
     </g>
     <g id="line2d_37">
      <g>
       <use xlink:href="#mb66596a13d" x="432.259915" y="340.84" style="stroke: #000000; stroke-width: 0.8"/>
      </g>
     </g>
     <g id="text_21">
      <!-- 0 -->
      <g transform="translate(428.442415 356.958125) scale(0.12 -0.12)">
       <use xlink:href="#DejaVuSans-30"/>
      </g>
     </g>
    </g>
    <g id="xtick_9">
     <g id="line2d_38">
      <path d="M 475.892966 340.84 
L 475.892966 87.92 
" clip-path="url(#p367aa3a60e)" style="fill: none; stroke: #dee2e6; stroke-opacity: 0.7; stroke-width: 0.5; stroke-linecap: square"/>
     </g>
     <g id="line2d_39">
      <g>
       <use xlink:href="#mb66596a13d" x="475.892966" y="340.84" style="stroke: #000000; stroke-width: 0.8"/>
      </g>
     </g>
     <g id="text_22">
      <!-- 1 -->
      <g transform="translate(472.075466 356.958125) scale(0.12 -0.12)">
       <use xlink:href="#DejaVuSans-31"/>
      </g>
     </g>
    </g>
    <g id="xtick_10">
     <g id="line2d_40">
      <path d="M 519.526017 340.84 
L 519.526017 87.92 
" clip-path="url(#p367aa3a60e)" style="fill: none; stroke: #dee2e6; stroke-opacity: 0.7; stroke-width: 0.5; stroke-linecap: square"/>
     </g>
     <g id="line2d_41">
      <g>
       <use xlink:href="#mb66596a13d" x="519.526017" y="340.84" style="stroke: #000000; stroke-width: 0.8"/>
      </g>
     </g>
     <g id="text_23">
      <!-- 2 -->
      <g transform="translate(515.708517 356.958125) scale(0.12 -0.12)">
       <use xlink:href="#DejaVuSans-32"/>
      </g>
     </g>
    </g>
    <g id="xtick_11">
     <g id="line2d_42">
      <path d="M 563.159068 340.84 
L 563.159068 87.92 
" clip-path="url(#p367aa3a60e)" style="fill: none; stroke: #dee2e6; stroke-opacity: 0.7; stroke-width: 0.5; stroke-linecap: square"/>
     </g>
     <g id="line2d_43">
      <g>
       <use xlink:href="#mb66596a13d" x="563.159068" y="340.84" style="stroke: #000000; stroke-width: 0.8"/>
      </g>
     </g>
     <g id="text_24">
      <!-- 3 -->
      <g transform="translate(559.341568 356.958125) scale(0.12 -0.12)">
       <use xlink:href="#DejaVuSans-33"/>
      </g>
     </g>
    </g>
    <g id="xtick_12">
     <g id="line2d_44">
      <path d="M 606.792119 340.84 
L 606.792119 87.92 
" clip-path="url(#p367aa3a60e)" style="fill: none; stroke: #dee2e6; stroke-opacity: 0.7; stroke-width: 0.5; stroke-linecap: square"/>
     </g>
     <g id="line2d_45">
      <g>
       <use xlink:href="#mb66596a13d" x="606.792119" y="340.84" style="stroke: #000000; stroke-width: 0.8"/>
      </g>
     </g>
     <g id="text_25">
      <!-- 4 -->
      <g transform="translate(602.974619 356.958125) scale(0.12 -0.12)">
       <use xlink:href="#DejaVuSans-34"/>
      </g>
     </g>
    </g>
    <g id="xtick_13">
     <g id="line2d_46">
      <path d="M 650.42517 340.84 
L 650.42517 87.92 
" clip-path="url(#p367aa3a60e)" style="fill: none; stroke: #dee2e6; stroke-opacity: 0.7; stroke-width: 0.5; stroke-linecap: square"/>
     </g>
     <g id="line2d_47">
      <g>
       <use xlink:href="#mb66596a13d" x="650.42517" y="340.84" style="stroke: #000000; stroke-width: 0.8"/>
      </g>
     </g>
     <g id="text_26">
      <!-- 5 -->
      <g transform="translate(646.60767 356.958125) scale(0.12 -0.12)">
       <use xlink:href="#DejaVuSans-35"/>
      </g>
     </g>
    </g>
    <g id="xtick_14">
     <g id="line2d_48">
      <path d="M 694.058221 340.84 
L 694.058221 87.92 
" clip-path="url(#p367aa3a60e)" style="fill: none; stroke: #dee2e6; stroke-opacity: 0.7; stroke-width: 0.5; stroke-linecap: square"/>
     </g>
     <g id="line2d_49">
      <g>
       <use xlink:href="#mb66596a13d" x="694.058221" y="340.84" style="stroke: #000000; stroke-width: 0.8"/>
      </g>
     </g>
     <g id="text_27">
      <!-- 6 -->
      <g transform="translate(690.240721 356.958125) scale(0.12 -0.12)">
       <use xlink:href="#DejaVuSans-36"/>
      </g>
     </g>
    </g>
    <g id="text_28">
     <!-- x -->
     <g transform="translate(565.49 373.331719) scale(0.13 -0.13)">
      <use xlink:href="#DejaVuSans-78"/>
     </g>
    </g>
   </g>
   <g id="matplotlib.axis_4">
    <g id="ytick_9">
     <g id="line2d_50">
      <path d="M 418.552187 325.0325 
L 720.122187 325.0325 
" clip-path="url(#p367aa3a60e)" style="fill: none; stroke: #dee2e6; stroke-opacity: 0.7; stroke-width: 0.5; stroke-linecap: square"/>
     </g>
     <g id="line2d_51">
      <g>
       <use xlink:href="#m7b8529dec4" x="418.552187" y="325.0325" style="stroke: #000000; stroke-width: 0.8"/>
      </g>
     </g>
     <g id="text_29">
      <!-- −3 -->
      <g transform="translate(393.861562 329.591562) scale(0.12 -0.12)">
       <use xlink:href="#DejaVuSans-2212"/>
       <use xlink:href="#DejaVuSans-33" transform="translate(83.789062 0)"/>
      </g>
     </g>
    </g>
    <g id="ytick_10">
     <g id="line2d_52">
      <path d="M 418.552187 293.4175 
L 720.122187 293.4175 
" clip-path="url(#p367aa3a60e)" style="fill: none; stroke: #dee2e6; stroke-opacity: 0.7; stroke-width: 0.5; stroke-linecap: square"/>
     </g>
     <g id="line2d_53">
      <g>
       <use xlink:href="#m7b8529dec4" x="418.552187" y="293.4175" style="stroke: #000000; stroke-width: 0.8"/>
      </g>
     </g>
     <g id="text_30">
      <!-- −2 -->
      <g transform="translate(393.861562 297.976562) scale(0.12 -0.12)">
       <use xlink:href="#DejaVuSans-2212"/>
       <use xlink:href="#DejaVuSans-32" transform="translate(83.789062 0)"/>
      </g>
     </g>
    </g>
    <g id="ytick_11">
     <g id="line2d_54">
      <path d="M 418.552187 261.8025 
L 720.122187 261.8025 
" clip-path="url(#p367aa3a60e)" style="fill: none; stroke: #dee2e6; stroke-opacity: 0.7; stroke-width: 0.5; stroke-linecap: square"/>
     </g>
     <g id="line2d_55">
      <g>
       <use xlink:href="#m7b8529dec4" x="418.552187" y="261.8025" style="stroke: #000000; stroke-width: 0.8"/>
      </g>
     </g>
     <g id="text_31">
      <!-- −1 -->
      <g transform="translate(393.861562 266.361562) scale(0.12 -0.12)">
       <use xlink:href="#DejaVuSans-2212"/>
       <use xlink:href="#DejaVuSans-31" transform="translate(83.789062 0)"/>
      </g>
     </g>
    </g>
    <g id="ytick_12">
     <g id="line2d_56">
      <path d="M 418.552187 230.1875 
L 720.122187 230.1875 
" clip-path="url(#p367aa3a60e)" style="fill: none; stroke: #dee2e6; stroke-opacity: 0.7; stroke-width: 0.5; stroke-linecap: square"/>
     </g>
     <g id="line2d_57">
      <g>
       <use xlink:href="#m7b8529dec4" x="418.552187" y="230.1875" style="stroke: #000000; stroke-width: 0.8"/>
      </g>
     </g>
     <g id="text_32">
      <!-- 0 -->
      <g transform="translate(403.917187 234.746562) scale(0.12 -0.12)">
       <use xlink:href="#DejaVuSans-30"/>
      </g>
     </g>
    </g>
    <g id="ytick_13">
     <g id="line2d_58">
      <path d="M 418.552187 198.5725 
L 720.122187 198.5725 
" clip-path="url(#p367aa3a60e)" style="fill: none; stroke: #dee2e6; stroke-opacity: 0.7; stroke-width: 0.5; stroke-linecap: square"/>
     </g>
     <g id="line2d_59">
      <g>
       <use xlink:href="#m7b8529dec4" x="418.552187" y="198.5725" style="stroke: #000000; stroke-width: 0.8"/>
      </g>
     </g>
     <g id="text_33">
      <!-- 1 -->
      <g transform="translate(403.917187 203.131562) scale(0.12 -0.12)">
       <use xlink:href="#DejaVuSans-31"/>
      </g>
     </g>
    </g>
    <g id="ytick_14">
     <g id="line2d_60">
      <path d="M 418.552187 166.9575 
L 720.122187 166.9575 
" clip-path="url(#p367aa3a60e)" style="fill: none; stroke: #dee2e6; stroke-opacity: 0.7; stroke-width: 0.5; stroke-linecap: square"/>
     </g>
     <g id="line2d_61">
      <g>
       <use xlink:href="#m7b8529dec4" x="418.552187" y="166.9575" style="stroke: #000000; stroke-width: 0.8"/>
      </g>
     </g>
     <g id="text_34">
      <!-- 2 -->
      <g transform="translate(403.917187 171.516562) scale(0.12 -0.12)">
       <use xlink:href="#DejaVuSans-32"/>
      </g>
     </g>
    </g>
    <g id="ytick_15">
     <g id="line2d_62">
      <path d="M 418.552187 135.3425 
L 720.122187 135.3425 
" clip-path="url(#p367aa3a60e)" style="fill: none; stroke: #dee2e6; stroke-opacity: 0.7; stroke-width: 0.5; stroke-linecap: square"/>
     </g>
     <g id="line2d_63">
      <g>
       <use xlink:href="#m7b8529dec4" x="418.552187" y="135.3425" style="stroke: #000000; stroke-width: 0.8"/>
      </g>
     </g>
     <g id="text_35">
      <!-- 3 -->
      <g transform="translate(403.917187 139.901562) scale(0.12 -0.12)">
       <use xlink:href="#DejaVuSans-33"/>
      </g>
     </g>
    </g>
    <g id="ytick_16">
     <g id="line2d_64">
      <path d="M 418.552187 103.7275 
L 720.122187 103.7275 
" clip-path="url(#p367aa3a60e)" style="fill: none; stroke: #dee2e6; stroke-opacity: 0.7; stroke-width: 0.5; stroke-linecap: square"/>
     </g>
     <g id="line2d_65">
      <g>
       <use xlink:href="#m7b8529dec4" x="418.552187" y="103.7275" style="stroke: #000000; stroke-width: 0.8"/>
      </g>
     </g>
     <g id="text_36">
      <!-- 4 -->
      <g transform="translate(403.917187 108.286562) scale(0.12 -0.12)">
       <use xlink:href="#DejaVuSans-34"/>
      </g>
     </g>
    </g>
    <g id="text_37">
     <!-- y -->
     <g transform="translate(387.157969 218.227187) rotate(-90) scale(0.13 -0.13)">
      <use xlink:href="#DejaVuSans-79"/>
     </g>
    </g>
   </g>
   <g id="line2d_66">
    <path d="M 432.259915 198.5725 
L 436.10577 198.695226 
L 439.951625 199.062451 
L 443.797481 199.671325 
L 447.643336 200.517119 
L 451.489192 201.593269 
L 455.335047 202.891417 
L 459.73031 204.633847 
L 464.125573 206.635351 
L 468.520837 208.875637 
L 473.465508 211.653011 
L 478.959587 215.016196 
L 485.003074 218.990984 
L 492.694785 224.349489 
L 519.066364 243.040418 
L 525.109851 246.905248 
L 530.60393 250.142702 
L 535.548601 252.78762 
L 539.943864 254.896236 
L 544.339128 256.754343 
L 548.184983 258.159817 
L 552.030838 259.348119 
L 555.876694 260.310025 
L 559.722549 261.038066 
L 563.568404 261.52659 
L 567.41426 261.771804 
L 571.260115 261.771804 
L 575.105971 261.52659 
L 578.951826 261.038066 
L 582.797681 260.310025 
L 586.643537 259.348119 
L 590.489392 258.159817 
L 594.335247 256.754343 
L 598.730511 254.896236 
L 603.125774 252.78762 
L 608.070445 250.142702 
L 613.015116 247.241787 
L 618.509195 243.763665 
L 625.10209 239.311266 
L 633.892617 233.069587 
L 652.023077 220.11555 
L 658.615972 215.719435 
L 664.110051 212.303812 
L 669.054723 209.470406 
L 673.999394 206.902771 
L 678.394657 204.870258 
L 682.78992 203.094423 
L 686.635776 201.765343 
L 690.481631 200.656927 
L 694.327486 199.777781 
L 698.173342 199.134729 
L 702.019197 198.732763 
L 705.865052 198.575006 
L 706.41446 198.5725 
L 706.41446 198.5725 
" clip-path="url(#p367aa3a60e)" style="fill: none; stroke-dasharray: 5.55,2.4; stroke-dashoffset: 0; stroke: #868e96; stroke-opacity: 0.6; stroke-width: 1.5"/>
   </g>
   <g id="line2d_67">
    <path d="M 432.259915 214.38 
L 437.753994 211.066758 
L 442.698665 208.342295 
L 447.093928 206.154808 
L 451.489192 204.210974 
L 455.884455 202.530503 
L 459.73031 201.289592 
L 463.576165 200.273038 
L 467.422021 199.488733 
L 471.267876 198.942767 
L 475.113731 198.639379 
L 478.959587 198.580923 
L 482.805442 198.767854 
L 486.651298 199.198721 
L 490.497153 199.870178 
L 494.343008 200.777012 
L 498.188864 201.912182 
L 502.034719 203.266876 
L 506.429982 205.070336 
L 510.825245 207.128444 
L 515.220509 209.420335 
L 520.16518 212.24914 
L 525.659259 215.660475 
L 531.702746 219.676422 
L 539.394457 225.068247 
L 563.568404 242.247716 
L 569.611891 246.16706 
L 575.105971 249.466374 
L 580.050642 252.176154 
L 584.445905 254.349038 
L 588.841168 256.276961 
L 593.236431 257.940378 
L 597.082287 259.165563 
L 600.928142 260.165769 
L 604.773997 260.933229 
L 608.619853 261.461987 
L 612.465708 261.747935 
L 616.311564 261.788856 
L 620.157419 261.58443 
L 624.003274 261.136245 
L 627.84913 260.447781 
L 631.694985 259.524383 
L 635.54084 258.373219 
L 639.386696 257.003227 
L 643.781959 255.183289 
L 648.177222 253.109932 
L 652.572485 250.804178 
L 657.517157 247.961607 
L 663.011236 244.537454 
L 669.054723 240.510653 
L 676.746433 235.110239 
L 700.370973 218.311512 
L 706.41446 214.38 
L 706.41446 214.38 
" clip-path="url(#p367aa3a60e)" style="fill: none; stroke-dasharray: 1.5,2.475; stroke-dashoffset: 0; stroke: #339af0; stroke-opacity: 0.5; stroke-width: 1.5"/>
   </g>
   <g id="line2d_68">
    <path d="M 418.552187 230.1875 
L 720.122187 230.1875 
" clip-path="url(#p367aa3a60e)" style="fill: none; stroke: #dee2e6; stroke-width: 0.5; stroke-linecap: square"/>
   </g>
   <g id="patch_7">
    <path d="M 418.552187 340.84 
L 418.552187 87.92 
" style="fill: none; stroke: #868e96; stroke-width: 0.8; stroke-linejoin: miter; stroke-linecap: square"/>
   </g>
   <g id="patch_8">
    <path d="M 418.552187 340.84 
L 720.122187 340.84 
" style="fill: none; stroke: #868e96; stroke-width: 0.8; stroke-linejoin: miter; stroke-linecap: square"/>
   </g>
   <g id="line2d_69">
    <path d="M 432.259915 198.5725 
L 436.655178 193.226102 
L 440.501033 188.853637 
L 444.346889 184.80208 
L 448.192744 181.102886 
L 451.489192 178.234449 
L 454.785639 175.662403 
L 458.082086 173.401422 
L 460.829126 171.764252 
L 463.576165 170.358576 
L 466.323205 169.189964 
L 469.070245 168.263047 
L 471.817284 167.581498 
L 474.564324 167.148017 
L 477.311363 166.964322 
L 480.058403 167.031141 
L 482.805442 167.348209 
L 485.552482 167.914269 
L 488.299521 168.727079 
L 491.046561 169.783418 
L 493.7936 171.079101 
L 496.54064 172.608993 
L 499.287679 174.367032 
L 502.584127 176.767964 
L 505.880574 179.473653 
L 509.177022 182.468664 
L 512.473469 185.735911 
L 516.319325 189.866825 
L 520.16518 194.31078 
L 524.560443 199.728541 
L 529.505114 206.189781 
L 535.548601 214.496257 
L 543.240312 225.48122 
L 558.623733 247.543757 
L 564.66722 255.772045 
L 569.611891 262.14662 
L 574.007155 267.471149 
L 577.85301 271.821789 
L 581.698865 275.84919 
L 585.544721 279.522082 
L 588.841168 282.366422 
L 592.137616 284.913083 
L 595.434063 287.147534 
L 598.181103 288.761832 
L 600.928142 290.144037 
L 603.675182 291.288672 
L 606.422221 292.191201 
L 609.169261 292.848049 
L 611.9163 293.256612 
L 614.66334 293.415272 
L 617.410379 293.3234 
L 620.157419 292.98136 
L 622.904458 292.390508 
L 625.651498 291.553184 
L 628.398537 290.472707 
L 631.145577 289.153357 
L 633.892617 287.600362 
L 636.639656 285.819876 
L 639.936104 283.393001 
L 643.232551 280.662588 
L 646.528998 277.644216 
L 650.374854 273.781893 
L 654.220709 269.581112 
L 658.615972 264.40773 
L 663.011236 258.887408 
L 667.955907 252.332148 
L 673.999394 243.94314 
L 682.78992 231.315339 
L 694.876894 213.982644 
L 700.920381 205.699569 
L 705.865052 199.264486 
L 706.41446 198.5725 
L 706.41446 198.5725 
" clip-path="url(#p367aa3a60e)" style="fill: none; stroke: #e8590c; stroke-width: 2.5; stroke-linecap: square"/>
   </g>
   <g id="text_38">
    <!-- Step 2: Vertical stretch ×2 -->
    <g transform="translate(479.560312 79.92) scale(0.12 -0.12)">
     <defs>
      <path id="DejaVuSans-Bold-32" d="M 1844 884 
L 3897 884 
L 3897 0 
L 506 0 
L 506 884 
L 2209 2388 
Q 2438 2594 2547 2791 
Q 2656 2988 2656 3200 
Q 2656 3528 2436 3728 
Q 2216 3928 1850 3928 
Q 1569 3928 1234 3808 
Q 900 3688 519 3450 
L 519 4475 
Q 925 4609 1322 4679 
Q 1719 4750 2100 4750 
Q 2938 4750 3402 4381 
Q 3866 4013 3866 3353 
Q 3866 2972 3669 2642 
Q 3472 2313 2841 1759 
L 1844 884 
z
" transform="scale(0.015625)"/>
      <path id="DejaVuSans-Bold-56" d="M 31 4666 
L 1241 4666 
L 2478 1222 
L 3713 4666 
L 4922 4666 
L 3194 0 
L 1759 0 
L 31 4666 
z
" transform="scale(0.015625)"/>
      <path id="DejaVuSans-Bold-63" d="M 3366 3391 
L 3366 2478 
Q 3138 2634 2908 2709 
Q 2678 2784 2431 2784 
Q 1963 2784 1702 2511 
Q 1441 2238 1441 1747 
Q 1441 1256 1702 982 
Q 1963 709 2431 709 
Q 2694 709 2930 787 
Q 3166 866 3366 1019 
L 3366 103 
Q 3103 6 2833 -42 
Q 2563 -91 2291 -91 
Q 1344 -91 809 395 
Q 275 881 275 1747 
Q 275 2613 809 3098 
Q 1344 3584 2291 3584 
Q 2566 3584 2833 3536 
Q 3100 3488 3366 3391 
z
" transform="scale(0.015625)"/>
      <path id="DejaVuSans-Bold-61" d="M 2106 1575 
Q 1756 1575 1579 1456 
Q 1403 1338 1403 1106 
Q 1403 894 1545 773 
Q 1688 653 1941 653 
Q 2256 653 2472 879 
Q 2688 1106 2688 1447 
L 2688 1575 
L 2106 1575 
z
M 3816 1997 
L 3816 0 
L 2688 0 
L 2688 519 
Q 2463 200 2181 54 
Q 1900 -91 1497 -91 
Q 953 -91 614 226 
Q 275 544 275 1050 
Q 275 1666 698 1953 
Q 1122 2241 2028 2241 
L 2688 2241 
L 2688 2328 
Q 2688 2594 2478 2717 
Q 2269 2841 1825 2841 
Q 1466 2841 1156 2769 
Q 847 2697 581 2553 
L 581 3406 
Q 941 3494 1303 3539 
Q 1666 3584 2028 3584 
Q 2975 3584 3395 3211 
Q 3816 2838 3816 1997 
z
" transform="scale(0.015625)"/>
      <path id="DejaVuSans-Bold-6c" d="M 538 4863 
L 1656 4863 
L 1656 0 
L 538 0 
L 538 4863 
z
" transform="scale(0.015625)"/>
      <path id="DejaVuSans-Bold-73" d="M 3272 3391 
L 3272 2541 
Q 2913 2691 2578 2766 
Q 2244 2841 1947 2841 
Q 1628 2841 1473 2761 
Q 1319 2681 1319 2516 
Q 1319 2381 1436 2309 
Q 1553 2238 1856 2203 
L 2053 2175 
Q 2913 2066 3209 1816 
Q 3506 1566 3506 1031 
Q 3506 472 3093 190 
Q 2681 -91 1863 -91 
Q 1516 -91 1145 -36 
Q 775 19 384 128 
L 384 978 
Q 719 816 1070 734 
Q 1422 653 1784 653 
Q 2113 653 2278 743 
Q 2444 834 2444 1013 
Q 2444 1163 2330 1236 
Q 2216 1309 1875 1350 
L 1678 1375 
Q 931 1469 631 1722 
Q 331 1975 331 2491 
Q 331 3047 712 3315 
Q 1094 3584 1881 3584 
Q 2191 3584 2531 3537 
Q 2872 3491 3272 3391 
z
" transform="scale(0.015625)"/>
      <path id="DejaVuSans-Bold-d7" d="M 4563 3359 
L 3206 2003 
L 4563 653 
L 4038 128 
L 2681 1478 
L 1325 128 
L 800 653 
L 2156 2003 
L 800 3359 
L 1325 3884 
L 2681 2528 
L 4038 3884 
L 4563 3359 
z
" transform="scale(0.015625)"/>
     </defs>
     <use xlink:href="#DejaVuSans-Bold-53"/>
     <use xlink:href="#DejaVuSans-Bold-74" transform="translate(72.021484 0)"/>
     <use xlink:href="#DejaVuSans-Bold-65" transform="translate(119.824219 0)"/>
     <use xlink:href="#DejaVuSans-Bold-70" transform="translate(187.646484 0)"/>
     <use xlink:href="#DejaVuSans-Bold-20" transform="translate(259.228516 0)"/>
     <use xlink:href="#DejaVuSans-Bold-32" transform="translate(294.042969 0)"/>
     <use xlink:href="#DejaVuSans-Bold-3a" transform="translate(363.623047 0)"/>
     <use xlink:href="#DejaVuSans-Bold-20" transform="translate(403.613281 0)"/>
     <use xlink:href="#DejaVuSans-Bold-56" transform="translate(438.427734 0)"/>
     <use xlink:href="#DejaVuSans-Bold-65" transform="translate(510.320312 0)"/>
     <use xlink:href="#DejaVuSans-Bold-72" transform="translate(578.142578 0)"/>
     <use xlink:href="#DejaVuSans-Bold-74" transform="translate(627.458984 0)"/>
     <use xlink:href="#DejaVuSans-Bold-69" transform="translate(675.261719 0)"/>
     <use xlink:href="#DejaVuSans-Bold-63" transform="translate(709.539062 0)"/>
     <use xlink:href="#DejaVuSans-Bold-61" transform="translate(768.816406 0)"/>
     <use xlink:href="#DejaVuSans-Bold-6c" transform="translate(836.296875 0)"/>
     <use xlink:href="#DejaVuSans-Bold-20" transform="translate(870.574219 0)"/>
     <use xlink:href="#DejaVuSans-Bold-73" transform="translate(905.388672 0)"/>
     <use xlink:href="#DejaVuSans-Bold-74" transform="translate(964.910156 0)"/>
     <use xlink:href="#DejaVuSans-Bold-72" transform="translate(1012.712891 0)"/>
     <use xlink:href="#DejaVuSans-Bold-65" transform="translate(1062.029297 0)"/>
     <use xlink:href="#DejaVuSans-Bold-74" transform="translate(1129.851562 0)"/>
     <use xlink:href="#DejaVuSans-Bold-63" transform="translate(1177.654297 0)"/>
     <use xlink:href="#DejaVuSans-Bold-68" transform="translate(1236.931641 0)"/>
     <use xlink:href="#DejaVuSans-Bold-20" transform="translate(1308.123047 0)"/>
     <use xlink:href="#DejaVuSans-Bold-d7" transform="translate(1342.9375 0)"/>
     <use xlink:href="#DejaVuSans-Bold-32" transform="translate(1426.726562 0)"/>
    </g>
   </g>
   <g id="legend_2">
    <g id="patch_9">
     <path d="M 605.774375 134.750937 
L 713.822187 134.750937 
Q 715.622187 134.750937 715.622187 132.950937 
L 715.622187 94.22 
Q 715.622187 92.42 713.822187 92.42 
L 605.774375 92.42 
Q 603.974375 92.42 603.974375 94.22 
L 603.974375 132.950937 
Q 603.974375 134.750937 605.774375 134.750937 
z
" style="fill: #ffffff; opacity: 0.9; stroke: #dee2e6; stroke-linejoin: miter"/>
    </g>
    <g id="line2d_70">
     <path d="M 607.574375 99.708594 
L 616.574375 99.708594 
L 625.574375 99.708594 
" style="fill: none; stroke-dasharray: 5.55,2.4; stroke-dashoffset: 0; stroke: #868e96; stroke-opacity: 0.6; stroke-width: 1.5"/>
    </g>
    <g id="text_39">
     <!-- y = cos x -->
     <g transform="translate(632.774375 102.858594) scale(0.09 -0.09)">
      <use xlink:href="#DejaVuSans-79"/>
      <use xlink:href="#DejaVuSans-20" transform="translate(59.179688 0)"/>
      <use xlink:href="#DejaVuSans-3d" transform="translate(90.966797 0)"/>
      <use xlink:href="#DejaVuSans-20" transform="translate(174.755859 0)"/>
      <use xlink:href="#DejaVuSans-63" transform="translate(206.542969 0)"/>
      <use xlink:href="#DejaVuSans-6f" transform="translate(261.523438 0)"/>
      <use xlink:href="#DejaVuSans-73" transform="translate(322.705078 0)"/>
      <use xlink:href="#DejaVuSans-20" transform="translate(374.804688 0)"/>
      <use xlink:href="#DejaVuSans-78" transform="translate(406.591797 0)"/>
     </g>
    </g>
    <g id="line2d_71">
     <path d="M 607.574375 112.918906 
L 616.574375 112.918906 
L 625.574375 112.918906 
" style="fill: none; stroke-dasharray: 1.5,2.475; stroke-dashoffset: 0; stroke: #339af0; stroke-opacity: 0.5; stroke-width: 1.5"/>
    </g>
    <g id="text_40">
     <!-- y = cos(x − π/3) -->
     <g transform="translate(632.774375 116.068906) scale(0.09 -0.09)">
      <use xlink:href="#DejaVuSans-79"/>
      <use xlink:href="#DejaVuSans-20" transform="translate(59.179688 0)"/>
      <use xlink:href="#DejaVuSans-3d" transform="translate(90.966797 0)"/>
      <use xlink:href="#DejaVuSans-20" transform="translate(174.755859 0)"/>
      <use xlink:href="#DejaVuSans-63" transform="translate(206.542969 0)"/>
      <use xlink:href="#DejaVuSans-6f" transform="translate(261.523438 0)"/>
      <use xlink:href="#DejaVuSans-73" transform="translate(322.705078 0)"/>
      <use xlink:href="#DejaVuSans-28" transform="translate(374.804688 0)"/>
      <use xlink:href="#DejaVuSans-78" transform="translate(413.818359 0)"/>
      <use xlink:href="#DejaVuSans-20" transform="translate(472.998047 0)"/>
      <use xlink:href="#DejaVuSans-2212" transform="translate(504.785156 0)"/>
      <use xlink:href="#DejaVuSans-20" transform="translate(588.574219 0)"/>
      <use xlink:href="#DejaVuSans-3c0" transform="translate(620.361328 0)"/>
      <use xlink:href="#DejaVuSans-2f" transform="translate(680.566406 0)"/>
      <use xlink:href="#DejaVuSans-33" transform="translate(714.257812 0)"/>
      <use xlink:href="#DejaVuSans-29" transform="translate(777.880859 0)"/>
     </g>
    </g>
    <g id="line2d_72">
     <path d="M 607.574375 126.129219 
L 616.574375 126.129219 
L 625.574375 126.129219 
" style="fill: none; stroke: #e8590c; stroke-width: 2.5; stroke-linecap: square"/>
    </g>
    <g id="text_41">
     <!-- y = 2cos(x − π/3) -->
     <g transform="translate(632.774375 129.279219) scale(0.09 -0.09)">
      <use xlink:href="#DejaVuSans-79"/>
      <use xlink:href="#DejaVuSans-20" transform="translate(59.179688 0)"/>
      <use xlink:href="#DejaVuSans-3d" transform="translate(90.966797 0)"/>
      <use xlink:href="#DejaVuSans-20" transform="translate(174.755859 0)"/>
      <use xlink:href="#DejaVuSans-32" transform="translate(206.542969 0)"/>
      <use xlink:href="#DejaVuSans-63" transform="translate(270.166016 0)"/>
      <use xlink:href="#DejaVuSans-6f" transform="translate(325.146484 0)"/>
      <use xlink:href="#DejaVuSans-73" transform="translate(386.328125 0)"/>
      <use xlink:href="#DejaVuSans-28" transform="translate(438.427734 0)"/>
      <use xlink:href="#DejaVuSans-78" transform="translate(477.441406 0)"/>
      <use xlink:href="#DejaVuSans-20" transform="translate(536.621094 0)"/>
      <use xlink:href="#DejaVuSans-2212" transform="translate(568.408203 0)"/>
      <use xlink:href="#DejaVuSans-20" transform="translate(652.197266 0)"/>
      <use xlink:href="#DejaVuSans-3c0" transform="translate(683.984375 0)"/>
      <use xlink:href="#DejaVuSans-2f" transform="translate(744.189453 0)"/>
      <use xlink:href="#DejaVuSans-33" transform="translate(777.880859 0)"/>
      <use xlink:href="#DejaVuSans-29" transform="translate(841.503906 0)"/>
     </g>
    </g>
   </g>
  </g>
  <g id="axes_3">
   <g id="patch_10">
    <path d="M 774.232187 340.84 
L 1075.802187 340.84 
L 1075.802187 87.92 
L 774.232187 87.92 
z
" style="fill: #ffffff"/>
   </g>
   <g id="matplotlib.axis_5">
    <g id="xtick_15">
     <g id="line2d_73">
      <path d="M 787.939915 340.84 
L 787.939915 87.92 
" clip-path="url(#pb6ccba2b0c)" style="fill: none; stroke: #dee2e6; stroke-opacity: 0.7; stroke-width: 0.5; stroke-linecap: square"/>
     </g>
     <g id="line2d_74">
      <g>
       <use xlink:href="#mb66596a13d" x="787.939915" y="340.84" style="stroke: #000000; stroke-width: 0.8"/>
      </g>
     </g>
     <g id="text_42">
      <!-- 0 -->
      <g transform="translate(784.122415 356.958125) scale(0.12 -0.12)">
       <use xlink:href="#DejaVuSans-30"/>
      </g>
     </g>
    </g>
    <g id="xtick_16">
     <g id="line2d_75">
      <path d="M 831.572966 340.84 
L 831.572966 87.92 
" clip-path="url(#pb6ccba2b0c)" style="fill: none; stroke: #dee2e6; stroke-opacity: 0.7; stroke-width: 0.5; stroke-linecap: square"/>
     </g>
     <g id="line2d_76">
      <g>
       <use xlink:href="#mb66596a13d" x="831.572966" y="340.84" style="stroke: #000000; stroke-width: 0.8"/>
      </g>
     </g>
     <g id="text_43">
      <!-- 1 -->
      <g transform="translate(827.755466 356.958125) scale(0.12 -0.12)">
       <use xlink:href="#DejaVuSans-31"/>
      </g>
     </g>
    </g>
    <g id="xtick_17">
     <g id="line2d_77">
      <path d="M 875.206017 340.84 
L 875.206017 87.92 
" clip-path="url(#pb6ccba2b0c)" style="fill: none; stroke: #dee2e6; stroke-opacity: 0.7; stroke-width: 0.5; stroke-linecap: square"/>
     </g>
     <g id="line2d_78">
      <g>
       <use xlink:href="#mb66596a13d" x="875.206017" y="340.84" style="stroke: #000000; stroke-width: 0.8"/>
      </g>
     </g>
     <g id="text_44">
      <!-- 2 -->
      <g transform="translate(871.388517 356.958125) scale(0.12 -0.12)">
       <use xlink:href="#DejaVuSans-32"/>
      </g>
     </g>
    </g>
    <g id="xtick_18">
     <g id="line2d_79">
      <path d="M 918.839068 340.84 
L 918.839068 87.92 
" clip-path="url(#pb6ccba2b0c)" style="fill: none; stroke: #dee2e6; stroke-opacity: 0.7; stroke-width: 0.5; stroke-linecap: square"/>
     </g>
     <g id="line2d_80">
      <g>
       <use xlink:href="#mb66596a13d" x="918.839068" y="340.84" style="stroke: #000000; stroke-width: 0.8"/>
      </g>
     </g>
     <g id="text_45">
      <!-- 3 -->
      <g transform="translate(915.021568 356.958125) scale(0.12 -0.12)">
       <use xlink:href="#DejaVuSans-33"/>
      </g>
     </g>
    </g>
    <g id="xtick_19">
     <g id="line2d_81">
      <path d="M 962.472119 340.84 
L 962.472119 87.92 
" clip-path="url(#pb6ccba2b0c)" style="fill: none; stroke: #dee2e6; stroke-opacity: 0.7; stroke-width: 0.5; stroke-linecap: square"/>
     </g>
     <g id="line2d_82">
      <g>
       <use xlink:href="#mb66596a13d" x="962.472119" y="340.84" style="stroke: #000000; stroke-width: 0.8"/>
      </g>
     </g>
     <g id="text_46">
      <!-- 4 -->
      <g transform="translate(958.654619 356.958125) scale(0.12 -0.12)">
       <use xlink:href="#DejaVuSans-34"/>
      </g>
     </g>
    </g>
    <g id="xtick_20">
     <g id="line2d_83">
      <path d="M 1006.10517 340.84 
L 1006.10517 87.92 
" clip-path="url(#pb6ccba2b0c)" style="fill: none; stroke: #dee2e6; stroke-opacity: 0.7; stroke-width: 0.5; stroke-linecap: square"/>
     </g>
     <g id="line2d_84">
      <g>
       <use xlink:href="#mb66596a13d" x="1006.10517" y="340.84" style="stroke: #000000; stroke-width: 0.8"/>
      </g>
     </g>
     <g id="text_47">
      <!-- 5 -->
      <g transform="translate(1002.28767 356.958125) scale(0.12 -0.12)">
       <use xlink:href="#DejaVuSans-35"/>
      </g>
     </g>
    </g>
    <g id="xtick_21">
     <g id="line2d_85">
      <path d="M 1049.738221 340.84 
L 1049.738221 87.92 
" clip-path="url(#pb6ccba2b0c)" style="fill: none; stroke: #dee2e6; stroke-opacity: 0.7; stroke-width: 0.5; stroke-linecap: square"/>
     </g>
     <g id="line2d_86">
      <g>
       <use xlink:href="#mb66596a13d" x="1049.738221" y="340.84" style="stroke: #000000; stroke-width: 0.8"/>
      </g>
     </g>
     <g id="text_48">
      <!-- 6 -->
      <g transform="translate(1045.920721 356.958125) scale(0.12 -0.12)">
       <use xlink:href="#DejaVuSans-36"/>
      </g>
     </g>
    </g>
    <g id="text_49">
     <!-- x -->
     <g transform="translate(921.17 373.331719) scale(0.13 -0.13)">
      <use xlink:href="#DejaVuSans-78"/>
     </g>
    </g>
   </g>
   <g id="matplotlib.axis_6">
    <g id="ytick_17">
     <g id="line2d_87">
      <path d="M 774.232187 325.0325 
L 1075.802187 325.0325 
" clip-path="url(#pb6ccba2b0c)" style="fill: none; stroke: #dee2e6; stroke-opacity: 0.7; stroke-width: 0.5; stroke-linecap: square"/>
     </g>
     <g id="line2d_88">
      <g>
       <use xlink:href="#m7b8529dec4" x="774.232187" y="325.0325" style="stroke: #000000; stroke-width: 0.8"/>
      </g>
     </g>
     <g id="text_50">
      <!-- −3 -->
      <g transform="translate(749.541562 329.591562) scale(0.12 -0.12)">
       <use xlink:href="#DejaVuSans-2212"/>
       <use xlink:href="#DejaVuSans-33" transform="translate(83.789062 0)"/>
      </g>
     </g>
    </g>
    <g id="ytick_18">
     <g id="line2d_89">
      <path d="M 774.232187 293.4175 
L 1075.802187 293.4175 
" clip-path="url(#pb6ccba2b0c)" style="fill: none; stroke: #dee2e6; stroke-opacity: 0.7; stroke-width: 0.5; stroke-linecap: square"/>
     </g>
     <g id="line2d_90">
      <g>
       <use xlink:href="#m7b8529dec4" x="774.232187" y="293.4175" style="stroke: #000000; stroke-width: 0.8"/>
      </g>
     </g>
     <g id="text_51">
      <!-- −2 -->
      <g transform="translate(749.541562 297.976562) scale(0.12 -0.12)">
       <use xlink:href="#DejaVuSans-2212"/>
       <use xlink:href="#DejaVuSans-32" transform="translate(83.789062 0)"/>
      </g>
     </g>
    </g>
    <g id="ytick_19">
     <g id="line2d_91">
      <path d="M 774.232187 261.8025 
L 1075.802187 261.8025 
" clip-path="url(#pb6ccba2b0c)" style="fill: none; stroke: #dee2e6; stroke-opacity: 0.7; stroke-width: 0.5; stroke-linecap: square"/>
     </g>
     <g id="line2d_92">
      <g>
       <use xlink:href="#m7b8529dec4" x="774.232187" y="261.8025" style="stroke: #000000; stroke-width: 0.8"/>
      </g>
     </g>
     <g id="text_52">
      <!-- −1 -->
      <g transform="translate(749.541562 266.361562) scale(0.12 -0.12)">
       <use xlink:href="#DejaVuSans-2212"/>
       <use xlink:href="#DejaVuSans-31" transform="translate(83.789062 0)"/>
      </g>
     </g>
    </g>
    <g id="ytick_20">
     <g id="line2d_93">
      <path d="M 774.232187 230.1875 
L 1075.802187 230.1875 
" clip-path="url(#pb6ccba2b0c)" style="fill: none; stroke: #dee2e6; stroke-opacity: 0.7; stroke-width: 0.5; stroke-linecap: square"/>
     </g>
     <g id="line2d_94">
      <g>
       <use xlink:href="#m7b8529dec4" x="774.232187" y="230.1875" style="stroke: #000000; stroke-width: 0.8"/>
      </g>
     </g>
     <g id="text_53">
      <!-- 0 -->
      <g transform="translate(759.597187 234.746562) scale(0.12 -0.12)">
       <use xlink:href="#DejaVuSans-30"/>
      </g>
     </g>
    </g>
    <g id="ytick_21">
     <g id="line2d_95">
      <path d="M 774.232187 198.5725 
L 1075.802187 198.5725 
" clip-path="url(#pb6ccba2b0c)" style="fill: none; stroke: #dee2e6; stroke-opacity: 0.7; stroke-width: 0.5; stroke-linecap: square"/>
     </g>
     <g id="line2d_96">
      <g>
       <use xlink:href="#m7b8529dec4" x="774.232187" y="198.5725" style="stroke: #000000; stroke-width: 0.8"/>
      </g>
     </g>
     <g id="text_54">
      <!-- 1 -->
      <g transform="translate(759.597187 203.131562) scale(0.12 -0.12)">
       <use xlink:href="#DejaVuSans-31"/>
      </g>
     </g>
    </g>
    <g id="ytick_22">
     <g id="line2d_97">
      <path d="M 774.232187 166.9575 
L 1075.802187 166.9575 
" clip-path="url(#pb6ccba2b0c)" style="fill: none; stroke: #dee2e6; stroke-opacity: 0.7; stroke-width: 0.5; stroke-linecap: square"/>
     </g>
     <g id="line2d_98">
      <g>
       <use xlink:href="#m7b8529dec4" x="774.232187" y="166.9575" style="stroke: #000000; stroke-width: 0.8"/>
      </g>
     </g>
     <g id="text_55">
      <!-- 2 -->
      <g transform="translate(759.597187 171.516562) scale(0.12 -0.12)">
       <use xlink:href="#DejaVuSans-32"/>
      </g>
     </g>
    </g>
    <g id="ytick_23">
     <g id="line2d_99">
      <path d="M 774.232187 135.3425 
L 1075.802187 135.3425 
" clip-path="url(#pb6ccba2b0c)" style="fill: none; stroke: #dee2e6; stroke-opacity: 0.7; stroke-width: 0.5; stroke-linecap: square"/>
     </g>
     <g id="line2d_100">
      <g>
       <use xlink:href="#m7b8529dec4" x="774.232187" y="135.3425" style="stroke: #000000; stroke-width: 0.8"/>
      </g>
     </g>
     <g id="text_56">
      <!-- 3 -->
      <g transform="translate(759.597187 139.901562) scale(0.12 -0.12)">
       <use xlink:href="#DejaVuSans-33"/>
      </g>
     </g>
    </g>
    <g id="ytick_24">
     <g id="line2d_101">
      <path d="M 774.232187 103.7275 
L 1075.802187 103.7275 
" clip-path="url(#pb6ccba2b0c)" style="fill: none; stroke: #dee2e6; stroke-opacity: 0.7; stroke-width: 0.5; stroke-linecap: square"/>
     </g>
     <g id="line2d_102">
      <g>
       <use xlink:href="#m7b8529dec4" x="774.232187" y="103.7275" style="stroke: #000000; stroke-width: 0.8"/>
      </g>
     </g>
     <g id="text_57">
      <!-- 4 -->
      <g transform="translate(759.597187 108.286562) scale(0.12 -0.12)">
       <use xlink:href="#DejaVuSans-34"/>
      </g>
     </g>
    </g>
    <g id="text_58">
     <!-- y -->
     <g transform="translate(742.837969 218.227187) rotate(-90) scale(0.13 -0.13)">
      <use xlink:href="#DejaVuSans-79"/>
     </g>
    </g>
   </g>
   <g id="line2d_103">
    <path d="M 787.939915 198.5725 
L 791.78577 198.695226 
L 795.631625 199.062451 
L 799.477481 199.671325 
L 803.323336 200.517119 
L 807.169192 201.593269 
L 811.015047 202.891417 
L 815.41031 204.633847 
L 819.805573 206.635351 
L 824.200837 208.875637 
L 829.145508 211.653011 
L 834.639587 215.016196 
L 840.683074 218.990984 
L 848.374785 224.349489 
L 874.746364 243.040418 
L 880.789851 246.905248 
L 886.28393 250.142702 
L 891.228601 252.78762 
L 895.623864 254.896236 
L 900.019128 256.754343 
L 903.864983 258.159817 
L 907.710838 259.348119 
L 911.556694 260.310025 
L 915.402549 261.038066 
L 919.248404 261.52659 
L 923.09426 261.771804 
L 926.940115 261.771804 
L 930.785971 261.52659 
L 934.631826 261.038066 
L 938.477681 260.310025 
L 942.323537 259.348119 
L 946.169392 258.159817 
L 950.015247 256.754343 
L 954.410511 254.896236 
L 958.805774 252.78762 
L 963.750445 250.142702 
L 968.695116 247.241787 
L 974.189195 243.763665 
L 980.78209 239.311266 
L 989.572617 233.069587 
L 1007.703077 220.11555 
L 1014.295972 215.719435 
L 1019.790051 212.303812 
L 1024.734723 209.470406 
L 1029.679394 206.902771 
L 1034.074657 204.870258 
L 1038.46992 203.094423 
L 1042.315776 201.765343 
L 1046.161631 200.656927 
L 1050.007486 199.777781 
L 1053.853342 199.134729 
L 1057.699197 198.732763 
L 1061.545052 198.575006 
L 1062.09446 198.5725 
L 1062.09446 198.5725 
" clip-path="url(#pb6ccba2b0c)" style="fill: none; stroke-dasharray: 5.55,2.4; stroke-dashoffset: 0; stroke: #868e96; stroke-opacity: 0.6; stroke-width: 1.5"/>
   </g>
   <g id="line2d_104">
    <path d="M 787.939915 198.5725 
L 792.335178 193.226102 
L 796.181033 188.853637 
L 800.026889 184.80208 
L 803.872744 181.102886 
L 807.169192 178.234449 
L 810.465639 175.662403 
L 813.762086 173.401422 
L 816.509126 171.764252 
L 819.256165 170.358576 
L 822.003205 169.189964 
L 824.750245 168.263047 
L 827.497284 167.581498 
L 830.244324 167.148017 
L 832.991363 166.964322 
L 835.738403 167.031141 
L 838.485442 167.348209 
L 841.232482 167.914269 
L 843.979521 168.727079 
L 846.726561 169.783418 
L 849.4736 171.079101 
L 852.22064 172.608993 
L 854.967679 174.367032 
L 858.264127 176.767964 
L 861.560574 179.473653 
L 864.857022 182.468664 
L 868.153469 185.735911 
L 871.999325 189.866825 
L 875.84518 194.31078 
L 880.240443 199.728541 
L 885.185114 206.189781 
L 891.228601 214.496257 
L 898.920312 225.48122 
L 914.303733 247.543757 
L 920.34722 255.772045 
L 925.291891 262.14662 
L 929.687155 267.471149 
L 933.53301 271.821789 
L 937.378865 275.84919 
L 941.224721 279.522082 
L 944.521168 282.366422 
L 947.817616 284.913083 
L 951.114063 287.147534 
L 953.861103 288.761832 
L 956.608142 290.144037 
L 959.355182 291.288672 
L 962.102221 292.191201 
L 964.849261 292.848049 
L 967.5963 293.256612 
L 970.34334 293.415272 
L 973.090379 293.3234 
L 975.837419 292.98136 
L 978.584458 292.390508 
L 981.331498 291.553184 
L 984.078537 290.472707 
L 986.825577 289.153357 
L 989.572617 287.600362 
L 992.319656 285.819876 
L 995.616104 283.393001 
L 998.912551 280.662588 
L 1002.208998 277.644216 
L 1006.054854 273.781893 
L 1009.900709 269.581112 
L 1014.295972 264.40773 
L 1018.691236 258.887408 
L 1023.635907 252.332148 
L 1029.679394 243.94314 
L 1038.46992 231.315339 
L 1050.556894 213.982644 
L 1056.600381 205.699569 
L 1061.545052 199.264486 
L 1062.09446 198.5725 
L 1062.09446 198.5725 
" clip-path="url(#pb6ccba2b0c)" style="fill: none; stroke-dasharray: 1.5,2.475; stroke-dashoffset: 0; stroke: #e8590c; stroke-opacity: 0.5; stroke-width: 1.5"/>
   </g>
   <g id="line2d_105">
    <path d="M 774.232187 230.1875 
L 1075.802187 230.1875 
" clip-path="url(#pb6ccba2b0c)" style="fill: none; stroke: #dee2e6; stroke-width: 0.5; stroke-linecap: square"/>
   </g>
   <g id="patch_11">
    <path d="M 774.232187 340.84 
L 774.232187 87.92 
" style="fill: none; stroke: #868e96; stroke-width: 0.8; stroke-linejoin: miter; stroke-linecap: square"/>
   </g>
   <g id="patch_12">
    <path d="M 774.232187 340.84 
L 1075.802187 340.84 
" style="fill: none; stroke: #868e96; stroke-width: 0.8; stroke-linejoin: miter; stroke-linecap: square"/>
   </g>
   <g id="line2d_106">
    <path d="M 787.939915 166.9575 
L 792.335178 161.611102 
L 796.181033 157.238637 
L 800.026889 153.18708 
L 803.872744 149.487886 
L 807.169192 146.619449 
L 810.465639 144.047403 
L 813.762086 141.786422 
L 816.509126 140.149252 
L 819.256165 138.743576 
L 822.003205 137.574964 
L 824.750245 136.648047 
L 827.497284 135.966498 
L 830.244324 135.533017 
L 832.991363 135.349322 
L 835.738403 135.416141 
L 838.485442 135.733209 
L 841.232482 136.299269 
L 843.979521 137.112079 
L 846.726561 138.168418 
L 849.4736 139.464101 
L 852.22064 140.993993 
L 854.967679 142.752032 
L 858.264127 145.152964 
L 861.560574 147.858653 
L 864.857022 150.853664 
L 868.153469 154.120911 
L 871.999325 158.251825 
L 875.84518 162.69578 
L 880.240443 168.113541 
L 885.185114 174.574781 
L 891.228601 182.881257 
L 898.920312 193.86622 
L 914.303733 215.928757 
L 920.34722 224.157045 
L 925.291891 230.53162 
L 929.687155 235.856149 
L 933.53301 240.206789 
L 937.378865 244.23419 
L 941.224721 247.907082 
L 944.521168 250.751422 
L 947.817616 253.298083 
L 951.114063 255.532534 
L 953.861103 257.146832 
L 956.608142 258.529037 
L 959.355182 259.673672 
L 962.102221 260.576201 
L 964.849261 261.233049 
L 967.5963 261.641612 
L 970.34334 261.800272 
L 973.090379 261.7084 
L 975.837419 261.36636 
L 978.584458 260.775508 
L 981.331498 259.938184 
L 984.078537 258.857707 
L 986.825577 257.538357 
L 989.572617 255.985362 
L 992.319656 254.204876 
L 995.616104 251.778001 
L 998.912551 249.047588 
L 1002.208998 246.029216 
L 1006.054854 242.166893 
L 1009.900709 237.966112 
L 1014.295972 232.79273 
L 1018.691236 227.272408 
L 1023.635907 220.717148 
L 1029.679394 212.32814 
L 1038.46992 199.700339 
L 1050.556894 182.367644 
L 1056.600381 174.084569 
L 1061.545052 167.649486 
L 1062.09446 166.9575 
L 1062.09446 166.9575 
" clip-path="url(#pb6ccba2b0c)" style="fill: none; stroke: #2f9e44; stroke-width: 2.5; stroke-linecap: square"/>
   </g>
   <g id="text_59">
    <!-- Step 3: Shift up by 1 -->
    <g transform="translate(855.373125 79.92) scale(0.12 -0.12)">
     <defs>
      <path id="DejaVuSans-Bold-75" d="M 500 1363 
L 500 3500 
L 1625 3500 
L 1625 3150 
Q 1625 2866 1622 2436 
Q 1619 2006 1619 1863 
Q 1619 1441 1641 1255 
Q 1663 1069 1716 984 
Q 1784 875 1895 815 
Q 2006 756 2150 756 
Q 2500 756 2700 1025 
Q 2900 1294 2900 1772 
L 2900 3500 
L 4019 3500 
L 4019 0 
L 2900 0 
L 2900 506 
Q 2647 200 2364 54 
Q 2081 -91 1741 -91 
Q 1134 -91 817 281 
Q 500 653 500 1363 
z
" transform="scale(0.015625)"/>
     </defs>
     <use xlink:href="#DejaVuSans-Bold-53"/>
     <use xlink:href="#DejaVuSans-Bold-74" transform="translate(72.021484 0)"/>
     <use xlink:href="#DejaVuSans-Bold-65" transform="translate(119.824219 0)"/>
     <use xlink:href="#DejaVuSans-Bold-70" transform="translate(187.646484 0)"/>
     <use xlink:href="#DejaVuSans-Bold-20" transform="translate(259.228516 0)"/>
     <use xlink:href="#DejaVuSans-Bold-33" transform="translate(294.042969 0)"/>
     <use xlink:href="#DejaVuSans-Bold-3a" transform="translate(363.623047 0)"/>
     <use xlink:href="#DejaVuSans-Bold-20" transform="translate(403.613281 0)"/>
     <use xlink:href="#DejaVuSans-Bold-53" transform="translate(438.427734 0)"/>
     <use xlink:href="#DejaVuSans-Bold-68" transform="translate(510.449219 0)"/>
     <use xlink:href="#DejaVuSans-Bold-69" transform="translate(581.640625 0)"/>
     <use xlink:href="#DejaVuSans-Bold-66" transform="translate(615.917969 0)"/>
     <use xlink:href="#DejaVuSans-Bold-74" transform="translate(659.423828 0)"/>
     <use xlink:href="#DejaVuSans-Bold-20" transform="translate(707.226562 0)"/>
     <use xlink:href="#DejaVuSans-Bold-75" transform="translate(742.041016 0)"/>
     <use xlink:href="#DejaVuSans-Bold-70" transform="translate(813.232422 0)"/>
     <use xlink:href="#DejaVuSans-Bold-20" transform="translate(884.814453 0)"/>
     <use xlink:href="#DejaVuSans-Bold-62" transform="translate(919.628906 0)"/>
     <use xlink:href="#DejaVuSans-Bold-79" transform="translate(991.210938 0)"/>
     <use xlink:href="#DejaVuSans-Bold-20" transform="translate(1056.396484 0)"/>
     <use xlink:href="#DejaVuSans-Bold-31" transform="translate(1091.210938 0)"/>
    </g>
   </g>
   <g id="legend_3">
    <g id="patch_13">
     <path d="M 942.465781 134.750937 
L 1069.502187 134.750937 
Q 1071.302187 134.750937 1071.302187 132.950937 
L 1071.302187 94.22 
Q 1071.302187 92.42 1069.502187 92.42 
L 942.465781 92.42 
Q 940.665781 92.42 940.665781 94.22 
L 940.665781 132.950937 
Q 940.665781 134.750937 942.465781 134.750937 
z
" style="fill: #ffffff; opacity: 0.9; stroke: #dee2e6; stroke-linejoin: miter"/>
    </g>
    <g id="line2d_107">
     <path d="M 944.265781 99.708594 
L 953.265781 99.708594 
L 962.265781 99.708594 
" style="fill: none; stroke-dasharray: 5.55,2.4; stroke-dashoffset: 0; stroke: #868e96; stroke-opacity: 0.6; stroke-width: 1.5"/>
    </g>
    <g id="text_60">
     <!-- y = cos x -->
     <g transform="translate(969.465781 102.858594) scale(0.09 -0.09)">
      <use xlink:href="#DejaVuSans-79"/>
      <use xlink:href="#DejaVuSans-20" transform="translate(59.179688 0)"/>
      <use xlink:href="#DejaVuSans-3d" transform="translate(90.966797 0)"/>
      <use xlink:href="#DejaVuSans-20" transform="translate(174.755859 0)"/>
      <use xlink:href="#DejaVuSans-63" transform="translate(206.542969 0)"/>
      <use xlink:href="#DejaVuSans-6f" transform="translate(261.523438 0)"/>
      <use xlink:href="#DejaVuSans-73" transform="translate(322.705078 0)"/>
      <use xlink:href="#DejaVuSans-20" transform="translate(374.804688 0)"/>
      <use xlink:href="#DejaVuSans-78" transform="translate(406.591797 0)"/>
     </g>
    </g>
    <g id="line2d_108">
     <path d="M 944.265781 112.918906 
L 953.265781 112.918906 
L 962.265781 112.918906 
" style="fill: none; stroke-dasharray: 1.5,2.475; stroke-dashoffset: 0; stroke: #e8590c; stroke-opacity: 0.5; stroke-width: 1.5"/>
    </g>
    <g id="text_61">
     <!-- y = 2cos(x − π/3) -->
     <g transform="translate(969.465781 116.068906) scale(0.09 -0.09)">
      <use xlink:href="#DejaVuSans-79"/>
      <use xlink:href="#DejaVuSans-20" transform="translate(59.179688 0)"/>
      <use xlink:href="#DejaVuSans-3d" transform="translate(90.966797 0)"/>
      <use xlink:href="#DejaVuSans-20" transform="translate(174.755859 0)"/>
      <use xlink:href="#DejaVuSans-32" transform="translate(206.542969 0)"/>
      <use xlink:href="#DejaVuSans-63" transform="translate(270.166016 0)"/>
      <use xlink:href="#DejaVuSans-6f" transform="translate(325.146484 0)"/>
      <use xlink:href="#DejaVuSans-73" transform="translate(386.328125 0)"/>
      <use xlink:href="#DejaVuSans-28" transform="translate(438.427734 0)"/>
      <use xlink:href="#DejaVuSans-78" transform="translate(477.441406 0)"/>
      <use xlink:href="#DejaVuSans-20" transform="translate(536.621094 0)"/>
      <use xlink:href="#DejaVuSans-2212" transform="translate(568.408203 0)"/>
      <use xlink:href="#DejaVuSans-20" transform="translate(652.197266 0)"/>
      <use xlink:href="#DejaVuSans-3c0" transform="translate(683.984375 0)"/>
      <use xlink:href="#DejaVuSans-2f" transform="translate(744.189453 0)"/>
      <use xlink:href="#DejaVuSans-33" transform="translate(777.880859 0)"/>
      <use xlink:href="#DejaVuSans-29" transform="translate(841.503906 0)"/>
     </g>
    </g>
    <g id="line2d_109">
     <path d="M 944.265781 126.129219 
L 953.265781 126.129219 
L 962.265781 126.129219 
" style="fill: none; stroke: #2f9e44; stroke-width: 2.5; stroke-linecap: square"/>
    </g>
    <g id="text_62">
     <!-- y = 2cos(x − π/3) + 1 -->
     <g transform="translate(969.465781 129.279219) scale(0.09 -0.09)">
      <defs>
       <path id="DejaVuSans-2b" d="M 2944 4013 
L 2944 2272 
L 4684 2272 
L 4684 1741 
L 2944 1741 
L 2944 0 
L 2419 0 
L 2419 1741 
L 678 1741 
L 678 2272 
L 2419 2272 
L 2419 4013 
L 2944 4013 
z
" transform="scale(0.015625)"/>
      </defs>
      <use xlink:href="#DejaVuSans-79"/>
      <use xlink:href="#DejaVuSans-20" transform="translate(59.179688 0)"/>
      <use xlink:href="#DejaVuSans-3d" transform="translate(90.966797 0)"/>
      <use xlink:href="#DejaVuSans-20" transform="translate(174.755859 0)"/>
      <use xlink:href="#DejaVuSans-32" transform="translate(206.542969 0)"/>
      <use xlink:href="#DejaVuSans-63" transform="translate(270.166016 0)"/>
      <use xlink:href="#DejaVuSans-6f" transform="translate(325.146484 0)"/>
      <use xlink:href="#DejaVuSans-73" transform="translate(386.328125 0)"/>
      <use xlink:href="#DejaVuSans-28" transform="translate(438.427734 0)"/>
      <use xlink:href="#DejaVuSans-78" transform="translate(477.441406 0)"/>
      <use xlink:href="#DejaVuSans-20" transform="translate(536.621094 0)"/>
      <use xlink:href="#DejaVuSans-2212" transform="translate(568.408203 0)"/>
      <use xlink:href="#DejaVuSans-20" transform="translate(652.197266 0)"/>
      <use xlink:href="#DejaVuSans-3c0" transform="translate(683.984375 0)"/>
      <use xlink:href="#DejaVuSans-2f" transform="translate(744.189453 0)"/>
      <use xlink:href="#DejaVuSans-33" transform="translate(777.880859 0)"/>
      <use xlink:href="#DejaVuSans-29" transform="translate(841.503906 0)"/>
      <use xlink:href="#DejaVuSans-20" transform="translate(880.517578 0)"/>
      <use xlink:href="#DejaVuSans-2b" transform="translate(912.304688 0)"/>
      <use xlink:href="#DejaVuSans-20" transform="translate(996.09375 0)"/>
      <use xlink:href="#DejaVuSans-31" transform="translate(1027.880859 0)"/>
     </g>
    </g>
   </g>
  </g>
  <g id="text_63">
   <!-- Building y = 2cos(x − π/3) + 1 from y = cos x -->
   <g transform="translate(346.089687 33.7575) scale(0.16 -0.16)">
    <defs>
     <path id="DejaVuSans-Bold-42" d="M 2456 2859 
Q 2741 2859 2887 2984 
Q 3034 3109 3034 3353 
Q 3034 3594 2887 3720 
Q 2741 3847 2456 3847 
L 1791 3847 
L 1791 2859 
L 2456 2859 
z
M 2497 819 
Q 2859 819 3042 972 
Q 3225 1125 3225 1434 
Q 3225 1738 3044 1889 
Q 2863 2041 2497 2041 
L 1791 2041 
L 1791 819 
L 2497 819 
z
M 3616 2497 
Q 4003 2384 4215 2081 
Q 4428 1778 4428 1338 
Q 4428 663 3972 331 
Q 3516 0 2584 0 
L 588 0 
L 588 4666 
L 2394 4666 
Q 3366 4666 3802 4372 
Q 4238 4078 4238 3431 
Q 4238 3091 4078 2852 
Q 3919 2613 3616 2497 
z
" transform="scale(0.015625)"/>
     <path id="DejaVuSans-Bold-64" d="M 2919 2988 
L 2919 4863 
L 4044 4863 
L 4044 0 
L 2919 0 
L 2919 506 
Q 2688 197 2409 53 
Q 2131 -91 1766 -91 
Q 1119 -91 703 423 
Q 288 938 288 1747 
Q 288 2556 703 3070 
Q 1119 3584 1766 3584 
Q 2128 3584 2408 3439 
Q 2688 3294 2919 2988 
z
M 2181 722 
Q 2541 722 2730 984 
Q 2919 1247 2919 1747 
Q 2919 2247 2730 2509 
Q 2541 2772 2181 2772 
Q 1825 2772 1636 2509 
Q 1447 2247 1447 1747 
Q 1447 1247 1636 984 
Q 1825 722 2181 722 
z
" transform="scale(0.015625)"/>
     <path id="DejaVuSans-Bold-6e" d="M 4056 2131 
L 4056 0 
L 2931 0 
L 2931 347 
L 2931 1631 
Q 2931 2084 2911 2256 
Q 2891 2428 2841 2509 
Q 2775 2619 2662 2680 
Q 2550 2741 2406 2741 
Q 2056 2741 1856 2470 
Q 1656 2200 1656 1722 
L 1656 0 
L 538 0 
L 538 3500 
L 1656 3500 
L 1656 2988 
Q 1909 3294 2193 3439 
Q 2478 3584 2822 3584 
Q 3428 3584 3742 3212 
Q 4056 2841 4056 2131 
z
" transform="scale(0.015625)"/>
     <path id="DejaVuSans-Bold-3d" d="M 678 3084 
L 4684 3084 
L 4684 2350 
L 678 2350 
L 678 3084 
z
M 678 1663 
L 4684 1663 
L 4684 922 
L 678 922 
L 678 1663 
z
" transform="scale(0.015625)"/>
     <path id="DejaVuSans-Bold-6f" d="M 2203 2784 
Q 1831 2784 1636 2517 
Q 1441 2250 1441 1747 
Q 1441 1244 1636 976 
Q 1831 709 2203 709 
Q 2569 709 2762 976 
Q 2956 1244 2956 1747 
Q 2956 2250 2762 2517 
Q 2569 2784 2203 2784 
z
M 2203 3584 
Q 3106 3584 3614 3096 
Q 4122 2609 4122 1747 
Q 4122 884 3614 396 
Q 3106 -91 2203 -91 
Q 1297 -91 786 396 
Q 275 884 275 1747 
Q 275 2609 786 3096 
Q 1297 3584 2203 3584 
z
" transform="scale(0.015625)"/>
     <path id="DejaVuSans-Bold-28" d="M 2413 -844 
L 1484 -844 
Q 1006 -72 778 623 
Q 550 1319 550 2003 
Q 550 2688 779 3389 
Q 1009 4091 1484 4856 
L 2413 4856 
Q 2013 4116 1813 3408 
Q 1613 2700 1613 2009 
Q 1613 1319 1811 609 
Q 2009 -100 2413 -844 
z
" transform="scale(0.015625)"/>
     <path id="DejaVuSans-Bold-78" d="M 1422 1791 
L 159 3500 
L 1344 3500 
L 2059 2463 
L 2784 3500 
L 3969 3500 
L 2706 1797 
L 4031 0 
L 2847 0 
L 2059 1106 
L 1281 0 
L 97 0 
L 1422 1791 
z
" transform="scale(0.015625)"/>
     <path id="DejaVuSans-Bold-2212" d="M 678 2375 
L 4684 2375 
L 4684 1638 
L 678 1638 
L 678 2375 
z
" transform="scale(0.015625)"/>
     <path id="DejaVuSans-Bold-29" d="M 513 -844 
Q 913 -100 1113 609 
Q 1313 1319 1313 2009 
Q 1313 2700 1113 3408 
Q 913 4116 513 4856 
L 1441 4856 
Q 1916 4091 2145 3389 
Q 2375 2688 2375 2003 
Q 2375 1319 2147 623 
Q 1919 -72 1441 -844 
L 513 -844 
z
" transform="scale(0.015625)"/>
     <path id="DejaVuSans-Bold-2b" d="M 3053 4013 
L 3053 2375 
L 4684 2375 
L 4684 1638 
L 3053 1638 
L 3053 0 
L 2309 0 
L 2309 1638 
L 678 1638 
L 678 2375 
L 2309 2375 
L 2309 4013 
L 3053 4013 
z
" transform="scale(0.015625)"/>
     <path id="DejaVuSans-Bold-6d" d="M 3781 2919 
Q 3994 3244 4286 3414 
Q 4578 3584 4928 3584 
Q 5531 3584 5847 3212 
Q 6163 2841 6163 2131 
L 6163 0 
L 5038 0 
L 5038 1825 
Q 5041 1866 5042 1909 
Q 5044 1953 5044 2034 
Q 5044 2406 4934 2573 
Q 4825 2741 4581 2741 
Q 4263 2741 4089 2478 
Q 3916 2216 3909 1719 
L 3909 0 
L 2784 0 
L 2784 1825 
Q 2784 2406 2684 2573 
Q 2584 2741 2328 2741 
Q 2006 2741 1831 2477 
Q 1656 2213 1656 1722 
L 1656 0 
L 531 0 
L 531 3500 
L 1656 3500 
L 1656 2988 
Q 1863 3284 2130 3434 
Q 2397 3584 2719 3584 
Q 3081 3584 3359 3409 
Q 3638 3234 3781 2919 
z
" transform="scale(0.015625)"/>
    </defs>
    <use xlink:href="#DejaVuSans-Bold-42"/>
    <use xlink:href="#DejaVuSans-Bold-75" transform="translate(76.220703 0)"/>
    <use xlink:href="#DejaVuSans-Bold-69" transform="translate(147.412109 0)"/>
    <use xlink:href="#DejaVuSans-Bold-6c" transform="translate(181.689453 0)"/>
    <use xlink:href="#DejaVuSans-Bold-64" transform="translate(215.966797 0)"/>
    <use xlink:href="#DejaVuSans-Bold-69" transform="translate(287.548828 0)"/>
    <use xlink:href="#DejaVuSans-Bold-6e" transform="translate(321.826172 0)"/>
    <use xlink:href="#DejaVuSans-Bold-67" transform="translate(393.017578 0)"/>
    <use xlink:href="#DejaVuSans-Bold-20" transform="translate(464.599609 0)"/>
    <use xlink:href="#DejaVuSans-Bold-79" transform="translate(499.414062 0)"/>
    <use xlink:href="#DejaVuSans-Bold-20" transform="translate(564.599609 0)"/>
    <use xlink:href="#DejaVuSans-Bold-3d" transform="translate(599.414062 0)"/>
    <use xlink:href="#DejaVuSans-Bold-20" transform="translate(683.203125 0)"/>
    <use xlink:href="#DejaVuSans-Bold-32" transform="translate(718.017578 0)"/>
    <use xlink:href="#DejaVuSans-Bold-63" transform="translate(787.597656 0)"/>
    <use xlink:href="#DejaVuSans-Bold-6f" transform="translate(846.875 0)"/>
    <use xlink:href="#DejaVuSans-Bold-73" transform="translate(915.576172 0)"/>
    <use xlink:href="#DejaVuSans-Bold-28" transform="translate(975.097656 0)"/>
    <use xlink:href="#DejaVuSans-Bold-78" transform="translate(1020.800781 0)"/>
    <use xlink:href="#DejaVuSans-Bold-20" transform="translate(1085.302734 0)"/>
    <use xlink:href="#DejaVuSans-Bold-2212" transform="translate(1120.117188 0)"/>
    <use xlink:href="#DejaVuSans-Bold-20" transform="translate(1203.90625 0)"/>
    <use xlink:href="#DejaVuSans-Bold-3c0" transform="translate(1238.720703 0)"/>
    <use xlink:href="#DejaVuSans-Bold-2f" transform="translate(1317.822266 0)"/>
    <use xlink:href="#DejaVuSans-Bold-33" transform="translate(1354.345703 0)"/>
    <use xlink:href="#DejaVuSans-Bold-29" transform="translate(1423.925781 0)"/>
    <use xlink:href="#DejaVuSans-Bold-20" transform="translate(1469.628906 0)"/>
    <use xlink:href="#DejaVuSans-Bold-2b" transform="translate(1504.443359 0)"/>
    <use xlink:href="#DejaVuSans-Bold-20" transform="translate(1588.232422 0)"/>
    <use xlink:href="#DejaVuSans-Bold-31" transform="translate(1623.046875 0)"/>
    <use xlink:href="#DejaVuSans-Bold-20" transform="translate(1692.626953 0)"/>
    <use xlink:href="#DejaVuSans-Bold-66" transform="translate(1727.441406 0)"/>
    <use xlink:href="#DejaVuSans-Bold-72" transform="translate(1770.947266 0)"/>
    <use xlink:href="#DejaVuSans-Bold-6f" transform="translate(1820.263672 0)"/>
    <use xlink:href="#DejaVuSans-Bold-6d" transform="translate(1888.964844 0)"/>
    <use xlink:href="#DejaVuSans-Bold-20" transform="translate(1993.164062 0)"/>
    <use xlink:href="#DejaVuSans-Bold-79" transform="translate(2027.978516 0)"/>
    <use xlink:href="#DejaVuSans-Bold-20" transform="translate(2093.164062 0)"/>
    <use xlink:href="#DejaVuSans-Bold-3d" transform="translate(2127.978516 0)"/>
    <use xlink:href="#DejaVuSans-Bold-20" transform="translate(2211.767578 0)"/>
    <use xlink:href="#DejaVuSans-Bold-63" transform="translate(2246.582031 0)"/>
    <use xlink:href="#DejaVuSans-Bold-6f" transform="translate(2305.859375 0)"/>
    <use xlink:href="#DejaVuSans-Bold-73" transform="translate(2374.560547 0)"/>
    <use xlink:href="#DejaVuSans-Bold-20" transform="translate(2434.082031 0)"/>
    <use xlink:href="#DejaVuSans-Bold-78" transform="translate(2468.896484 0)"/>
   </g>
  </g>
 </g>
 <defs>
  <clipPath id="p259b36482d">
   <rect x="62.872188" y="87.92" width="301.57" height="252.92"/>
  </clipPath>
  <clipPath id="p367aa3a60e">
   <rect x="418.552187" y="87.92" width="301.57" height="252.92"/>
  </clipPath>
  <clipPath id="pb6ccba2b0c">
   <rect x="774.232187" y="87.92" width="301.57" height="252.92"/>
  </clipPath>
 </defs>
</svg>
