<?xml version="1.0" encoding="utf-8" standalone="no"?>
<!DOCTYPE svg PUBLIC "-//W3C//DTD SVG 1.1//EN"
  "http://www.w3.org/Graphics/SVG/1.1/DTD/svg11.dtd">
<svg xmlns:xlink="http://www.w3.org/1999/xlink" width="640.051563pt" height="437.192813pt" viewBox="0 0 640.051563 437.192813" xmlns="http://www.w3.org/2000/svg" version="1.1">
 <metadata>
  <rdf:RDF xmlns:dc="http://purl.org/dc/elements/1.1/" xmlns:cc="http://creativecommons.org/ns#" xmlns:rdf="http://www.w3.org/1999/02/22-rdf-syntax-ns#">
   <cc:Work>
    <dc:type rdf:resource="http://purl.org/dc/dcmitype/StillImage"/>
    <dc:date>2026-03-25T09:44:05.918520</dc:date>
    <dc:format>image/svg+xml</dc:format>
    <dc:creator>
     <cc:Agent>
      <dc:title>Matplotlib v3.10.8, https://matplotlib.org/</dc:title>
     </cc:Agent>
    </dc:creator>
   </cc:Work>
  </rdf:RDF>
 </metadata>
 <defs>
  <style type="text/css">*{stroke-linejoin: round; stroke-linecap: butt}</style>
 </defs>
 <g id="figure_1">
  <g id="patch_1">
   <path d="M 0 437.192813 
L 640.051563 437.192813 
L 640.051563 -0 
L 0 -0 
z
" style="fill: #ffffff"/>
  </g>
  <g id="axes_1">
   <g id="patch_2">
    <path d="M 60.451562 380.3975 
L 618.451563 380.3975 
L 618.451563 47.7575 
L 60.451562 47.7575 
z
" style="fill: #ffffff"/>
   </g>
   <g id="matplotlib.axis_1">
    <g id="xtick_1">
     <g id="line2d_1">
      <path d="M 136.542472 380.3975 
L 136.542472 47.7575 
" clip-path="url(#p0e52591498)" style="fill: none; stroke: #dee2e6; stroke-opacity: 0.7; stroke-width: 0.5; stroke-linecap: square"/>
     </g>
     <g id="line2d_2">
      <defs>
       <path id="m4612ec14de" d="M 0 0 
L 0 3.5 
" style="stroke: #000000; stroke-width: 0.8"/>
      </defs>
      <g>
       <use xlink:href="#m4612ec14de" x="136.542472" y="380.3975" style="stroke: #000000; stroke-width: 0.8"/>
      </g>
     </g>
     <g id="text_1">
      <!-- −4 -->
      <g transform="translate(127.697159 396.515625) scale(0.12 -0.12)">
       <defs>
        <path id="DejaVuSans-2212" d="M 678 2272 
L 4684 2272 
L 4684 1741 
L 678 1741 
L 678 2272 
z
" transform="scale(0.015625)"/>
        <path id="DejaVuSans-34" d="M 2419 4116 
L 825 1625 
L 2419 1625 
L 2419 4116 
z
M 2253 4666 
L 3047 4666 
L 3047 1625 
L 3713 1625 
L 3713 1100 
L 3047 1100 
L 3047 0 
L 2419 0 
L 2419 1100 
L 313 1100 
L 313 1709 
L 2253 4666 
z
" transform="scale(0.015625)"/>
       </defs>
       <use xlink:href="#DejaVuSans-2212"/>
       <use xlink:href="#DejaVuSans-34" transform="translate(83.789062 0)"/>
      </g>
     </g>
    </g>
    <g id="xtick_2">
     <g id="line2d_3">
      <path d="M 237.997017 380.3975 
L 237.997017 47.7575 
" clip-path="url(#p0e52591498)" style="fill: none; stroke: #dee2e6; stroke-opacity: 0.7; stroke-width: 0.5; stroke-linecap: square"/>
     </g>
     <g id="line2d_4">
      <g>
       <use xlink:href="#m4612ec14de" x="237.997017" y="380.3975" style="stroke: #000000; stroke-width: 0.8"/>
      </g>
     </g>
     <g id="text_2">
      <!-- −2 -->
      <g transform="translate(229.151705 396.515625) scale(0.12 -0.12)">
       <defs>
        <path id="DejaVuSans-32" d="M 1228 531 
L 3431 531 
L 3431 0 
L 469 0 
L 469 531 
Q 828 903 1448 1529 
Q 2069 2156 2228 2338 
Q 2531 2678 2651 2914 
Q 2772 3150 2772 3378 
Q 2772 3750 2511 3984 
Q 2250 4219 1831 4219 
Q 1534 4219 1204 4116 
Q 875 4013 500 3803 
L 500 4441 
Q 881 4594 1212 4672 
Q 1544 4750 1819 4750 
Q 2544 4750 2975 4387 
Q 3406 4025 3406 3419 
Q 3406 3131 3298 2873 
Q 3191 2616 2906 2266 
Q 2828 2175 2409 1742 
Q 1991 1309 1228 531 
z
" transform="scale(0.015625)"/>
       </defs>
       <use xlink:href="#DejaVuSans-2212"/>
       <use xlink:href="#DejaVuSans-32" transform="translate(83.789062 0)"/>
      </g>
     </g>
    </g>
    <g id="xtick_3">
     <g id="line2d_5">
      <path d="M 339.451563 380.3975 
L 339.451563 47.7575 
" clip-path="url(#p0e52591498)" style="fill: none; stroke: #dee2e6; stroke-opacity: 0.7; stroke-width: 0.5; stroke-linecap: square"/>
     </g>
     <g id="line2d_6">
      <g>
       <use xlink:href="#m4612ec14de" x="339.451563" y="380.3975" style="stroke: #000000; stroke-width: 0.8"/>
      </g>
     </g>
     <g id="text_3">
      <!-- 0 -->
      <g transform="translate(335.634063 396.515625) scale(0.12 -0.12)">
       <defs>
        <path id="DejaVuSans-30" d="M 2034 4250 
Q 1547 4250 1301 3770 
Q 1056 3291 1056 2328 
Q 1056 1369 1301 889 
Q 1547 409 2034 409 
Q 2525 409 2770 889 
Q 3016 1369 3016 2328 
Q 3016 3291 2770 3770 
Q 2525 4250 2034 4250 
z
M 2034 4750 
Q 2819 4750 3233 4129 
Q 3647 3509 3647 2328 
Q 3647 1150 3233 529 
Q 2819 -91 2034 -91 
Q 1250 -91 836 529 
Q 422 1150 422 2328 
Q 422 3509 836 4129 
Q 1250 4750 2034 4750 
z
" transform="scale(0.015625)"/>
       </defs>
       <use xlink:href="#DejaVuSans-30"/>
      </g>
     </g>
    </g>
    <g id="xtick_4">
     <g id="line2d_7">
      <path d="M 440.906108 380.3975 
L 440.906108 47.7575 
" clip-path="url(#p0e52591498)" style="fill: none; stroke: #dee2e6; stroke-opacity: 0.7; stroke-width: 0.5; stroke-linecap: square"/>
     </g>
     <g id="line2d_8">
      <g>
       <use xlink:href="#m4612ec14de" x="440.906108" y="380.3975" style="stroke: #000000; stroke-width: 0.8"/>
      </g>
     </g>
     <g id="text_4">
      <!-- 2 -->
      <g transform="translate(437.088608 396.515625) scale(0.12 -0.12)">
       <use xlink:href="#DejaVuSans-32"/>
      </g>
     </g>
    </g>
    <g id="xtick_5">
     <g id="line2d_9">
      <path d="M 542.360653 380.3975 
L 542.360653 47.7575 
" clip-path="url(#p0e52591498)" style="fill: none; stroke: #dee2e6; stroke-opacity: 0.7; stroke-width: 0.5; stroke-linecap: square"/>
     </g>
     <g id="line2d_10">
      <g>
       <use xlink:href="#m4612ec14de" x="542.360653" y="380.3975" style="stroke: #000000; stroke-width: 0.8"/>
      </g>
     </g>
     <g id="text_5">
      <!-- 4 -->
      <g transform="translate(538.543153 396.515625) scale(0.12 -0.12)">
       <use xlink:href="#DejaVuSans-34"/>
      </g>
     </g>
    </g>
    <g id="text_6">
     <!-- x -->
     <g transform="translate(335.604375 412.889219) scale(0.13 -0.13)">
      <defs>
       <path id="DejaVuSans-78" d="M 3513 3500 
L 2247 1797 
L 3578 0 
L 2900 0 
L 1881 1375 
L 863 0 
L 184 0 
L 1544 1831 
L 300 3500 
L 978 3500 
L 1906 2253 
L 2834 3500 
L 3513 3500 
z
" transform="scale(0.015625)"/>
      </defs>
      <use xlink:href="#DejaVuSans-78"/>
     </g>
    </g>
   </g>
   <g id="matplotlib.axis_2">
    <g id="ytick_1">
     <g id="line2d_11">
      <path d="M 60.451562 365.277576 
L 618.451563 365.277576 
" clip-path="url(#p0e52591498)" style="fill: none; stroke: #dee2e6; stroke-opacity: 0.7; stroke-width: 0.5; stroke-linecap: square"/>
     </g>
     <g id="line2d_12">
      <defs>
       <path id="m50ab281d55" d="M 0 0 
L -3.5 0 
" style="stroke: #000000; stroke-width: 0.8"/>
      </defs>
      <g>
       <use xlink:href="#m50ab281d55" x="60.451562" y="365.277576" style="stroke: #000000; stroke-width: 0.8"/>
      </g>
     </g>
     <g id="text_7">
      <!-- 0 -->
      <g transform="translate(45.816562 369.836638) scale(0.12 -0.12)">
       <use xlink:href="#DejaVuSans-30"/>
      </g>
     </g>
    </g>
    <g id="ytick_2">
     <g id="line2d_13">
      <path d="M 60.451562 318.027564 
L 618.451563 318.027564 
" clip-path="url(#p0e52591498)" style="fill: none; stroke: #dee2e6; stroke-opacity: 0.7; stroke-width: 0.5; stroke-linecap: square"/>
     </g>
     <g id="line2d_14">
      <g>
       <use xlink:href="#m50ab281d55" x="60.451562" y="318.027564" style="stroke: #000000; stroke-width: 0.8"/>
      </g>
     </g>
     <g id="text_8">
      <!-- 10 -->
      <g transform="translate(38.181562 322.586627) scale(0.12 -0.12)">
       <defs>
        <path id="DejaVuSans-31" d="M 794 531 
L 1825 531 
L 1825 4091 
L 703 3866 
L 703 4441 
L 1819 4666 
L 2450 4666 
L 2450 531 
L 3481 531 
L 3481 0 
L 794 0 
L 794 531 
z
" transform="scale(0.015625)"/>
       </defs>
       <use xlink:href="#DejaVuSans-31"/>
       <use xlink:href="#DejaVuSans-30" transform="translate(63.623047 0)"/>
      </g>
     </g>
    </g>
    <g id="ytick_3">
     <g id="line2d_15">
      <path d="M 60.451562 270.777552 
L 618.451563 270.777552 
" clip-path="url(#p0e52591498)" style="fill: none; stroke: #dee2e6; stroke-opacity: 0.7; stroke-width: 0.5; stroke-linecap: square"/>
     </g>
     <g id="line2d_16">
      <g>
       <use xlink:href="#m50ab281d55" x="60.451562" y="270.777552" style="stroke: #000000; stroke-width: 0.8"/>
      </g>
     </g>
     <g id="text_9">
      <!-- 20 -->
      <g transform="translate(38.181562 275.336615) scale(0.12 -0.12)">
       <use xlink:href="#DejaVuSans-32"/>
       <use xlink:href="#DejaVuSans-30" transform="translate(63.623047 0)"/>
      </g>
     </g>
    </g>
    <g id="ytick_4">
     <g id="line2d_17">
      <path d="M 60.451562 223.52754 
L 618.451563 223.52754 
" clip-path="url(#p0e52591498)" style="fill: none; stroke: #dee2e6; stroke-opacity: 0.7; stroke-width: 0.5; stroke-linecap: square"/>
     </g>
     <g id="line2d_18">
      <g>
       <use xlink:href="#m50ab281d55" x="60.451562" y="223.52754" style="stroke: #000000; stroke-width: 0.8"/>
      </g>
     </g>
     <g id="text_10">
      <!-- 30 -->
      <g transform="translate(38.181562 228.086603) scale(0.12 -0.12)">
       <defs>
        <path id="DejaVuSans-33" d="M 2597 2516 
Q 3050 2419 3304 2112 
Q 3559 1806 3559 1356 
Q 3559 666 3084 287 
Q 2609 -91 1734 -91 
Q 1441 -91 1130 -33 
Q 819 25 488 141 
L 488 750 
Q 750 597 1062 519 
Q 1375 441 1716 441 
Q 2309 441 2620 675 
Q 2931 909 2931 1356 
Q 2931 1769 2642 2001 
Q 2353 2234 1838 2234 
L 1294 2234 
L 1294 2753 
L 1863 2753 
Q 2328 2753 2575 2939 
Q 2822 3125 2822 3475 
Q 2822 3834 2567 4026 
Q 2313 4219 1838 4219 
Q 1578 4219 1281 4162 
Q 984 4106 628 3988 
L 628 4550 
Q 988 4650 1302 4700 
Q 1616 4750 1894 4750 
Q 2613 4750 3031 4423 
Q 3450 4097 3450 3541 
Q 3450 3153 3228 2886 
Q 3006 2619 2597 2516 
z
" transform="scale(0.015625)"/>
       </defs>
       <use xlink:href="#DejaVuSans-33"/>
       <use xlink:href="#DejaVuSans-30" transform="translate(63.623047 0)"/>
      </g>
     </g>
    </g>
    <g id="ytick_5">
     <g id="line2d_19">
      <path d="M 60.451562 176.277528 
L 618.451563 176.277528 
" clip-path="url(#p0e52591498)" style="fill: none; stroke: #dee2e6; stroke-opacity: 0.7; stroke-width: 0.5; stroke-linecap: square"/>
     </g>
     <g id="line2d_20">
      <g>
       <use xlink:href="#m50ab281d55" x="60.451562" y="176.277528" style="stroke: #000000; stroke-width: 0.8"/>
      </g>
     </g>
     <g id="text_11">
      <!-- 40 -->
      <g transform="translate(38.181562 180.836591) scale(0.12 -0.12)">
       <use xlink:href="#DejaVuSans-34"/>
       <use xlink:href="#DejaVuSans-30" transform="translate(63.623047 0)"/>
      </g>
     </g>
    </g>
    <g id="ytick_6">
     <g id="line2d_21">
      <path d="M 60.451562 129.027517 
L 618.451563 129.027517 
" clip-path="url(#p0e52591498)" style="fill: none; stroke: #dee2e6; stroke-opacity: 0.7; stroke-width: 0.5; stroke-linecap: square"/>
     </g>
     <g id="line2d_22">
      <g>
       <use xlink:href="#m50ab281d55" x="60.451562" y="129.027517" style="stroke: #000000; stroke-width: 0.8"/>
      </g>
     </g>
     <g id="text_12">
      <!-- 50 -->
      <g transform="translate(38.181562 133.586579) scale(0.12 -0.12)">
       <defs>
        <path id="DejaVuSans-35" d="M 691 4666 
L 3169 4666 
L 3169 4134 
L 1269 4134 
L 1269 2991 
Q 1406 3038 1543 3061 
Q 1681 3084 1819 3084 
Q 2600 3084 3056 2656 
Q 3513 2228 3513 1497 
Q 3513 744 3044 326 
Q 2575 -91 1722 -91 
Q 1428 -91 1123 -41 
Q 819 9 494 109 
L 494 744 
Q 775 591 1075 516 
Q 1375 441 1709 441 
Q 2250 441 2565 725 
Q 2881 1009 2881 1497 
Q 2881 1984 2565 2268 
Q 2250 2553 1709 2553 
Q 1456 2553 1204 2497 
Q 953 2441 691 2322 
L 691 4666 
z
" transform="scale(0.015625)"/>
       </defs>
       <use xlink:href="#DejaVuSans-35"/>
       <use xlink:href="#DejaVuSans-30" transform="translate(63.623047 0)"/>
      </g>
     </g>
    </g>
    <g id="ytick_7">
     <g id="line2d_23">
      <path d="M 60.451562 81.777505 
L 618.451563 81.777505 
" clip-path="url(#p0e52591498)" style="fill: none; stroke: #dee2e6; stroke-opacity: 0.7; stroke-width: 0.5; stroke-linecap: square"/>
     </g>
     <g id="line2d_24">
      <g>
       <use xlink:href="#m50ab281d55" x="60.451562" y="81.777505" style="stroke: #000000; stroke-width: 0.8"/>
      </g>
     </g>
     <g id="text_13">
      <!-- 60 -->
      <g transform="translate(38.181562 86.336567) scale(0.12 -0.12)">
       <defs>
        <path id="DejaVuSans-36" d="M 2113 2584 
Q 1688 2584 1439 2293 
Q 1191 2003 1191 1497 
Q 1191 994 1439 701 
Q 1688 409 2113 409 
Q 2538 409 2786 701 
Q 3034 994 3034 1497 
Q 3034 2003 2786 2293 
Q 2538 2584 2113 2584 
z
M 3366 4563 
L 3366 3988 
Q 3128 4100 2886 4159 
Q 2644 4219 2406 4219 
Q 1781 4219 1451 3797 
Q 1122 3375 1075 2522 
Q 1259 2794 1537 2939 
Q 1816 3084 2150 3084 
Q 2853 3084 3261 2657 
Q 3669 2231 3669 1497 
Q 3669 778 3244 343 
Q 2819 -91 2113 -91 
Q 1303 -91 875 529 
Q 447 1150 447 2328 
Q 447 3434 972 4092 
Q 1497 4750 2381 4750 
Q 2619 4750 2861 4703 
Q 3103 4656 3366 4563 
z
" transform="scale(0.015625)"/>
       </defs>
       <use xlink:href="#DejaVuSans-36"/>
       <use xlink:href="#DejaVuSans-30" transform="translate(63.623047 0)"/>
      </g>
     </g>
    </g>
    <g id="text_14">
     <!-- y -->
     <g transform="translate(31.477969 217.924688) rotate(-90) scale(0.13 -0.13)">
      <defs>
       <path id="DejaVuSans-79" d="M 2059 -325 
Q 1816 -950 1584 -1140 
Q 1353 -1331 966 -1331 
L 506 -1331 
L 506 -850 
L 844 -850 
Q 1081 -850 1212 -737 
Q 1344 -625 1503 -206 
L 1606 56 
L 191 3500 
L 800 3500 
L 1894 763 
L 2988 3500 
L 3597 3500 
L 2059 -325 
z
" transform="scale(0.015625)"/>
      </defs>
      <use xlink:href="#DejaVuSans-79"/>
     </g>
    </g>
   </g>
   <g id="line2d_25">
    <path d="M 288.72429 346.377571 
L 440.906108 346.377571 
" clip-path="url(#p0e52591498)" style="fill: none; stroke-dasharray: 3.7,1.6; stroke-dashoffset: 0; stroke: #868e96"/>
   </g>
   <g id="patch_3">
    <path d="M 60.451562 380.3975 
L 60.451562 47.7575 
" style="fill: none; stroke: #868e96; stroke-width: 0.8; stroke-linejoin: miter; stroke-linecap: square"/>
   </g>
   <g id="patch_4">
    <path d="M 60.451563 380.3975 
L 618.451563 380.3975 
" style="fill: none; stroke: #868e96; stroke-width: 0.8; stroke-linejoin: miter; stroke-linecap: square"/>
   </g>
   <g id="line2d_26">
    <path d="M 85.815199 247.152546 
L 94.964406 255.520888 
L 104.113614 263.581822 
L 113.262821 271.335347 
L 122.412029 278.781463 
L 131.561236 285.920171 
L 140.710444 292.751471 
L 149.859651 299.275362 
L 157.99228 304.816305 
L 166.124909 310.114357 
L 174.257538 315.169519 
L 182.390167 319.98179 
L 190.522796 324.551171 
L 198.655425 328.87766 
L 206.788054 332.961259 
L 214.920683 336.801968 
L 223.053311 340.399786 
L 231.18594 343.754713 
L 239.318569 346.866749 
L 247.451198 349.735895 
L 255.583827 352.36215 
L 263.716456 354.745515 
L 271.849085 356.885989 
L 279.981714 358.783572 
L 288.114343 360.438264 
L 296.246971 361.850066 
L 304.3796 363.018977 
L 312.512229 363.944998 
L 320.644858 364.628128 
L 328.777487 365.068367 
L 336.910116 365.265716 
L 345.042745 365.220174 
L 353.175374 364.931741 
L 361.308003 364.400418 
L 369.440632 363.626204 
L 377.57326 362.6091 
L 385.705889 361.349104 
L 393.838518 359.846218 
L 401.971147 358.100442 
L 410.103776 356.111775 
L 418.236405 353.880217 
L 426.369034 351.405768 
L 434.501663 348.688429 
L 442.634292 345.728199 
L 450.76692 342.525079 
L 458.899549 339.079068 
L 467.032178 335.390166 
L 475.164807 331.458373 
L 483.297436 327.28369 
L 491.430065 322.866117 
L 499.562694 318.205652 
L 507.695323 313.302297 
L 515.827952 308.156052 
L 523.960581 302.766915 
L 532.093209 297.134888 
L 540.225838 291.259971 
L 549.375046 284.360358 
L 558.524253 277.153337 
L 567.673461 269.638907 
L 576.822668 261.817069 
L 585.971876 253.687823 
L 593.087926 247.152546 
L 593.087926 247.152546 
" clip-path="url(#p0e52591498)" style="fill: none; stroke: #339af0; stroke-width: 2.5; stroke-linecap: square"/>
   </g>
   <g id="line2d_27">
    <path d="M 85.815199 346.377571 
L 93.947828 349.286187 
L 102.080457 351.951912 
L 110.213086 354.374746 
L 118.345714 356.554689 
L 126.478343 358.491742 
L 134.610972 360.185905 
L 142.743601 361.637176 
L 150.87623 362.845557 
L 159.008859 363.811048 
L 167.141488 364.533647 
L 175.274117 365.013356 
L 183.406746 365.250175 
L 191.539374 365.244103 
L 199.672003 364.99514 
L 207.804632 364.503286 
L 215.937261 363.768542 
L 224.06989 362.790907 
L 232.202519 361.570381 
L 240.335148 360.106965 
L 248.467777 358.400658 
L 256.600406 356.451461 
L 264.733035 354.259373 
L 272.865663 351.824394 
L 280.998292 349.146525 
L 289.130921 346.225765 
L 297.26355 343.062114 
L 305.396179 339.655572 
L 313.528808 336.00614 
L 321.661437 332.113818 
L 329.794066 327.978604 
L 337.926695 323.6005 
L 346.059323 318.979506 
L 354.191952 314.11562 
L 362.324581 309.008844 
L 370.45721 303.659178 
L 378.589839 298.066621 
L 386.722468 292.231173 
L 395.871675 285.375963 
L 405.020883 278.213346 
L 414.17009 270.74332 
L 423.319298 262.965885 
L 432.468505 254.881042 
L 441.617713 246.488791 
L 450.76692 237.789131 
L 459.916128 228.782062 
L 469.065336 219.467585 
L 478.214543 209.8457 
L 487.363751 199.916406 
L 496.512958 189.679703 
L 505.662166 179.135592 
L 515.827952 167.059373 
L 525.993738 154.603637 
L 536.159524 141.768384 
L 546.32531 128.553614 
L 556.491096 114.959328 
L 566.656882 100.985525 
L 576.822668 86.632206 
L 586.988454 71.89937 
L 593.087926 62.8775 
L 593.087926 62.8775 
" clip-path="url(#p0e52591498)" style="fill: none; stroke: #e8590c; stroke-width: 2.5; stroke-linecap: square"/>
   </g>
   <g id="text_15">
    <!-- 3 units LEFT -->
    <g style="fill: #c92a2a" transform="translate(323.311136 336.321944) scale(0.12 -0.12)">
     <defs>
      <path id="DejaVuSans-Bold-33" d="M 2981 2516 
Q 3453 2394 3698 2092 
Q 3944 1791 3944 1325 
Q 3944 631 3412 270 
Q 2881 -91 1863 -91 
Q 1503 -91 1142 -33 
Q 781 25 428 141 
L 428 1069 
Q 766 900 1098 814 
Q 1431 728 1753 728 
Q 2231 728 2486 893 
Q 2741 1059 2741 1369 
Q 2741 1688 2480 1852 
Q 2219 2016 1709 2016 
L 1228 2016 
L 1228 2791 
L 1734 2791 
Q 2188 2791 2409 2933 
Q 2631 3075 2631 3366 
Q 2631 3634 2415 3781 
Q 2200 3928 1806 3928 
Q 1516 3928 1219 3862 
Q 922 3797 628 3669 
L 628 4550 
Q 984 4650 1334 4700 
Q 1684 4750 2022 4750 
Q 2931 4750 3382 4451 
Q 3834 4153 3834 3553 
Q 3834 3144 3618 2883 
Q 3403 2622 2981 2516 
z
" transform="scale(0.015625)"/>
      <path id="DejaVuSans-Bold-20" transform="scale(0.015625)"/>
      <path id="DejaVuSans-Bold-75" d="M 500 1363 
L 500 3500 
L 1625 3500 
L 1625 3150 
Q 1625 2866 1622 2436 
Q 1619 2006 1619 1863 
Q 1619 1441 1641 1255 
Q 1663 1069 1716 984 
Q 1784 875 1895 815 
Q 2006 756 2150 756 
Q 2500 756 2700 1025 
Q 2900 1294 2900 1772 
L 2900 3500 
L 4019 3500 
L 4019 0 
L 2900 0 
L 2900 506 
Q 2647 200 2364 54 
Q 2081 -91 1741 -91 
Q 1134 -91 817 281 
Q 500 653 500 1363 
z
" transform="scale(0.015625)"/>
      <path id="DejaVuSans-Bold-6e" d="M 4056 2131 
L 4056 0 
L 2931 0 
L 2931 347 
L 2931 1631 
Q 2931 2084 2911 2256 
Q 2891 2428 2841 2509 
Q 2775 2619 2662 2680 
Q 2550 2741 2406 2741 
Q 2056 2741 1856 2470 
Q 1656 2200 1656 1722 
L 1656 0 
L 538 0 
L 538 3500 
L 1656 3500 
L 1656 2988 
Q 1909 3294 2193 3439 
Q 2478 3584 2822 3584 
Q 3428 3584 3742 3212 
Q 4056 2841 4056 2131 
z
" transform="scale(0.015625)"/>
      <path id="DejaVuSans-Bold-69" d="M 538 3500 
L 1656 3500 
L 1656 0 
L 538 0 
L 538 3500 
z
M 538 4863 
L 1656 4863 
L 1656 3950 
L 538 3950 
L 538 4863 
z
" transform="scale(0.015625)"/>
      <path id="DejaVuSans-Bold-74" d="M 1759 4494 
L 1759 3500 
L 2913 3500 
L 2913 2700 
L 1759 2700 
L 1759 1216 
Q 1759 972 1856 886 
Q 1953 800 2241 800 
L 2816 800 
L 2816 0 
L 1856 0 
Q 1194 0 917 276 
Q 641 553 641 1216 
L 641 2700 
L 84 2700 
L 84 3500 
L 641 3500 
L 641 4494 
L 1759 4494 
z
" transform="scale(0.015625)"/>
      <path id="DejaVuSans-Bold-73" d="M 3272 3391 
L 3272 2541 
Q 2913 2691 2578 2766 
Q 2244 2841 1947 2841 
Q 1628 2841 1473 2761 
Q 1319 2681 1319 2516 
Q 1319 2381 1436 2309 
Q 1553 2238 1856 2203 
L 2053 2175 
Q 2913 2066 3209 1816 
Q 3506 1566 3506 1031 
Q 3506 472 3093 190 
Q 2681 -91 1863 -91 
Q 1516 -91 1145 -36 
Q 775 19 384 128 
L 384 978 
Q 719 816 1070 734 
Q 1422 653 1784 653 
Q 2113 653 2278 743 
Q 2444 834 2444 1013 
Q 2444 1163 2330 1236 
Q 2216 1309 1875 1350 
L 1678 1375 
Q 931 1469 631 1722 
Q 331 1975 331 2491 
Q 331 3047 712 3315 
Q 1094 3584 1881 3584 
Q 2191 3584 2531 3537 
Q 2872 3491 3272 3391 
z
" transform="scale(0.015625)"/>
      <path id="DejaVuSans-Bold-4c" d="M 588 4666 
L 1791 4666 
L 1791 909 
L 3903 909 
L 3903 0 
L 588 0 
L 588 4666 
z
" transform="scale(0.015625)"/>
      <path id="DejaVuSans-Bold-45" d="M 588 4666 
L 3834 4666 
L 3834 3756 
L 1791 3756 
L 1791 2888 
L 3713 2888 
L 3713 1978 
L 1791 1978 
L 1791 909 
L 3903 909 
L 3903 0 
L 588 0 
L 588 4666 
z
" transform="scale(0.015625)"/>
      <path id="DejaVuSans-Bold-46" d="M 588 4666 
L 3834 4666 
L 3834 3756 
L 1791 3756 
L 1791 2888 
L 3713 2888 
L 3713 1978 
L 1791 1978 
L 1791 0 
L 588 0 
L 588 4666 
z
" transform="scale(0.015625)"/>
      <path id="DejaVuSans-Bold-54" d="M 31 4666 
L 4331 4666 
L 4331 3756 
L 2784 3756 
L 2784 0 
L 1581 0 
L 1581 3756 
L 31 3756 
L 31 4666 
z
" transform="scale(0.015625)"/>
     </defs>
     <use xlink:href="#DejaVuSans-Bold-33"/>
     <use xlink:href="#DejaVuSans-Bold-20" transform="translate(69.580078 0)"/>
     <use xlink:href="#DejaVuSans-Bold-75" transform="translate(104.394531 0)"/>
     <use xlink:href="#DejaVuSans-Bold-6e" transform="translate(175.585938 0)"/>
     <use xlink:href="#DejaVuSans-Bold-69" transform="translate(246.777344 0)"/>
     <use xlink:href="#DejaVuSans-Bold-74" transform="translate(281.054688 0)"/>
     <use xlink:href="#DejaVuSans-Bold-73" transform="translate(328.857422 0)"/>
     <use xlink:href="#DejaVuSans-Bold-20" transform="translate(388.378906 0)"/>
     <use xlink:href="#DejaVuSans-Bold-4c" transform="translate(423.193359 0)"/>
     <use xlink:href="#DejaVuSans-Bold-45" transform="translate(486.914062 0)"/>
     <use xlink:href="#DejaVuSans-Bold-46" transform="translate(555.224609 0)"/>
     <use xlink:href="#DejaVuSans-Bold-54" transform="translate(623.535156 0)"/>
    </g>
   </g>
   <g id="text_16">
    <!-- x = 2 -->
    <g style="fill: #339af0" transform="translate(452.906108 355.179759) scale(0.1 -0.1)">
     <defs>
      <path id="DejaVuSans-20" transform="scale(0.015625)"/>
      <path id="DejaVuSans-3d" d="M 678 2906 
L 4684 2906 
L 4684 2381 
L 678 2381 
L 678 2906 
z
M 678 1631 
L 4684 1631 
L 4684 1100 
L 678 1100 
L 678 1631 
z
" transform="scale(0.015625)"/>
     </defs>
     <use xlink:href="#DejaVuSans-78"/>
     <use xlink:href="#DejaVuSans-20" transform="translate(59.179688 0)"/>
     <use xlink:href="#DejaVuSans-3d" transform="translate(90.966797 0)"/>
     <use xlink:href="#DejaVuSans-20" transform="translate(174.755859 0)"/>
     <use xlink:href="#DejaVuSans-32" transform="translate(206.542969 0)"/>
    </g>
    <!-- f(2) = 4 -->
    <g style="fill: #339af0" transform="translate(452.906108 366.377571) scale(0.1 -0.1)">
     <defs>
      <path id="DejaVuSans-66" d="M 2375 4863 
L 2375 4384 
L 1825 4384 
Q 1516 4384 1395 4259 
Q 1275 4134 1275 3809 
L 1275 3500 
L 2222 3500 
L 2222 3053 
L 1275 3053 
L 1275 0 
L 697 0 
L 697 3053 
L 147 3053 
L 147 3500 
L 697 3500 
L 697 3744 
Q 697 4328 969 4595 
Q 1241 4863 1831 4863 
L 2375 4863 
z
" transform="scale(0.015625)"/>
      <path id="DejaVuSans-28" d="M 1984 4856 
Q 1566 4138 1362 3434 
Q 1159 2731 1159 2009 
Q 1159 1288 1364 580 
Q 1569 -128 1984 -844 
L 1484 -844 
Q 1016 -109 783 600 
Q 550 1309 550 2009 
Q 550 2706 781 3412 
Q 1013 4119 1484 4856 
L 1984 4856 
z
" transform="scale(0.015625)"/>
      <path id="DejaVuSans-29" d="M 513 4856 
L 1013 4856 
Q 1481 4119 1714 3412 
Q 1947 2706 1947 2009 
Q 1947 1309 1714 600 
Q 1481 -109 1013 -844 
L 513 -844 
Q 928 -128 1133 580 
Q 1338 1288 1338 2009 
Q 1338 2731 1133 3434 
Q 928 4138 513 4856 
z
" transform="scale(0.015625)"/>
     </defs>
     <use xlink:href="#DejaVuSans-66"/>
     <use xlink:href="#DejaVuSans-28" transform="translate(35.205078 0)"/>
     <use xlink:href="#DejaVuSans-32" transform="translate(74.21875 0)"/>
     <use xlink:href="#DejaVuSans-29" transform="translate(137.841797 0)"/>
     <use xlink:href="#DejaVuSans-20" transform="translate(176.855469 0)"/>
     <use xlink:href="#DejaVuSans-3d" transform="translate(208.642578 0)"/>
     <use xlink:href="#DejaVuSans-20" transform="translate(292.431641 0)"/>
     <use xlink:href="#DejaVuSans-34" transform="translate(324.21875 0)"/>
    </g>
   </g>
   <g id="text_17">
    <!-- x = -1 -->
    <g style="fill: #e8590c" transform="translate(198.72429 363.179759) scale(0.1 -0.1)">
     <defs>
      <path id="DejaVuSans-2d" d="M 313 2009 
L 1997 2009 
L 1997 1497 
L 313 1497 
L 313 2009 
z
" transform="scale(0.015625)"/>
     </defs>
     <use xlink:href="#DejaVuSans-78"/>
     <use xlink:href="#DejaVuSans-20" transform="translate(59.179688 0)"/>
     <use xlink:href="#DejaVuSans-3d" transform="translate(90.966797 0)"/>
     <use xlink:href="#DejaVuSans-20" transform="translate(174.755859 0)"/>
     <use xlink:href="#DejaVuSans-2d" transform="translate(206.542969 0)"/>
     <use xlink:href="#DejaVuSans-31" transform="translate(242.626953 0)"/>
    </g>
    <!-- f(-1+3) = 4 -->
    <g style="fill: #e8590c" transform="translate(198.72429 374.377571) scale(0.1 -0.1)">
     <defs>
      <path id="DejaVuSans-2b" d="M 2944 4013 
L 2944 2272 
L 4684 2272 
L 4684 1741 
L 2944 1741 
L 2944 0 
L 2419 0 
L 2419 1741 
L 678 1741 
L 678 2272 
L 2419 2272 
L 2419 4013 
L 2944 4013 
z
" transform="scale(0.015625)"/>
     </defs>
     <use xlink:href="#DejaVuSans-66"/>
     <use xlink:href="#DejaVuSans-28" transform="translate(35.205078 0)"/>
     <use xlink:href="#DejaVuSans-2d" transform="translate(74.21875 0)"/>
     <use xlink:href="#DejaVuSans-31" transform="translate(110.302734 0)"/>
     <use xlink:href="#DejaVuSans-2b" transform="translate(173.925781 0)"/>
     <use xlink:href="#DejaVuSans-33" transform="translate(257.714844 0)"/>
     <use xlink:href="#DejaVuSans-29" transform="translate(321.337891 0)"/>
     <use xlink:href="#DejaVuSans-20" transform="translate(360.351562 0)"/>
     <use xlink:href="#DejaVuSans-3d" transform="translate(392.138672 0)"/>
     <use xlink:href="#DejaVuSans-20" transform="translate(475.927734 0)"/>
     <use xlink:href="#DejaVuSans-34" transform="translate(507.714844 0)"/>
    </g>
   </g>
   <g id="text_18">
    <g id="patch_5">
     <path d="M 434.827031 98.517825 
L 607.291563 98.517825 
Q 612.791563 98.517825 612.791563 93.017825 
L 612.791563 57.7367 
Q 612.791563 52.2367 607.291563 52.2367 
L 434.827031 52.2367 
Q 429.327031 52.2367 429.327031 57.7367 
L 429.327031 93.017825 
Q 429.327031 98.517825 434.827031 98.517825 
z
" style="fill: #ffd8a8; opacity: 0.9; stroke: #e8590c; stroke-linejoin: miter"/>
    </g>
    <!-- f(x + 3) asks: "what does f see -->
    <g transform="translate(437.927656 66.094981) scale(0.11 -0.11)">
     <defs>
      <path id="DejaVuSans-61" d="M 2194 1759 
Q 1497 1759 1228 1600 
Q 959 1441 959 1056 
Q 959 750 1161 570 
Q 1363 391 1709 391 
Q 2188 391 2477 730 
Q 2766 1069 2766 1631 
L 2766 1759 
L 2194 1759 
z
M 3341 1997 
L 3341 0 
L 2766 0 
L 2766 531 
Q 2569 213 2275 61 
Q 1981 -91 1556 -91 
Q 1019 -91 701 211 
Q 384 513 384 1019 
Q 384 1609 779 1909 
Q 1175 2209 1959 2209 
L 2766 2209 
L 2766 2266 
Q 2766 2663 2505 2880 
Q 2244 3097 1772 3097 
Q 1472 3097 1187 3025 
Q 903 2953 641 2809 
L 641 3341 
Q 956 3463 1253 3523 
Q 1550 3584 1831 3584 
Q 2591 3584 2966 3190 
Q 3341 2797 3341 1997 
z
" transform="scale(0.015625)"/>
      <path id="DejaVuSans-73" d="M 2834 3397 
L 2834 2853 
Q 2591 2978 2328 3040 
Q 2066 3103 1784 3103 
Q 1356 3103 1142 2972 
Q 928 2841 928 2578 
Q 928 2378 1081 2264 
Q 1234 2150 1697 2047 
L 1894 2003 
Q 2506 1872 2764 1633 
Q 3022 1394 3022 966 
Q 3022 478 2636 193 
Q 2250 -91 1575 -91 
Q 1294 -91 989 -36 
Q 684 19 347 128 
L 347 722 
Q 666 556 975 473 
Q 1284 391 1588 391 
Q 1994 391 2212 530 
Q 2431 669 2431 922 
Q 2431 1156 2273 1281 
Q 2116 1406 1581 1522 
L 1381 1569 
Q 847 1681 609 1914 
Q 372 2147 372 2553 
Q 372 3047 722 3315 
Q 1072 3584 1716 3584 
Q 2034 3584 2315 3537 
Q 2597 3491 2834 3397 
z
" transform="scale(0.015625)"/>
      <path id="DejaVuSans-6b" d="M 581 4863 
L 1159 4863 
L 1159 1991 
L 2875 3500 
L 3609 3500 
L 1753 1863 
L 3688 0 
L 2938 0 
L 1159 1709 
L 1159 0 
L 581 0 
L 581 4863 
z
" transform="scale(0.015625)"/>
      <path id="DejaVuSans-3a" d="M 750 794 
L 1409 794 
L 1409 0 
L 750 0 
L 750 794 
z
M 750 3309 
L 1409 3309 
L 1409 2516 
L 750 2516 
L 750 3309 
z
" transform="scale(0.015625)"/>
      <path id="DejaVuSans-22" d="M 1147 4666 
L 1147 2931 
L 616 2931 
L 616 4666 
L 1147 4666 
z
M 2328 4666 
L 2328 2931 
L 1797 2931 
L 1797 4666 
L 2328 4666 
z
" transform="scale(0.015625)"/>
      <path id="DejaVuSans-77" d="M 269 3500 
L 844 3500 
L 1563 769 
L 2278 3500 
L 2956 3500 
L 3675 769 
L 4391 3500 
L 4966 3500 
L 4050 0 
L 3372 0 
L 2619 2869 
L 1863 0 
L 1184 0 
L 269 3500 
z
" transform="scale(0.015625)"/>
      <path id="DejaVuSans-68" d="M 3513 2113 
L 3513 0 
L 2938 0 
L 2938 2094 
Q 2938 2591 2744 2837 
Q 2550 3084 2163 3084 
Q 1697 3084 1428 2787 
Q 1159 2491 1159 1978 
L 1159 0 
L 581 0 
L 581 4863 
L 1159 4863 
L 1159 2956 
Q 1366 3272 1645 3428 
Q 1925 3584 2291 3584 
Q 2894 3584 3203 3211 
Q 3513 2838 3513 2113 
z
" transform="scale(0.015625)"/>
      <path id="DejaVuSans-74" d="M 1172 4494 
L 1172 3500 
L 2356 3500 
L 2356 3053 
L 1172 3053 
L 1172 1153 
Q 1172 725 1289 603 
Q 1406 481 1766 481 
L 2356 481 
L 2356 0 
L 1766 0 
Q 1100 0 847 248 
Q 594 497 594 1153 
L 594 3053 
L 172 3053 
L 172 3500 
L 594 3500 
L 594 4494 
L 1172 4494 
z
" transform="scale(0.015625)"/>
      <path id="DejaVuSans-64" d="M 2906 2969 
L 2906 4863 
L 3481 4863 
L 3481 0 
L 2906 0 
L 2906 525 
Q 2725 213 2448 61 
Q 2172 -91 1784 -91 
Q 1150 -91 751 415 
Q 353 922 353 1747 
Q 353 2572 751 3078 
Q 1150 3584 1784 3584 
Q 2172 3584 2448 3432 
Q 2725 3281 2906 2969 
z
M 947 1747 
Q 947 1113 1208 752 
Q 1469 391 1925 391 
Q 2381 391 2643 752 
Q 2906 1113 2906 1747 
Q 2906 2381 2643 2742 
Q 2381 3103 1925 3103 
Q 1469 3103 1208 2742 
Q 947 2381 947 1747 
z
" transform="scale(0.015625)"/>
      <path id="DejaVuSans-6f" d="M 1959 3097 
Q 1497 3097 1228 2736 
Q 959 2375 959 1747 
Q 959 1119 1226 758 
Q 1494 397 1959 397 
Q 2419 397 2687 759 
Q 2956 1122 2956 1747 
Q 2956 2369 2687 2733 
Q 2419 3097 1959 3097 
z
M 1959 3584 
Q 2709 3584 3137 3096 
Q 3566 2609 3566 1747 
Q 3566 888 3137 398 
Q 2709 -91 1959 -91 
Q 1206 -91 779 398 
Q 353 888 353 1747 
Q 353 2609 779 3096 
Q 1206 3584 1959 3584 
z
" transform="scale(0.015625)"/>
      <path id="DejaVuSans-65" d="M 3597 1894 
L 3597 1613 
L 953 1613 
Q 991 1019 1311 708 
Q 1631 397 2203 397 
Q 2534 397 2845 478 
Q 3156 559 3463 722 
L 3463 178 
Q 3153 47 2828 -22 
Q 2503 -91 2169 -91 
Q 1331 -91 842 396 
Q 353 884 353 1716 
Q 353 2575 817 3079 
Q 1281 3584 2069 3584 
Q 2775 3584 3186 3129 
Q 3597 2675 3597 1894 
z
M 3022 2063 
Q 3016 2534 2758 2815 
Q 2500 3097 2075 3097 
Q 1594 3097 1305 2825 
Q 1016 2553 972 2059 
L 3022 2063 
z
" transform="scale(0.015625)"/>
     </defs>
     <use xlink:href="#DejaVuSans-66"/>
     <use xlink:href="#DejaVuSans-28" transform="translate(35.205078 0)"/>
     <use xlink:href="#DejaVuSans-78" transform="translate(74.21875 0)"/>
     <use xlink:href="#DejaVuSans-20" transform="translate(133.398438 0)"/>
     <use xlink:href="#DejaVuSans-2b" transform="translate(165.185547 0)"/>
     <use xlink:href="#DejaVuSans-20" transform="translate(248.974609 0)"/>
     <use xlink:href="#DejaVuSans-33" transform="translate(280.761719 0)"/>
     <use xlink:href="#DejaVuSans-29" transform="translate(344.384766 0)"/>
     <use xlink:href="#DejaVuSans-20" transform="translate(383.398438 0)"/>
     <use xlink:href="#DejaVuSans-61" transform="translate(415.185547 0)"/>
     <use xlink:href="#DejaVuSans-73" transform="translate(476.464844 0)"/>
     <use xlink:href="#DejaVuSans-6b" transform="translate(528.564453 0)"/>
     <use xlink:href="#DejaVuSans-73" transform="translate(586.474609 0)"/>
     <use xlink:href="#DejaVuSans-3a" transform="translate(638.574219 0)"/>
     <use xlink:href="#DejaVuSans-20" transform="translate(672.265625 0)"/>
     <use xlink:href="#DejaVuSans-22" transform="translate(704.052734 0)"/>
     <use xlink:href="#DejaVuSans-77" transform="translate(750.048828 0)"/>
     <use xlink:href="#DejaVuSans-68" transform="translate(831.835938 0)"/>
     <use xlink:href="#DejaVuSans-61" transform="translate(895.214844 0)"/>
     <use xlink:href="#DejaVuSans-74" transform="translate(956.494141 0)"/>
     <use xlink:href="#DejaVuSans-20" transform="translate(995.703125 0)"/>
     <use xlink:href="#DejaVuSans-64" transform="translate(1027.490234 0)"/>
     <use xlink:href="#DejaVuSans-6f" transform="translate(1090.966797 0)"/>
     <use xlink:href="#DejaVuSans-65" transform="translate(1152.148438 0)"/>
     <use xlink:href="#DejaVuSans-73" transform="translate(1213.671875 0)"/>
     <use xlink:href="#DejaVuSans-20" transform="translate(1265.771484 0)"/>
     <use xlink:href="#DejaVuSans-66" transform="translate(1297.558594 0)"/>
     <use xlink:href="#DejaVuSans-20" transform="translate(1332.763672 0)"/>
     <use xlink:href="#DejaVuSans-73" transform="translate(1364.550781 0)"/>
     <use xlink:href="#DejaVuSans-65" transform="translate(1416.650391 0)"/>
     <use xlink:href="#DejaVuSans-65" transform="translate(1478.173828 0)"/>
    </g>
    <!-- 3 units ahead?" — so the -->
    <g transform="translate(469.155625 78.412575) scale(0.11 -0.11)">
     <defs>
      <path id="DejaVuSans-75" d="M 544 1381 
L 544 3500 
L 1119 3500 
L 1119 1403 
Q 1119 906 1312 657 
Q 1506 409 1894 409 
Q 2359 409 2629 706 
Q 2900 1003 2900 1516 
L 2900 3500 
L 3475 3500 
L 3475 0 
L 2900 0 
L 2900 538 
Q 2691 219 2414 64 
Q 2138 -91 1772 -91 
Q 1169 -91 856 284 
Q 544 659 544 1381 
z
M 1991 3584 
L 1991 3584 
z
" transform="scale(0.015625)"/>
      <path id="DejaVuSans-6e" d="M 3513 2113 
L 3513 0 
L 2938 0 
L 2938 2094 
Q 2938 2591 2744 2837 
Q 2550 3084 2163 3084 
Q 1697 3084 1428 2787 
Q 1159 2491 1159 1978 
L 1159 0 
L 581 0 
L 581 3500 
L 1159 3500 
L 1159 2956 
Q 1366 3272 1645 3428 
Q 1925 3584 2291 3584 
Q 2894 3584 3203 3211 
Q 3513 2838 3513 2113 
z
" transform="scale(0.015625)"/>
      <path id="DejaVuSans-69" d="M 603 3500 
L 1178 3500 
L 1178 0 
L 603 0 
L 603 3500 
z
M 603 4863 
L 1178 4863 
L 1178 4134 
L 603 4134 
L 603 4863 
z
" transform="scale(0.015625)"/>
      <path id="DejaVuSans-3f" d="M 1222 794 
L 1856 794 
L 1856 0 
L 1222 0 
L 1222 794 
z
M 1838 1253 
L 1241 1253 
L 1241 1734 
Q 1241 2050 1328 2253 
Q 1416 2456 1697 2725 
L 1978 3003 
Q 2156 3169 2236 3316 
Q 2316 3463 2316 3616 
Q 2316 3894 2111 4066 
Q 1906 4238 1569 4238 
Q 1322 4238 1042 4128 
Q 763 4019 459 3809 
L 459 4397 
Q 753 4575 1054 4662 
Q 1356 4750 1678 4750 
Q 2253 4750 2601 4447 
Q 2950 4144 2950 3647 
Q 2950 3409 2837 3195 
Q 2725 2981 2444 2713 
L 2169 2444 
Q 2022 2297 1961 2214 
Q 1900 2131 1875 2053 
Q 1856 1988 1847 1894 
Q 1838 1800 1838 1638 
L 1838 1253 
z
" transform="scale(0.015625)"/>
      <path id="DejaVuSans-2014" d="M 313 1978 
L 6088 1978 
L 6088 1528 
L 313 1528 
L 313 1978 
z
" transform="scale(0.015625)"/>
     </defs>
     <use xlink:href="#DejaVuSans-33"/>
     <use xlink:href="#DejaVuSans-20" transform="translate(63.623047 0)"/>
     <use xlink:href="#DejaVuSans-75" transform="translate(95.410156 0)"/>
     <use xlink:href="#DejaVuSans-6e" transform="translate(158.789062 0)"/>
     <use xlink:href="#DejaVuSans-69" transform="translate(222.167969 0)"/>
     <use xlink:href="#DejaVuSans-74" transform="translate(249.951172 0)"/>
     <use xlink:href="#DejaVuSans-73" transform="translate(289.160156 0)"/>
     <use xlink:href="#DejaVuSans-20" transform="translate(341.259766 0)"/>
     <use xlink:href="#DejaVuSans-61" transform="translate(373.046875 0)"/>
     <use xlink:href="#DejaVuSans-68" transform="translate(434.326172 0)"/>
     <use xlink:href="#DejaVuSans-65" transform="translate(497.705078 0)"/>
     <use xlink:href="#DejaVuSans-61" transform="translate(559.228516 0)"/>
     <use xlink:href="#DejaVuSans-64" transform="translate(620.507812 0)"/>
     <use xlink:href="#DejaVuSans-3f" transform="translate(683.984375 0)"/>
     <use xlink:href="#DejaVuSans-22" transform="translate(737.060547 0)"/>
     <use xlink:href="#DejaVuSans-20" transform="translate(783.056641 0)"/>
     <use xlink:href="#DejaVuSans-2014" transform="translate(814.84375 0)"/>
     <use xlink:href="#DejaVuSans-20" transform="translate(914.84375 0)"/>
     <use xlink:href="#DejaVuSans-73" transform="translate(946.630859 0)"/>
     <use xlink:href="#DejaVuSans-6f" transform="translate(998.730469 0)"/>
     <use xlink:href="#DejaVuSans-20" transform="translate(1059.912109 0)"/>
     <use xlink:href="#DejaVuSans-74" transform="translate(1091.699219 0)"/>
     <use xlink:href="#DejaVuSans-68" transform="translate(1130.908203 0)"/>
     <use xlink:href="#DejaVuSans-65" transform="translate(1194.287109 0)"/>
    </g>
    <!-- whole curve shifts 3 units LEFT. -->
    <g transform="translate(434.827031 90.730169) scale(0.11 -0.11)">
     <defs>
      <path id="DejaVuSans-6c" d="M 603 4863 
L 1178 4863 
L 1178 0 
L 603 0 
L 603 4863 
z
" transform="scale(0.015625)"/>
      <path id="DejaVuSans-63" d="M 3122 3366 
L 3122 2828 
Q 2878 2963 2633 3030 
Q 2388 3097 2138 3097 
Q 1578 3097 1268 2742 
Q 959 2388 959 1747 
Q 959 1106 1268 751 
Q 1578 397 2138 397 
Q 2388 397 2633 464 
Q 2878 531 3122 666 
L 3122 134 
Q 2881 22 2623 -34 
Q 2366 -91 2075 -91 
Q 1284 -91 818 406 
Q 353 903 353 1747 
Q 353 2603 823 3093 
Q 1294 3584 2113 3584 
Q 2378 3584 2631 3529 
Q 2884 3475 3122 3366 
z
" transform="scale(0.015625)"/>
      <path id="DejaVuSans-72" d="M 2631 2963 
Q 2534 3019 2420 3045 
Q 2306 3072 2169 3072 
Q 1681 3072 1420 2755 
Q 1159 2438 1159 1844 
L 1159 0 
L 581 0 
L 581 3500 
L 1159 3500 
L 1159 2956 
Q 1341 3275 1631 3429 
Q 1922 3584 2338 3584 
Q 2397 3584 2469 3576 
Q 2541 3569 2628 3553 
L 2631 2963 
z
" transform="scale(0.015625)"/>
      <path id="DejaVuSans-76" d="M 191 3500 
L 800 3500 
L 1894 563 
L 2988 3500 
L 3597 3500 
L 2284 0 
L 1503 0 
L 191 3500 
z
" transform="scale(0.015625)"/>
      <path id="DejaVuSans-4c" d="M 628 4666 
L 1259 4666 
L 1259 531 
L 3531 531 
L 3531 0 
L 628 0 
L 628 4666 
z
" transform="scale(0.015625)"/>
      <path id="DejaVuSans-45" d="M 628 4666 
L 3578 4666 
L 3578 4134 
L 1259 4134 
L 1259 2753 
L 3481 2753 
L 3481 2222 
L 1259 2222 
L 1259 531 
L 3634 531 
L 3634 0 
L 628 0 
L 628 4666 
z
" transform="scale(0.015625)"/>
      <path id="DejaVuSans-46" d="M 628 4666 
L 3309 4666 
L 3309 4134 
L 1259 4134 
L 1259 2759 
L 3109 2759 
L 3109 2228 
L 1259 2228 
L 1259 0 
L 628 0 
L 628 4666 
z
" transform="scale(0.015625)"/>
      <path id="DejaVuSans-54" d="M -19 4666 
L 3928 4666 
L 3928 4134 
L 2272 4134 
L 2272 0 
L 1638 0 
L 1638 4134 
L -19 4134 
L -19 4666 
z
" transform="scale(0.015625)"/>
      <path id="DejaVuSans-2e" d="M 684 794 
L 1344 794 
L 1344 0 
L 684 0 
L 684 794 
z
" transform="scale(0.015625)"/>
     </defs>
     <use xlink:href="#DejaVuSans-77"/>
     <use xlink:href="#DejaVuSans-68" transform="translate(81.787109 0)"/>
     <use xlink:href="#DejaVuSans-6f" transform="translate(145.166016 0)"/>
     <use xlink:href="#DejaVuSans-6c" transform="translate(206.347656 0)"/>
     <use xlink:href="#DejaVuSans-65" transform="translate(234.130859 0)"/>
     <use xlink:href="#DejaVuSans-20" transform="translate(295.654297 0)"/>
     <use xlink:href="#DejaVuSans-63" transform="translate(327.441406 0)"/>
     <use xlink:href="#DejaVuSans-75" transform="translate(382.421875 0)"/>
     <use xlink:href="#DejaVuSans-72" transform="translate(445.800781 0)"/>
     <use xlink:href="#DejaVuSans-76" transform="translate(486.914062 0)"/>
     <use xlink:href="#DejaVuSans-65" transform="translate(546.09375 0)"/>
     <use xlink:href="#DejaVuSans-20" transform="translate(607.617188 0)"/>
     <use xlink:href="#DejaVuSans-73" transform="translate(639.404297 0)"/>
     <use xlink:href="#DejaVuSans-68" transform="translate(691.503906 0)"/>
     <use xlink:href="#DejaVuSans-69" transform="translate(754.882812 0)"/>
     <use xlink:href="#DejaVuSans-66" transform="translate(782.666016 0)"/>
     <use xlink:href="#DejaVuSans-74" transform="translate(816.121094 0)"/>
     <use xlink:href="#DejaVuSans-73" transform="translate(855.330078 0)"/>
     <use xlink:href="#DejaVuSans-20" transform="translate(907.429688 0)"/>
     <use xlink:href="#DejaVuSans-33" transform="translate(939.216797 0)"/>
     <use xlink:href="#DejaVuSans-20" transform="translate(1002.839844 0)"/>
     <use xlink:href="#DejaVuSans-75" transform="translate(1034.626953 0)"/>
     <use xlink:href="#DejaVuSans-6e" transform="translate(1098.005859 0)"/>
     <use xlink:href="#DejaVuSans-69" transform="translate(1161.384766 0)"/>
     <use xlink:href="#DejaVuSans-74" transform="translate(1189.167969 0)"/>
     <use xlink:href="#DejaVuSans-73" transform="translate(1228.376953 0)"/>
     <use xlink:href="#DejaVuSans-20" transform="translate(1280.476562 0)"/>
     <use xlink:href="#DejaVuSans-4c" transform="translate(1312.263672 0)"/>
     <use xlink:href="#DejaVuSans-45" transform="translate(1367.976562 0)"/>
     <use xlink:href="#DejaVuSans-46" transform="translate(1431.160156 0)"/>
     <use xlink:href="#DejaVuSans-54" transform="translate(1486.929688 0)"/>
     <use xlink:href="#DejaVuSans-2e" transform="translate(1536.138672 0)"/>
    </g>
   </g>
   <g id="text_19">
    <!-- Why Does f(x + 3) Move LEFT? -->
    <g transform="translate(202.235313 33.7575) scale(0.16 -0.16)">
     <defs>
      <path id="DejaVuSans-Bold-57" d="M 191 4666 
L 1344 4666 
L 2150 1275 
L 2950 4666 
L 4109 4666 
L 4909 1275 
L 5716 4666 
L 6859 4666 
L 5759 0 
L 4372 0 
L 3525 3547 
L 2688 0 
L 1300 0 
L 191 4666 
z
" transform="scale(0.015625)"/>
      <path id="DejaVuSans-Bold-68" d="M 4056 2131 
L 4056 0 
L 2931 0 
L 2931 347 
L 2931 1625 
Q 2931 2084 2911 2256 
Q 2891 2428 2841 2509 
Q 2775 2619 2662 2680 
Q 2550 2741 2406 2741 
Q 2056 2741 1856 2470 
Q 1656 2200 1656 1722 
L 1656 0 
L 538 0 
L 538 4863 
L 1656 4863 
L 1656 2988 
Q 1909 3294 2193 3439 
Q 2478 3584 2822 3584 
Q 3428 3584 3742 3212 
Q 4056 2841 4056 2131 
z
" transform="scale(0.015625)"/>
      <path id="DejaVuSans-Bold-79" d="M 78 3500 
L 1197 3500 
L 2138 1125 
L 2938 3500 
L 4056 3500 
L 2584 -331 
Q 2363 -916 2067 -1148 
Q 1772 -1381 1288 -1381 
L 641 -1381 
L 641 -647 
L 991 -647 
Q 1275 -647 1404 -556 
Q 1534 -466 1606 -231 
L 1638 -134 
L 78 3500 
z
" transform="scale(0.015625)"/>
      <path id="DejaVuSans-Bold-44" d="M 1791 3756 
L 1791 909 
L 2222 909 
Q 2959 909 3348 1275 
Q 3738 1641 3738 2338 
Q 3738 3031 3350 3393 
Q 2963 3756 2222 3756 
L 1791 3756 
z
M 588 4666 
L 1856 4666 
Q 2919 4666 3439 4514 
Q 3959 4363 4331 4000 
Q 4659 3684 4818 3271 
Q 4978 2859 4978 2338 
Q 4978 1809 4818 1395 
Q 4659 981 4331 666 
Q 3956 303 3431 151 
Q 2906 0 1856 0 
L 588 0 
L 588 4666 
z
" transform="scale(0.015625)"/>
      <path id="DejaVuSans-Bold-6f" d="M 2203 2784 
Q 1831 2784 1636 2517 
Q 1441 2250 1441 1747 
Q 1441 1244 1636 976 
Q 1831 709 2203 709 
Q 2569 709 2762 976 
Q 2956 1244 2956 1747 
Q 2956 2250 2762 2517 
Q 2569 2784 2203 2784 
z
M 2203 3584 
Q 3106 3584 3614 3096 
Q 4122 2609 4122 1747 
Q 4122 884 3614 396 
Q 3106 -91 2203 -91 
Q 1297 -91 786 396 
Q 275 884 275 1747 
Q 275 2609 786 3096 
Q 1297 3584 2203 3584 
z
" transform="scale(0.015625)"/>
      <path id="DejaVuSans-Bold-65" d="M 4031 1759 
L 4031 1441 
L 1416 1441 
Q 1456 1047 1700 850 
Q 1944 653 2381 653 
Q 2734 653 3104 758 
Q 3475 863 3866 1075 
L 3866 213 
Q 3469 63 3072 -14 
Q 2675 -91 2278 -91 
Q 1328 -91 801 392 
Q 275 875 275 1747 
Q 275 2603 792 3093 
Q 1309 3584 2216 3584 
Q 3041 3584 3536 3087 
Q 4031 2591 4031 1759 
z
M 2881 2131 
Q 2881 2450 2695 2645 
Q 2509 2841 2209 2841 
Q 1884 2841 1681 2658 
Q 1478 2475 1428 2131 
L 2881 2131 
z
" transform="scale(0.015625)"/>
      <path id="DejaVuSans-Bold-66" d="M 2841 4863 
L 2841 4128 
L 2222 4128 
Q 1984 4128 1890 4042 
Q 1797 3956 1797 3744 
L 1797 3500 
L 2753 3500 
L 2753 2700 
L 1797 2700 
L 1797 0 
L 678 0 
L 678 2700 
L 122 2700 
L 122 3500 
L 678 3500 
L 678 3744 
Q 678 4316 997 4589 
Q 1316 4863 1984 4863 
L 2841 4863 
z
" transform="scale(0.015625)"/>
      <path id="DejaVuSans-Bold-28" d="M 2413 -844 
L 1484 -844 
Q 1006 -72 778 623 
Q 550 1319 550 2003 
Q 550 2688 779 3389 
Q 1009 4091 1484 4856 
L 2413 4856 
Q 2013 4116 1813 3408 
Q 1613 2700 1613 2009 
Q 1613 1319 1811 609 
Q 2009 -100 2413 -844 
z
" transform="scale(0.015625)"/>
      <path id="DejaVuSans-Bold-78" d="M 1422 1791 
L 159 3500 
L 1344 3500 
L 2059 2463 
L 2784 3500 
L 3969 3500 
L 2706 1797 
L 4031 0 
L 2847 0 
L 2059 1106 
L 1281 0 
L 97 0 
L 1422 1791 
z
" transform="scale(0.015625)"/>
      <path id="DejaVuSans-Bold-2b" d="M 3053 4013 
L 3053 2375 
L 4684 2375 
L 4684 1638 
L 3053 1638 
L 3053 0 
L 2309 0 
L 2309 1638 
L 678 1638 
L 678 2375 
L 2309 2375 
L 2309 4013 
L 3053 4013 
z
" transform="scale(0.015625)"/>
      <path id="DejaVuSans-Bold-29" d="M 513 -844 
Q 913 -100 1113 609 
Q 1313 1319 1313 2009 
Q 1313 2700 1113 3408 
Q 913 4116 513 4856 
L 1441 4856 
Q 1916 4091 2145 3389 
Q 2375 2688 2375 2003 
Q 2375 1319 2147 623 
Q 1919 -72 1441 -844 
L 513 -844 
z
" transform="scale(0.015625)"/>
      <path id="DejaVuSans-Bold-4d" d="M 588 4666 
L 2119 4666 
L 3181 2169 
L 4250 4666 
L 5778 4666 
L 5778 0 
L 4641 0 
L 4641 3413 
L 3566 897 
L 2803 897 
L 1728 3413 
L 1728 0 
L 588 0 
L 588 4666 
z
" transform="scale(0.015625)"/>
      <path id="DejaVuSans-Bold-76" d="M 97 3500 
L 1216 3500 
L 2088 1081 
L 2956 3500 
L 4078 3500 
L 2700 0 
L 1472 0 
L 97 3500 
z
" transform="scale(0.015625)"/>
      <path id="DejaVuSans-Bold-3f" d="M 2216 1575 
L 1088 1575 
L 1088 1728 
Q 1088 1984 1191 2182 
Q 1294 2381 1625 2688 
L 1825 2869 
Q 2003 3031 2086 3175 
Q 2169 3319 2169 3463 
Q 2169 3681 2019 3804 
Q 1869 3928 1600 3928 
Q 1347 3928 1053 3823 
Q 759 3719 441 3513 
L 441 4494 
Q 819 4625 1131 4687 
Q 1444 4750 1734 4750 
Q 2497 4750 2897 4439 
Q 3297 4128 3297 3531 
Q 3297 3225 3175 2983 
Q 3053 2741 2759 2463 
L 2559 2284 
Q 2347 2091 2281 1973 
Q 2216 1856 2216 1716 
L 2216 1575 
z
M 1088 1113 
L 2216 1113 
L 2216 0 
L 1088 0 
L 1088 1113 
z
" transform="scale(0.015625)"/>
     </defs>
     <use xlink:href="#DejaVuSans-Bold-57"/>
     <use xlink:href="#DejaVuSans-Bold-68" transform="translate(110.302734 0)"/>
     <use xlink:href="#DejaVuSans-Bold-79" transform="translate(181.494141 0)"/>
     <use xlink:href="#DejaVuSans-Bold-20" transform="translate(246.679688 0)"/>
     <use xlink:href="#DejaVuSans-Bold-44" transform="translate(281.494141 0)"/>
     <use xlink:href="#DejaVuSans-Bold-6f" transform="translate(364.501953 0)"/>
     <use xlink:href="#DejaVuSans-Bold-65" transform="translate(433.203125 0)"/>
     <use xlink:href="#DejaVuSans-Bold-73" transform="translate(501.025391 0)"/>
     <use xlink:href="#DejaVuSans-Bold-20" transform="translate(560.546875 0)"/>
     <use xlink:href="#DejaVuSans-Bold-66" transform="translate(595.361328 0)"/>
     <use xlink:href="#DejaVuSans-Bold-28" transform="translate(638.867188 0)"/>
     <use xlink:href="#DejaVuSans-Bold-78" transform="translate(684.570312 0)"/>
     <use xlink:href="#DejaVuSans-Bold-20" transform="translate(749.072266 0)"/>
     <use xlink:href="#DejaVuSans-Bold-2b" transform="translate(783.886719 0)"/>
     <use xlink:href="#DejaVuSans-Bold-20" transform="translate(867.675781 0)"/>
     <use xlink:href="#DejaVuSans-Bold-33" transform="translate(902.490234 0)"/>
     <use xlink:href="#DejaVuSans-Bold-29" transform="translate(972.070312 0)"/>
     <use xlink:href="#DejaVuSans-Bold-20" transform="translate(1017.773438 0)"/>
     <use xlink:href="#DejaVuSans-Bold-4d" transform="translate(1052.587891 0)"/>
     <use xlink:href="#DejaVuSans-Bold-6f" transform="translate(1152.099609 0)"/>
     <use xlink:href="#DejaVuSans-Bold-76" transform="translate(1220.800781 0)"/>
     <use xlink:href="#DejaVuSans-Bold-65" transform="translate(1285.986328 0)"/>
     <use xlink:href="#DejaVuSans-Bold-20" transform="translate(1353.808594 0)"/>
     <use xlink:href="#DejaVuSans-Bold-4c" transform="translate(1388.623047 0)"/>
     <use xlink:href="#DejaVuSans-Bold-45" transform="translate(1452.34375 0)"/>
     <use xlink:href="#DejaVuSans-Bold-46" transform="translate(1520.654297 0)"/>
     <use xlink:href="#DejaVuSans-Bold-54" transform="translate(1588.964844 0)"/>
     <use xlink:href="#DejaVuSans-Bold-3f" transform="translate(1657.177734 0)"/>
    </g>
   </g>
   <g id="line2d_28">
    <defs>
     <path id="m0eb06244e4" d="M 0 4 
C 1.060812 4 2.078319 3.578535 2.828427 2.828427 
C 3.578535 2.078319 4 1.060812 4 0 
C 4 -1.060812 3.578535 -2.078319 2.828427 -2.828427 
C 2.078319 -3.578535 1.060812 -4 0 -4 
C -1.060812 -4 -2.078319 -3.578535 -2.828427 -2.828427 
C -3.578535 -2.078319 -4 -1.060812 -4 0 
C -4 1.060812 -3.578535 2.078319 -2.828427 2.828427 
C -2.078319 3.578535 -1.060812 4 0 4 
z
" style="stroke: #339af0"/>
    </defs>
    <g clip-path="url(#p0e52591498)">
     <use xlink:href="#m0eb06244e4" x="440.906108" y="346.377571" style="fill: #339af0; stroke: #339af0"/>
    </g>
   </g>
   <g id="line2d_29">
    <defs>
     <path id="m9b4c2ac663" d="M 0 4 
C 1.060812 4 2.078319 3.578535 2.828427 2.828427 
C 3.578535 2.078319 4 1.060812 4 0 
C 4 -1.060812 3.578535 -2.078319 2.828427 -2.828427 
C 2.078319 -3.578535 1.060812 -4 0 -4 
C -1.060812 -4 -2.078319 -3.578535 -2.828427 -2.828427 
C -3.578535 -2.078319 -4 -1.060812 -4 0 
C -4 1.060812 -3.578535 2.078319 -2.828427 2.828427 
C -2.078319 3.578535 -1.060812 4 0 4 
z
" style="stroke: #e8590c"/>
    </defs>
    <g clip-path="url(#p0e52591498)">
     <use xlink:href="#m9b4c2ac663" x="288.72429" y="346.377571" style="fill: #e8590c; stroke: #e8590c"/>
    </g>
   </g>
   <g id="patch_6">
    <path d="M 438.988045 342.974404 
Q 364.816869 321.283952 292.79188 342.345829 
" style="fill: none; stroke: #c92a2a; stroke-width: 2; stroke-linecap: round"/>
    <path d="M 298.072549 343.302142 
L 292.79188 342.345829 
L 296.725331 338.695082 
" style="fill: none; stroke: #c92a2a; stroke-width: 2; stroke-linecap: round"/>
   </g>
   <g id="legend_1">
    <g id="patch_7">
     <path d="M 68.851562 92.585 
L 157.539062 92.585 
Q 159.939063 92.585 159.939063 90.185 
L 159.939063 56.1575 
Q 159.939063 53.7575 157.539062 53.7575 
L 68.851562 53.7575 
Q 66.451562 53.7575 66.451562 56.1575 
L 66.451562 90.185 
Q 66.451562 92.585 68.851562 92.585 
z
" style="fill: #ffffff; opacity: 0.9; stroke: #dee2e6; stroke-linejoin: miter"/>
    </g>
    <g id="line2d_30">
     <path d="M 71.251562 63.475625 
L 83.251562 63.475625 
L 95.251562 63.475625 
" style="fill: none; stroke: #339af0; stroke-width: 2.5; stroke-linecap: square"/>
    </g>
    <g id="text_20">
     <!-- f(x) = x² -->
     <g transform="translate(104.851562 67.675625) scale(0.12 -0.12)">
      <defs>
       <path id="DejaVuSans-b2" d="M 838 2444 
L 2163 2444 
L 2163 2088 
L 294 2088 
L 294 2431 
Q 400 2528 597 2703 
Q 1672 3656 1672 3950 
Q 1672 4156 1509 4282 
Q 1347 4409 1081 4409 
Q 919 4409 728 4354 
Q 538 4300 313 4191 
L 313 4575 
Q 553 4663 761 4706 
Q 969 4750 1147 4750 
Q 1600 4750 1872 4544 
Q 2144 4338 2144 4000 
Q 2144 3566 1109 2678 
Q 934 2528 838 2444 
z
" transform="scale(0.015625)"/>
      </defs>
      <use xlink:href="#DejaVuSans-66"/>
      <use xlink:href="#DejaVuSans-28" transform="translate(35.205078 0)"/>
      <use xlink:href="#DejaVuSans-78" transform="translate(74.21875 0)"/>
      <use xlink:href="#DejaVuSans-29" transform="translate(133.398438 0)"/>
      <use xlink:href="#DejaVuSans-20" transform="translate(172.412109 0)"/>
      <use xlink:href="#DejaVuSans-3d" transform="translate(204.199219 0)"/>
      <use xlink:href="#DejaVuSans-20" transform="translate(287.988281 0)"/>
      <use xlink:href="#DejaVuSans-78" transform="translate(319.775391 0)"/>
      <use xlink:href="#DejaVuSans-b2" transform="translate(378.955078 0)"/>
     </g>
    </g>
    <g id="line2d_31">
     <path d="M 71.251562 81.089375 
L 83.251562 81.089375 
L 95.251562 81.089375 
" style="fill: none; stroke: #e8590c; stroke-width: 2.5; stroke-linecap: square"/>
    </g>
    <g id="text_21">
     <!-- f(x + 3) -->
     <g transform="translate(104.851562 85.289375) scale(0.12 -0.12)">
      <use xlink:href="#DejaVuSans-66"/>
      <use xlink:href="#DejaVuSans-28" transform="translate(35.205078 0)"/>
      <use xlink:href="#DejaVuSans-78" transform="translate(74.21875 0)"/>
      <use xlink:href="#DejaVuSans-20" transform="translate(133.398438 0)"/>
      <use xlink:href="#DejaVuSans-2b" transform="translate(165.185547 0)"/>
      <use xlink:href="#DejaVuSans-20" transform="translate(248.974609 0)"/>
      <use xlink:href="#DejaVuSans-33" transform="translate(280.761719 0)"/>
      <use xlink:href="#DejaVuSans-29" transform="translate(344.384766 0)"/>
     </g>
    </g>
   </g>
  </g>
 </g>
 <defs>
  <clipPath id="p0e52591498">
   <rect x="60.451562" y="47.7575" width="558" height="332.64"/>
  </clipPath>
 </defs>
</svg>
