<?xml version="1.0" encoding="utf-8" standalone="no"?>
<!DOCTYPE svg PUBLIC "-//W3C//DTD SVG 1.1//EN"
  "http://www.w3.org/Graphics/SVG/1.1/DTD/svg11.dtd">
<svg xmlns:xlink="http://www.w3.org/1999/xlink" width="868.722298pt" height="471.075312pt" viewBox="0 0 868.722298 471.075312" xmlns="http://www.w3.org/2000/svg" version="1.1">
 <metadata>
  <rdf:RDF xmlns:dc="http://purl.org/dc/elements/1.1/" xmlns:cc="http://creativecommons.org/ns#" xmlns:rdf="http://www.w3.org/1999/02/22-rdf-syntax-ns#">
   <cc:Work>
    <dc:type rdf:resource="http://purl.org/dc/dcmitype/StillImage"/>
    <dc:date>2026-03-25T09:44:09.717360</dc:date>
    <dc:format>image/svg+xml</dc:format>
    <dc:creator>
     <cc:Agent>
      <dc:title>Matplotlib v3.10.8, https://matplotlib.org/</dc:title>
     </cc:Agent>
    </dc:creator>
   </cc:Work>
  </rdf:RDF>
 </metadata>
 <defs>
  <style type="text/css">*{stroke-linejoin: round; stroke-linecap: butt}</style>
 </defs>
 <g id="figure_1">
  <g id="patch_1">
   <path d="M 0 471.075312 
L 868.722298 471.075312 
L 868.722298 0 
L 0 0 
z
" style="fill: #ffffff"/>
  </g>
  <g id="axes_1">
   <g id="patch_2">
    <path d="M 62.872188 414.28 
L 422.453964 414.28 
L 422.453964 104.88 
L 62.872188 104.88 
z
" style="fill: #ffffff"/>
   </g>
   <g id="matplotlib.axis_1">
    <g id="xtick_1">
     <g id="line2d_1">
      <path d="M 79.216814 414.28 
L 79.216814 104.88 
" clip-path="url(#p8aae081b69)" style="fill: none; stroke: #dee2e6; stroke-opacity: 0.7; stroke-width: 0.5; stroke-linecap: square"/>
     </g>
     <g id="line2d_2">
      <defs>
       <path id="m7b38d14ae2" d="M 0 0 
L 0 3.5 
" style="stroke: #000000; stroke-width: 0.8"/>
      </defs>
      <g>
       <use xlink:href="#m7b38d14ae2" x="79.216814" y="414.28" style="stroke: #000000; stroke-width: 0.8"/>
      </g>
     </g>
     <g id="text_1">
      <!-- −2 -->
      <g transform="translate(70.371501 430.398125) scale(0.12 -0.12)">
       <defs>
        <path id="DejaVuSans-2212" d="M 678 2272 
L 4684 2272 
L 4684 1741 
L 678 1741 
L 678 2272 
z
" transform="scale(0.015625)"/>
        <path id="DejaVuSans-32" d="M 1228 531 
L 3431 531 
L 3431 0 
L 469 0 
L 469 531 
Q 828 903 1448 1529 
Q 2069 2156 2228 2338 
Q 2531 2678 2651 2914 
Q 2772 3150 2772 3378 
Q 2772 3750 2511 3984 
Q 2250 4219 1831 4219 
Q 1534 4219 1204 4116 
Q 875 4013 500 3803 
L 500 4441 
Q 881 4594 1212 4672 
Q 1544 4750 1819 4750 
Q 2544 4750 2975 4387 
Q 3406 4025 3406 3419 
Q 3406 3131 3298 2873 
Q 3191 2616 2906 2266 
Q 2828 2175 2409 1742 
Q 1991 1309 1228 531 
z
" transform="scale(0.015625)"/>
       </defs>
       <use xlink:href="#DejaVuSans-2212"/>
       <use xlink:href="#DejaVuSans-32" transform="translate(83.789062 0)"/>
      </g>
     </g>
    </g>
    <g id="xtick_2">
     <g id="line2d_3">
      <path d="M 144.595319 414.28 
L 144.595319 104.88 
" clip-path="url(#p8aae081b69)" style="fill: none; stroke: #dee2e6; stroke-opacity: 0.7; stroke-width: 0.5; stroke-linecap: square"/>
     </g>
     <g id="line2d_4">
      <g>
       <use xlink:href="#m7b38d14ae2" x="144.595319" y="414.28" style="stroke: #000000; stroke-width: 0.8"/>
      </g>
     </g>
     <g id="text_2">
      <!-- −1 -->
      <g transform="translate(135.750006 430.398125) scale(0.12 -0.12)">
       <defs>
        <path id="DejaVuSans-31" d="M 794 531 
L 1825 531 
L 1825 4091 
L 703 3866 
L 703 4441 
L 1819 4666 
L 2450 4666 
L 2450 531 
L 3481 531 
L 3481 0 
L 794 0 
L 794 531 
z
" transform="scale(0.015625)"/>
       </defs>
       <use xlink:href="#DejaVuSans-2212"/>
       <use xlink:href="#DejaVuSans-31" transform="translate(83.789062 0)"/>
      </g>
     </g>
    </g>
    <g id="xtick_3">
     <g id="line2d_5">
      <path d="M 209.973823 414.28 
L 209.973823 104.88 
" clip-path="url(#p8aae081b69)" style="fill: none; stroke: #dee2e6; stroke-opacity: 0.7; stroke-width: 0.5; stroke-linecap: square"/>
     </g>
     <g id="line2d_6">
      <g>
       <use xlink:href="#m7b38d14ae2" x="209.973823" y="414.28" style="stroke: #000000; stroke-width: 0.8"/>
      </g>
     </g>
     <g id="text_3">
      <!-- 0 -->
      <g transform="translate(206.156323 430.398125) scale(0.12 -0.12)">
       <defs>
        <path id="DejaVuSans-30" d="M 2034 4250 
Q 1547 4250 1301 3770 
Q 1056 3291 1056 2328 
Q 1056 1369 1301 889 
Q 1547 409 2034 409 
Q 2525 409 2770 889 
Q 3016 1369 3016 2328 
Q 3016 3291 2770 3770 
Q 2525 4250 2034 4250 
z
M 2034 4750 
Q 2819 4750 3233 4129 
Q 3647 3509 3647 2328 
Q 3647 1150 3233 529 
Q 2819 -91 2034 -91 
Q 1250 -91 836 529 
Q 422 1150 422 2328 
Q 422 3509 836 4129 
Q 1250 4750 2034 4750 
z
" transform="scale(0.015625)"/>
       </defs>
       <use xlink:href="#DejaVuSans-30"/>
      </g>
     </g>
    </g>
    <g id="xtick_4">
     <g id="line2d_7">
      <path d="M 275.352328 414.28 
L 275.352328 104.88 
" clip-path="url(#p8aae081b69)" style="fill: none; stroke: #dee2e6; stroke-opacity: 0.7; stroke-width: 0.5; stroke-linecap: square"/>
     </g>
     <g id="line2d_8">
      <g>
       <use xlink:href="#m7b38d14ae2" x="275.352328" y="414.28" style="stroke: #000000; stroke-width: 0.8"/>
      </g>
     </g>
     <g id="text_4">
      <!-- 1 -->
      <g transform="translate(271.534828 430.398125) scale(0.12 -0.12)">
       <use xlink:href="#DejaVuSans-31"/>
      </g>
     </g>
    </g>
    <g id="xtick_5">
     <g id="line2d_9">
      <path d="M 340.730833 414.28 
L 340.730833 104.88 
" clip-path="url(#p8aae081b69)" style="fill: none; stroke: #dee2e6; stroke-opacity: 0.7; stroke-width: 0.5; stroke-linecap: square"/>
     </g>
     <g id="line2d_10">
      <g>
       <use xlink:href="#m7b38d14ae2" x="340.730833" y="414.28" style="stroke: #000000; stroke-width: 0.8"/>
      </g>
     </g>
     <g id="text_5">
      <!-- 2 -->
      <g transform="translate(336.913333 430.398125) scale(0.12 -0.12)">
       <use xlink:href="#DejaVuSans-32"/>
      </g>
     </g>
    </g>
    <g id="xtick_6">
     <g id="line2d_11">
      <path d="M 406.109338 414.28 
L 406.109338 104.88 
" clip-path="url(#p8aae081b69)" style="fill: none; stroke: #dee2e6; stroke-opacity: 0.7; stroke-width: 0.5; stroke-linecap: square"/>
     </g>
     <g id="line2d_12">
      <g>
       <use xlink:href="#m7b38d14ae2" x="406.109338" y="414.28" style="stroke: #000000; stroke-width: 0.8"/>
      </g>
     </g>
     <g id="text_6">
      <!-- 3 -->
      <g transform="translate(402.291838 430.398125) scale(0.12 -0.12)">
       <defs>
        <path id="DejaVuSans-33" d="M 2597 2516 
Q 3050 2419 3304 2112 
Q 3559 1806 3559 1356 
Q 3559 666 3084 287 
Q 2609 -91 1734 -91 
Q 1441 -91 1130 -33 
Q 819 25 488 141 
L 488 750 
Q 750 597 1062 519 
Q 1375 441 1716 441 
Q 2309 441 2620 675 
Q 2931 909 2931 1356 
Q 2931 1769 2642 2001 
Q 2353 2234 1838 2234 
L 1294 2234 
L 1294 2753 
L 1863 2753 
Q 2328 2753 2575 2939 
Q 2822 3125 2822 3475 
Q 2822 3834 2567 4026 
Q 2313 4219 1838 4219 
Q 1578 4219 1281 4162 
Q 984 4106 628 3988 
L 628 4550 
Q 988 4650 1302 4700 
Q 1616 4750 1894 4750 
Q 2613 4750 3031 4423 
Q 3450 4097 3450 3541 
Q 3450 3153 3228 2886 
Q 3006 2619 2597 2516 
z
" transform="scale(0.015625)"/>
       </defs>
       <use xlink:href="#DejaVuSans-33"/>
      </g>
     </g>
    </g>
    <g id="text_7">
     <!-- x -->
     <g transform="translate(238.815888 446.771719) scale(0.13 -0.13)">
      <defs>
       <path id="DejaVuSans-78" d="M 3513 3500 
L 2247 1797 
L 3578 0 
L 2900 0 
L 1881 1375 
L 863 0 
L 184 0 
L 1544 1831 
L 300 3500 
L 978 3500 
L 1906 2253 
L 2834 3500 
L 3513 3500 
z
" transform="scale(0.015625)"/>
      </defs>
      <use xlink:href="#DejaVuSans-78"/>
     </g>
    </g>
   </g>
   <g id="matplotlib.axis_2">
    <g id="ytick_1">
     <g id="line2d_13">
      <path d="M 62.872188 372.089091 
L 422.453964 372.089091 
" clip-path="url(#p8aae081b69)" style="fill: none; stroke: #dee2e6; stroke-opacity: 0.7; stroke-width: 0.5; stroke-linecap: square"/>
     </g>
     <g id="line2d_14">
      <defs>
       <path id="m9295edcf63" d="M 0 0 
L -3.5 0 
" style="stroke: #000000; stroke-width: 0.8"/>
      </defs>
      <g>
       <use xlink:href="#m9295edcf63" x="62.872188" y="372.089091" style="stroke: #000000; stroke-width: 0.8"/>
      </g>
     </g>
     <g id="text_8">
      <!-- −2 -->
      <g transform="translate(38.181562 376.648153) scale(0.12 -0.12)">
       <use xlink:href="#DejaVuSans-2212"/>
       <use xlink:href="#DejaVuSans-32" transform="translate(83.789062 0)"/>
      </g>
     </g>
    </g>
    <g id="ytick_2">
     <g id="line2d_15">
      <path d="M 62.872188 315.834545 
L 422.453964 315.834545 
" clip-path="url(#p8aae081b69)" style="fill: none; stroke: #dee2e6; stroke-opacity: 0.7; stroke-width: 0.5; stroke-linecap: square"/>
     </g>
     <g id="line2d_16">
      <g>
       <use xlink:href="#m9295edcf63" x="62.872188" y="315.834545" style="stroke: #000000; stroke-width: 0.8"/>
      </g>
     </g>
     <g id="text_9">
      <!-- 0 -->
      <g transform="translate(48.237188 320.393608) scale(0.12 -0.12)">
       <use xlink:href="#DejaVuSans-30"/>
      </g>
     </g>
    </g>
    <g id="ytick_3">
     <g id="line2d_17">
      <path d="M 62.872188 259.58 
L 422.453964 259.58 
" clip-path="url(#p8aae081b69)" style="fill: none; stroke: #dee2e6; stroke-opacity: 0.7; stroke-width: 0.5; stroke-linecap: square"/>
     </g>
     <g id="line2d_18">
      <g>
       <use xlink:href="#m9295edcf63" x="62.872188" y="259.58" style="stroke: #000000; stroke-width: 0.8"/>
      </g>
     </g>
     <g id="text_10">
      <!-- 2 -->
      <g transform="translate(48.237188 264.139062) scale(0.12 -0.12)">
       <use xlink:href="#DejaVuSans-32"/>
      </g>
     </g>
    </g>
    <g id="ytick_4">
     <g id="line2d_19">
      <path d="M 62.872188 203.325455 
L 422.453964 203.325455 
" clip-path="url(#p8aae081b69)" style="fill: none; stroke: #dee2e6; stroke-opacity: 0.7; stroke-width: 0.5; stroke-linecap: square"/>
     </g>
     <g id="line2d_20">
      <g>
       <use xlink:href="#m9295edcf63" x="62.872188" y="203.325455" style="stroke: #000000; stroke-width: 0.8"/>
      </g>
     </g>
     <g id="text_11">
      <!-- 4 -->
      <g transform="translate(48.237188 207.884517) scale(0.12 -0.12)">
       <defs>
        <path id="DejaVuSans-34" d="M 2419 4116 
L 825 1625 
L 2419 1625 
L 2419 4116 
z
M 2253 4666 
L 3047 4666 
L 3047 1625 
L 3713 1625 
L 3713 1100 
L 3047 1100 
L 3047 0 
L 2419 0 
L 2419 1100 
L 313 1100 
L 313 1709 
L 2253 4666 
z
" transform="scale(0.015625)"/>
       </defs>
       <use xlink:href="#DejaVuSans-34"/>
      </g>
     </g>
    </g>
    <g id="ytick_5">
     <g id="line2d_21">
      <path d="M 62.872188 147.070909 
L 422.453964 147.070909 
" clip-path="url(#p8aae081b69)" style="fill: none; stroke: #dee2e6; stroke-opacity: 0.7; stroke-width: 0.5; stroke-linecap: square"/>
     </g>
     <g id="line2d_22">
      <g>
       <use xlink:href="#m9295edcf63" x="62.872188" y="147.070909" style="stroke: #000000; stroke-width: 0.8"/>
      </g>
     </g>
     <g id="text_12">
      <!-- 6 -->
      <g transform="translate(48.237188 151.629972) scale(0.12 -0.12)">
       <defs>
        <path id="DejaVuSans-36" d="M 2113 2584 
Q 1688 2584 1439 2293 
Q 1191 2003 1191 1497 
Q 1191 994 1439 701 
Q 1688 409 2113 409 
Q 2538 409 2786 701 
Q 3034 994 3034 1497 
Q 3034 2003 2786 2293 
Q 2538 2584 2113 2584 
z
M 3366 4563 
L 3366 3988 
Q 3128 4100 2886 4159 
Q 2644 4219 2406 4219 
Q 1781 4219 1451 3797 
Q 1122 3375 1075 2522 
Q 1259 2794 1537 2939 
Q 1816 3084 2150 3084 
Q 2853 3084 3261 2657 
Q 3669 2231 3669 1497 
Q 3669 778 3244 343 
Q 2819 -91 2113 -91 
Q 1303 -91 875 529 
Q 447 1150 447 2328 
Q 447 3434 972 4092 
Q 1497 4750 2381 4750 
Q 2619 4750 2861 4703 
Q 3103 4656 3366 4563 
z
" transform="scale(0.015625)"/>
       </defs>
       <use xlink:href="#DejaVuSans-36"/>
      </g>
     </g>
    </g>
    <g id="text_13">
     <!-- y -->
     <g transform="translate(31.477969 263.427187) rotate(-90) scale(0.13 -0.13)">
      <defs>
       <path id="DejaVuSans-79" d="M 2059 -325 
Q 1816 -950 1584 -1140 
Q 1353 -1331 966 -1331 
L 506 -1331 
L 506 -850 
L 844 -850 
Q 1081 -850 1212 -737 
Q 1344 -625 1503 -206 
L 1606 56 
L 191 3500 
L 800 3500 
L 1894 763 
L 2988 3500 
L 3597 3500 
L 2059 -325 
z
" transform="scale(0.015625)"/>
      </defs>
      <use xlink:href="#DejaVuSans-79"/>
     </g>
    </g>
   </g>
   <g id="line2d_23">
    <path d="M 62.872188 259.58 
L 422.453964 259.58 
" clip-path="url(#p8aae081b69)" style="fill: none; stroke-dasharray: 4.44,1.92; stroke-dashoffset: 0; stroke: #868e96; stroke-width: 1.2"/>
   </g>
   <g id="patch_3">
    <path d="M 62.872188 414.28 
L 62.872188 104.88 
" style="fill: none; stroke: #868e96; stroke-width: 0.8; stroke-linejoin: miter; stroke-linecap: square"/>
   </g>
   <g id="patch_4">
    <path d="M 62.872187 414.28 
L 422.453964 414.28 
" style="fill: none; stroke: #868e96; stroke-width: 0.8; stroke-linejoin: miter; stroke-linecap: square"/>
   </g>
   <g id="line2d_24">
    <path d="M 79.216814 400.216364 
L 406.109338 118.943636 
L 406.109338 118.943636 
" clip-path="url(#p8aae081b69)" style="fill: none; stroke: #339af0; stroke-width: 2.5; stroke-linecap: square"/>
   </g>
   <g id="text_14">
    <!-- 1 intersection -->
    <g style="fill: #2f9e44" transform="translate(252.663076 249.58) scale(0.11 -0.11)">
     <defs>
      <path id="DejaVuSans-Bold-31" d="M 750 831 
L 1813 831 
L 1813 3847 
L 722 3622 
L 722 4441 
L 1806 4666 
L 2950 4666 
L 2950 831 
L 4013 831 
L 4013 0 
L 750 0 
L 750 831 
z
" transform="scale(0.015625)"/>
      <path id="DejaVuSans-Bold-20" transform="scale(0.015625)"/>
      <path id="DejaVuSans-Bold-69" d="M 538 3500 
L 1656 3500 
L 1656 0 
L 538 0 
L 538 3500 
z
M 538 4863 
L 1656 4863 
L 1656 3950 
L 538 3950 
L 538 4863 
z
" transform="scale(0.015625)"/>
      <path id="DejaVuSans-Bold-6e" d="M 4056 2131 
L 4056 0 
L 2931 0 
L 2931 347 
L 2931 1631 
Q 2931 2084 2911 2256 
Q 2891 2428 2841 2509 
Q 2775 2619 2662 2680 
Q 2550 2741 2406 2741 
Q 2056 2741 1856 2470 
Q 1656 2200 1656 1722 
L 1656 0 
L 538 0 
L 538 3500 
L 1656 3500 
L 1656 2988 
Q 1909 3294 2193 3439 
Q 2478 3584 2822 3584 
Q 3428 3584 3742 3212 
Q 4056 2841 4056 2131 
z
" transform="scale(0.015625)"/>
      <path id="DejaVuSans-Bold-74" d="M 1759 4494 
L 1759 3500 
L 2913 3500 
L 2913 2700 
L 1759 2700 
L 1759 1216 
Q 1759 972 1856 886 
Q 1953 800 2241 800 
L 2816 800 
L 2816 0 
L 1856 0 
Q 1194 0 917 276 
Q 641 553 641 1216 
L 641 2700 
L 84 2700 
L 84 3500 
L 641 3500 
L 641 4494 
L 1759 4494 
z
" transform="scale(0.015625)"/>
      <path id="DejaVuSans-Bold-65" d="M 4031 1759 
L 4031 1441 
L 1416 1441 
Q 1456 1047 1700 850 
Q 1944 653 2381 653 
Q 2734 653 3104 758 
Q 3475 863 3866 1075 
L 3866 213 
Q 3469 63 3072 -14 
Q 2675 -91 2278 -91 
Q 1328 -91 801 392 
Q 275 875 275 1747 
Q 275 2603 792 3093 
Q 1309 3584 2216 3584 
Q 3041 3584 3536 3087 
Q 4031 2591 4031 1759 
z
M 2881 2131 
Q 2881 2450 2695 2645 
Q 2509 2841 2209 2841 
Q 1884 2841 1681 2658 
Q 1478 2475 1428 2131 
L 2881 2131 
z
" transform="scale(0.015625)"/>
      <path id="DejaVuSans-Bold-72" d="M 3138 2547 
Q 2991 2616 2845 2648 
Q 2700 2681 2553 2681 
Q 2122 2681 1889 2404 
Q 1656 2128 1656 1613 
L 1656 0 
L 538 0 
L 538 3500 
L 1656 3500 
L 1656 2925 
Q 1872 3269 2151 3426 
Q 2431 3584 2822 3584 
Q 2878 3584 2943 3579 
Q 3009 3575 3134 3559 
L 3138 2547 
z
" transform="scale(0.015625)"/>
      <path id="DejaVuSans-Bold-73" d="M 3272 3391 
L 3272 2541 
Q 2913 2691 2578 2766 
Q 2244 2841 1947 2841 
Q 1628 2841 1473 2761 
Q 1319 2681 1319 2516 
Q 1319 2381 1436 2309 
Q 1553 2238 1856 2203 
L 2053 2175 
Q 2913 2066 3209 1816 
Q 3506 1566 3506 1031 
Q 3506 472 3093 190 
Q 2681 -91 1863 -91 
Q 1516 -91 1145 -36 
Q 775 19 384 128 
L 384 978 
Q 719 816 1070 734 
Q 1422 653 1784 653 
Q 2113 653 2278 743 
Q 2444 834 2444 1013 
Q 2444 1163 2330 1236 
Q 2216 1309 1875 1350 
L 1678 1375 
Q 931 1469 631 1722 
Q 331 1975 331 2491 
Q 331 3047 712 3315 
Q 1094 3584 1881 3584 
Q 2191 3584 2531 3537 
Q 2872 3491 3272 3391 
z
" transform="scale(0.015625)"/>
      <path id="DejaVuSans-Bold-63" d="M 3366 3391 
L 3366 2478 
Q 3138 2634 2908 2709 
Q 2678 2784 2431 2784 
Q 1963 2784 1702 2511 
Q 1441 2238 1441 1747 
Q 1441 1256 1702 982 
Q 1963 709 2431 709 
Q 2694 709 2930 787 
Q 3166 866 3366 1019 
L 3366 103 
Q 3103 6 2833 -42 
Q 2563 -91 2291 -91 
Q 1344 -91 809 395 
Q 275 881 275 1747 
Q 275 2613 809 3098 
Q 1344 3584 2291 3584 
Q 2566 3584 2833 3536 
Q 3100 3488 3366 3391 
z
" transform="scale(0.015625)"/>
      <path id="DejaVuSans-Bold-6f" d="M 2203 2784 
Q 1831 2784 1636 2517 
Q 1441 2250 1441 1747 
Q 1441 1244 1636 976 
Q 1831 709 2203 709 
Q 2569 709 2762 976 
Q 2956 1244 2956 1747 
Q 2956 2250 2762 2517 
Q 2569 2784 2203 2784 
z
M 2203 3584 
Q 3106 3584 3614 3096 
Q 4122 2609 4122 1747 
Q 4122 884 3614 396 
Q 3106 -91 2203 -91 
Q 1297 -91 786 396 
Q 275 884 275 1747 
Q 275 2609 786 3096 
Q 1297 3584 2203 3584 
z
" transform="scale(0.015625)"/>
     </defs>
     <use xlink:href="#DejaVuSans-Bold-31"/>
     <use xlink:href="#DejaVuSans-Bold-20" transform="translate(69.580078 0)"/>
     <use xlink:href="#DejaVuSans-Bold-69" transform="translate(104.394531 0)"/>
     <use xlink:href="#DejaVuSans-Bold-6e" transform="translate(138.671875 0)"/>
     <use xlink:href="#DejaVuSans-Bold-74" transform="translate(209.863281 0)"/>
     <use xlink:href="#DejaVuSans-Bold-65" transform="translate(257.666016 0)"/>
     <use xlink:href="#DejaVuSans-Bold-72" transform="translate(325.488281 0)"/>
     <use xlink:href="#DejaVuSans-Bold-73" transform="translate(374.804688 0)"/>
     <use xlink:href="#DejaVuSans-Bold-65" transform="translate(434.326172 0)"/>
     <use xlink:href="#DejaVuSans-Bold-63" transform="translate(502.148438 0)"/>
     <use xlink:href="#DejaVuSans-Bold-74" transform="translate(561.425781 0)"/>
     <use xlink:href="#DejaVuSans-Bold-69" transform="translate(609.228516 0)"/>
     <use xlink:href="#DejaVuSans-Bold-6f" transform="translate(643.505859 0)"/>
     <use xlink:href="#DejaVuSans-Bold-6e" transform="translate(712.207031 0)"/>
    </g>
   </g>
   <g id="text_15">
    <g id="patch_5">
     <path d="M 158.649717 413.679656 
L 326.676435 413.679656 
Q 329.976435 413.679656 329.976435 410.379656 
L 329.976435 399.733719 
Q 329.976435 396.433719 326.676435 396.433719 
L 158.649717 396.433719 
Q 155.349717 396.433719 155.349717 399.733719 
L 155.349717 410.379656 
Q 155.349717 413.679656 158.649717 413.679656 
z
" style="fill: #b2f2bb; opacity: 0.85; stroke: #2f9e44; stroke-linejoin: miter"/>
    </g>
    <!-- PASSES horizontal line test -->
    <g style="fill: #2f9e44" transform="translate(158.649717 408.092) scale(0.11 -0.11)">
     <defs>
      <path id="DejaVuSans-Bold-50" d="M 588 4666 
L 2584 4666 
Q 3475 4666 3951 4270 
Q 4428 3875 4428 3144 
Q 4428 2409 3951 2014 
Q 3475 1619 2584 1619 
L 1791 1619 
L 1791 0 
L 588 0 
L 588 4666 
z
M 1791 3794 
L 1791 2491 
L 2456 2491 
Q 2806 2491 2997 2661 
Q 3188 2831 3188 3144 
Q 3188 3456 2997 3625 
Q 2806 3794 2456 3794 
L 1791 3794 
z
" transform="scale(0.015625)"/>
      <path id="DejaVuSans-Bold-41" d="M 3419 850 
L 1538 850 
L 1241 0 
L 31 0 
L 1759 4666 
L 3194 4666 
L 4922 0 
L 3713 0 
L 3419 850 
z
M 1838 1716 
L 3116 1716 
L 2478 3572 
L 1838 1716 
z
" transform="scale(0.015625)"/>
      <path id="DejaVuSans-Bold-53" d="M 3834 4519 
L 3834 3531 
Q 3450 3703 3084 3790 
Q 2719 3878 2394 3878 
Q 1963 3878 1756 3759 
Q 1550 3641 1550 3391 
Q 1550 3203 1689 3098 
Q 1828 2994 2194 2919 
L 2706 2816 
Q 3484 2659 3812 2340 
Q 4141 2022 4141 1434 
Q 4141 663 3683 286 
Q 3225 -91 2284 -91 
Q 1841 -91 1394 -6 
Q 947 78 500 244 
L 500 1259 
Q 947 1022 1364 901 
Q 1781 781 2169 781 
Q 2563 781 2772 912 
Q 2981 1044 2981 1288 
Q 2981 1506 2839 1625 
Q 2697 1744 2272 1838 
L 1806 1941 
Q 1106 2091 782 2419 
Q 459 2747 459 3303 
Q 459 4000 909 4375 
Q 1359 4750 2203 4750 
Q 2588 4750 2994 4692 
Q 3400 4634 3834 4519 
z
" transform="scale(0.015625)"/>
      <path id="DejaVuSans-Bold-45" d="M 588 4666 
L 3834 4666 
L 3834 3756 
L 1791 3756 
L 1791 2888 
L 3713 2888 
L 3713 1978 
L 1791 1978 
L 1791 909 
L 3903 909 
L 3903 0 
L 588 0 
L 588 4666 
z
" transform="scale(0.015625)"/>
      <path id="DejaVuSans-Bold-68" d="M 4056 2131 
L 4056 0 
L 2931 0 
L 2931 347 
L 2931 1625 
Q 2931 2084 2911 2256 
Q 2891 2428 2841 2509 
Q 2775 2619 2662 2680 
Q 2550 2741 2406 2741 
Q 2056 2741 1856 2470 
Q 1656 2200 1656 1722 
L 1656 0 
L 538 0 
L 538 4863 
L 1656 4863 
L 1656 2988 
Q 1909 3294 2193 3439 
Q 2478 3584 2822 3584 
Q 3428 3584 3742 3212 
Q 4056 2841 4056 2131 
z
" transform="scale(0.015625)"/>
      <path id="DejaVuSans-Bold-7a" d="M 366 3500 
L 3419 3500 
L 3419 2719 
L 1575 800 
L 3419 800 
L 3419 0 
L 288 0 
L 288 781 
L 2131 2700 
L 366 2700 
L 366 3500 
z
" transform="scale(0.015625)"/>
      <path id="DejaVuSans-Bold-61" d="M 2106 1575 
Q 1756 1575 1579 1456 
Q 1403 1338 1403 1106 
Q 1403 894 1545 773 
Q 1688 653 1941 653 
Q 2256 653 2472 879 
Q 2688 1106 2688 1447 
L 2688 1575 
L 2106 1575 
z
M 3816 1997 
L 3816 0 
L 2688 0 
L 2688 519 
Q 2463 200 2181 54 
Q 1900 -91 1497 -91 
Q 953 -91 614 226 
Q 275 544 275 1050 
Q 275 1666 698 1953 
Q 1122 2241 2028 2241 
L 2688 2241 
L 2688 2328 
Q 2688 2594 2478 2717 
Q 2269 2841 1825 2841 
Q 1466 2841 1156 2769 
Q 847 2697 581 2553 
L 581 3406 
Q 941 3494 1303 3539 
Q 1666 3584 2028 3584 
Q 2975 3584 3395 3211 
Q 3816 2838 3816 1997 
z
" transform="scale(0.015625)"/>
      <path id="DejaVuSans-Bold-6c" d="M 538 4863 
L 1656 4863 
L 1656 0 
L 538 0 
L 538 4863 
z
" transform="scale(0.015625)"/>
     </defs>
     <use xlink:href="#DejaVuSans-Bold-50"/>
     <use xlink:href="#DejaVuSans-Bold-41" transform="translate(64.166016 0)"/>
     <use xlink:href="#DejaVuSans-Bold-53" transform="translate(141.558594 0)"/>
     <use xlink:href="#DejaVuSans-Bold-53" transform="translate(209.080078 0)"/>
     <use xlink:href="#DejaVuSans-Bold-45" transform="translate(281.101562 0)"/>
     <use xlink:href="#DejaVuSans-Bold-53" transform="translate(349.412109 0)"/>
     <use xlink:href="#DejaVuSans-Bold-20" transform="translate(421.433594 0)"/>
     <use xlink:href="#DejaVuSans-Bold-68" transform="translate(456.248047 0)"/>
     <use xlink:href="#DejaVuSans-Bold-6f" transform="translate(527.439453 0)"/>
     <use xlink:href="#DejaVuSans-Bold-72" transform="translate(596.140625 0)"/>
     <use xlink:href="#DejaVuSans-Bold-69" transform="translate(645.457031 0)"/>
     <use xlink:href="#DejaVuSans-Bold-7a" transform="translate(679.734375 0)"/>
     <use xlink:href="#DejaVuSans-Bold-6f" transform="translate(737.9375 0)"/>
     <use xlink:href="#DejaVuSans-Bold-6e" transform="translate(806.638672 0)"/>
     <use xlink:href="#DejaVuSans-Bold-74" transform="translate(877.830078 0)"/>
     <use xlink:href="#DejaVuSans-Bold-61" transform="translate(925.632812 0)"/>
     <use xlink:href="#DejaVuSans-Bold-6c" transform="translate(993.113281 0)"/>
     <use xlink:href="#DejaVuSans-Bold-20" transform="translate(1027.390625 0)"/>
     <use xlink:href="#DejaVuSans-Bold-6c" transform="translate(1062.205078 0)"/>
     <use xlink:href="#DejaVuSans-Bold-69" transform="translate(1096.482422 0)"/>
     <use xlink:href="#DejaVuSans-Bold-6e" transform="translate(1130.759766 0)"/>
     <use xlink:href="#DejaVuSans-Bold-65" transform="translate(1201.951172 0)"/>
     <use xlink:href="#DejaVuSans-Bold-20" transform="translate(1269.773438 0)"/>
     <use xlink:href="#DejaVuSans-Bold-74" transform="translate(1304.587891 0)"/>
     <use xlink:href="#DejaVuSans-Bold-65" transform="translate(1352.390625 0)"/>
     <use xlink:href="#DejaVuSans-Bold-73" transform="translate(1420.212891 0)"/>
     <use xlink:href="#DejaVuSans-Bold-74" transform="translate(1479.734375 0)"/>
    </g>
   </g>
   <g id="text_16">
    <!-- f(x) = 2x + 1 -->
    <g style="fill: #2f9e44" transform="translate(192.969638 83.203062) scale(0.14 -0.14)">
     <defs>
      <path id="DejaVuSans-Bold-66" d="M 2841 4863 
L 2841 4128 
L 2222 4128 
Q 1984 4128 1890 4042 
Q 1797 3956 1797 3744 
L 1797 3500 
L 2753 3500 
L 2753 2700 
L 1797 2700 
L 1797 0 
L 678 0 
L 678 2700 
L 122 2700 
L 122 3500 
L 678 3500 
L 678 3744 
Q 678 4316 997 4589 
Q 1316 4863 1984 4863 
L 2841 4863 
z
" transform="scale(0.015625)"/>
      <path id="DejaVuSans-Bold-28" d="M 2413 -844 
L 1484 -844 
Q 1006 -72 778 623 
Q 550 1319 550 2003 
Q 550 2688 779 3389 
Q 1009 4091 1484 4856 
L 2413 4856 
Q 2013 4116 1813 3408 
Q 1613 2700 1613 2009 
Q 1613 1319 1811 609 
Q 2009 -100 2413 -844 
z
" transform="scale(0.015625)"/>
      <path id="DejaVuSans-Bold-78" d="M 1422 1791 
L 159 3500 
L 1344 3500 
L 2059 2463 
L 2784 3500 
L 3969 3500 
L 2706 1797 
L 4031 0 
L 2847 0 
L 2059 1106 
L 1281 0 
L 97 0 
L 1422 1791 
z
" transform="scale(0.015625)"/>
      <path id="DejaVuSans-Bold-29" d="M 513 -844 
Q 913 -100 1113 609 
Q 1313 1319 1313 2009 
Q 1313 2700 1113 3408 
Q 913 4116 513 4856 
L 1441 4856 
Q 1916 4091 2145 3389 
Q 2375 2688 2375 2003 
Q 2375 1319 2147 623 
Q 1919 -72 1441 -844 
L 513 -844 
z
" transform="scale(0.015625)"/>
      <path id="DejaVuSans-Bold-3d" d="M 678 3084 
L 4684 3084 
L 4684 2350 
L 678 2350 
L 678 3084 
z
M 678 1663 
L 4684 1663 
L 4684 922 
L 678 922 
L 678 1663 
z
" transform="scale(0.015625)"/>
      <path id="DejaVuSans-Bold-32" d="M 1844 884 
L 3897 884 
L 3897 0 
L 506 0 
L 506 884 
L 2209 2388 
Q 2438 2594 2547 2791 
Q 2656 2988 2656 3200 
Q 2656 3528 2436 3728 
Q 2216 3928 1850 3928 
Q 1569 3928 1234 3808 
Q 900 3688 519 3450 
L 519 4475 
Q 925 4609 1322 4679 
Q 1719 4750 2100 4750 
Q 2938 4750 3402 4381 
Q 3866 4013 3866 3353 
Q 3866 2972 3669 2642 
Q 3472 2313 2841 1759 
L 1844 884 
z
" transform="scale(0.015625)"/>
      <path id="DejaVuSans-Bold-2b" d="M 3053 4013 
L 3053 2375 
L 4684 2375 
L 4684 1638 
L 3053 1638 
L 3053 0 
L 2309 0 
L 2309 1638 
L 678 1638 
L 678 2375 
L 2309 2375 
L 2309 4013 
L 3053 4013 
z
" transform="scale(0.015625)"/>
     </defs>
     <use xlink:href="#DejaVuSans-Bold-66"/>
     <use xlink:href="#DejaVuSans-Bold-28" transform="translate(43.505859 0)"/>
     <use xlink:href="#DejaVuSans-Bold-78" transform="translate(89.208984 0)"/>
     <use xlink:href="#DejaVuSans-Bold-29" transform="translate(153.710938 0)"/>
     <use xlink:href="#DejaVuSans-Bold-20" transform="translate(199.414062 0)"/>
     <use xlink:href="#DejaVuSans-Bold-3d" transform="translate(234.228516 0)"/>
     <use xlink:href="#DejaVuSans-Bold-20" transform="translate(318.017578 0)"/>
     <use xlink:href="#DejaVuSans-Bold-32" transform="translate(352.832031 0)"/>
     <use xlink:href="#DejaVuSans-Bold-78" transform="translate(422.412109 0)"/>
     <use xlink:href="#DejaVuSans-Bold-20" transform="translate(486.914062 0)"/>
     <use xlink:href="#DejaVuSans-Bold-2b" transform="translate(521.728516 0)"/>
     <use xlink:href="#DejaVuSans-Bold-20" transform="translate(605.517578 0)"/>
     <use xlink:href="#DejaVuSans-Bold-31" transform="translate(640.332031 0)"/>
    </g>
    <!-- (one-one) -->
    <g style="fill: #2f9e44" transform="translate(204.279013 98.88) scale(0.14 -0.14)">
     <defs>
      <path id="DejaVuSans-Bold-2d" d="M 347 2297 
L 2309 2297 
L 2309 1388 
L 347 1388 
L 347 2297 
z
" transform="scale(0.015625)"/>
     </defs>
     <use xlink:href="#DejaVuSans-Bold-28"/>
     <use xlink:href="#DejaVuSans-Bold-6f" transform="translate(45.703125 0)"/>
     <use xlink:href="#DejaVuSans-Bold-6e" transform="translate(114.404297 0)"/>
     <use xlink:href="#DejaVuSans-Bold-65" transform="translate(185.595703 0)"/>
     <use xlink:href="#DejaVuSans-Bold-2d" transform="translate(253.417969 0)"/>
     <use xlink:href="#DejaVuSans-Bold-6f" transform="translate(294.921875 0)"/>
     <use xlink:href="#DejaVuSans-Bold-6e" transform="translate(363.623047 0)"/>
     <use xlink:href="#DejaVuSans-Bold-65" transform="translate(434.814453 0)"/>
     <use xlink:href="#DejaVuSans-Bold-29" transform="translate(502.636719 0)"/>
    </g>
   </g>
   <g id="line2d_25">
    <defs>
     <path id="m94c211c581" d="M 0 5 
C 1.326016 5 2.597899 4.473168 3.535534 3.535534 
C 4.473168 2.597899 5 1.326016 5 0 
C 5 -1.326016 4.473168 -2.597899 3.535534 -3.535534 
C 2.597899 -4.473168 1.326016 -5 0 -5 
C -1.326016 -5 -2.597899 -4.473168 -3.535534 -3.535534 
C -4.473168 -2.597899 -5 -1.326016 -5 0 
C -5 1.326016 -4.473168 2.597899 -3.535534 3.535534 
C -2.597899 4.473168 -1.326016 5 0 5 
z
" style="stroke: #2f9e44"/>
    </defs>
    <g clip-path="url(#p8aae081b69)">
     <use xlink:href="#m94c211c581" x="242.663076" y="259.58" style="fill: #2f9e44; stroke: #2f9e44"/>
    </g>
   </g>
  </g>
  <g id="axes_2">
   <g id="patch_6">
    <path d="M 466.543964 414.28 
L 826.125741 414.28 
L 826.125741 104.88 
L 466.543964 104.88 
z
" style="fill: #ffffff"/>
   </g>
   <g id="matplotlib.axis_3">
    <g id="xtick_7">
     <g id="line2d_26">
      <path d="M 515.577843 414.28 
L 515.577843 104.88 
" clip-path="url(#p4f3634705d)" style="fill: none; stroke: #dee2e6; stroke-opacity: 0.7; stroke-width: 0.5; stroke-linecap: square"/>
     </g>
     <g id="line2d_27">
      <g>
       <use xlink:href="#m7b38d14ae2" x="515.577843" y="414.28" style="stroke: #000000; stroke-width: 0.8"/>
      </g>
     </g>
     <g id="text_17">
      <!-- −2 -->
      <g transform="translate(506.732531 430.398125) scale(0.12 -0.12)">
       <use xlink:href="#DejaVuSans-2212"/>
       <use xlink:href="#DejaVuSans-32" transform="translate(83.789062 0)"/>
      </g>
     </g>
    </g>
    <g id="xtick_8">
     <g id="line2d_28">
      <path d="M 580.956348 414.28 
L 580.956348 104.88 
" clip-path="url(#p4f3634705d)" style="fill: none; stroke: #dee2e6; stroke-opacity: 0.7; stroke-width: 0.5; stroke-linecap: square"/>
     </g>
     <g id="line2d_29">
      <g>
       <use xlink:href="#m7b38d14ae2" x="580.956348" y="414.28" style="stroke: #000000; stroke-width: 0.8"/>
      </g>
     </g>
     <g id="text_18">
      <!-- −1 -->
      <g transform="translate(572.111035 430.398125) scale(0.12 -0.12)">
       <use xlink:href="#DejaVuSans-2212"/>
       <use xlink:href="#DejaVuSans-31" transform="translate(83.789062 0)"/>
      </g>
     </g>
    </g>
    <g id="xtick_9">
     <g id="line2d_30">
      <path d="M 646.334853 414.28 
L 646.334853 104.88 
" clip-path="url(#p4f3634705d)" style="fill: none; stroke: #dee2e6; stroke-opacity: 0.7; stroke-width: 0.5; stroke-linecap: square"/>
     </g>
     <g id="line2d_31">
      <g>
       <use xlink:href="#m7b38d14ae2" x="646.334853" y="414.28" style="stroke: #000000; stroke-width: 0.8"/>
      </g>
     </g>
     <g id="text_19">
      <!-- 0 -->
      <g transform="translate(642.517353 430.398125) scale(0.12 -0.12)">
       <use xlink:href="#DejaVuSans-30"/>
      </g>
     </g>
    </g>
    <g id="xtick_10">
     <g id="line2d_32">
      <path d="M 711.713358 414.28 
L 711.713358 104.88 
" clip-path="url(#p4f3634705d)" style="fill: none; stroke: #dee2e6; stroke-opacity: 0.7; stroke-width: 0.5; stroke-linecap: square"/>
     </g>
     <g id="line2d_33">
      <g>
       <use xlink:href="#m7b38d14ae2" x="711.713358" y="414.28" style="stroke: #000000; stroke-width: 0.8"/>
      </g>
     </g>
     <g id="text_20">
      <!-- 1 -->
      <g transform="translate(707.895858 430.398125) scale(0.12 -0.12)">
       <use xlink:href="#DejaVuSans-31"/>
      </g>
     </g>
    </g>
    <g id="xtick_11">
     <g id="line2d_34">
      <path d="M 777.091863 414.28 
L 777.091863 104.88 
" clip-path="url(#p4f3634705d)" style="fill: none; stroke: #dee2e6; stroke-opacity: 0.7; stroke-width: 0.5; stroke-linecap: square"/>
     </g>
     <g id="line2d_35">
      <g>
       <use xlink:href="#m7b38d14ae2" x="777.091863" y="414.28" style="stroke: #000000; stroke-width: 0.8"/>
      </g>
     </g>
     <g id="text_21">
      <!-- 2 -->
      <g transform="translate(773.274363 430.398125) scale(0.12 -0.12)">
       <use xlink:href="#DejaVuSans-32"/>
      </g>
     </g>
    </g>
    <g id="text_22">
     <!-- x -->
     <g transform="translate(642.487665 446.771719) scale(0.13 -0.13)">
      <use xlink:href="#DejaVuSans-78"/>
     </g>
    </g>
   </g>
   <g id="matplotlib.axis_4">
    <g id="ytick_6">
     <g id="line2d_36">
      <path d="M 466.543964 400.217493 
L 826.125741 400.217493 
" clip-path="url(#p4f3634705d)" style="fill: none; stroke: #dee2e6; stroke-opacity: 0.7; stroke-width: 0.5; stroke-linecap: square"/>
     </g>
     <g id="line2d_37">
      <g>
       <use xlink:href="#m9295edcf63" x="466.543964" y="400.217493" style="stroke: #000000; stroke-width: 0.8"/>
      </g>
     </g>
     <g id="text_23">
      <!-- 0 -->
      <g transform="translate(451.908964 404.776556) scale(0.12 -0.12)">
       <use xlink:href="#DejaVuSans-30"/>
      </g>
     </g>
    </g>
    <g id="ytick_7">
     <g id="line2d_38">
      <path d="M 466.543964 355.213676 
L 826.125741 355.213676 
" clip-path="url(#p4f3634705d)" style="fill: none; stroke: #dee2e6; stroke-opacity: 0.7; stroke-width: 0.5; stroke-linecap: square"/>
     </g>
     <g id="line2d_39">
      <g>
       <use xlink:href="#m9295edcf63" x="466.543964" y="355.213676" style="stroke: #000000; stroke-width: 0.8"/>
      </g>
     </g>
     <g id="text_24">
      <!-- 1 -->
      <g transform="translate(451.908964 359.772739) scale(0.12 -0.12)">
       <use xlink:href="#DejaVuSans-31"/>
      </g>
     </g>
    </g>
    <g id="ytick_8">
     <g id="line2d_40">
      <path d="M 466.543964 310.209859 
L 826.125741 310.209859 
" clip-path="url(#p4f3634705d)" style="fill: none; stroke: #dee2e6; stroke-opacity: 0.7; stroke-width: 0.5; stroke-linecap: square"/>
     </g>
     <g id="line2d_41">
      <g>
       <use xlink:href="#m9295edcf63" x="466.543964" y="310.209859" style="stroke: #000000; stroke-width: 0.8"/>
      </g>
     </g>
     <g id="text_25">
      <!-- 2 -->
      <g transform="translate(451.908964 314.768922) scale(0.12 -0.12)">
       <use xlink:href="#DejaVuSans-32"/>
      </g>
     </g>
    </g>
    <g id="ytick_9">
     <g id="line2d_42">
      <path d="M 466.543964 265.206042 
L 826.125741 265.206042 
" clip-path="url(#p4f3634705d)" style="fill: none; stroke: #dee2e6; stroke-opacity: 0.7; stroke-width: 0.5; stroke-linecap: square"/>
     </g>
     <g id="line2d_43">
      <g>
       <use xlink:href="#m9295edcf63" x="466.543964" y="265.206042" style="stroke: #000000; stroke-width: 0.8"/>
      </g>
     </g>
     <g id="text_26">
      <!-- 3 -->
      <g transform="translate(451.908964 269.765104) scale(0.12 -0.12)">
       <use xlink:href="#DejaVuSans-33"/>
      </g>
     </g>
    </g>
    <g id="ytick_10">
     <g id="line2d_44">
      <path d="M 466.543964 220.202225 
L 826.125741 220.202225 
" clip-path="url(#p4f3634705d)" style="fill: none; stroke: #dee2e6; stroke-opacity: 0.7; stroke-width: 0.5; stroke-linecap: square"/>
     </g>
     <g id="line2d_45">
      <g>
       <use xlink:href="#m9295edcf63" x="466.543964" y="220.202225" style="stroke: #000000; stroke-width: 0.8"/>
      </g>
     </g>
     <g id="text_27">
      <!-- 4 -->
      <g transform="translate(451.908964 224.761287) scale(0.12 -0.12)">
       <use xlink:href="#DejaVuSans-34"/>
      </g>
     </g>
    </g>
    <g id="ytick_11">
     <g id="line2d_46">
      <path d="M 466.543964 175.198408 
L 826.125741 175.198408 
" clip-path="url(#p4f3634705d)" style="fill: none; stroke: #dee2e6; stroke-opacity: 0.7; stroke-width: 0.5; stroke-linecap: square"/>
     </g>
     <g id="line2d_47">
      <g>
       <use xlink:href="#m9295edcf63" x="466.543964" y="175.198408" style="stroke: #000000; stroke-width: 0.8"/>
      </g>
     </g>
     <g id="text_28">
      <!-- 5 -->
      <g transform="translate(451.908964 179.75747) scale(0.12 -0.12)">
       <defs>
        <path id="DejaVuSans-35" d="M 691 4666 
L 3169 4666 
L 3169 4134 
L 1269 4134 
L 1269 2991 
Q 1406 3038 1543 3061 
Q 1681 3084 1819 3084 
Q 2600 3084 3056 2656 
Q 3513 2228 3513 1497 
Q 3513 744 3044 326 
Q 2575 -91 1722 -91 
Q 1428 -91 1123 -41 
Q 819 9 494 109 
L 494 744 
Q 775 591 1075 516 
Q 1375 441 1709 441 
Q 2250 441 2565 725 
Q 2881 1009 2881 1497 
Q 2881 1984 2565 2268 
Q 2250 2553 1709 2553 
Q 1456 2553 1204 2497 
Q 953 2441 691 2322 
L 691 4666 
z
" transform="scale(0.015625)"/>
       </defs>
       <use xlink:href="#DejaVuSans-35"/>
      </g>
     </g>
    </g>
    <g id="ytick_12">
     <g id="line2d_48">
      <path d="M 466.543964 130.194591 
L 826.125741 130.194591 
" clip-path="url(#p4f3634705d)" style="fill: none; stroke: #dee2e6; stroke-opacity: 0.7; stroke-width: 0.5; stroke-linecap: square"/>
     </g>
     <g id="line2d_49">
      <g>
       <use xlink:href="#m9295edcf63" x="466.543964" y="130.194591" style="stroke: #000000; stroke-width: 0.8"/>
      </g>
     </g>
     <g id="text_29">
      <!-- 6 -->
      <g transform="translate(451.908964 134.753653) scale(0.12 -0.12)">
       <use xlink:href="#DejaVuSans-36"/>
      </g>
     </g>
    </g>
    <g id="text_30">
     <!-- y -->
     <g transform="translate(445.205371 263.427187) rotate(-90) scale(0.13 -0.13)">
      <use xlink:href="#DejaVuSans-79"/>
     </g>
    </g>
   </g>
   <g id="line2d_50">
    <path d="M 466.543964 298.958905 
L 826.125741 298.958905 
" clip-path="url(#p4f3634705d)" style="fill: none; stroke-dasharray: 4.44,1.92; stroke-dashoffset: 0; stroke: #868e96; stroke-width: 1.2"/>
   </g>
   <g id="patch_7">
    <path d="M 466.543964 414.28 
L 466.543964 104.88 
" style="fill: none; stroke: #868e96; stroke-width: 0.8; stroke-linejoin: miter; stroke-linecap: square"/>
   </g>
   <g id="patch_8">
    <path d="M 466.543964 414.28 
L 826.125741 414.28 
" style="fill: none; stroke: #868e96; stroke-width: 0.8; stroke-linejoin: miter; stroke-linecap: square"/>
   </g>
   <g id="line2d_51">
    <path d="M 482.888591 118.943636 
L 488.784448 138.869945 
L 494.680305 158.064267 
L 500.576162 176.526602 
L 506.472019 194.256951 
L 512.367876 211.255312 
L 518.263734 227.521687 
L 523.504495 241.366179 
L 528.745257 254.632311 
L 533.986019 267.320083 
L 539.226781 279.429495 
L 544.467543 290.960548 
L 549.708305 301.91324 
L 554.293972 311.02241 
L 558.879638 319.688773 
L 563.465305 327.912329 
L 568.050972 335.693078 
L 572.636638 343.03102 
L 577.222305 349.926156 
L 581.807972 356.378484 
L 585.738543 361.556613 
L 589.669115 366.409415 
L 593.599686 370.936889 
L 597.530257 375.139036 
L 601.460829 379.015855 
L 605.3914 382.567347 
L 609.321972 385.793512 
L 613.252543 388.694348 
L 616.528019 390.863198 
L 619.803496 392.806126 
L 623.078972 394.523133 
L 626.354448 396.014217 
L 629.629924 397.279379 
L 632.9054 398.31862 
L 636.180877 399.131939 
L 639.456353 399.719336 
L 642.731829 400.080811 
L 646.007305 400.216364 
L 649.282781 400.125995 
L 652.558258 399.809704 
L 655.833734 399.267492 
L 659.10921 398.499357 
L 662.384686 397.505301 
L 665.660162 396.285323 
L 668.935639 394.839423 
L 672.211115 393.167601 
L 675.486591 391.269858 
L 678.762067 389.146192 
L 682.037543 386.796605 
L 685.968115 383.678883 
L 689.898686 380.235834 
L 693.829258 376.467457 
L 697.759829 372.373752 
L 701.690401 367.954721 
L 705.620972 363.210361 
L 709.551543 358.140675 
L 713.482115 352.74566 
L 718.067781 346.040299 
L 722.653448 338.892131 
L 727.239115 331.301157 
L 731.824782 323.267375 
L 736.410448 314.790786 
L 740.996115 305.871391 
L 745.581782 296.509189 
L 750.822543 285.267317 
L 756.063305 273.447084 
L 761.304067 261.048492 
L 766.544829 248.07154 
L 771.785591 234.516228 
L 777.026353 220.382556 
L 782.92221 203.790854 
L 788.818067 186.467165 
L 794.713924 168.411489 
L 800.609782 149.623826 
L 806.505639 130.104177 
L 809.781115 118.943636 
L 809.781115 118.943636 
" clip-path="url(#p4f3634705d)" style="fill: none; stroke: #e8590c; stroke-width: 2.5; stroke-linecap: square"/>
   </g>
   <g id="text_31">
    <!-- 2 intersections -->
    <g style="fill: #c92a2a" transform="translate(754.40261 288.958905) scale(0.11 -0.11)">
     <use xlink:href="#DejaVuSans-Bold-32"/>
     <use xlink:href="#DejaVuSans-Bold-20" transform="translate(69.580078 0)"/>
     <use xlink:href="#DejaVuSans-Bold-69" transform="translate(104.394531 0)"/>
     <use xlink:href="#DejaVuSans-Bold-6e" transform="translate(138.671875 0)"/>
     <use xlink:href="#DejaVuSans-Bold-74" transform="translate(209.863281 0)"/>
     <use xlink:href="#DejaVuSans-Bold-65" transform="translate(257.666016 0)"/>
     <use xlink:href="#DejaVuSans-Bold-72" transform="translate(325.488281 0)"/>
     <use xlink:href="#DejaVuSans-Bold-73" transform="translate(374.804688 0)"/>
     <use xlink:href="#DejaVuSans-Bold-65" transform="translate(434.326172 0)"/>
     <use xlink:href="#DejaVuSans-Bold-63" transform="translate(502.148438 0)"/>
     <use xlink:href="#DejaVuSans-Bold-74" transform="translate(561.425781 0)"/>
     <use xlink:href="#DejaVuSans-Bold-69" transform="translate(609.228516 0)"/>
     <use xlink:href="#DejaVuSans-Bold-6f" transform="translate(643.505859 0)"/>
     <use xlink:href="#DejaVuSans-Bold-6e" transform="translate(712.207031 0)"/>
     <use xlink:href="#DejaVuSans-Bold-73" transform="translate(783.398438 0)"/>
    </g>
   </g>
   <g id="text_32">
    <g id="patch_9">
     <path d="M 568.606962 413.679656 
L 724.062743 413.679656 
Q 727.362743 413.679656 727.362743 410.379656 
L 727.362743 399.733719 
Q 727.362743 396.433719 724.062743 396.433719 
L 568.606962 396.433719 
Q 565.306962 396.433719 565.306962 399.733719 
L 565.306962 410.379656 
Q 565.306962 413.679656 568.606962 413.679656 
z
" style="fill: #ffc9c9; opacity: 0.85; stroke: #c92a2a; stroke-linejoin: miter"/>
    </g>
    <!-- FAILS horizontal line test -->
    <g style="fill: #c92a2a" transform="translate(568.606962 408.092) scale(0.11 -0.11)">
     <defs>
      <path id="DejaVuSans-Bold-46" d="M 588 4666 
L 3834 4666 
L 3834 3756 
L 1791 3756 
L 1791 2888 
L 3713 2888 
L 3713 1978 
L 1791 1978 
L 1791 0 
L 588 0 
L 588 4666 
z
" transform="scale(0.015625)"/>
      <path id="DejaVuSans-Bold-49" d="M 588 4666 
L 1791 4666 
L 1791 0 
L 588 0 
L 588 4666 
z
" transform="scale(0.015625)"/>
      <path id="DejaVuSans-Bold-4c" d="M 588 4666 
L 1791 4666 
L 1791 909 
L 3903 909 
L 3903 0 
L 588 0 
L 588 4666 
z
" transform="scale(0.015625)"/>
     </defs>
     <use xlink:href="#DejaVuSans-Bold-46"/>
     <use xlink:href="#DejaVuSans-Bold-41" transform="translate(56.810547 0)"/>
     <use xlink:href="#DejaVuSans-Bold-49" transform="translate(134.203125 0)"/>
     <use xlink:href="#DejaVuSans-Bold-4c" transform="translate(171.410156 0)"/>
     <use xlink:href="#DejaVuSans-Bold-53" transform="translate(235.130859 0)"/>
     <use xlink:href="#DejaVuSans-Bold-20" transform="translate(307.152344 0)"/>
     <use xlink:href="#DejaVuSans-Bold-68" transform="translate(341.966797 0)"/>
     <use xlink:href="#DejaVuSans-Bold-6f" transform="translate(413.158203 0)"/>
     <use xlink:href="#DejaVuSans-Bold-72" transform="translate(481.859375 0)"/>
     <use xlink:href="#DejaVuSans-Bold-69" transform="translate(531.175781 0)"/>
     <use xlink:href="#DejaVuSans-Bold-7a" transform="translate(565.453125 0)"/>
     <use xlink:href="#DejaVuSans-Bold-6f" transform="translate(623.65625 0)"/>
     <use xlink:href="#DejaVuSans-Bold-6e" transform="translate(692.357422 0)"/>
     <use xlink:href="#DejaVuSans-Bold-74" transform="translate(763.548828 0)"/>
     <use xlink:href="#DejaVuSans-Bold-61" transform="translate(811.351562 0)"/>
     <use xlink:href="#DejaVuSans-Bold-6c" transform="translate(878.832031 0)"/>
     <use xlink:href="#DejaVuSans-Bold-20" transform="translate(913.109375 0)"/>
     <use xlink:href="#DejaVuSans-Bold-6c" transform="translate(947.923828 0)"/>
     <use xlink:href="#DejaVuSans-Bold-69" transform="translate(982.201172 0)"/>
     <use xlink:href="#DejaVuSans-Bold-6e" transform="translate(1016.478516 0)"/>
     <use xlink:href="#DejaVuSans-Bold-65" transform="translate(1087.669922 0)"/>
     <use xlink:href="#DejaVuSans-Bold-20" transform="translate(1155.492188 0)"/>
     <use xlink:href="#DejaVuSans-Bold-74" transform="translate(1190.306641 0)"/>
     <use xlink:href="#DejaVuSans-Bold-65" transform="translate(1238.109375 0)"/>
     <use xlink:href="#DejaVuSans-Bold-73" transform="translate(1305.931641 0)"/>
     <use xlink:href="#DejaVuSans-Bold-74" transform="translate(1365.453125 0)"/>
    </g>
   </g>
   <g id="text_33">
    <!-- f(x) = x² -->
    <g style="fill: #c92a2a" transform="translate(614.056103 83.203062) scale(0.14 -0.14)">
     <defs>
      <path id="DejaVuSans-Bold-b2" d="M 1288 2613 
L 2444 2613 
L 2444 2088 
L 341 2088 
L 341 2566 
L 1319 3397 
Q 1509 3563 1590 3688 
Q 1672 3813 1672 3938 
Q 1672 4094 1558 4191 
Q 1444 4288 1259 4288 
Q 1066 4288 844 4217 
Q 622 4147 359 4000 
L 359 4581 
Q 631 4666 886 4708 
Q 1141 4750 1375 4750 
Q 1869 4750 2150 4548 
Q 2431 4347 2431 4000 
Q 2431 3775 2320 3586 
Q 2209 3397 1894 3128 
L 1288 2613 
z
" transform="scale(0.015625)"/>
     </defs>
     <use xlink:href="#DejaVuSans-Bold-66"/>
     <use xlink:href="#DejaVuSans-Bold-28" transform="translate(43.505859 0)"/>
     <use xlink:href="#DejaVuSans-Bold-78" transform="translate(89.208984 0)"/>
     <use xlink:href="#DejaVuSans-Bold-29" transform="translate(153.710938 0)"/>
     <use xlink:href="#DejaVuSans-Bold-20" transform="translate(199.414062 0)"/>
     <use xlink:href="#DejaVuSans-Bold-3d" transform="translate(234.228516 0)"/>
     <use xlink:href="#DejaVuSans-Bold-20" transform="translate(318.017578 0)"/>
     <use xlink:href="#DejaVuSans-Bold-78" transform="translate(352.832031 0)"/>
     <use xlink:href="#DejaVuSans-Bold-b2" transform="translate(417.333984 0)"/>
    </g>
    <!-- (many-one) -->
    <g style="fill: #c92a2a" transform="translate(600.926728 98.88) scale(0.14 -0.14)">
     <defs>
      <path id="DejaVuSans-Bold-6d" d="M 3781 2919 
Q 3994 3244 4286 3414 
Q 4578 3584 4928 3584 
Q 5531 3584 5847 3212 
Q 6163 2841 6163 2131 
L 6163 0 
L 5038 0 
L 5038 1825 
Q 5041 1866 5042 1909 
Q 5044 1953 5044 2034 
Q 5044 2406 4934 2573 
Q 4825 2741 4581 2741 
Q 4263 2741 4089 2478 
Q 3916 2216 3909 1719 
L 3909 0 
L 2784 0 
L 2784 1825 
Q 2784 2406 2684 2573 
Q 2584 2741 2328 2741 
Q 2006 2741 1831 2477 
Q 1656 2213 1656 1722 
L 1656 0 
L 531 0 
L 531 3500 
L 1656 3500 
L 1656 2988 
Q 1863 3284 2130 3434 
Q 2397 3584 2719 3584 
Q 3081 3584 3359 3409 
Q 3638 3234 3781 2919 
z
" transform="scale(0.015625)"/>
      <path id="DejaVuSans-Bold-79" d="M 78 3500 
L 1197 3500 
L 2138 1125 
L 2938 3500 
L 4056 3500 
L 2584 -331 
Q 2363 -916 2067 -1148 
Q 1772 -1381 1288 -1381 
L 641 -1381 
L 641 -647 
L 991 -647 
Q 1275 -647 1404 -556 
Q 1534 -466 1606 -231 
L 1638 -134 
L 78 3500 
z
" transform="scale(0.015625)"/>
     </defs>
     <use xlink:href="#DejaVuSans-Bold-28"/>
     <use xlink:href="#DejaVuSans-Bold-6d" transform="translate(45.703125 0)"/>
     <use xlink:href="#DejaVuSans-Bold-61" transform="translate(149.902344 0)"/>
     <use xlink:href="#DejaVuSans-Bold-6e" transform="translate(217.382812 0)"/>
     <use xlink:href="#DejaVuSans-Bold-79" transform="translate(288.574219 0)"/>
     <use xlink:href="#DejaVuSans-Bold-2d" transform="translate(353.759766 0)"/>
     <use xlink:href="#DejaVuSans-Bold-6f" transform="translate(395.263672 0)"/>
     <use xlink:href="#DejaVuSans-Bold-6e" transform="translate(463.964844 0)"/>
     <use xlink:href="#DejaVuSans-Bold-65" transform="translate(535.15625 0)"/>
     <use xlink:href="#DejaVuSans-Bold-29" transform="translate(602.978516 0)"/>
    </g>
   </g>
   <g id="line2d_52">
    <defs>
     <path id="m4a3e105861" d="M 0 5 
C 1.326016 5 2.597899 4.473168 3.535534 3.535534 
C 4.473168 2.597899 5 1.326016 5 0 
C 5 -1.326016 4.473168 -2.597899 3.535534 -3.535534 
C 2.597899 -4.473168 1.326016 -5 0 -5 
C -1.326016 -5 -2.597899 -4.473168 -3.535534 -3.535534 
C -4.473168 -2.597899 -5 -1.326016 -5 0 
C -5 1.326016 -4.473168 2.597899 -3.535534 3.535534 
C -2.597899 4.473168 -1.326016 5 0 5 
z
" style="stroke: #c92a2a"/>
    </defs>
    <g clip-path="url(#p4f3634705d)">
     <use xlink:href="#m4a3e105861" x="548.267095" y="298.958905" style="fill: #c92a2a; stroke: #c92a2a"/>
    </g>
   </g>
   <g id="line2d_53">
    <g clip-path="url(#p4f3634705d)">
     <use xlink:href="#m4a3e105861" x="744.40261" y="298.958905" style="fill: #c92a2a; stroke: #c92a2a"/>
    </g>
   </g>
  </g>
  <g id="text_34">
   <!-- The Horizontal Line Test: One-One vs Many-One -->
   <g transform="translate(225.559687 33.7575) scale(0.16 -0.16)">
    <defs>
     <path id="DejaVuSans-Bold-54" d="M 31 4666 
L 4331 4666 
L 4331 3756 
L 2784 3756 
L 2784 0 
L 1581 0 
L 1581 3756 
L 31 3756 
L 31 4666 
z
" transform="scale(0.015625)"/>
     <path id="DejaVuSans-Bold-48" d="M 588 4666 
L 1791 4666 
L 1791 2888 
L 3566 2888 
L 3566 4666 
L 4769 4666 
L 4769 0 
L 3566 0 
L 3566 1978 
L 1791 1978 
L 1791 0 
L 588 0 
L 588 4666 
z
" transform="scale(0.015625)"/>
     <path id="DejaVuSans-Bold-3a" d="M 716 3500 
L 1844 3500 
L 1844 2291 
L 716 2291 
L 716 3500 
z
M 716 1209 
L 1844 1209 
L 1844 0 
L 716 0 
L 716 1209 
z
" transform="scale(0.015625)"/>
     <path id="DejaVuSans-Bold-4f" d="M 2719 3878 
Q 2169 3878 1866 3472 
Q 1563 3066 1563 2328 
Q 1563 1594 1866 1187 
Q 2169 781 2719 781 
Q 3272 781 3575 1187 
Q 3878 1594 3878 2328 
Q 3878 3066 3575 3472 
Q 3272 3878 2719 3878 
z
M 2719 4750 
Q 3844 4750 4481 4106 
Q 5119 3463 5119 2328 
Q 5119 1197 4481 553 
Q 3844 -91 2719 -91 
Q 1597 -91 958 553 
Q 319 1197 319 2328 
Q 319 3463 958 4106 
Q 1597 4750 2719 4750 
z
" transform="scale(0.015625)"/>
     <path id="DejaVuSans-Bold-76" d="M 97 3500 
L 1216 3500 
L 2088 1081 
L 2956 3500 
L 4078 3500 
L 2700 0 
L 1472 0 
L 97 3500 
z
" transform="scale(0.015625)"/>
     <path id="DejaVuSans-Bold-4d" d="M 588 4666 
L 2119 4666 
L 3181 2169 
L 4250 4666 
L 5778 4666 
L 5778 0 
L 4641 0 
L 4641 3413 
L 3566 897 
L 2803 897 
L 1728 3413 
L 1728 0 
L 588 0 
L 588 4666 
z
" transform="scale(0.015625)"/>
    </defs>
    <use xlink:href="#DejaVuSans-Bold-54"/>
    <use xlink:href="#DejaVuSans-Bold-68" transform="translate(68.212891 0)"/>
    <use xlink:href="#DejaVuSans-Bold-65" transform="translate(139.404297 0)"/>
    <use xlink:href="#DejaVuSans-Bold-20" transform="translate(207.226562 0)"/>
    <use xlink:href="#DejaVuSans-Bold-48" transform="translate(242.041016 0)"/>
    <use xlink:href="#DejaVuSans-Bold-6f" transform="translate(325.732422 0)"/>
    <use xlink:href="#DejaVuSans-Bold-72" transform="translate(394.433594 0)"/>
    <use xlink:href="#DejaVuSans-Bold-69" transform="translate(443.75 0)"/>
    <use xlink:href="#DejaVuSans-Bold-7a" transform="translate(478.027344 0)"/>
    <use xlink:href="#DejaVuSans-Bold-6f" transform="translate(536.230469 0)"/>
    <use xlink:href="#DejaVuSans-Bold-6e" transform="translate(604.931641 0)"/>
    <use xlink:href="#DejaVuSans-Bold-74" transform="translate(676.123047 0)"/>
    <use xlink:href="#DejaVuSans-Bold-61" transform="translate(723.925781 0)"/>
    <use xlink:href="#DejaVuSans-Bold-6c" transform="translate(791.40625 0)"/>
    <use xlink:href="#DejaVuSans-Bold-20" transform="translate(825.683594 0)"/>
    <use xlink:href="#DejaVuSans-Bold-4c" transform="translate(860.498047 0)"/>
    <use xlink:href="#DejaVuSans-Bold-69" transform="translate(924.21875 0)"/>
    <use xlink:href="#DejaVuSans-Bold-6e" transform="translate(958.496094 0)"/>
    <use xlink:href="#DejaVuSans-Bold-65" transform="translate(1029.6875 0)"/>
    <use xlink:href="#DejaVuSans-Bold-20" transform="translate(1097.509766 0)"/>
    <use xlink:href="#DejaVuSans-Bold-54" transform="translate(1132.324219 0)"/>
    <use xlink:href="#DejaVuSans-Bold-65" transform="translate(1187.287109 0)"/>
    <use xlink:href="#DejaVuSans-Bold-73" transform="translate(1255.109375 0)"/>
    <use xlink:href="#DejaVuSans-Bold-74" transform="translate(1314.630859 0)"/>
    <use xlink:href="#DejaVuSans-Bold-3a" transform="translate(1362.433594 0)"/>
    <use xlink:href="#DejaVuSans-Bold-20" transform="translate(1402.423828 0)"/>
    <use xlink:href="#DejaVuSans-Bold-4f" transform="translate(1437.238281 0)"/>
    <use xlink:href="#DejaVuSans-Bold-6e" transform="translate(1522.248047 0)"/>
    <use xlink:href="#DejaVuSans-Bold-65" transform="translate(1593.439453 0)"/>
    <use xlink:href="#DejaVuSans-Bold-2d" transform="translate(1661.261719 0)"/>
    <use xlink:href="#DejaVuSans-Bold-4f" transform="translate(1702.765625 0)"/>
    <use xlink:href="#DejaVuSans-Bold-6e" transform="translate(1787.775391 0)"/>
    <use xlink:href="#DejaVuSans-Bold-65" transform="translate(1858.966797 0)"/>
    <use xlink:href="#DejaVuSans-Bold-20" transform="translate(1926.789062 0)"/>
    <use xlink:href="#DejaVuSans-Bold-76" transform="translate(1961.603516 0)"/>
    <use xlink:href="#DejaVuSans-Bold-73" transform="translate(2026.789062 0)"/>
    <use xlink:href="#DejaVuSans-Bold-20" transform="translate(2086.310547 0)"/>
    <use xlink:href="#DejaVuSans-Bold-4d" transform="translate(2121.125 0)"/>
    <use xlink:href="#DejaVuSans-Bold-61" transform="translate(2220.636719 0)"/>
    <use xlink:href="#DejaVuSans-Bold-6e" transform="translate(2288.117188 0)"/>
    <use xlink:href="#DejaVuSans-Bold-79" transform="translate(2359.308594 0)"/>
    <use xlink:href="#DejaVuSans-Bold-2d" transform="translate(2424.494141 0)"/>
    <use xlink:href="#DejaVuSans-Bold-4f" transform="translate(2465.998047 0)"/>
    <use xlink:href="#DejaVuSans-Bold-6e" transform="translate(2551.007812 0)"/>
    <use xlink:href="#DejaVuSans-Bold-65" transform="translate(2622.199219 0)"/>
   </g>
  </g>
 </g>
 <defs>
  <clipPath id="p8aae081b69">
   <rect x="62.872188" y="104.88" width="359.581777" height="309.4"/>
  </clipPath>
  <clipPath id="p4f3634705d">
   <rect x="466.543964" y="104.88" width="359.581777" height="309.4"/>
  </clipPath>
 </defs>
</svg>
