<?xml version="1.0" encoding="utf-8" standalone="no"?>
<!DOCTYPE svg PUBLIC "-//W3C//DTD SVG 1.1//EN"
  "http://www.w3.org/Graphics/SVG/1.1/DTD/svg11.dtd">
<svg xmlns:xlink="http://www.w3.org/1999/xlink" width="642.472188pt" height="437.192813pt" viewBox="0 0 642.472188 437.192813" xmlns="http://www.w3.org/2000/svg" version="1.1">
 <metadata>
  <rdf:RDF xmlns:dc="http://purl.org/dc/elements/1.1/" xmlns:cc="http://creativecommons.org/ns#" xmlns:rdf="http://www.w3.org/1999/02/22-rdf-syntax-ns#">
   <cc:Work>
    <dc:type rdf:resource="http://purl.org/dc/dcmitype/StillImage"/>
    <dc:date>2026-03-25T09:44:10.333610</dc:date>
    <dc:format>image/svg+xml</dc:format>
    <dc:creator>
     <cc:Agent>
      <dc:title>Matplotlib v3.10.8, https://matplotlib.org/</dc:title>
     </cc:Agent>
    </dc:creator>
   </cc:Work>
  </rdf:RDF>
 </metadata>
 <defs>
  <style type="text/css">*{stroke-linejoin: round; stroke-linecap: butt}</style>
 </defs>
 <g id="figure_1">
  <g id="patch_1">
   <path d="M 0 437.192813 
L 642.472188 437.192813 
L 642.472188 -0 
L 0 -0 
z
" style="fill: #ffffff"/>
  </g>
  <g id="axes_1">
   <g id="patch_2">
    <path d="M 62.872188 380.3975 
L 620.872187 380.3975 
L 620.872187 47.7575 
L 62.872188 47.7575 
z
" style="fill: #ffffff"/>
   </g>
   <g id="line2d_1">
    <path d="M 215.054006 380.3975 
L 215.054006 47.7575 
" clip-path="url(#p3181b87aae)" style="fill: none; stroke-dasharray: 1,1.65; stroke-dashoffset: 0; stroke: #868e96"/>
   </g>
   <g id="line2d_2">
    <path d="M 468.690369 380.3975 
L 468.690369 47.7575 
" clip-path="url(#p3181b87aae)" style="fill: none; stroke-dasharray: 1,1.65; stroke-dashoffset: 0; stroke: #868e96"/>
   </g>
   <g id="matplotlib.axis_1">
    <g id="xtick_1">
     <g id="line2d_3">
      <path d="M 130.508551 380.3975 
L 130.508551 47.7575 
" clip-path="url(#p3181b87aae)" style="fill: none; stroke: #dee2e6; stroke-opacity: 0.7; stroke-width: 0.5; stroke-linecap: square"/>
     </g>
     <g id="line2d_4">
      <defs>
       <path id="meca3aafaf5" d="M 0 0 
L 0 3.5 
" style="stroke: #000000; stroke-width: 0.8"/>
      </defs>
      <g>
       <use xlink:href="#meca3aafaf5" x="130.508551" y="380.3975" style="stroke: #000000; stroke-width: 0.8"/>
      </g>
     </g>
     <g id="text_1">
      <!-- 0 -->
      <g transform="translate(126.691051 396.515625) scale(0.12 -0.12)">
       <defs>
        <path id="DejaVuSans-30" d="M 2034 4250 
Q 1547 4250 1301 3770 
Q 1056 3291 1056 2328 
Q 1056 1369 1301 889 
Q 1547 409 2034 409 
Q 2525 409 2770 889 
Q 3016 1369 3016 2328 
Q 3016 3291 2770 3770 
Q 2525 4250 2034 4250 
z
M 2034 4750 
Q 2819 4750 3233 4129 
Q 3647 3509 3647 2328 
Q 3647 1150 3233 529 
Q 2819 -91 2034 -91 
Q 1250 -91 836 529 
Q 422 1150 422 2328 
Q 422 3509 836 4129 
Q 1250 4750 2034 4750 
z
" transform="scale(0.015625)"/>
       </defs>
       <use xlink:href="#DejaVuSans-30"/>
      </g>
     </g>
    </g>
    <g id="xtick_2">
     <g id="line2d_5">
      <path d="M 215.054006 380.3975 
L 215.054006 47.7575 
" clip-path="url(#p3181b87aae)" style="fill: none; stroke: #dee2e6; stroke-opacity: 0.7; stroke-width: 0.5; stroke-linecap: square"/>
     </g>
     <g id="line2d_6">
      <g>
       <use xlink:href="#meca3aafaf5" x="215.054006" y="380.3975" style="stroke: #000000; stroke-width: 0.8"/>
      </g>
     </g>
     <g id="text_2">
      <!-- 1 -->
      <g transform="translate(211.236506 396.515625) scale(0.12 -0.12)">
       <defs>
        <path id="DejaVuSans-31" d="M 794 531 
L 1825 531 
L 1825 4091 
L 703 3866 
L 703 4441 
L 1819 4666 
L 2450 4666 
L 2450 531 
L 3481 531 
L 3481 0 
L 794 0 
L 794 531 
z
" transform="scale(0.015625)"/>
       </defs>
       <use xlink:href="#DejaVuSans-31"/>
      </g>
     </g>
    </g>
    <g id="xtick_3">
     <g id="line2d_7">
      <path d="M 299.59946 380.3975 
L 299.59946 47.7575 
" clip-path="url(#p3181b87aae)" style="fill: none; stroke: #dee2e6; stroke-opacity: 0.7; stroke-width: 0.5; stroke-linecap: square"/>
     </g>
     <g id="line2d_8">
      <g>
       <use xlink:href="#meca3aafaf5" x="299.59946" y="380.3975" style="stroke: #000000; stroke-width: 0.8"/>
      </g>
     </g>
     <g id="text_3">
      <!-- 2 -->
      <g transform="translate(295.78196 396.515625) scale(0.12 -0.12)">
       <defs>
        <path id="DejaVuSans-32" d="M 1228 531 
L 3431 531 
L 3431 0 
L 469 0 
L 469 531 
Q 828 903 1448 1529 
Q 2069 2156 2228 2338 
Q 2531 2678 2651 2914 
Q 2772 3150 2772 3378 
Q 2772 3750 2511 3984 
Q 2250 4219 1831 4219 
Q 1534 4219 1204 4116 
Q 875 4013 500 3803 
L 500 4441 
Q 881 4594 1212 4672 
Q 1544 4750 1819 4750 
Q 2544 4750 2975 4387 
Q 3406 4025 3406 3419 
Q 3406 3131 3298 2873 
Q 3191 2616 2906 2266 
Q 2828 2175 2409 1742 
Q 1991 1309 1228 531 
z
" transform="scale(0.015625)"/>
       </defs>
       <use xlink:href="#DejaVuSans-32"/>
      </g>
     </g>
    </g>
    <g id="xtick_4">
     <g id="line2d_9">
      <path d="M 384.144915 380.3975 
L 384.144915 47.7575 
" clip-path="url(#p3181b87aae)" style="fill: none; stroke: #dee2e6; stroke-opacity: 0.7; stroke-width: 0.5; stroke-linecap: square"/>
     </g>
     <g id="line2d_10">
      <g>
       <use xlink:href="#meca3aafaf5" x="384.144915" y="380.3975" style="stroke: #000000; stroke-width: 0.8"/>
      </g>
     </g>
     <g id="text_4">
      <!-- 3 -->
      <g transform="translate(380.327415 396.515625) scale(0.12 -0.12)">
       <defs>
        <path id="DejaVuSans-33" d="M 2597 2516 
Q 3050 2419 3304 2112 
Q 3559 1806 3559 1356 
Q 3559 666 3084 287 
Q 2609 -91 1734 -91 
Q 1441 -91 1130 -33 
Q 819 25 488 141 
L 488 750 
Q 750 597 1062 519 
Q 1375 441 1716 441 
Q 2309 441 2620 675 
Q 2931 909 2931 1356 
Q 2931 1769 2642 2001 
Q 2353 2234 1838 2234 
L 1294 2234 
L 1294 2753 
L 1863 2753 
Q 2328 2753 2575 2939 
Q 2822 3125 2822 3475 
Q 2822 3834 2567 4026 
Q 2313 4219 1838 4219 
Q 1578 4219 1281 4162 
Q 984 4106 628 3988 
L 628 4550 
Q 988 4650 1302 4700 
Q 1616 4750 1894 4750 
Q 2613 4750 3031 4423 
Q 3450 4097 3450 3541 
Q 3450 3153 3228 2886 
Q 3006 2619 2597 2516 
z
" transform="scale(0.015625)"/>
       </defs>
       <use xlink:href="#DejaVuSans-33"/>
      </g>
     </g>
    </g>
    <g id="xtick_5">
     <g id="line2d_11">
      <path d="M 468.690369 380.3975 
L 468.690369 47.7575 
" clip-path="url(#p3181b87aae)" style="fill: none; stroke: #dee2e6; stroke-opacity: 0.7; stroke-width: 0.5; stroke-linecap: square"/>
     </g>
     <g id="line2d_12">
      <g>
       <use xlink:href="#meca3aafaf5" x="468.690369" y="380.3975" style="stroke: #000000; stroke-width: 0.8"/>
      </g>
     </g>
     <g id="text_5">
      <!-- 4 -->
      <g transform="translate(464.872869 396.515625) scale(0.12 -0.12)">
       <defs>
        <path id="DejaVuSans-34" d="M 2419 4116 
L 825 1625 
L 2419 1625 
L 2419 4116 
z
M 2253 4666 
L 3047 4666 
L 3047 1625 
L 3713 1625 
L 3713 1100 
L 3047 1100 
L 3047 0 
L 2419 0 
L 2419 1100 
L 313 1100 
L 313 1709 
L 2253 4666 
z
" transform="scale(0.015625)"/>
       </defs>
       <use xlink:href="#DejaVuSans-34"/>
      </g>
     </g>
    </g>
    <g id="xtick_6">
     <g id="line2d_13">
      <path d="M 553.235824 380.3975 
L 553.235824 47.7575 
" clip-path="url(#p3181b87aae)" style="fill: none; stroke: #dee2e6; stroke-opacity: 0.7; stroke-width: 0.5; stroke-linecap: square"/>
     </g>
     <g id="line2d_14">
      <g>
       <use xlink:href="#meca3aafaf5" x="553.235824" y="380.3975" style="stroke: #000000; stroke-width: 0.8"/>
      </g>
     </g>
     <g id="text_6">
      <!-- 5 -->
      <g transform="translate(549.418324 396.515625) scale(0.12 -0.12)">
       <defs>
        <path id="DejaVuSans-35" d="M 691 4666 
L 3169 4666 
L 3169 4134 
L 1269 4134 
L 1269 2991 
Q 1406 3038 1543 3061 
Q 1681 3084 1819 3084 
Q 2600 3084 3056 2656 
Q 3513 2228 3513 1497 
Q 3513 744 3044 326 
Q 2575 -91 1722 -91 
Q 1428 -91 1123 -41 
Q 819 9 494 109 
L 494 744 
Q 775 591 1075 516 
Q 1375 441 1709 441 
Q 2250 441 2565 725 
Q 2881 1009 2881 1497 
Q 2881 1984 2565 2268 
Q 2250 2553 1709 2553 
Q 1456 2553 1204 2497 
Q 953 2441 691 2322 
L 691 4666 
z
" transform="scale(0.015625)"/>
       </defs>
       <use xlink:href="#DejaVuSans-35"/>
      </g>
     </g>
    </g>
    <g id="text_7">
     <!-- x -->
     <g transform="translate(338.025 412.889219) scale(0.13 -0.13)">
      <defs>
       <path id="DejaVuSans-78" d="M 3513 3500 
L 2247 1797 
L 3578 0 
L 2900 0 
L 1881 1375 
L 863 0 
L 184 0 
L 1544 1831 
L 300 3500 
L 978 3500 
L 1906 2253 
L 2834 3500 
L 3513 3500 
z
" transform="scale(0.015625)"/>
      </defs>
      <use xlink:href="#DejaVuSans-78"/>
     </g>
    </g>
   </g>
   <g id="matplotlib.axis_2">
    <g id="ytick_1">
     <g id="line2d_15">
      <path d="M 62.872188 359.348088 
L 620.872187 359.348088 
" clip-path="url(#p3181b87aae)" style="fill: none; stroke: #dee2e6; stroke-opacity: 0.7; stroke-width: 0.5; stroke-linecap: square"/>
     </g>
     <g id="line2d_16">
      <defs>
       <path id="m0aed064337" d="M 0 0 
L -3.5 0 
" style="stroke: #000000; stroke-width: 0.8"/>
      </defs>
      <g>
       <use xlink:href="#m0aed064337" x="62.872188" y="359.348088" style="stroke: #000000; stroke-width: 0.8"/>
      </g>
     </g>
     <g id="text_8">
      <!-- −6 -->
      <g transform="translate(38.181562 363.907151) scale(0.12 -0.12)">
       <defs>
        <path id="DejaVuSans-2212" d="M 678 2272 
L 4684 2272 
L 4684 1741 
L 678 1741 
L 678 2272 
z
" transform="scale(0.015625)"/>
        <path id="DejaVuSans-36" d="M 2113 2584 
Q 1688 2584 1439 2293 
Q 1191 2003 1191 1497 
Q 1191 994 1439 701 
Q 1688 409 2113 409 
Q 2538 409 2786 701 
Q 3034 994 3034 1497 
Q 3034 2003 2786 2293 
Q 2538 2584 2113 2584 
z
M 3366 4563 
L 3366 3988 
Q 3128 4100 2886 4159 
Q 2644 4219 2406 4219 
Q 1781 4219 1451 3797 
Q 1122 3375 1075 2522 
Q 1259 2794 1537 2939 
Q 1816 3084 2150 3084 
Q 2853 3084 3261 2657 
Q 3669 2231 3669 1497 
Q 3669 778 3244 343 
Q 2819 -91 2113 -91 
Q 1303 -91 875 529 
Q 447 1150 447 2328 
Q 447 3434 972 4092 
Q 1497 4750 2381 4750 
Q 2619 4750 2861 4703 
Q 3103 4656 3366 4563 
z
" transform="scale(0.015625)"/>
       </defs>
       <use xlink:href="#DejaVuSans-2212"/>
       <use xlink:href="#DejaVuSans-36" transform="translate(83.789062 0)"/>
      </g>
     </g>
    </g>
    <g id="ytick_2">
     <g id="line2d_17">
      <path d="M 62.872188 311.912794 
L 620.872187 311.912794 
" clip-path="url(#p3181b87aae)" style="fill: none; stroke: #dee2e6; stroke-opacity: 0.7; stroke-width: 0.5; stroke-linecap: square"/>
     </g>
     <g id="line2d_18">
      <g>
       <use xlink:href="#m0aed064337" x="62.872188" y="311.912794" style="stroke: #000000; stroke-width: 0.8"/>
      </g>
     </g>
     <g id="text_9">
      <!-- −4 -->
      <g transform="translate(38.181562 316.471857) scale(0.12 -0.12)">
       <use xlink:href="#DejaVuSans-2212"/>
       <use xlink:href="#DejaVuSans-34" transform="translate(83.789062 0)"/>
      </g>
     </g>
    </g>
    <g id="ytick_3">
     <g id="line2d_19">
      <path d="M 62.872188 264.4775 
L 620.872187 264.4775 
" clip-path="url(#p3181b87aae)" style="fill: none; stroke: #dee2e6; stroke-opacity: 0.7; stroke-width: 0.5; stroke-linecap: square"/>
     </g>
     <g id="line2d_20">
      <g>
       <use xlink:href="#m0aed064337" x="62.872188" y="264.4775" style="stroke: #000000; stroke-width: 0.8"/>
      </g>
     </g>
     <g id="text_10">
      <!-- −2 -->
      <g transform="translate(38.181562 269.036563) scale(0.12 -0.12)">
       <use xlink:href="#DejaVuSans-2212"/>
       <use xlink:href="#DejaVuSans-32" transform="translate(83.789062 0)"/>
      </g>
     </g>
    </g>
    <g id="ytick_4">
     <g id="line2d_21">
      <path d="M 62.872188 217.042206 
L 620.872187 217.042206 
" clip-path="url(#p3181b87aae)" style="fill: none; stroke: #dee2e6; stroke-opacity: 0.7; stroke-width: 0.5; stroke-linecap: square"/>
     </g>
     <g id="line2d_22">
      <g>
       <use xlink:href="#m0aed064337" x="62.872188" y="217.042206" style="stroke: #000000; stroke-width: 0.8"/>
      </g>
     </g>
     <g id="text_11">
      <!-- 0 -->
      <g transform="translate(48.237188 221.601268) scale(0.12 -0.12)">
       <use xlink:href="#DejaVuSans-30"/>
      </g>
     </g>
    </g>
    <g id="ytick_5">
     <g id="line2d_23">
      <path d="M 62.872188 169.606912 
L 620.872187 169.606912 
" clip-path="url(#p3181b87aae)" style="fill: none; stroke: #dee2e6; stroke-opacity: 0.7; stroke-width: 0.5; stroke-linecap: square"/>
     </g>
     <g id="line2d_24">
      <g>
       <use xlink:href="#m0aed064337" x="62.872188" y="169.606912" style="stroke: #000000; stroke-width: 0.8"/>
      </g>
     </g>
     <g id="text_12">
      <!-- 2 -->
      <g transform="translate(48.237188 174.165974) scale(0.12 -0.12)">
       <use xlink:href="#DejaVuSans-32"/>
      </g>
     </g>
    </g>
    <g id="ytick_6">
     <g id="line2d_25">
      <path d="M 62.872188 122.171618 
L 620.872187 122.171618 
" clip-path="url(#p3181b87aae)" style="fill: none; stroke: #dee2e6; stroke-opacity: 0.7; stroke-width: 0.5; stroke-linecap: square"/>
     </g>
     <g id="line2d_26">
      <g>
       <use xlink:href="#m0aed064337" x="62.872188" y="122.171618" style="stroke: #000000; stroke-width: 0.8"/>
      </g>
     </g>
     <g id="text_13">
      <!-- 4 -->
      <g transform="translate(48.237188 126.73068) scale(0.12 -0.12)">
       <use xlink:href="#DejaVuSans-34"/>
      </g>
     </g>
    </g>
    <g id="ytick_7">
     <g id="line2d_27">
      <path d="M 62.872188 74.736324 
L 620.872187 74.736324 
" clip-path="url(#p3181b87aae)" style="fill: none; stroke: #dee2e6; stroke-opacity: 0.7; stroke-width: 0.5; stroke-linecap: square"/>
     </g>
     <g id="line2d_28">
      <g>
       <use xlink:href="#m0aed064337" x="62.872188" y="74.736324" style="stroke: #000000; stroke-width: 0.8"/>
      </g>
     </g>
     <g id="text_14">
      <!-- 6 -->
      <g transform="translate(48.237188 79.295386) scale(0.12 -0.12)">
       <use xlink:href="#DejaVuSans-36"/>
      </g>
     </g>
    </g>
    <g id="text_15">
     <!-- y -->
     <g transform="translate(31.477969 217.924688) rotate(-90) scale(0.13 -0.13)">
      <defs>
       <path id="DejaVuSans-79" d="M 2059 -325 
Q 1816 -950 1584 -1140 
Q 1353 -1331 966 -1331 
L 506 -1331 
L 506 -850 
L 844 -850 
Q 1081 -850 1212 -737 
Q 1344 -625 1503 -206 
L 1606 56 
L 191 3500 
L 800 3500 
L 1894 763 
L 2988 3500 
L 3597 3500 
L 2059 -325 
z
" transform="scale(0.015625)"/>
      </defs>
      <use xlink:href="#DejaVuSans-79"/>
     </g>
    </g>
   </g>
   <g id="FillBetweenPolyCollection_1">
    <defs>
     <path id="m3d62c113b6" d="M 215.054006 -267.585901 
L 215.054006 -267.585901 
L 215.562295 -268.155408 
L 216.070584 -268.7232 
L 216.578874 -269.289278 
L 217.087163 -269.853642 
L 217.595452 -270.416291 
L 218.103742 -270.977225 
L 218.612031 -271.536445 
L 219.12032 -272.09395 
L 219.628609 -272.649741 
L 220.136899 -273.203817 
L 220.645188 -273.756179 
L 221.153477 -274.306826 
L 221.661767 -274.855759 
L 222.170056 -275.402977 
L 222.678345 -275.948481 
L 223.186635 -276.49227 
L 223.694924 -277.034345 
L 224.203213 -277.574705 
L 224.711502 -278.11335 
L 225.219792 -278.650282 
L 225.728081 -279.185498 
L 226.23637 -279.719 
L 226.74466 -280.250788 
L 227.252949 -280.780861 
L 227.761238 -281.309219 
L 228.269528 -281.835863 
L 228.777817 -282.360792 
L 229.286106 -282.884007 
L 229.794396 -283.405508 
L 230.302685 -283.925294 
L 230.810974 -284.443365 
L 231.319263 -284.959722 
L 231.827553 -285.474364 
L 232.335842 -285.987292 
L 232.844131 -286.498505 
L 233.352421 -287.008004 
L 233.86071 -287.515788 
L 234.368999 -288.021858 
L 234.877289 -288.526213 
L 235.385578 -289.028854 
L 235.893867 -289.52978 
L 236.402157 -290.028991 
L 236.910446 -290.526488 
L 237.418735 -291.022271 
L 237.927024 -291.516339 
L 238.435314 -292.008693 
L 238.943603 -292.499332 
L 239.451892 -292.988256 
L 239.960182 -293.475466 
L 240.468471 -293.960961 
L 240.97676 -294.444742 
L 241.48505 -294.926809 
L 241.993339 -295.407161 
L 242.501628 -295.885798 
L 243.009918 -296.362721 
L 243.518207 -296.837929 
L 244.026496 -297.311423 
L 244.534785 -297.783202 
L 245.043075 -298.253267 
L 245.551364 -298.721617 
L 246.059653 -299.188253 
L 246.567943 -299.653174 
L 247.076232 -300.11638 
L 247.584521 -300.577873 
L 248.092811 -301.03765 
L 248.6011 -301.495713 
L 249.109389 -301.952062 
L 249.617678 -302.406696 
L 250.125968 -302.859615 
L 250.634257 -303.31082 
L 251.142546 -303.760311 
L 251.650836 -304.208087 
L 252.159125 -304.654148 
L 252.667414 -305.098495 
L 253.175704 -305.541127 
L 253.683993 -305.982045 
L 254.192282 -306.421249 
L 254.700572 -306.858737 
L 255.208861 -307.294512 
L 255.71715 -307.728572 
L 256.225439 -308.160917 
L 256.733729 -308.591548 
L 257.242018 -309.020464 
L 257.750307 -309.447665 
L 258.258597 -309.873153 
L 258.766886 -310.296925 
L 259.275175 -310.718983 
L 259.783465 -311.139327 
L 260.291754 -311.557956 
L 260.800043 -311.974871 
L 261.308333 -312.390071 
L 261.816622 -312.803556 
L 262.324911 -313.215327 
L 262.8332 -313.625384 
L 263.34149 -314.033726 
L 263.849779 -314.440353 
L 264.358068 -314.845266 
L 264.866358 -315.248464 
L 265.374647 -315.649948 
L 265.882936 -316.049717 
L 266.391226 -316.447772 
L 266.899515 -316.844113 
L 267.407804 -317.238738 
L 267.916093 -317.63165 
L 268.424383 -318.022846 
L 268.932672 -318.412329 
L 269.440961 -318.800096 
L 269.949251 -319.186149 
L 270.45754 -319.570488 
L 270.965829 -319.953112 
L 271.474119 -320.334022 
L 271.982408 -320.713217 
L 272.490697 -321.090697 
L 272.998987 -321.466463 
L 273.507276 -321.840515 
L 274.015565 -322.212852 
L 274.523854 -322.583474 
L 275.032144 -322.952382 
L 275.540433 -323.319576 
L 276.048722 -323.685055 
L 276.557012 -324.048819 
L 277.065301 -324.410869 
L 277.57359 -324.771204 
L 278.08188 -325.129825 
L 278.590169 -325.486731 
L 279.098458 -325.841923 
L 279.606748 -326.1954 
L 280.115037 -326.547163 
L 280.623326 -326.897211 
L 281.131615 -327.245545 
L 281.639905 -327.592164 
L 282.148194 -327.937069 
L 282.656483 -328.280259 
L 283.164773 -328.621734 
L 283.673062 -328.961495 
L 284.181351 -329.299542 
L 284.689641 -329.635874 
L 285.19793 -329.970492 
L 285.706219 -330.303395 
L 286.214509 -330.634583 
L 286.722798 -330.964057 
L 287.231087 -331.291816 
L 287.739376 -331.617861 
L 288.247666 -331.942192 
L 288.755955 -332.264808 
L 289.264244 -332.585709 
L 289.772534 -332.904896 
L 290.280823 -333.222368 
L 290.789112 -333.538126 
L 291.297402 -333.852169 
L 291.805691 -334.164498 
L 292.31398 -334.475112 
L 292.822269 -334.784012 
L 293.330559 -335.091197 
L 293.838848 -335.396667 
L 294.347137 -335.700423 
L 294.855427 -336.002465 
L 295.363716 -336.302792 
L 295.872005 -336.601405 
L 296.380295 -336.898303 
L 296.888584 -337.193486 
L 297.396873 -337.486955 
L 297.905163 -337.77871 
L 298.413452 -338.06875 
L 298.921741 -338.357075 
L 299.43003 -338.643686 
L 299.93832 -338.928582 
L 300.446609 -339.211764 
L 300.954898 -339.493232 
L 301.463188 -339.772984 
L 301.971477 -340.051023 
L 302.479766 -340.327346 
L 302.988056 -340.601956 
L 303.496345 -340.87485 
L 304.004634 -341.146031 
L 304.512924 -341.415496 
L 305.021213 -341.683247 
L 305.529502 -341.949284 
L 306.037791 -342.213606 
L 306.546081 -342.476214 
L 307.05437 -342.737107 
L 307.562659 -342.996285 
L 308.070949 -343.253749 
L 308.579238 -343.509499 
L 309.087527 -343.763534 
L 309.595817 -344.015854 
L 310.104106 -344.26646 
L 310.612395 -344.515352 
L 311.120684 -344.762529 
L 311.628974 -345.007991 
L 312.137263 -345.251739 
L 312.645552 -345.493772 
L 313.153842 -345.734091 
L 313.662131 -345.972695 
L 314.17042 -346.209585 
L 314.67871 -346.44476 
L 315.186999 -346.678221 
L 315.695288 -346.909967 
L 316.203578 -347.139999 
L 316.711867 -347.368316 
L 317.220156 -347.594919 
L 317.728445 -347.819807 
L 318.236735 -348.04298 
L 318.745024 -348.264439 
L 319.253313 -348.484184 
L 319.761603 -348.702214 
L 320.269892 -348.918529 
L 320.778181 -349.13313 
L 321.286471 -349.346017 
L 321.79476 -349.557189 
L 322.303049 -349.766646 
L 322.811339 -349.974389 
L 323.319628 -350.180418 
L 323.827917 -350.384731 
L 324.336206 -350.587331 
L 324.844496 -350.788215 
L 325.352785 -350.987386 
L 325.861074 -351.184842 
L 326.369364 -351.380583 
L 326.877653 -351.574609 
L 327.385942 -351.766922 
L 327.894232 -351.957519 
L 328.402521 -352.146403 
L 328.91081 -352.333571 
L 329.4191 -352.519025 
L 329.927389 -352.702765 
L 330.435678 -352.88479 
L 330.943967 -353.0651 
L 331.452257 -353.243696 
L 331.960546 -353.420578 
L 332.468835 -353.595745 
L 332.977125 -353.769197 
L 333.485414 -353.940935 
L 333.993703 -354.110959 
L 334.501993 -354.279268 
L 335.010282 -354.445862 
L 335.518571 -354.610742 
L 336.02686 -354.773907 
L 336.53515 -354.935358 
L 337.043439 -355.095094 
L 337.551728 -355.253116 
L 338.060018 -355.409423 
L 338.568307 -355.564016 
L 339.076596 -355.716894 
L 339.584886 -355.868058 
L 340.093175 -356.017507 
L 340.601464 -356.165242 
L 341.109754 -356.311262 
L 341.618043 -356.455567 
L 342.126332 -356.598158 
L 342.634621 -356.739035 
L 343.142911 -356.878197 
L 343.6512 -357.015644 
L 344.159489 -357.151377 
L 344.667779 -357.285396 
L 345.176068 -357.4177 
L 345.684357 -357.548289 
L 346.192647 -357.677164 
L 346.700936 -357.804325 
L 347.209225 -357.92977 
L 347.717515 -358.053502 
L 348.225804 -358.175518 
L 348.734093 -358.295821 
L 349.242382 -358.414409 
L 349.750672 -358.531282 
L 350.258961 -358.64644 
L 350.76725 -358.759885 
L 351.27554 -358.871614 
L 351.783829 -358.98163 
L 352.292118 -359.08993 
L 352.800408 -359.196516 
L 353.308697 -359.301388 
L 353.816986 -359.404545 
L 354.325275 -359.505987 
L 354.833565 -359.605715 
L 355.341854 -359.703729 
L 355.850143 -359.800028 
L 356.358433 -359.894612 
L 356.866722 -359.987482 
L 357.375011 -360.078638 
L 357.883301 -360.168079 
L 358.39159 -360.255805 
L 358.899879 -360.341817 
L 359.408169 -360.426114 
L 359.916458 -360.508697 
L 360.424747 -360.589565 
L 360.933036 -360.668719 
L 361.441326 -360.746158 
L 361.949615 -360.821883 
L 362.457904 -360.895893 
L 362.966194 -360.968189 
L 363.474483 -361.03877 
L 363.982772 -361.107637 
L 364.491062 -361.174789 
L 364.999351 -361.240226 
L 365.50764 -361.303949 
L 366.01593 -361.365958 
L 366.524219 -361.426252 
L 367.032508 -361.484831 
L 367.540797 -361.541696 
L 368.049087 -361.596847 
L 368.557376 -361.650283 
L 369.065665 -361.702004 
L 369.573955 -361.752011 
L 370.082244 -361.800303 
L 370.590533 -361.846881 
L 371.098823 -361.891745 
L 371.607112 -361.934893 
L 372.115401 -361.976328 
L 372.623691 -362.016047 
L 373.13198 -362.054053 
L 373.640269 -362.090343 
L 374.148558 -362.12492 
L 374.656848 -362.157781 
L 375.165137 -362.188928 
L 375.673426 -362.218361 
L 376.181716 -362.246079 
L 376.690005 -362.272083 
L 377.198294 -362.296372 
L 377.706584 -362.318946 
L 378.214873 -362.339806 
L 378.723162 -362.358952 
L 379.231451 -362.376383 
L 379.739741 -362.392099 
L 380.24803 -362.406101 
L 380.756319 -362.418388 
L 381.264609 -362.428961 
L 381.772898 -362.43782 
L 382.281187 -362.444964 
L 382.789477 -362.450393 
L 383.297766 -362.454108 
L 383.806055 -362.456108 
L 384.314345 -362.456394 
L 384.822634 -362.454965 
L 385.330923 -362.451822 
L 385.839212 -362.446964 
L 386.347502 -362.440392 
L 386.855791 -362.432105 
L 387.36408 -362.422103 
L 387.87237 -362.410387 
L 388.380659 -362.396957 
L 388.888948 -362.381812 
L 389.397238 -362.364953 
L 389.905527 -362.346379 
L 390.413816 -362.32609 
L 390.922106 -362.304087 
L 391.430395 -362.280369 
L 391.938684 -362.254937 
L 392.446973 -362.227791 
L 392.955263 -362.19893 
L 393.463552 -362.168354 
L 393.971841 -362.136064 
L 394.480131 -362.102059 
L 394.98842 -362.06634 
L 395.496709 -362.028906 
L 396.004999 -361.989758 
L 396.513288 -361.948895 
L 397.021577 -361.906318 
L 397.529866 -361.862026 
L 398.038156 -361.81602 
L 398.546445 -361.768299 
L 399.054734 -361.718864 
L 399.563024 -361.667714 
L 400.071313 -361.614849 
L 400.579602 -361.56027 
L 401.087892 -361.503977 
L 401.596181 -361.445969 
L 402.10447 -361.386246 
L 402.61276 -361.324809 
L 403.121049 -361.261658 
L 403.629338 -361.196792 
L 404.137627 -361.130211 
L 404.645917 -361.061916 
L 405.154206 -360.991906 
L 405.662495 -360.920182 
L 406.170785 -360.846743 
L 406.679074 -360.77159 
L 407.187363 -360.694723 
L 407.695653 -360.61614 
L 408.203942 -360.535844 
L 408.712231 -360.453832 
L 409.220521 -360.370106 
L 409.72881 -360.284666 
L 410.237099 -360.197511 
L 410.745388 -360.108642 
L 411.253678 -360.018058 
L 411.761967 -359.92576 
L 412.270256 -359.831747 
L 412.778546 -359.736019 
L 413.286835 -359.638577 
L 413.795124 -359.539421 
L 414.303414 -359.43855 
L 414.811703 -359.335964 
L 415.319992 -359.231664 
L 415.828282 -359.125649 
L 416.336571 -359.01792 
L 416.84486 -358.908477 
L 417.353149 -358.797318 
L 417.861439 -358.684446 
L 418.369728 -358.569859 
L 418.878017 -358.453557 
L 419.386307 -358.335541 
L 419.894596 -358.21581 
L 420.402885 -358.094364 
L 420.911175 -357.971205 
L 421.419464 -357.84633 
L 421.927753 -357.719741 
L 422.436042 -357.591438 
L 422.944332 -357.46142 
L 423.452621 -357.329688 
L 423.96091 -357.196241 
L 424.4692 -357.061079 
L 424.977489 -356.924203 
L 425.485778 -356.785613 
L 425.994068 -356.645308 
L 426.502357 -356.503288 
L 427.010646 -356.359554 
L 427.518936 -356.214106 
L 428.027225 -356.066942 
L 428.535514 -355.918065 
L 429.043803 -355.767473 
L 429.552093 -355.615166 
L 430.060382 -355.461145 
L 430.568671 -355.305409 
L 431.076961 -355.147959 
L 431.58525 -354.988794 
L 432.093539 -354.827915 
L 432.601829 -354.665321 
L 433.110118 -354.501012 
L 433.618407 -354.33499 
L 434.126697 -354.167252 
L 434.634986 -353.9978 
L 435.143275 -353.826634 
L 435.651564 -353.653753 
L 436.159854 -353.479157 
L 436.668143 -353.302847 
L 437.176432 -353.124823 
L 437.684722 -352.945084 
L 438.193011 -352.76363 
L 438.7013 -352.580462 
L 439.20959 -352.39558 
L 439.717879 -352.208983 
L 440.226168 -352.020671 
L 440.734457 -351.830645 
L 441.242747 -351.638904 
L 441.751036 -351.445449 
L 442.259325 -351.250279 
L 442.767615 -351.053395 
L 443.275904 -350.854796 
L 443.784193 -350.654483 
L 444.292483 -350.452455 
L 444.800772 -350.248713 
L 445.309061 -350.043256 
L 445.817351 -349.836084 
L 446.32564 -349.627198 
L 446.833929 -349.416598 
L 447.342218 -349.204283 
L 447.850508 -348.990254 
L 448.358797 -348.77451 
L 448.867086 -348.557051 
L 449.375376 -348.337878 
L 449.883665 -348.11699 
L 450.391954 -347.894388 
L 450.900244 -347.670072 
L 451.408533 -347.444041 
L 451.916822 -347.216295 
L 452.425112 -346.986835 
L 452.933401 -346.75566 
L 453.44169 -346.522771 
L 453.949979 -346.288167 
L 454.458269 -346.051849 
L 454.966558 -345.813816 
L 455.474847 -345.574069 
L 455.983137 -345.332607 
L 456.491426 -345.089431 
L 456.999715 -344.84454 
L 457.508005 -344.597934 
L 458.016294 -344.349615 
L 458.524583 -344.09958 
L 459.032873 -343.847831 
L 459.541162 -343.594368 
L 460.049451 -343.33919 
L 460.55774 -343.082297 
L 461.06603 -342.82369 
L 461.574319 -342.563369 
L 462.082608 -342.301332 
L 462.590898 -342.037582 
L 463.099187 -341.772117 
L 463.607476 -341.504937 
L 464.115766 -341.236043 
L 464.624055 -340.965434 
L 465.132344 -340.693111 
L 465.640633 -340.419073 
L 466.148923 -340.143321 
L 466.657212 -339.865854 
L 467.165501 -339.586673 
L 467.673791 -339.305777 
L 468.18208 -339.023167 
L 468.690369 -338.738842 
L 468.690369 -338.738842 
L 468.690369 -338.738842 
L 468.18208 -338.596251 
L 467.673791 -338.45366 
L 467.165501 -338.311069 
L 466.657212 -338.168478 
L 466.148923 -338.025887 
L 465.640633 -337.883296 
L 465.132344 -337.740704 
L 464.624055 -337.598113 
L 464.115766 -337.455522 
L 463.607476 -337.312931 
L 463.099187 -337.17034 
L 462.590898 -337.027749 
L 462.082608 -336.885158 
L 461.574319 -336.742567 
L 461.06603 -336.599976 
L 460.55774 -336.457385 
L 460.049451 -336.314794 
L 459.541162 -336.172203 
L 459.032873 -336.029612 
L 458.524583 -335.887021 
L 458.016294 -335.74443 
L 457.508005 -335.601838 
L 456.999715 -335.459247 
L 456.491426 -335.316656 
L 455.983137 -335.174065 
L 455.474847 -335.031474 
L 454.966558 -334.888883 
L 454.458269 -334.746292 
L 453.949979 -334.603701 
L 453.44169 -334.46111 
L 452.933401 -334.318519 
L 452.425112 -334.175928 
L 451.916822 -334.033337 
L 451.408533 -333.890746 
L 450.900244 -333.748155 
L 450.391954 -333.605564 
L 449.883665 -333.462973 
L 449.375376 -333.320381 
L 448.867086 -333.17779 
L 448.358797 -333.035199 
L 447.850508 -332.892608 
L 447.342218 -332.750017 
L 446.833929 -332.607426 
L 446.32564 -332.464835 
L 445.817351 -332.322244 
L 445.309061 -332.179653 
L 444.800772 -332.037062 
L 444.292483 -331.894471 
L 443.784193 -331.75188 
L 443.275904 -331.609289 
L 442.767615 -331.466698 
L 442.259325 -331.324107 
L 441.751036 -331.181515 
L 441.242747 -331.038924 
L 440.734457 -330.896333 
L 440.226168 -330.753742 
L 439.717879 -330.611151 
L 439.20959 -330.46856 
L 438.7013 -330.325969 
L 438.193011 -330.183378 
L 437.684722 -330.040787 
L 437.176432 -329.898196 
L 436.668143 -329.755605 
L 436.159854 -329.613014 
L 435.651564 -329.470423 
L 435.143275 -329.327832 
L 434.634986 -329.185241 
L 434.126697 -329.04265 
L 433.618407 -328.900058 
L 433.110118 -328.757467 
L 432.601829 -328.614876 
L 432.093539 -328.472285 
L 431.58525 -328.329694 
L 431.076961 -328.187103 
L 430.568671 -328.044512 
L 430.060382 -327.901921 
L 429.552093 -327.75933 
L 429.043803 -327.616739 
L 428.535514 -327.474148 
L 428.027225 -327.331557 
L 427.518936 -327.188966 
L 427.010646 -327.046375 
L 426.502357 -326.903784 
L 425.994068 -326.761192 
L 425.485778 -326.618601 
L 424.977489 -326.47601 
L 424.4692 -326.333419 
L 423.96091 -326.190828 
L 423.452621 -326.048237 
L 422.944332 -325.905646 
L 422.436042 -325.763055 
L 421.927753 -325.620464 
L 421.419464 -325.477873 
L 420.911175 -325.335282 
L 420.402885 -325.192691 
L 419.894596 -325.0501 
L 419.386307 -324.907509 
L 418.878017 -324.764918 
L 418.369728 -324.622327 
L 417.861439 -324.479735 
L 417.353149 -324.337144 
L 416.84486 -324.194553 
L 416.336571 -324.051962 
L 415.828282 -323.909371 
L 415.319992 -323.76678 
L 414.811703 -323.624189 
L 414.303414 -323.481598 
L 413.795124 -323.339007 
L 413.286835 -323.196416 
L 412.778546 -323.053825 
L 412.270256 -322.911234 
L 411.761967 -322.768643 
L 411.253678 -322.626052 
L 410.745388 -322.483461 
L 410.237099 -322.340869 
L 409.72881 -322.198278 
L 409.220521 -322.055687 
L 408.712231 -321.913096 
L 408.203942 -321.770505 
L 407.695653 -321.627914 
L 407.187363 -321.485323 
L 406.679074 -321.342732 
L 406.170785 -321.200141 
L 405.662495 -321.05755 
L 405.154206 -320.914959 
L 404.645917 -320.772368 
L 404.137627 -320.629777 
L 403.629338 -320.487186 
L 403.121049 -320.344595 
L 402.61276 -320.202004 
L 402.10447 -320.059412 
L 401.596181 -319.916821 
L 401.087892 -319.77423 
L 400.579602 -319.631639 
L 400.071313 -319.489048 
L 399.563024 -319.346457 
L 399.054734 -319.203866 
L 398.546445 -319.061275 
L 398.038156 -318.918684 
L 397.529866 -318.776093 
L 397.021577 -318.633502 
L 396.513288 -318.490911 
L 396.004999 -318.34832 
L 395.496709 -318.205729 
L 394.98842 -318.063138 
L 394.480131 -317.920546 
L 393.971841 -317.777955 
L 393.463552 -317.635364 
L 392.955263 -317.492773 
L 392.446973 -317.350182 
L 391.938684 -317.207591 
L 391.430395 -317.065 
L 390.922106 -316.922409 
L 390.413816 -316.779818 
L 389.905527 -316.637227 
L 389.397238 -316.494636 
L 388.888948 -316.352045 
L 388.380659 -316.209454 
L 387.87237 -316.066863 
L 387.36408 -315.924272 
L 386.855791 -315.781681 
L 386.347502 -315.639089 
L 385.839212 -315.496498 
L 385.330923 -315.353907 
L 384.822634 -315.211316 
L 384.314345 -315.068725 
L 383.806055 -314.926134 
L 383.297766 -314.783543 
L 382.789477 -314.640952 
L 382.281187 -314.498361 
L 381.772898 -314.35577 
L 381.264609 -314.213179 
L 380.756319 -314.070588 
L 380.24803 -313.927997 
L 379.739741 -313.785406 
L 379.231451 -313.642815 
L 378.723162 -313.500223 
L 378.214873 -313.357632 
L 377.706584 -313.215041 
L 377.198294 -313.07245 
L 376.690005 -312.929859 
L 376.181716 -312.787268 
L 375.673426 -312.644677 
L 375.165137 -312.502086 
L 374.656848 -312.359495 
L 374.148558 -312.216904 
L 373.640269 -312.074313 
L 373.13198 -311.931722 
L 372.623691 -311.789131 
L 372.115401 -311.64654 
L 371.607112 -311.503949 
L 371.098823 -311.361358 
L 370.590533 -311.218766 
L 370.082244 -311.076175 
L 369.573955 -310.933584 
L 369.065665 -310.790993 
L 368.557376 -310.648402 
L 368.049087 -310.505811 
L 367.540797 -310.36322 
L 367.032508 -310.220629 
L 366.524219 -310.078038 
L 366.01593 -309.935447 
L 365.50764 -309.792856 
L 364.999351 -309.650265 
L 364.491062 -309.507674 
L 363.982772 -309.365083 
L 363.474483 -309.222492 
L 362.966194 -309.0799 
L 362.457904 -308.937309 
L 361.949615 -308.794718 
L 361.441326 -308.652127 
L 360.933036 -308.509536 
L 360.424747 -308.366945 
L 359.916458 -308.224354 
L 359.408169 -308.081763 
L 358.899879 -307.939172 
L 358.39159 -307.796581 
L 357.883301 -307.65399 
L 357.375011 -307.511399 
L 356.866722 -307.368808 
L 356.358433 -307.226217 
L 355.850143 -307.083626 
L 355.341854 -306.941035 
L 354.833565 -306.798443 
L 354.325275 -306.655852 
L 353.816986 -306.513261 
L 353.308697 -306.37067 
L 352.800408 -306.228079 
L 352.292118 -306.085488 
L 351.783829 -305.942897 
L 351.27554 -305.800306 
L 350.76725 -305.657715 
L 350.258961 -305.515124 
L 349.750672 -305.372533 
L 349.242382 -305.229942 
L 348.734093 -305.087351 
L 348.225804 -304.94476 
L 347.717515 -304.802169 
L 347.209225 -304.659578 
L 346.700936 -304.516986 
L 346.192647 -304.374395 
L 345.684357 -304.231804 
L 345.176068 -304.089213 
L 344.667779 -303.946622 
L 344.159489 -303.804031 
L 343.6512 -303.66144 
L 343.142911 -303.518849 
L 342.634621 -303.376258 
L 342.126332 -303.233667 
L 341.618043 -303.091076 
L 341.109754 -302.948485 
L 340.601464 -302.805894 
L 340.093175 -302.663303 
L 339.584886 -302.520712 
L 339.076596 -302.37812 
L 338.568307 -302.235529 
L 338.060018 -302.092938 
L 337.551728 -301.950347 
L 337.043439 -301.807756 
L 336.53515 -301.665165 
L 336.02686 -301.522574 
L 335.518571 -301.379983 
L 335.010282 -301.237392 
L 334.501993 -301.094801 
L 333.993703 -300.95221 
L 333.485414 -300.809619 
L 332.977125 -300.667028 
L 332.468835 -300.524437 
L 331.960546 -300.381846 
L 331.452257 -300.239255 
L 330.943967 -300.096663 
L 330.435678 -299.954072 
L 329.927389 -299.811481 
L 329.4191 -299.66889 
L 328.91081 -299.526299 
L 328.402521 -299.383708 
L 327.894232 -299.241117 
L 327.385942 -299.098526 
L 326.877653 -298.955935 
L 326.369364 -298.813344 
L 325.861074 -298.670753 
L 325.352785 -298.528162 
L 324.844496 -298.385571 
L 324.336206 -298.24298 
L 323.827917 -298.100389 
L 323.319628 -297.957797 
L 322.811339 -297.815206 
L 322.303049 -297.672615 
L 321.79476 -297.530024 
L 321.286471 -297.387433 
L 320.778181 -297.244842 
L 320.269892 -297.102251 
L 319.761603 -296.95966 
L 319.253313 -296.817069 
L 318.745024 -296.674478 
L 318.236735 -296.531887 
L 317.728445 -296.389296 
L 317.220156 -296.246705 
L 316.711867 -296.104114 
L 316.203578 -295.961523 
L 315.695288 -295.818932 
L 315.186999 -295.67634 
L 314.67871 -295.533749 
L 314.17042 -295.391158 
L 313.662131 -295.248567 
L 313.153842 -295.105976 
L 312.645552 -294.963385 
L 312.137263 -294.820794 
L 311.628974 -294.678203 
L 311.120684 -294.535612 
L 310.612395 -294.393021 
L 310.104106 -294.25043 
L 309.595817 -294.107839 
L 309.087527 -293.965248 
L 308.579238 -293.822657 
L 308.070949 -293.680066 
L 307.562659 -293.537474 
L 307.05437 -293.394883 
L 306.546081 -293.252292 
L 306.037791 -293.109701 
L 305.529502 -292.96711 
L 305.021213 -292.824519 
L 304.512924 -292.681928 
L 304.004634 -292.539337 
L 303.496345 -292.396746 
L 302.988056 -292.254155 
L 302.479766 -292.111564 
L 301.971477 -291.968973 
L 301.463188 -291.826382 
L 300.954898 -291.683791 
L 300.446609 -291.5412 
L 299.93832 -291.398609 
L 299.43003 -291.256017 
L 298.921741 -291.113426 
L 298.413452 -290.970835 
L 297.905163 -290.828244 
L 297.396873 -290.685653 
L 296.888584 -290.543062 
L 296.380295 -290.400471 
L 295.872005 -290.25788 
L 295.363716 -290.115289 
L 294.855427 -289.972698 
L 294.347137 -289.830107 
L 293.838848 -289.687516 
L 293.330559 -289.544925 
L 292.822269 -289.402334 
L 292.31398 -289.259743 
L 291.805691 -289.117151 
L 291.297402 -288.97456 
L 290.789112 -288.831969 
L 290.280823 -288.689378 
L 289.772534 -288.546787 
L 289.264244 -288.404196 
L 288.755955 -288.261605 
L 288.247666 -288.119014 
L 287.739376 -287.976423 
L 287.231087 -287.833832 
L 286.722798 -287.691241 
L 286.214509 -287.54865 
L 285.706219 -287.406059 
L 285.19793 -287.263468 
L 284.689641 -287.120877 
L 284.181351 -286.978286 
L 283.673062 -286.835694 
L 283.164773 -286.693103 
L 282.656483 -286.550512 
L 282.148194 -286.407921 
L 281.639905 -286.26533 
L 281.131615 -286.122739 
L 280.623326 -285.980148 
L 280.115037 -285.837557 
L 279.606748 -285.694966 
L 279.098458 -285.552375 
L 278.590169 -285.409784 
L 278.08188 -285.267193 
L 277.57359 -285.124602 
L 277.065301 -284.982011 
L 276.557012 -284.83942 
L 276.048722 -284.696828 
L 275.540433 -284.554237 
L 275.032144 -284.411646 
L 274.523854 -284.269055 
L 274.015565 -284.126464 
L 273.507276 -283.983873 
L 272.998987 -283.841282 
L 272.490697 -283.698691 
L 271.982408 -283.5561 
L 271.474119 -283.413509 
L 270.965829 -283.270918 
L 270.45754 -283.128327 
L 269.949251 -282.985736 
L 269.440961 -282.843145 
L 268.932672 -282.700554 
L 268.424383 -282.557963 
L 267.916093 -282.415371 
L 267.407804 -282.27278 
L 266.899515 -282.130189 
L 266.391226 -281.987598 
L 265.882936 -281.845007 
L 265.374647 -281.702416 
L 264.866358 -281.559825 
L 264.358068 -281.417234 
L 263.849779 -281.274643 
L 263.34149 -281.132052 
L 262.8332 -280.989461 
L 262.324911 -280.84687 
L 261.816622 -280.704279 
L 261.308333 -280.561688 
L 260.800043 -280.419097 
L 260.291754 -280.276505 
L 259.783465 -280.133914 
L 259.275175 -279.991323 
L 258.766886 -279.848732 
L 258.258597 -279.706141 
L 257.750307 -279.56355 
L 257.242018 -279.420959 
L 256.733729 -279.278368 
L 256.225439 -279.135777 
L 255.71715 -278.993186 
L 255.208861 -278.850595 
L 254.700572 -278.708004 
L 254.192282 -278.565413 
L 253.683993 -278.422822 
L 253.175704 -278.280231 
L 252.667414 -278.13764 
L 252.159125 -277.995048 
L 251.650836 -277.852457 
L 251.142546 -277.709866 
L 250.634257 -277.567275 
L 250.125968 -277.424684 
L 249.617678 -277.282093 
L 249.109389 -277.139502 
L 248.6011 -276.996911 
L 248.092811 -276.85432 
L 247.584521 -276.711729 
L 247.076232 -276.569138 
L 246.567943 -276.426547 
L 246.059653 -276.283956 
L 245.551364 -276.141365 
L 245.043075 -275.998774 
L 244.534785 -275.856182 
L 244.026496 -275.713591 
L 243.518207 -275.571 
L 243.009918 -275.428409 
L 242.501628 -275.285818 
L 241.993339 -275.143227 
L 241.48505 -275.000636 
L 240.97676 -274.858045 
L 240.468471 -274.715454 
L 239.960182 -274.572863 
L 239.451892 -274.430272 
L 238.943603 -274.287681 
L 238.435314 -274.14509 
L 237.927024 -274.002499 
L 237.418735 -273.859908 
L 236.910446 -273.717317 
L 236.402157 -273.574725 
L 235.893867 -273.432134 
L 235.385578 -273.289543 
L 234.877289 -273.146952 
L 234.368999 -273.004361 
L 233.86071 -272.86177 
L 233.352421 -272.719179 
L 232.844131 -272.576588 
L 232.335842 -272.433997 
L 231.827553 -272.291406 
L 231.319263 -272.148815 
L 230.810974 -272.006224 
L 230.302685 -271.863633 
L 229.794396 -271.721042 
L 229.286106 -271.578451 
L 228.777817 -271.435859 
L 228.269528 -271.293268 
L 227.761238 -271.150677 
L 227.252949 -271.008086 
L 226.74466 -270.865495 
L 226.23637 -270.722904 
L 225.728081 -270.580313 
L 225.219792 -270.437722 
L 224.711502 -270.295131 
L 224.203213 -270.15254 
L 223.694924 -270.009949 
L 223.186635 -269.867358 
L 222.678345 -269.724767 
L 222.170056 -269.582176 
L 221.661767 -269.439585 
L 221.153477 -269.296994 
L 220.645188 -269.154402 
L 220.136899 -269.011811 
L 219.628609 -268.86922 
L 219.12032 -268.726629 
L 218.612031 -268.584038 
L 218.103742 -268.441447 
L 217.595452 -268.298856 
L 217.087163 -268.156265 
L 216.578874 -268.013674 
L 216.070584 -267.871083 
L 215.562295 -267.728492 
L 215.054006 -267.585901 
z
" style="stroke: #a5d8ff; stroke-opacity: 0.4"/>
    </defs>
    <g clip-path="url(#p3181b87aae)">
     <use xlink:href="#m3d62c113b6" x="0" y="437.192813" style="fill: #a5d8ff; fill-opacity: 0.4; stroke: #a5d8ff; stroke-opacity: 0.4"/>
    </g>
   </g>
   <g id="patch_3">
    <path d="M 62.872188 380.3975 
L 62.872188 47.7575 
" style="fill: none; stroke: #868e96; stroke-width: 0.8; stroke-linejoin: miter; stroke-linecap: square"/>
   </g>
   <g id="patch_4">
    <path d="M 62.872188 380.3975 
L 620.872187 380.3975 
" style="fill: none; stroke: #868e96; stroke-width: 0.8; stroke-linejoin: miter; stroke-linecap: square"/>
   </g>
   <g id="line2d_29">
    <path d="M 88.235824 365.2775 
L 96.368453 349.52676 
L 104.501082 334.214937 
L 112.633711 319.342031 
L 120.766339 304.908044 
L 128.898968 290.912974 
L 137.031597 277.356821 
L 145.164226 264.239586 
L 153.296855 251.561269 
L 161.429484 239.321869 
L 169.562113 227.521387 
L 177.694742 216.159822 
L 184.810792 206.578503 
L 191.926842 197.33323 
L 199.042893 188.424003 
L 206.158943 179.850822 
L 213.274993 171.613688 
L 220.391043 163.7126 
L 227.507094 156.147558 
L 234.623144 148.918563 
L 241.739194 142.025614 
L 248.855245 135.468711 
L 255.971295 129.247854 
L 263.087345 123.363044 
L 269.186817 118.586386 
L 275.286288 114.056619 
L 281.38576 109.773744 
L 287.485232 105.737759 
L 293.584703 101.948666 
L 299.684175 98.406464 
L 305.783647 95.111153 
L 311.883118 92.062733 
L 317.98259 89.261205 
L 324.082062 86.706567 
L 330.181533 84.398821 
L 336.281005 82.337966 
L 342.380477 80.524001 
L 348.479948 78.956929 
L 354.57942 77.636747 
L 360.678892 76.563456 
L 366.778363 75.737057 
L 372.877835 75.157548 
L 378.977307 74.824931 
L 385.076779 74.739205 
L 391.17625 74.90037 
L 397.275722 75.308426 
L 403.375194 75.963373 
L 409.474665 76.865212 
L 415.574137 78.013942 
L 421.673609 79.409562 
L 427.77308 81.052074 
L 433.872552 82.941477 
L 439.972024 85.077771 
L 446.071495 87.460957 
L 452.170967 90.091033 
L 458.270439 92.968001 
L 464.36991 96.09186 
L 470.469382 99.462609 
L 476.568854 103.080251 
L 482.668325 106.944783 
L 488.767797 111.056206 
L 494.867269 115.41452 
L 500.96674 120.019726 
L 507.066212 124.871823 
L 513.165684 129.970811 
L 520.281734 136.231673 
L 527.397784 142.828581 
L 534.513834 149.761536 
L 541.629885 157.030537 
L 548.745935 164.635584 
L 555.861985 172.576678 
L 562.978036 180.853818 
L 570.094086 189.467004 
L 577.210136 198.416236 
L 584.326186 207.701515 
L 591.442237 217.32284 
L 595.508551 222.971618 
L 595.508551 222.971618 
" clip-path="url(#p3181b87aae)" style="fill: none; stroke: #339af0; stroke-width: 2.5; stroke-linecap: square"/>
   </g>
   <g id="line2d_30">
    <path d="M 88.235824 205.183382 
L 595.508551 62.8775 
L 595.508551 62.8775 
" clip-path="url(#p3181b87aae)" style="fill: none; stroke: #e8590c; stroke-width: 2.5; stroke-linecap: square"/>
   </g>
   <g id="text_16">
    <!-- Area Between a Curve and a Line -->
    <g transform="translate(192.183437 33.7575) scale(0.16 -0.16)">
     <defs>
      <path id="DejaVuSans-Bold-41" d="M 3419 850 
L 1538 850 
L 1241 0 
L 31 0 
L 1759 4666 
L 3194 4666 
L 4922 0 
L 3713 0 
L 3419 850 
z
M 1838 1716 
L 3116 1716 
L 2478 3572 
L 1838 1716 
z
" transform="scale(0.015625)"/>
      <path id="DejaVuSans-Bold-72" d="M 3138 2547 
Q 2991 2616 2845 2648 
Q 2700 2681 2553 2681 
Q 2122 2681 1889 2404 
Q 1656 2128 1656 1613 
L 1656 0 
L 538 0 
L 538 3500 
L 1656 3500 
L 1656 2925 
Q 1872 3269 2151 3426 
Q 2431 3584 2822 3584 
Q 2878 3584 2943 3579 
Q 3009 3575 3134 3559 
L 3138 2547 
z
" transform="scale(0.015625)"/>
      <path id="DejaVuSans-Bold-65" d="M 4031 1759 
L 4031 1441 
L 1416 1441 
Q 1456 1047 1700 850 
Q 1944 653 2381 653 
Q 2734 653 3104 758 
Q 3475 863 3866 1075 
L 3866 213 
Q 3469 63 3072 -14 
Q 2675 -91 2278 -91 
Q 1328 -91 801 392 
Q 275 875 275 1747 
Q 275 2603 792 3093 
Q 1309 3584 2216 3584 
Q 3041 3584 3536 3087 
Q 4031 2591 4031 1759 
z
M 2881 2131 
Q 2881 2450 2695 2645 
Q 2509 2841 2209 2841 
Q 1884 2841 1681 2658 
Q 1478 2475 1428 2131 
L 2881 2131 
z
" transform="scale(0.015625)"/>
      <path id="DejaVuSans-Bold-61" d="M 2106 1575 
Q 1756 1575 1579 1456 
Q 1403 1338 1403 1106 
Q 1403 894 1545 773 
Q 1688 653 1941 653 
Q 2256 653 2472 879 
Q 2688 1106 2688 1447 
L 2688 1575 
L 2106 1575 
z
M 3816 1997 
L 3816 0 
L 2688 0 
L 2688 519 
Q 2463 200 2181 54 
Q 1900 -91 1497 -91 
Q 953 -91 614 226 
Q 275 544 275 1050 
Q 275 1666 698 1953 
Q 1122 2241 2028 2241 
L 2688 2241 
L 2688 2328 
Q 2688 2594 2478 2717 
Q 2269 2841 1825 2841 
Q 1466 2841 1156 2769 
Q 847 2697 581 2553 
L 581 3406 
Q 941 3494 1303 3539 
Q 1666 3584 2028 3584 
Q 2975 3584 3395 3211 
Q 3816 2838 3816 1997 
z
" transform="scale(0.015625)"/>
      <path id="DejaVuSans-Bold-20" transform="scale(0.015625)"/>
      <path id="DejaVuSans-Bold-42" d="M 2456 2859 
Q 2741 2859 2887 2984 
Q 3034 3109 3034 3353 
Q 3034 3594 2887 3720 
Q 2741 3847 2456 3847 
L 1791 3847 
L 1791 2859 
L 2456 2859 
z
M 2497 819 
Q 2859 819 3042 972 
Q 3225 1125 3225 1434 
Q 3225 1738 3044 1889 
Q 2863 2041 2497 2041 
L 1791 2041 
L 1791 819 
L 2497 819 
z
M 3616 2497 
Q 4003 2384 4215 2081 
Q 4428 1778 4428 1338 
Q 4428 663 3972 331 
Q 3516 0 2584 0 
L 588 0 
L 588 4666 
L 2394 4666 
Q 3366 4666 3802 4372 
Q 4238 4078 4238 3431 
Q 4238 3091 4078 2852 
Q 3919 2613 3616 2497 
z
" transform="scale(0.015625)"/>
      <path id="DejaVuSans-Bold-74" d="M 1759 4494 
L 1759 3500 
L 2913 3500 
L 2913 2700 
L 1759 2700 
L 1759 1216 
Q 1759 972 1856 886 
Q 1953 800 2241 800 
L 2816 800 
L 2816 0 
L 1856 0 
Q 1194 0 917 276 
Q 641 553 641 1216 
L 641 2700 
L 84 2700 
L 84 3500 
L 641 3500 
L 641 4494 
L 1759 4494 
z
" transform="scale(0.015625)"/>
      <path id="DejaVuSans-Bold-77" d="M 225 3500 
L 1313 3500 
L 1900 1088 
L 2491 3500 
L 3425 3500 
L 4013 1113 
L 4603 3500 
L 5691 3500 
L 4769 0 
L 3547 0 
L 2956 2406 
L 2369 0 
L 1147 0 
L 225 3500 
z
" transform="scale(0.015625)"/>
      <path id="DejaVuSans-Bold-6e" d="M 4056 2131 
L 4056 0 
L 2931 0 
L 2931 347 
L 2931 1631 
Q 2931 2084 2911 2256 
Q 2891 2428 2841 2509 
Q 2775 2619 2662 2680 
Q 2550 2741 2406 2741 
Q 2056 2741 1856 2470 
Q 1656 2200 1656 1722 
L 1656 0 
L 538 0 
L 538 3500 
L 1656 3500 
L 1656 2988 
Q 1909 3294 2193 3439 
Q 2478 3584 2822 3584 
Q 3428 3584 3742 3212 
Q 4056 2841 4056 2131 
z
" transform="scale(0.015625)"/>
      <path id="DejaVuSans-Bold-43" d="M 4288 256 
Q 3956 84 3597 -3 
Q 3238 -91 2847 -91 
Q 1681 -91 1000 561 
Q 319 1213 319 2328 
Q 319 3447 1000 4098 
Q 1681 4750 2847 4750 
Q 3238 4750 3597 4662 
Q 3956 4575 4288 4403 
L 4288 3438 
Q 3953 3666 3628 3772 
Q 3303 3878 2944 3878 
Q 2300 3878 1931 3465 
Q 1563 3053 1563 2328 
Q 1563 1606 1931 1193 
Q 2300 781 2944 781 
Q 3303 781 3628 887 
Q 3953 994 4288 1222 
L 4288 256 
z
" transform="scale(0.015625)"/>
      <path id="DejaVuSans-Bold-75" d="M 500 1363 
L 500 3500 
L 1625 3500 
L 1625 3150 
Q 1625 2866 1622 2436 
Q 1619 2006 1619 1863 
Q 1619 1441 1641 1255 
Q 1663 1069 1716 984 
Q 1784 875 1895 815 
Q 2006 756 2150 756 
Q 2500 756 2700 1025 
Q 2900 1294 2900 1772 
L 2900 3500 
L 4019 3500 
L 4019 0 
L 2900 0 
L 2900 506 
Q 2647 200 2364 54 
Q 2081 -91 1741 -91 
Q 1134 -91 817 281 
Q 500 653 500 1363 
z
" transform="scale(0.015625)"/>
      <path id="DejaVuSans-Bold-76" d="M 97 3500 
L 1216 3500 
L 2088 1081 
L 2956 3500 
L 4078 3500 
L 2700 0 
L 1472 0 
L 97 3500 
z
" transform="scale(0.015625)"/>
      <path id="DejaVuSans-Bold-64" d="M 2919 2988 
L 2919 4863 
L 4044 4863 
L 4044 0 
L 2919 0 
L 2919 506 
Q 2688 197 2409 53 
Q 2131 -91 1766 -91 
Q 1119 -91 703 423 
Q 288 938 288 1747 
Q 288 2556 703 3070 
Q 1119 3584 1766 3584 
Q 2128 3584 2408 3439 
Q 2688 3294 2919 2988 
z
M 2181 722 
Q 2541 722 2730 984 
Q 2919 1247 2919 1747 
Q 2919 2247 2730 2509 
Q 2541 2772 2181 2772 
Q 1825 2772 1636 2509 
Q 1447 2247 1447 1747 
Q 1447 1247 1636 984 
Q 1825 722 2181 722 
z
" transform="scale(0.015625)"/>
      <path id="DejaVuSans-Bold-4c" d="M 588 4666 
L 1791 4666 
L 1791 909 
L 3903 909 
L 3903 0 
L 588 0 
L 588 4666 
z
" transform="scale(0.015625)"/>
      <path id="DejaVuSans-Bold-69" d="M 538 3500 
L 1656 3500 
L 1656 0 
L 538 0 
L 538 3500 
z
M 538 4863 
L 1656 4863 
L 1656 3950 
L 538 3950 
L 538 4863 
z
" transform="scale(0.015625)"/>
     </defs>
     <use xlink:href="#DejaVuSans-Bold-41"/>
     <use xlink:href="#DejaVuSans-Bold-72" transform="translate(77.392578 0)"/>
     <use xlink:href="#DejaVuSans-Bold-65" transform="translate(126.708984 0)"/>
     <use xlink:href="#DejaVuSans-Bold-61" transform="translate(194.53125 0)"/>
     <use xlink:href="#DejaVuSans-Bold-20" transform="translate(262.011719 0)"/>
     <use xlink:href="#DejaVuSans-Bold-42" transform="translate(296.826172 0)"/>
     <use xlink:href="#DejaVuSans-Bold-65" transform="translate(373.046875 0)"/>
     <use xlink:href="#DejaVuSans-Bold-74" transform="translate(440.869141 0)"/>
     <use xlink:href="#DejaVuSans-Bold-77" transform="translate(488.671875 0)"/>
     <use xlink:href="#DejaVuSans-Bold-65" transform="translate(581.054688 0)"/>
     <use xlink:href="#DejaVuSans-Bold-65" transform="translate(648.876953 0)"/>
     <use xlink:href="#DejaVuSans-Bold-6e" transform="translate(716.699219 0)"/>
     <use xlink:href="#DejaVuSans-Bold-20" transform="translate(787.890625 0)"/>
     <use xlink:href="#DejaVuSans-Bold-61" transform="translate(822.705078 0)"/>
     <use xlink:href="#DejaVuSans-Bold-20" transform="translate(890.185547 0)"/>
     <use xlink:href="#DejaVuSans-Bold-43" transform="translate(925 0)"/>
     <use xlink:href="#DejaVuSans-Bold-75" transform="translate(998.388672 0)"/>
     <use xlink:href="#DejaVuSans-Bold-72" transform="translate(1069.580078 0)"/>
     <use xlink:href="#DejaVuSans-Bold-76" transform="translate(1118.896484 0)"/>
     <use xlink:href="#DejaVuSans-Bold-65" transform="translate(1184.082031 0)"/>
     <use xlink:href="#DejaVuSans-Bold-20" transform="translate(1251.904297 0)"/>
     <use xlink:href="#DejaVuSans-Bold-61" transform="translate(1286.71875 0)"/>
     <use xlink:href="#DejaVuSans-Bold-6e" transform="translate(1354.199219 0)"/>
     <use xlink:href="#DejaVuSans-Bold-64" transform="translate(1425.390625 0)"/>
     <use xlink:href="#DejaVuSans-Bold-20" transform="translate(1496.972656 0)"/>
     <use xlink:href="#DejaVuSans-Bold-61" transform="translate(1531.787109 0)"/>
     <use xlink:href="#DejaVuSans-Bold-20" transform="translate(1599.267578 0)"/>
     <use xlink:href="#DejaVuSans-Bold-4c" transform="translate(1634.082031 0)"/>
     <use xlink:href="#DejaVuSans-Bold-69" transform="translate(1697.802734 0)"/>
     <use xlink:href="#DejaVuSans-Bold-6e" transform="translate(1732.080078 0)"/>
     <use xlink:href="#DejaVuSans-Bold-65" transform="translate(1803.271484 0)"/>
    </g>
   </g>
   <g id="legend_1">
    <g id="patch_5">
     <path d="M 71.272188 92.585 
L 202.713437 92.585 
Q 205.113437 92.585 205.113437 90.185 
L 205.113437 56.1575 
Q 205.113437 53.7575 202.713437 53.7575 
L 71.272188 53.7575 
Q 68.872187 53.7575 68.872187 56.1575 
L 68.872187 90.185 
Q 68.872187 92.585 71.272188 92.585 
z
" style="fill: #ffffff; opacity: 0.9; stroke: #dee2e6; stroke-linejoin: miter"/>
    </g>
    <g id="line2d_31">
     <path d="M 73.672187 63.475625 
L 85.672187 63.475625 
L 97.672187 63.475625 
" style="fill: none; stroke: #339af0; stroke-width: 2.5; stroke-linecap: square"/>
    </g>
    <g id="text_17">
     <!-- y = -x² + 6x - 3 -->
     <g transform="translate(107.272188 67.675625) scale(0.12 -0.12)">
      <defs>
       <path id="DejaVuSans-20" transform="scale(0.015625)"/>
       <path id="DejaVuSans-3d" d="M 678 2906 
L 4684 2906 
L 4684 2381 
L 678 2381 
L 678 2906 
z
M 678 1631 
L 4684 1631 
L 4684 1100 
L 678 1100 
L 678 1631 
z
" transform="scale(0.015625)"/>
       <path id="DejaVuSans-2d" d="M 313 2009 
L 1997 2009 
L 1997 1497 
L 313 1497 
L 313 2009 
z
" transform="scale(0.015625)"/>
       <path id="DejaVuSans-b2" d="M 838 2444 
L 2163 2444 
L 2163 2088 
L 294 2088 
L 294 2431 
Q 400 2528 597 2703 
Q 1672 3656 1672 3950 
Q 1672 4156 1509 4282 
Q 1347 4409 1081 4409 
Q 919 4409 728 4354 
Q 538 4300 313 4191 
L 313 4575 
Q 553 4663 761 4706 
Q 969 4750 1147 4750 
Q 1600 4750 1872 4544 
Q 2144 4338 2144 4000 
Q 2144 3566 1109 2678 
Q 934 2528 838 2444 
z
" transform="scale(0.015625)"/>
       <path id="DejaVuSans-2b" d="M 2944 4013 
L 2944 2272 
L 4684 2272 
L 4684 1741 
L 2944 1741 
L 2944 0 
L 2419 0 
L 2419 1741 
L 678 1741 
L 678 2272 
L 2419 2272 
L 2419 4013 
L 2944 4013 
z
" transform="scale(0.015625)"/>
      </defs>
      <use xlink:href="#DejaVuSans-79"/>
      <use xlink:href="#DejaVuSans-20" transform="translate(59.179688 0)"/>
      <use xlink:href="#DejaVuSans-3d" transform="translate(90.966797 0)"/>
      <use xlink:href="#DejaVuSans-20" transform="translate(174.755859 0)"/>
      <use xlink:href="#DejaVuSans-2d" transform="translate(206.542969 0)"/>
      <use xlink:href="#DejaVuSans-78" transform="translate(242.626953 0)"/>
      <use xlink:href="#DejaVuSans-b2" transform="translate(301.806641 0)"/>
      <use xlink:href="#DejaVuSans-20" transform="translate(341.894531 0)"/>
      <use xlink:href="#DejaVuSans-2b" transform="translate(373.681641 0)"/>
      <use xlink:href="#DejaVuSans-20" transform="translate(457.470703 0)"/>
      <use xlink:href="#DejaVuSans-36" transform="translate(489.257812 0)"/>
      <use xlink:href="#DejaVuSans-78" transform="translate(552.880859 0)"/>
      <use xlink:href="#DejaVuSans-20" transform="translate(612.060547 0)"/>
      <use xlink:href="#DejaVuSans-2d" transform="translate(643.847656 0)"/>
      <use xlink:href="#DejaVuSans-20" transform="translate(679.931641 0)"/>
      <use xlink:href="#DejaVuSans-33" transform="translate(711.71875 0)"/>
     </g>
    </g>
    <g id="line2d_32">
     <path d="M 73.672187 81.089375 
L 85.672187 81.089375 
L 97.672187 81.089375 
" style="fill: none; stroke: #e8590c; stroke-width: 2.5; stroke-linecap: square"/>
    </g>
    <g id="text_18">
     <!-- y = x + 1 -->
     <g transform="translate(107.272188 85.289375) scale(0.12 -0.12)">
      <use xlink:href="#DejaVuSans-79"/>
      <use xlink:href="#DejaVuSans-20" transform="translate(59.179688 0)"/>
      <use xlink:href="#DejaVuSans-3d" transform="translate(90.966797 0)"/>
      <use xlink:href="#DejaVuSans-20" transform="translate(174.755859 0)"/>
      <use xlink:href="#DejaVuSans-78" transform="translate(206.542969 0)"/>
      <use xlink:href="#DejaVuSans-20" transform="translate(265.722656 0)"/>
      <use xlink:href="#DejaVuSans-2b" transform="translate(297.509766 0)"/>
      <use xlink:href="#DejaVuSans-20" transform="translate(381.298828 0)"/>
      <use xlink:href="#DejaVuSans-31" transform="translate(413.085938 0)"/>
     </g>
    </g>
   </g>
  </g>
 </g>
 <defs>
  <clipPath id="p3181b87aae">
   <rect x="62.872188" y="47.7575" width="558" height="332.64"/>
  </clipPath>
 </defs>
</svg>
