<?xml version="1.0" encoding="utf-8" standalone="no"?>
<!DOCTYPE svg PUBLIC "-//W3C//DTD SVG 1.1//EN"
  "http://www.w3.org/Graphics/SVG/1.1/DTD/svg11.dtd">
<svg xmlns:xlink="http://www.w3.org/1999/xlink" width="643.865313pt" height="437.192813pt" viewBox="0 0 643.865313 437.192813" xmlns="http://www.w3.org/2000/svg" version="1.1">
 <metadata>
  <rdf:RDF xmlns:dc="http://purl.org/dc/elements/1.1/" xmlns:cc="http://creativecommons.org/ns#" xmlns:rdf="http://www.w3.org/1999/02/22-rdf-syntax-ns#">
   <cc:Work>
    <dc:type rdf:resource="http://purl.org/dc/dcmitype/StillImage"/>
    <dc:date>2026-03-25T09:44:10.047060</dc:date>
    <dc:format>image/svg+xml</dc:format>
    <dc:creator>
     <cc:Agent>
      <dc:title>Matplotlib v3.10.8, https://matplotlib.org/</dc:title>
     </cc:Agent>
    </dc:creator>
   </cc:Work>
  </rdf:RDF>
 </metadata>
 <defs>
  <style type="text/css">*{stroke-linejoin: round; stroke-linecap: butt}</style>
 </defs>
 <g id="figure_1">
  <g id="patch_1">
   <path d="M 0 437.192813 
L 643.865313 437.192813 
L 643.865313 -0 
L 0 -0 
z
" style="fill: #ffffff"/>
  </g>
  <g id="axes_1">
   <g id="patch_2">
    <path d="M 64.265312 380.3975 
L 622.265312 380.3975 
L 622.265312 47.7575 
L 64.265312 47.7575 
z
" style="fill: #ffffff"/>
   </g>
   <g id="line2d_1">
    <path d="M 216.447131 380.3975 
L 216.447131 47.7575 
" clip-path="url(#p136541de5c)" style="fill: none; stroke-dasharray: 1,1.65; stroke-dashoffset: 0; stroke: #868e96"/>
   </g>
   <g id="line2d_2">
    <path d="M 470.083494 380.3975 
L 470.083494 47.7575 
" clip-path="url(#p136541de5c)" style="fill: none; stroke-dasharray: 1,1.65; stroke-dashoffset: 0; stroke: #868e96"/>
   </g>
   <g id="matplotlib.axis_1">
    <g id="xtick_1">
     <g id="line2d_3">
      <path d="M 89.628949 380.3975 
L 89.628949 47.7575 
" clip-path="url(#p136541de5c)" style="fill: none; stroke: #dee2e6; stroke-opacity: 0.7; stroke-width: 0.5; stroke-linecap: square"/>
     </g>
     <g id="line2d_4">
      <defs>
       <path id="m03af43fcd8" d="M 0 0 
L 0 3.5 
" style="stroke: #000000; stroke-width: 0.8"/>
      </defs>
      <g>
       <use xlink:href="#m03af43fcd8" x="89.628949" y="380.3975" style="stroke: #000000; stroke-width: 0.8"/>
      </g>
     </g>
     <g id="text_1">
      <!-- 0.0 -->
      <g transform="translate(80.087074 396.515625) scale(0.12 -0.12)">
       <defs>
        <path id="DejaVuSans-30" d="M 2034 4250 
Q 1547 4250 1301 3770 
Q 1056 3291 1056 2328 
Q 1056 1369 1301 889 
Q 1547 409 2034 409 
Q 2525 409 2770 889 
Q 3016 1369 3016 2328 
Q 3016 3291 2770 3770 
Q 2525 4250 2034 4250 
z
M 2034 4750 
Q 2819 4750 3233 4129 
Q 3647 3509 3647 2328 
Q 3647 1150 3233 529 
Q 2819 -91 2034 -91 
Q 1250 -91 836 529 
Q 422 1150 422 2328 
Q 422 3509 836 4129 
Q 1250 4750 2034 4750 
z
" transform="scale(0.015625)"/>
        <path id="DejaVuSans-2e" d="M 684 794 
L 1344 794 
L 1344 0 
L 684 0 
L 684 794 
z
" transform="scale(0.015625)"/>
       </defs>
       <use xlink:href="#DejaVuSans-30"/>
       <use xlink:href="#DejaVuSans-2e" transform="translate(63.623047 0)"/>
       <use xlink:href="#DejaVuSans-30" transform="translate(95.410156 0)"/>
      </g>
     </g>
    </g>
    <g id="xtick_2">
     <g id="line2d_5">
      <path d="M 153.03804 380.3975 
L 153.03804 47.7575 
" clip-path="url(#p136541de5c)" style="fill: none; stroke: #dee2e6; stroke-opacity: 0.7; stroke-width: 0.5; stroke-linecap: square"/>
     </g>
     <g id="line2d_6">
      <g>
       <use xlink:href="#m03af43fcd8" x="153.03804" y="380.3975" style="stroke: #000000; stroke-width: 0.8"/>
      </g>
     </g>
     <g id="text_2">
      <!-- 0.5 -->
      <g transform="translate(143.496165 396.515625) scale(0.12 -0.12)">
       <defs>
        <path id="DejaVuSans-35" d="M 691 4666 
L 3169 4666 
L 3169 4134 
L 1269 4134 
L 1269 2991 
Q 1406 3038 1543 3061 
Q 1681 3084 1819 3084 
Q 2600 3084 3056 2656 
Q 3513 2228 3513 1497 
Q 3513 744 3044 326 
Q 2575 -91 1722 -91 
Q 1428 -91 1123 -41 
Q 819 9 494 109 
L 494 744 
Q 775 591 1075 516 
Q 1375 441 1709 441 
Q 2250 441 2565 725 
Q 2881 1009 2881 1497 
Q 2881 1984 2565 2268 
Q 2250 2553 1709 2553 
Q 1456 2553 1204 2497 
Q 953 2441 691 2322 
L 691 4666 
z
" transform="scale(0.015625)"/>
       </defs>
       <use xlink:href="#DejaVuSans-30"/>
       <use xlink:href="#DejaVuSans-2e" transform="translate(63.623047 0)"/>
       <use xlink:href="#DejaVuSans-35" transform="translate(95.410156 0)"/>
      </g>
     </g>
    </g>
    <g id="xtick_3">
     <g id="line2d_7">
      <path d="M 216.447131 380.3975 
L 216.447131 47.7575 
" clip-path="url(#p136541de5c)" style="fill: none; stroke: #dee2e6; stroke-opacity: 0.7; stroke-width: 0.5; stroke-linecap: square"/>
     </g>
     <g id="line2d_8">
      <g>
       <use xlink:href="#m03af43fcd8" x="216.447131" y="380.3975" style="stroke: #000000; stroke-width: 0.8"/>
      </g>
     </g>
     <g id="text_3">
      <!-- 1.0 -->
      <g transform="translate(206.905256 396.515625) scale(0.12 -0.12)">
       <defs>
        <path id="DejaVuSans-31" d="M 794 531 
L 1825 531 
L 1825 4091 
L 703 3866 
L 703 4441 
L 1819 4666 
L 2450 4666 
L 2450 531 
L 3481 531 
L 3481 0 
L 794 0 
L 794 531 
z
" transform="scale(0.015625)"/>
       </defs>
       <use xlink:href="#DejaVuSans-31"/>
       <use xlink:href="#DejaVuSans-2e" transform="translate(63.623047 0)"/>
       <use xlink:href="#DejaVuSans-30" transform="translate(95.410156 0)"/>
      </g>
     </g>
    </g>
    <g id="xtick_4">
     <g id="line2d_9">
      <path d="M 279.856222 380.3975 
L 279.856222 47.7575 
" clip-path="url(#p136541de5c)" style="fill: none; stroke: #dee2e6; stroke-opacity: 0.7; stroke-width: 0.5; stroke-linecap: square"/>
     </g>
     <g id="line2d_10">
      <g>
       <use xlink:href="#m03af43fcd8" x="279.856222" y="380.3975" style="stroke: #000000; stroke-width: 0.8"/>
      </g>
     </g>
     <g id="text_4">
      <!-- 1.5 -->
      <g transform="translate(270.314347 396.515625) scale(0.12 -0.12)">
       <use xlink:href="#DejaVuSans-31"/>
       <use xlink:href="#DejaVuSans-2e" transform="translate(63.623047 0)"/>
       <use xlink:href="#DejaVuSans-35" transform="translate(95.410156 0)"/>
      </g>
     </g>
    </g>
    <g id="xtick_5">
     <g id="line2d_11">
      <path d="M 343.265312 380.3975 
L 343.265312 47.7575 
" clip-path="url(#p136541de5c)" style="fill: none; stroke: #dee2e6; stroke-opacity: 0.7; stroke-width: 0.5; stroke-linecap: square"/>
     </g>
     <g id="line2d_12">
      <g>
       <use xlink:href="#m03af43fcd8" x="343.265312" y="380.3975" style="stroke: #000000; stroke-width: 0.8"/>
      </g>
     </g>
     <g id="text_5">
      <!-- 2.0 -->
      <g transform="translate(333.723437 396.515625) scale(0.12 -0.12)">
       <defs>
        <path id="DejaVuSans-32" d="M 1228 531 
L 3431 531 
L 3431 0 
L 469 0 
L 469 531 
Q 828 903 1448 1529 
Q 2069 2156 2228 2338 
Q 2531 2678 2651 2914 
Q 2772 3150 2772 3378 
Q 2772 3750 2511 3984 
Q 2250 4219 1831 4219 
Q 1534 4219 1204 4116 
Q 875 4013 500 3803 
L 500 4441 
Q 881 4594 1212 4672 
Q 1544 4750 1819 4750 
Q 2544 4750 2975 4387 
Q 3406 4025 3406 3419 
Q 3406 3131 3298 2873 
Q 3191 2616 2906 2266 
Q 2828 2175 2409 1742 
Q 1991 1309 1228 531 
z
" transform="scale(0.015625)"/>
       </defs>
       <use xlink:href="#DejaVuSans-32"/>
       <use xlink:href="#DejaVuSans-2e" transform="translate(63.623047 0)"/>
       <use xlink:href="#DejaVuSans-30" transform="translate(95.410156 0)"/>
      </g>
     </g>
    </g>
    <g id="xtick_6">
     <g id="line2d_13">
      <path d="M 406.674403 380.3975 
L 406.674403 47.7575 
" clip-path="url(#p136541de5c)" style="fill: none; stroke: #dee2e6; stroke-opacity: 0.7; stroke-width: 0.5; stroke-linecap: square"/>
     </g>
     <g id="line2d_14">
      <g>
       <use xlink:href="#m03af43fcd8" x="406.674403" y="380.3975" style="stroke: #000000; stroke-width: 0.8"/>
      </g>
     </g>
     <g id="text_6">
      <!-- 2.5 -->
      <g transform="translate(397.132528 396.515625) scale(0.12 -0.12)">
       <use xlink:href="#DejaVuSans-32"/>
       <use xlink:href="#DejaVuSans-2e" transform="translate(63.623047 0)"/>
       <use xlink:href="#DejaVuSans-35" transform="translate(95.410156 0)"/>
      </g>
     </g>
    </g>
    <g id="xtick_7">
     <g id="line2d_15">
      <path d="M 470.083494 380.3975 
L 470.083494 47.7575 
" clip-path="url(#p136541de5c)" style="fill: none; stroke: #dee2e6; stroke-opacity: 0.7; stroke-width: 0.5; stroke-linecap: square"/>
     </g>
     <g id="line2d_16">
      <g>
       <use xlink:href="#m03af43fcd8" x="470.083494" y="380.3975" style="stroke: #000000; stroke-width: 0.8"/>
      </g>
     </g>
     <g id="text_7">
      <!-- 3.0 -->
      <g transform="translate(460.541619 396.515625) scale(0.12 -0.12)">
       <defs>
        <path id="DejaVuSans-33" d="M 2597 2516 
Q 3050 2419 3304 2112 
Q 3559 1806 3559 1356 
Q 3559 666 3084 287 
Q 2609 -91 1734 -91 
Q 1441 -91 1130 -33 
Q 819 25 488 141 
L 488 750 
Q 750 597 1062 519 
Q 1375 441 1716 441 
Q 2309 441 2620 675 
Q 2931 909 2931 1356 
Q 2931 1769 2642 2001 
Q 2353 2234 1838 2234 
L 1294 2234 
L 1294 2753 
L 1863 2753 
Q 2328 2753 2575 2939 
Q 2822 3125 2822 3475 
Q 2822 3834 2567 4026 
Q 2313 4219 1838 4219 
Q 1578 4219 1281 4162 
Q 984 4106 628 3988 
L 628 4550 
Q 988 4650 1302 4700 
Q 1616 4750 1894 4750 
Q 2613 4750 3031 4423 
Q 3450 4097 3450 3541 
Q 3450 3153 3228 2886 
Q 3006 2619 2597 2516 
z
" transform="scale(0.015625)"/>
       </defs>
       <use xlink:href="#DejaVuSans-33"/>
       <use xlink:href="#DejaVuSans-2e" transform="translate(63.623047 0)"/>
       <use xlink:href="#DejaVuSans-30" transform="translate(95.410156 0)"/>
      </g>
     </g>
    </g>
    <g id="xtick_8">
     <g id="line2d_17">
      <path d="M 533.492585 380.3975 
L 533.492585 47.7575 
" clip-path="url(#p136541de5c)" style="fill: none; stroke: #dee2e6; stroke-opacity: 0.7; stroke-width: 0.5; stroke-linecap: square"/>
     </g>
     <g id="line2d_18">
      <g>
       <use xlink:href="#m03af43fcd8" x="533.492585" y="380.3975" style="stroke: #000000; stroke-width: 0.8"/>
      </g>
     </g>
     <g id="text_8">
      <!-- 3.5 -->
      <g transform="translate(523.95071 396.515625) scale(0.12 -0.12)">
       <use xlink:href="#DejaVuSans-33"/>
       <use xlink:href="#DejaVuSans-2e" transform="translate(63.623047 0)"/>
       <use xlink:href="#DejaVuSans-35" transform="translate(95.410156 0)"/>
      </g>
     </g>
    </g>
    <g id="xtick_9">
     <g id="line2d_19">
      <path d="M 596.901676 380.3975 
L 596.901676 47.7575 
" clip-path="url(#p136541de5c)" style="fill: none; stroke: #dee2e6; stroke-opacity: 0.7; stroke-width: 0.5; stroke-linecap: square"/>
     </g>
     <g id="line2d_20">
      <g>
       <use xlink:href="#m03af43fcd8" x="596.901676" y="380.3975" style="stroke: #000000; stroke-width: 0.8"/>
      </g>
     </g>
     <g id="text_9">
      <!-- 4.0 -->
      <g transform="translate(587.359801 396.515625) scale(0.12 -0.12)">
       <defs>
        <path id="DejaVuSans-34" d="M 2419 4116 
L 825 1625 
L 2419 1625 
L 2419 4116 
z
M 2253 4666 
L 3047 4666 
L 3047 1625 
L 3713 1625 
L 3713 1100 
L 3047 1100 
L 3047 0 
L 2419 0 
L 2419 1100 
L 313 1100 
L 313 1709 
L 2253 4666 
z
" transform="scale(0.015625)"/>
       </defs>
       <use xlink:href="#DejaVuSans-34"/>
       <use xlink:href="#DejaVuSans-2e" transform="translate(63.623047 0)"/>
       <use xlink:href="#DejaVuSans-30" transform="translate(95.410156 0)"/>
      </g>
     </g>
    </g>
    <g id="text_10">
     <!-- x -->
     <g transform="translate(339.418125 412.889219) scale(0.13 -0.13)">
      <defs>
       <path id="DejaVuSans-78" d="M 3513 3500 
L 2247 1797 
L 3578 0 
L 2900 0 
L 1881 1375 
L 863 0 
L 184 0 
L 1544 1831 
L 300 3500 
L 978 3500 
L 1906 2253 
L 2834 3500 
L 3513 3500 
z
" transform="scale(0.015625)"/>
      </defs>
      <use xlink:href="#DejaVuSans-78"/>
     </g>
    </g>
   </g>
   <g id="matplotlib.axis_2">
    <g id="ytick_1">
     <g id="line2d_21">
      <path d="M 64.265312 365.2775 
L 622.265312 365.2775 
" clip-path="url(#p136541de5c)" style="fill: none; stroke: #dee2e6; stroke-opacity: 0.7; stroke-width: 0.5; stroke-linecap: square"/>
     </g>
     <g id="line2d_22">
      <defs>
       <path id="m55fd1c2324" d="M 0 0 
L -3.5 0 
" style="stroke: #000000; stroke-width: 0.8"/>
      </defs>
      <g>
       <use xlink:href="#m55fd1c2324" x="64.265312" y="365.2775" style="stroke: #000000; stroke-width: 0.8"/>
      </g>
     </g>
     <g id="text_11">
      <!-- 0.0 -->
      <g transform="translate(38.181562 369.836563) scale(0.12 -0.12)">
       <use xlink:href="#DejaVuSans-30"/>
       <use xlink:href="#DejaVuSans-2e" transform="translate(63.623047 0)"/>
       <use xlink:href="#DejaVuSans-30" transform="translate(95.410156 0)"/>
      </g>
     </g>
    </g>
    <g id="ytick_2">
     <g id="line2d_23">
      <path d="M 64.265312 327.477462 
L 622.265312 327.477462 
" clip-path="url(#p136541de5c)" style="fill: none; stroke: #dee2e6; stroke-opacity: 0.7; stroke-width: 0.5; stroke-linecap: square"/>
     </g>
     <g id="line2d_24">
      <g>
       <use xlink:href="#m55fd1c2324" x="64.265312" y="327.477462" style="stroke: #000000; stroke-width: 0.8"/>
      </g>
     </g>
     <g id="text_12">
      <!-- 0.5 -->
      <g transform="translate(38.181562 332.036525) scale(0.12 -0.12)">
       <use xlink:href="#DejaVuSans-30"/>
       <use xlink:href="#DejaVuSans-2e" transform="translate(63.623047 0)"/>
       <use xlink:href="#DejaVuSans-35" transform="translate(95.410156 0)"/>
      </g>
     </g>
    </g>
    <g id="ytick_3">
     <g id="line2d_25">
      <path d="M 64.265312 289.677424 
L 622.265312 289.677424 
" clip-path="url(#p136541de5c)" style="fill: none; stroke: #dee2e6; stroke-opacity: 0.7; stroke-width: 0.5; stroke-linecap: square"/>
     </g>
     <g id="line2d_26">
      <g>
       <use xlink:href="#m55fd1c2324" x="64.265312" y="289.677424" style="stroke: #000000; stroke-width: 0.8"/>
      </g>
     </g>
     <g id="text_13">
      <!-- 1.0 -->
      <g transform="translate(38.181562 294.236487) scale(0.12 -0.12)">
       <use xlink:href="#DejaVuSans-31"/>
       <use xlink:href="#DejaVuSans-2e" transform="translate(63.623047 0)"/>
       <use xlink:href="#DejaVuSans-30" transform="translate(95.410156 0)"/>
      </g>
     </g>
    </g>
    <g id="ytick_4">
     <g id="line2d_27">
      <path d="M 64.265312 251.877386 
L 622.265312 251.877386 
" clip-path="url(#p136541de5c)" style="fill: none; stroke: #dee2e6; stroke-opacity: 0.7; stroke-width: 0.5; stroke-linecap: square"/>
     </g>
     <g id="line2d_28">
      <g>
       <use xlink:href="#m55fd1c2324" x="64.265312" y="251.877386" style="stroke: #000000; stroke-width: 0.8"/>
      </g>
     </g>
     <g id="text_14">
      <!-- 1.5 -->
      <g transform="translate(38.181562 256.436449) scale(0.12 -0.12)">
       <use xlink:href="#DejaVuSans-31"/>
       <use xlink:href="#DejaVuSans-2e" transform="translate(63.623047 0)"/>
       <use xlink:href="#DejaVuSans-35" transform="translate(95.410156 0)"/>
      </g>
     </g>
    </g>
    <g id="ytick_5">
     <g id="line2d_29">
      <path d="M 64.265312 214.077348 
L 622.265312 214.077348 
" clip-path="url(#p136541de5c)" style="fill: none; stroke: #dee2e6; stroke-opacity: 0.7; stroke-width: 0.5; stroke-linecap: square"/>
     </g>
     <g id="line2d_30">
      <g>
       <use xlink:href="#m55fd1c2324" x="64.265312" y="214.077348" style="stroke: #000000; stroke-width: 0.8"/>
      </g>
     </g>
     <g id="text_15">
      <!-- 2.0 -->
      <g transform="translate(38.181562 218.636411) scale(0.12 -0.12)">
       <use xlink:href="#DejaVuSans-32"/>
       <use xlink:href="#DejaVuSans-2e" transform="translate(63.623047 0)"/>
       <use xlink:href="#DejaVuSans-30" transform="translate(95.410156 0)"/>
      </g>
     </g>
    </g>
    <g id="ytick_6">
     <g id="line2d_31">
      <path d="M 64.265312 176.27731 
L 622.265312 176.27731 
" clip-path="url(#p136541de5c)" style="fill: none; stroke: #dee2e6; stroke-opacity: 0.7; stroke-width: 0.5; stroke-linecap: square"/>
     </g>
     <g id="line2d_32">
      <g>
       <use xlink:href="#m55fd1c2324" x="64.265312" y="176.27731" style="stroke: #000000; stroke-width: 0.8"/>
      </g>
     </g>
     <g id="text_16">
      <!-- 2.5 -->
      <g transform="translate(38.181562 180.836373) scale(0.12 -0.12)">
       <use xlink:href="#DejaVuSans-32"/>
       <use xlink:href="#DejaVuSans-2e" transform="translate(63.623047 0)"/>
       <use xlink:href="#DejaVuSans-35" transform="translate(95.410156 0)"/>
      </g>
     </g>
    </g>
    <g id="ytick_7">
     <g id="line2d_33">
      <path d="M 64.265312 138.477272 
L 622.265312 138.477272 
" clip-path="url(#p136541de5c)" style="fill: none; stroke: #dee2e6; stroke-opacity: 0.7; stroke-width: 0.5; stroke-linecap: square"/>
     </g>
     <g id="line2d_34">
      <g>
       <use xlink:href="#m55fd1c2324" x="64.265312" y="138.477272" style="stroke: #000000; stroke-width: 0.8"/>
      </g>
     </g>
     <g id="text_17">
      <!-- 3.0 -->
      <g transform="translate(38.181562 143.036335) scale(0.12 -0.12)">
       <use xlink:href="#DejaVuSans-33"/>
       <use xlink:href="#DejaVuSans-2e" transform="translate(63.623047 0)"/>
       <use xlink:href="#DejaVuSans-30" transform="translate(95.410156 0)"/>
      </g>
     </g>
    </g>
    <g id="ytick_8">
     <g id="line2d_35">
      <path d="M 64.265312 100.677234 
L 622.265312 100.677234 
" clip-path="url(#p136541de5c)" style="fill: none; stroke: #dee2e6; stroke-opacity: 0.7; stroke-width: 0.5; stroke-linecap: square"/>
     </g>
     <g id="line2d_36">
      <g>
       <use xlink:href="#m55fd1c2324" x="64.265312" y="100.677234" style="stroke: #000000; stroke-width: 0.8"/>
      </g>
     </g>
     <g id="text_18">
      <!-- 3.5 -->
      <g transform="translate(38.181562 105.236297) scale(0.12 -0.12)">
       <use xlink:href="#DejaVuSans-33"/>
       <use xlink:href="#DejaVuSans-2e" transform="translate(63.623047 0)"/>
       <use xlink:href="#DejaVuSans-35" transform="translate(95.410156 0)"/>
      </g>
     </g>
    </g>
    <g id="ytick_9">
     <g id="line2d_37">
      <path d="M 64.265312 62.877196 
L 622.265312 62.877196 
" clip-path="url(#p136541de5c)" style="fill: none; stroke: #dee2e6; stroke-opacity: 0.7; stroke-width: 0.5; stroke-linecap: square"/>
     </g>
     <g id="line2d_38">
      <g>
       <use xlink:href="#m55fd1c2324" x="64.265312" y="62.877196" style="stroke: #000000; stroke-width: 0.8"/>
      </g>
     </g>
     <g id="text_19">
      <!-- 4.0 -->
      <g transform="translate(38.181562 67.436259) scale(0.12 -0.12)">
       <use xlink:href="#DejaVuSans-34"/>
       <use xlink:href="#DejaVuSans-2e" transform="translate(63.623047 0)"/>
       <use xlink:href="#DejaVuSans-30" transform="translate(95.410156 0)"/>
      </g>
     </g>
    </g>
    <g id="text_20">
     <!-- y -->
     <g transform="translate(31.477969 217.924688) rotate(-90) scale(0.13 -0.13)">
      <defs>
       <path id="DejaVuSans-79" d="M 2059 -325 
Q 1816 -950 1584 -1140 
Q 1353 -1331 966 -1331 
L 506 -1331 
L 506 -850 
L 844 -850 
Q 1081 -850 1212 -737 
Q 1344 -625 1503 -206 
L 1606 56 
L 191 3500 
L 800 3500 
L 1894 763 
L 2988 3500 
L 3597 3500 
L 2059 -325 
z
" transform="scale(0.015625)"/>
      </defs>
      <use xlink:href="#DejaVuSans-79"/>
     </g>
    </g>
   </g>
   <g id="FillBetweenPolyCollection_1">
    <defs>
     <path id="m2eba11d95d" d="M 216.447131 -71.915312 
L 216.447131 -298.71554 
L 216.95542 -299.320338 
L 217.463709 -299.922708 
L 217.971999 -300.522648 
L 218.480288 -301.120159 
L 218.988577 -301.715242 
L 219.496867 -302.307896 
L 220.005156 -302.89812 
L 220.513445 -303.485916 
L 221.021734 -304.071283 
L 221.530024 -304.654221 
L 222.038313 -305.23473 
L 222.546602 -305.81281 
L 223.054892 -306.388462 
L 223.563181 -306.961684 
L 224.07147 -307.532478 
L 224.57976 -308.100842 
L 225.088049 -308.666778 
L 225.596338 -309.230284 
L 226.104627 -309.791362 
L 226.612917 -310.350011 
L 227.121206 -310.906231 
L 227.629495 -311.460022 
L 228.137785 -312.011384 
L 228.646074 -312.560318 
L 229.154363 -313.106822 
L 229.662653 -313.650898 
L 230.170942 -314.192544 
L 230.679231 -314.731762 
L 231.187521 -315.268551 
L 231.69581 -315.80291 
L 232.204099 -316.334841 
L 232.712388 -316.864343 
L 233.220678 -317.391416 
L 233.728967 -317.916061 
L 234.237256 -318.438276 
L 234.745546 -318.958062 
L 235.253835 -319.47542 
L 235.762124 -319.990348 
L 236.270414 -320.502848 
L 236.778703 -321.012919 
L 237.286992 -321.520561 
L 237.795282 -322.025774 
L 238.303571 -322.528558 
L 238.81186 -323.028913 
L 239.320149 -323.526839 
L 239.828439 -324.022336 
L 240.336728 -324.515405 
L 240.845017 -325.006044 
L 241.353307 -325.494255 
L 241.861596 -325.980036 
L 242.369885 -326.463389 
L 242.878175 -326.944313 
L 243.386464 -327.422808 
L 243.894753 -327.898874 
L 244.403043 -328.372511 
L 244.911332 -328.843719 
L 245.419621 -329.312499 
L 245.92791 -329.778849 
L 246.4362 -330.242771 
L 246.944489 -330.704263 
L 247.452778 -331.163327 
L 247.961068 -331.619962 
L 248.469357 -332.074167 
L 248.977646 -332.525944 
L 249.485936 -332.975292 
L 249.994225 -333.422212 
L 250.502514 -333.866702 
L 251.010803 -334.308763 
L 251.519093 -334.748396 
L 252.027382 -335.185599 
L 252.535671 -335.620374 
L 253.043961 -336.052719 
L 253.55225 -336.482636 
L 254.060539 -336.910124 
L 254.568829 -337.335183 
L 255.077118 -337.757813 
L 255.585407 -338.178014 
L 256.093697 -338.595786 
L 256.601986 -339.01113 
L 257.110275 -339.424044 
L 257.618564 -339.83453 
L 258.126854 -340.242586 
L 258.635143 -340.648214 
L 259.143432 -341.051413 
L 259.651722 -341.452183 
L 260.160011 -341.850524 
L 260.6683 -342.246436 
L 261.17659 -342.639919 
L 261.684879 -343.030973 
L 262.193168 -343.419598 
L 262.701458 -343.805795 
L 263.209747 -344.189562 
L 263.718036 -344.570901 
L 264.226325 -344.949811 
L 264.734615 -345.326291 
L 265.242904 -345.700343 
L 265.751193 -346.071966 
L 266.259483 -346.44116 
L 266.767772 -346.807925 
L 267.276061 -347.172262 
L 267.784351 -347.534169 
L 268.29264 -347.893648 
L 268.800929 -348.250697 
L 269.309218 -348.605318 
L 269.817508 -348.957509 
L 270.325797 -349.307272 
L 270.834086 -349.654606 
L 271.342376 -349.999511 
L 271.850665 -350.341987 
L 272.358954 -350.682034 
L 272.867244 -351.019653 
L 273.375533 -351.354842 
L 273.883822 -351.687602 
L 274.392112 -352.017934 
L 274.900401 -352.345837 
L 275.40869 -352.67131 
L 275.916979 -352.994355 
L 276.425269 -353.314971 
L 276.933558 -353.633158 
L 277.441847 -353.948916 
L 277.950137 -354.262245 
L 278.458426 -354.573145 
L 278.966715 -354.881617 
L 279.475005 -355.187659 
L 279.983294 -355.491273 
L 280.491583 -355.792457 
L 280.999873 -356.091213 
L 281.508162 -356.38754 
L 282.016451 -356.681438 
L 282.52474 -356.972907 
L 283.03303 -357.261947 
L 283.541319 -357.548558 
L 284.049608 -357.83274 
L 284.557898 -358.114494 
L 285.066187 -358.393818 
L 285.574476 -358.670714 
L 286.082766 -358.94518 
L 286.591055 -359.217218 
L 287.099344 -359.486827 
L 287.607634 -359.754007 
L 288.115923 -360.018758 
L 288.624212 -360.28108 
L 289.132501 -360.540973 
L 289.640791 -360.798438 
L 290.14908 -361.053473 
L 290.657369 -361.306079 
L 291.165659 -361.556257 
L 291.673948 -361.804006 
L 292.182237 -362.049325 
L 292.690527 -362.292216 
L 293.198816 -362.532678 
L 293.707105 -362.770711 
L 294.215394 -363.006315 
L 294.723684 -363.23949 
L 295.231973 -363.470237 
L 295.740262 -363.698554 
L 296.248552 -363.924443 
L 296.756841 -364.147902 
L 297.26513 -364.368933 
L 297.77342 -364.587535 
L 298.281709 -364.803707 
L 298.789998 -365.017451 
L 299.298288 -365.228766 
L 299.806577 -365.437652 
L 300.314866 -365.64411 
L 300.823155 -365.848138 
L 301.331445 -366.049737 
L 301.839734 -366.248908 
L 302.348023 -366.445649 
L 302.856313 -366.639962 
L 303.364602 -366.831846 
L 303.872891 -367.021301 
L 304.381181 -367.208327 
L 304.88947 -367.392924 
L 305.397759 -367.575092 
L 305.906049 -367.754831 
L 306.414338 -367.932141 
L 306.922627 -368.107023 
L 307.430916 -368.279475 
L 307.939206 -368.449499 
L 308.447495 -368.617094 
L 308.955784 -368.782259 
L 309.464074 -368.944996 
L 309.972363 -369.105304 
L 310.480652 -369.263183 
L 310.988942 -369.418633 
L 311.497231 -369.571654 
L 312.00552 -369.722247 
L 312.513809 -369.87041 
L 313.022099 -370.016145 
L 313.530388 -370.15945 
L 314.038677 -370.300327 
L 314.546967 -370.438775 
L 315.055256 -370.574794 
L 315.563545 -370.708384 
L 316.071835 -370.839545 
L 316.580124 -370.968277 
L 317.088413 -371.09458 
L 317.596703 -371.218454 
L 318.104992 -371.3399 
L 318.613281 -371.458916 
L 319.12157 -371.575504 
L 319.62986 -371.689663 
L 320.138149 -371.801392 
L 320.646438 -371.910693 
L 321.154728 -372.017565 
L 321.663017 -372.122008 
L 322.171306 -372.224022 
L 322.679596 -372.323608 
L 323.187885 -372.420764 
L 323.696174 -372.515491 
L 324.204464 -372.60779 
L 324.712753 -372.69766 
L 325.221042 -372.7851 
L 325.729331 -372.870112 
L 326.237621 -372.952695 
L 326.74591 -373.032849 
L 327.254199 -373.110574 
L 327.762489 -373.18587 
L 328.270778 -373.258737 
L 328.779067 -373.329176 
L 329.287357 -373.397185 
L 329.795646 -373.462766 
L 330.303935 -373.525917 
L 330.812225 -373.58664 
L 331.320514 -373.644934 
L 331.828803 -373.700799 
L 332.337092 -373.754235 
L 332.845382 -373.805242 
L 333.353671 -373.85382 
L 333.86196 -373.899969 
L 334.37025 -373.94369 
L 334.878539 -373.984981 
L 335.386828 -374.023843 
L 335.895118 -374.060277 
L 336.403407 -374.094282 
L 336.911696 -374.125858 
L 337.419985 -374.155005 
L 337.928275 -374.181723 
L 338.436564 -374.206012 
L 338.944853 -374.227872 
L 339.453143 -374.247303 
L 339.961432 -374.264305 
L 340.469721 -374.278879 
L 340.978011 -374.291023 
L 341.4863 -374.300739 
L 341.994589 -374.308026 
L 342.502879 -374.312884 
L 343.011168 -374.315313 
L 343.519457 -374.315313 
L 344.027746 -374.312884 
L 344.536036 -374.308026 
L 345.044325 -374.300739 
L 345.552614 -374.291023 
L 346.060904 -374.278879 
L 346.569193 -374.264305 
L 347.077482 -374.247303 
L 347.585772 -374.227872 
L 348.094061 -374.206012 
L 348.60235 -374.181723 
L 349.11064 -374.155005 
L 349.618929 -374.125858 
L 350.127218 -374.094282 
L 350.635507 -374.060277 
L 351.143797 -374.023843 
L 351.652086 -373.984981 
L 352.160375 -373.94369 
L 352.668665 -373.899969 
L 353.176954 -373.85382 
L 353.685243 -373.805242 
L 354.193533 -373.754235 
L 354.701822 -373.700799 
L 355.210111 -373.644934 
L 355.7184 -373.58664 
L 356.22669 -373.525917 
L 356.734979 -373.462766 
L 357.243268 -373.397185 
L 357.751558 -373.329176 
L 358.259847 -373.258737 
L 358.768136 -373.18587 
L 359.276426 -373.110574 
L 359.784715 -373.032849 
L 360.293004 -372.952695 
L 360.801294 -372.870112 
L 361.309583 -372.7851 
L 361.817872 -372.69766 
L 362.326161 -372.60779 
L 362.834451 -372.515491 
L 363.34274 -372.420764 
L 363.851029 -372.323608 
L 364.359319 -372.224022 
L 364.867608 -372.122008 
L 365.375897 -372.017565 
L 365.884187 -371.910693 
L 366.392476 -371.801392 
L 366.900765 -371.689663 
L 367.409055 -371.575504 
L 367.917344 -371.458916 
L 368.425633 -371.3399 
L 368.933922 -371.218454 
L 369.442212 -371.09458 
L 369.950501 -370.968277 
L 370.45879 -370.839545 
L 370.96708 -370.708384 
L 371.475369 -370.574794 
L 371.983658 -370.438775 
L 372.491948 -370.300327 
L 373.000237 -370.15945 
L 373.508526 -370.016145 
L 374.016816 -369.87041 
L 374.525105 -369.722247 
L 375.033394 -369.571654 
L 375.541683 -369.418633 
L 376.049973 -369.263183 
L 376.558262 -369.105304 
L 377.066551 -368.944996 
L 377.574841 -368.782259 
L 378.08313 -368.617094 
L 378.591419 -368.449499 
L 379.099709 -368.279475 
L 379.607998 -368.107023 
L 380.116287 -367.932141 
L 380.624576 -367.754831 
L 381.132866 -367.575092 
L 381.641155 -367.392924 
L 382.149444 -367.208327 
L 382.657734 -367.021301 
L 383.166023 -366.831846 
L 383.674312 -366.639962 
L 384.182602 -366.445649 
L 384.690891 -366.248908 
L 385.19918 -366.049737 
L 385.70747 -365.848138 
L 386.215759 -365.64411 
L 386.724048 -365.437652 
L 387.232337 -365.228766 
L 387.740627 -365.017451 
L 388.248916 -364.803707 
L 388.757205 -364.587535 
L 389.265495 -364.368933 
L 389.773784 -364.147902 
L 390.282073 -363.924443 
L 390.790363 -363.698554 
L 391.298652 -363.470237 
L 391.806941 -363.23949 
L 392.315231 -363.006315 
L 392.82352 -362.770711 
L 393.331809 -362.532678 
L 393.840098 -362.292216 
L 394.348388 -362.049325 
L 394.856677 -361.804006 
L 395.364966 -361.556257 
L 395.873256 -361.306079 
L 396.381545 -361.053473 
L 396.889834 -360.798438 
L 397.398124 -360.540973 
L 397.906413 -360.28108 
L 398.414702 -360.018758 
L 398.922991 -359.754007 
L 399.431281 -359.486827 
L 399.93957 -359.217218 
L 400.447859 -358.94518 
L 400.956149 -358.670714 
L 401.464438 -358.393818 
L 401.972727 -358.114494 
L 402.481017 -357.83274 
L 402.989306 -357.548558 
L 403.497595 -357.261947 
L 404.005885 -356.972907 
L 404.514174 -356.681438 
L 405.022463 -356.38754 
L 405.530752 -356.091213 
L 406.039042 -355.792457 
L 406.547331 -355.491273 
L 407.05562 -355.187659 
L 407.56391 -354.881617 
L 408.072199 -354.573145 
L 408.580488 -354.262245 
L 409.088778 -353.948916 
L 409.597067 -353.633158 
L 410.105356 -353.314971 
L 410.613646 -352.994355 
L 411.121935 -352.67131 
L 411.630224 -352.345837 
L 412.138513 -352.017934 
L 412.646803 -351.687602 
L 413.155092 -351.354842 
L 413.663381 -351.019653 
L 414.171671 -350.682034 
L 414.67996 -350.341987 
L 415.188249 -349.999511 
L 415.696539 -349.654606 
L 416.204828 -349.307272 
L 416.713117 -348.957509 
L 417.221407 -348.605318 
L 417.729696 -348.250697 
L 418.237985 -347.893648 
L 418.746274 -347.534169 
L 419.254564 -347.172262 
L 419.762853 -346.807925 
L 420.271142 -346.44116 
L 420.779432 -346.071966 
L 421.287721 -345.700343 
L 421.79601 -345.326291 
L 422.3043 -344.949811 
L 422.812589 -344.570901 
L 423.320878 -344.189562 
L 423.829167 -343.805795 
L 424.337457 -343.419598 
L 424.845746 -343.030973 
L 425.354035 -342.639919 
L 425.862325 -342.246436 
L 426.370614 -341.850524 
L 426.878903 -341.452183 
L 427.387193 -341.051413 
L 427.895482 -340.648214 
L 428.403771 -340.242586 
L 428.912061 -339.83453 
L 429.42035 -339.424044 
L 429.928639 -339.01113 
L 430.436928 -338.595786 
L 430.945218 -338.178014 
L 431.453507 -337.757813 
L 431.961796 -337.335183 
L 432.470086 -336.910124 
L 432.978375 -336.482636 
L 433.486664 -336.052719 
L 433.994954 -335.620374 
L 434.503243 -335.185599 
L 435.011532 -334.748396 
L 435.519822 -334.308763 
L 436.028111 -333.866702 
L 436.5364 -333.422212 
L 437.044689 -332.975292 
L 437.552979 -332.525944 
L 438.061268 -332.074167 
L 438.569557 -331.619962 
L 439.077847 -331.163327 
L 439.586136 -330.704263 
L 440.094425 -330.242771 
L 440.602715 -329.778849 
L 441.111004 -329.312499 
L 441.619293 -328.843719 
L 442.127582 -328.372511 
L 442.635872 -327.898874 
L 443.144161 -327.422808 
L 443.65245 -326.944313 
L 444.16074 -326.463389 
L 444.669029 -325.980036 
L 445.177318 -325.494255 
L 445.685608 -325.006044 
L 446.193897 -324.515405 
L 446.702186 -324.022336 
L 447.210476 -323.526839 
L 447.718765 -323.028913 
L 448.227054 -322.528558 
L 448.735343 -322.025774 
L 449.243633 -321.520561 
L 449.751922 -321.012919 
L 450.260211 -320.502848 
L 450.768501 -319.990348 
L 451.27679 -319.47542 
L 451.785079 -318.958062 
L 452.293369 -318.438276 
L 452.801658 -317.916061 
L 453.309947 -317.391416 
L 453.818237 -316.864343 
L 454.326526 -316.334841 
L 454.834815 -315.80291 
L 455.343104 -315.268551 
L 455.851394 -314.731762 
L 456.359683 -314.192544 
L 456.867972 -313.650898 
L 457.376262 -313.106822 
L 457.884551 -312.560318 
L 458.39284 -312.011384 
L 458.90113 -311.460022 
L 459.409419 -310.906231 
L 459.917708 -310.350011 
L 460.425998 -309.791362 
L 460.934287 -309.230284 
L 461.442576 -308.666778 
L 461.950865 -308.100842 
L 462.459155 -307.532478 
L 462.967444 -306.961684 
L 463.475733 -306.388462 
L 463.984023 -305.81281 
L 464.492312 -305.23473 
L 465.000601 -304.654221 
L 465.508891 -304.071283 
L 466.01718 -303.485916 
L 466.525469 -302.89812 
L 467.033758 -302.307896 
L 467.542048 -301.715242 
L 468.050337 -301.120159 
L 468.558626 -300.522648 
L 469.066916 -299.922708 
L 469.575205 -299.320338 
L 470.083494 -298.71554 
L 470.083494 -71.915312 
L 470.083494 -71.915312 
L 469.575205 -71.915312 
L 469.066916 -71.915312 
L 468.558626 -71.915312 
L 468.050337 -71.915312 
L 467.542048 -71.915312 
L 467.033758 -71.915312 
L 466.525469 -71.915312 
L 466.01718 -71.915312 
L 465.508891 -71.915312 
L 465.000601 -71.915312 
L 464.492312 -71.915312 
L 463.984023 -71.915312 
L 463.475733 -71.915312 
L 462.967444 -71.915312 
L 462.459155 -71.915312 
L 461.950865 -71.915312 
L 461.442576 -71.915312 
L 460.934287 -71.915312 
L 460.425998 -71.915312 
L 459.917708 -71.915312 
L 459.409419 -71.915312 
L 458.90113 -71.915312 
L 458.39284 -71.915312 
L 457.884551 -71.915312 
L 457.376262 -71.915312 
L 456.867972 -71.915312 
L 456.359683 -71.915312 
L 455.851394 -71.915312 
L 455.343104 -71.915312 
L 454.834815 -71.915312 
L 454.326526 -71.915312 
L 453.818237 -71.915312 
L 453.309947 -71.915312 
L 452.801658 -71.915312 
L 452.293369 -71.915312 
L 451.785079 -71.915312 
L 451.27679 -71.915312 
L 450.768501 -71.915312 
L 450.260211 -71.915312 
L 449.751922 -71.915312 
L 449.243633 -71.915312 
L 448.735343 -71.915312 
L 448.227054 -71.915312 
L 447.718765 -71.915312 
L 447.210476 -71.915312 
L 446.702186 -71.915312 
L 446.193897 -71.915312 
L 445.685608 -71.915312 
L 445.177318 -71.915312 
L 444.669029 -71.915312 
L 444.16074 -71.915312 
L 443.65245 -71.915312 
L 443.144161 -71.915312 
L 442.635872 -71.915312 
L 442.127582 -71.915312 
L 441.619293 -71.915312 
L 441.111004 -71.915312 
L 440.602715 -71.915312 
L 440.094425 -71.915312 
L 439.586136 -71.915312 
L 439.077847 -71.915312 
L 438.569557 -71.915312 
L 438.061268 -71.915312 
L 437.552979 -71.915312 
L 437.044689 -71.915312 
L 436.5364 -71.915312 
L 436.028111 -71.915312 
L 435.519822 -71.915312 
L 435.011532 -71.915312 
L 434.503243 -71.915312 
L 433.994954 -71.915312 
L 433.486664 -71.915312 
L 432.978375 -71.915312 
L 432.470086 -71.915312 
L 431.961796 -71.915312 
L 431.453507 -71.915312 
L 430.945218 -71.915312 
L 430.436928 -71.915312 
L 429.928639 -71.915312 
L 429.42035 -71.915312 
L 428.912061 -71.915312 
L 428.403771 -71.915312 
L 427.895482 -71.915312 
L 427.387193 -71.915312 
L 426.878903 -71.915312 
L 426.370614 -71.915312 
L 425.862325 -71.915312 
L 425.354035 -71.915312 
L 424.845746 -71.915312 
L 424.337457 -71.915312 
L 423.829167 -71.915312 
L 423.320878 -71.915312 
L 422.812589 -71.915312 
L 422.3043 -71.915312 
L 421.79601 -71.915312 
L 421.287721 -71.915312 
L 420.779432 -71.915312 
L 420.271142 -71.915312 
L 419.762853 -71.915312 
L 419.254564 -71.915312 
L 418.746274 -71.915312 
L 418.237985 -71.915312 
L 417.729696 -71.915312 
L 417.221407 -71.915312 
L 416.713117 -71.915312 
L 416.204828 -71.915312 
L 415.696539 -71.915312 
L 415.188249 -71.915312 
L 414.67996 -71.915312 
L 414.171671 -71.915312 
L 413.663381 -71.915312 
L 413.155092 -71.915312 
L 412.646803 -71.915312 
L 412.138513 -71.915312 
L 411.630224 -71.915312 
L 411.121935 -71.915312 
L 410.613646 -71.915312 
L 410.105356 -71.915312 
L 409.597067 -71.915312 
L 409.088778 -71.915312 
L 408.580488 -71.915312 
L 408.072199 -71.915312 
L 407.56391 -71.915312 
L 407.05562 -71.915312 
L 406.547331 -71.915312 
L 406.039042 -71.915312 
L 405.530752 -71.915312 
L 405.022463 -71.915312 
L 404.514174 -71.915312 
L 404.005885 -71.915312 
L 403.497595 -71.915312 
L 402.989306 -71.915312 
L 402.481017 -71.915312 
L 401.972727 -71.915312 
L 401.464438 -71.915312 
L 400.956149 -71.915312 
L 400.447859 -71.915312 
L 399.93957 -71.915312 
L 399.431281 -71.915312 
L 398.922991 -71.915312 
L 398.414702 -71.915312 
L 397.906413 -71.915312 
L 397.398124 -71.915312 
L 396.889834 -71.915312 
L 396.381545 -71.915312 
L 395.873256 -71.915312 
L 395.364966 -71.915312 
L 394.856677 -71.915312 
L 394.348388 -71.915312 
L 393.840098 -71.915312 
L 393.331809 -71.915312 
L 392.82352 -71.915312 
L 392.315231 -71.915312 
L 391.806941 -71.915312 
L 391.298652 -71.915312 
L 390.790363 -71.915312 
L 390.282073 -71.915312 
L 389.773784 -71.915312 
L 389.265495 -71.915312 
L 388.757205 -71.915312 
L 388.248916 -71.915312 
L 387.740627 -71.915312 
L 387.232337 -71.915312 
L 386.724048 -71.915312 
L 386.215759 -71.915312 
L 385.70747 -71.915312 
L 385.19918 -71.915312 
L 384.690891 -71.915312 
L 384.182602 -71.915312 
L 383.674312 -71.915312 
L 383.166023 -71.915312 
L 382.657734 -71.915312 
L 382.149444 -71.915312 
L 381.641155 -71.915312 
L 381.132866 -71.915312 
L 380.624576 -71.915312 
L 380.116287 -71.915312 
L 379.607998 -71.915312 
L 379.099709 -71.915312 
L 378.591419 -71.915312 
L 378.08313 -71.915312 
L 377.574841 -71.915312 
L 377.066551 -71.915312 
L 376.558262 -71.915312 
L 376.049973 -71.915312 
L 375.541683 -71.915312 
L 375.033394 -71.915312 
L 374.525105 -71.915312 
L 374.016816 -71.915312 
L 373.508526 -71.915312 
L 373.000237 -71.915312 
L 372.491948 -71.915312 
L 371.983658 -71.915312 
L 371.475369 -71.915312 
L 370.96708 -71.915312 
L 370.45879 -71.915312 
L 369.950501 -71.915312 
L 369.442212 -71.915312 
L 368.933922 -71.915312 
L 368.425633 -71.915312 
L 367.917344 -71.915312 
L 367.409055 -71.915312 
L 366.900765 -71.915312 
L 366.392476 -71.915312 
L 365.884187 -71.915312 
L 365.375897 -71.915312 
L 364.867608 -71.915312 
L 364.359319 -71.915312 
L 363.851029 -71.915312 
L 363.34274 -71.915312 
L 362.834451 -71.915312 
L 362.326161 -71.915312 
L 361.817872 -71.915312 
L 361.309583 -71.915312 
L 360.801294 -71.915312 
L 360.293004 -71.915312 
L 359.784715 -71.915312 
L 359.276426 -71.915312 
L 358.768136 -71.915312 
L 358.259847 -71.915312 
L 357.751558 -71.915312 
L 357.243268 -71.915312 
L 356.734979 -71.915312 
L 356.22669 -71.915312 
L 355.7184 -71.915312 
L 355.210111 -71.915312 
L 354.701822 -71.915312 
L 354.193533 -71.915312 
L 353.685243 -71.915312 
L 353.176954 -71.915312 
L 352.668665 -71.915312 
L 352.160375 -71.915312 
L 351.652086 -71.915312 
L 351.143797 -71.915312 
L 350.635507 -71.915312 
L 350.127218 -71.915312 
L 349.618929 -71.915312 
L 349.11064 -71.915312 
L 348.60235 -71.915312 
L 348.094061 -71.915312 
L 347.585772 -71.915312 
L 347.077482 -71.915312 
L 346.569193 -71.915312 
L 346.060904 -71.915312 
L 345.552614 -71.915312 
L 345.044325 -71.915312 
L 344.536036 -71.915312 
L 344.027746 -71.915312 
L 343.519457 -71.915312 
L 343.011168 -71.915312 
L 342.502879 -71.915312 
L 341.994589 -71.915312 
L 341.4863 -71.915312 
L 340.978011 -71.915312 
L 340.469721 -71.915312 
L 339.961432 -71.915312 
L 339.453143 -71.915312 
L 338.944853 -71.915312 
L 338.436564 -71.915312 
L 337.928275 -71.915312 
L 337.419985 -71.915312 
L 336.911696 -71.915312 
L 336.403407 -71.915312 
L 335.895118 -71.915312 
L 335.386828 -71.915312 
L 334.878539 -71.915312 
L 334.37025 -71.915312 
L 333.86196 -71.915312 
L 333.353671 -71.915312 
L 332.845382 -71.915312 
L 332.337092 -71.915312 
L 331.828803 -71.915312 
L 331.320514 -71.915312 
L 330.812225 -71.915312 
L 330.303935 -71.915312 
L 329.795646 -71.915312 
L 329.287357 -71.915312 
L 328.779067 -71.915312 
L 328.270778 -71.915312 
L 327.762489 -71.915312 
L 327.254199 -71.915312 
L 326.74591 -71.915312 
L 326.237621 -71.915312 
L 325.729331 -71.915312 
L 325.221042 -71.915312 
L 324.712753 -71.915312 
L 324.204464 -71.915312 
L 323.696174 -71.915312 
L 323.187885 -71.915312 
L 322.679596 -71.915312 
L 322.171306 -71.915312 
L 321.663017 -71.915312 
L 321.154728 -71.915312 
L 320.646438 -71.915312 
L 320.138149 -71.915312 
L 319.62986 -71.915312 
L 319.12157 -71.915312 
L 318.613281 -71.915312 
L 318.104992 -71.915312 
L 317.596703 -71.915312 
L 317.088413 -71.915312 
L 316.580124 -71.915312 
L 316.071835 -71.915312 
L 315.563545 -71.915312 
L 315.055256 -71.915312 
L 314.546967 -71.915312 
L 314.038677 -71.915312 
L 313.530388 -71.915312 
L 313.022099 -71.915312 
L 312.513809 -71.915312 
L 312.00552 -71.915312 
L 311.497231 -71.915312 
L 310.988942 -71.915312 
L 310.480652 -71.915312 
L 309.972363 -71.915312 
L 309.464074 -71.915312 
L 308.955784 -71.915312 
L 308.447495 -71.915312 
L 307.939206 -71.915312 
L 307.430916 -71.915312 
L 306.922627 -71.915312 
L 306.414338 -71.915312 
L 305.906049 -71.915312 
L 305.397759 -71.915312 
L 304.88947 -71.915312 
L 304.381181 -71.915312 
L 303.872891 -71.915312 
L 303.364602 -71.915312 
L 302.856313 -71.915312 
L 302.348023 -71.915312 
L 301.839734 -71.915312 
L 301.331445 -71.915312 
L 300.823155 -71.915312 
L 300.314866 -71.915312 
L 299.806577 -71.915312 
L 299.298288 -71.915312 
L 298.789998 -71.915312 
L 298.281709 -71.915312 
L 297.77342 -71.915312 
L 297.26513 -71.915312 
L 296.756841 -71.915312 
L 296.248552 -71.915312 
L 295.740262 -71.915312 
L 295.231973 -71.915312 
L 294.723684 -71.915312 
L 294.215394 -71.915312 
L 293.707105 -71.915312 
L 293.198816 -71.915312 
L 292.690527 -71.915312 
L 292.182237 -71.915312 
L 291.673948 -71.915312 
L 291.165659 -71.915312 
L 290.657369 -71.915312 
L 290.14908 -71.915312 
L 289.640791 -71.915312 
L 289.132501 -71.915312 
L 288.624212 -71.915312 
L 288.115923 -71.915312 
L 287.607634 -71.915312 
L 287.099344 -71.915312 
L 286.591055 -71.915312 
L 286.082766 -71.915312 
L 285.574476 -71.915312 
L 285.066187 -71.915312 
L 284.557898 -71.915312 
L 284.049608 -71.915312 
L 283.541319 -71.915312 
L 283.03303 -71.915312 
L 282.52474 -71.915312 
L 282.016451 -71.915312 
L 281.508162 -71.915312 
L 280.999873 -71.915312 
L 280.491583 -71.915312 
L 279.983294 -71.915312 
L 279.475005 -71.915312 
L 278.966715 -71.915312 
L 278.458426 -71.915312 
L 277.950137 -71.915312 
L 277.441847 -71.915312 
L 276.933558 -71.915312 
L 276.425269 -71.915312 
L 275.916979 -71.915312 
L 275.40869 -71.915312 
L 274.900401 -71.915312 
L 274.392112 -71.915312 
L 273.883822 -71.915312 
L 273.375533 -71.915312 
L 272.867244 -71.915312 
L 272.358954 -71.915312 
L 271.850665 -71.915312 
L 271.342376 -71.915312 
L 270.834086 -71.915312 
L 270.325797 -71.915312 
L 269.817508 -71.915312 
L 269.309218 -71.915312 
L 268.800929 -71.915312 
L 268.29264 -71.915312 
L 267.784351 -71.915312 
L 267.276061 -71.915312 
L 266.767772 -71.915312 
L 266.259483 -71.915312 
L 265.751193 -71.915312 
L 265.242904 -71.915312 
L 264.734615 -71.915312 
L 264.226325 -71.915312 
L 263.718036 -71.915312 
L 263.209747 -71.915312 
L 262.701458 -71.915312 
L 262.193168 -71.915312 
L 261.684879 -71.915312 
L 261.17659 -71.915312 
L 260.6683 -71.915312 
L 260.160011 -71.915312 
L 259.651722 -71.915312 
L 259.143432 -71.915312 
L 258.635143 -71.915312 
L 258.126854 -71.915312 
L 257.618564 -71.915312 
L 257.110275 -71.915312 
L 256.601986 -71.915312 
L 256.093697 -71.915312 
L 255.585407 -71.915312 
L 255.077118 -71.915312 
L 254.568829 -71.915312 
L 254.060539 -71.915312 
L 253.55225 -71.915312 
L 253.043961 -71.915312 
L 252.535671 -71.915312 
L 252.027382 -71.915312 
L 251.519093 -71.915312 
L 251.010803 -71.915312 
L 250.502514 -71.915312 
L 249.994225 -71.915312 
L 249.485936 -71.915312 
L 248.977646 -71.915312 
L 248.469357 -71.915312 
L 247.961068 -71.915312 
L 247.452778 -71.915312 
L 246.944489 -71.915312 
L 246.4362 -71.915312 
L 245.92791 -71.915312 
L 245.419621 -71.915312 
L 244.911332 -71.915312 
L 244.403043 -71.915312 
L 243.894753 -71.915312 
L 243.386464 -71.915312 
L 242.878175 -71.915312 
L 242.369885 -71.915312 
L 241.861596 -71.915312 
L 241.353307 -71.915312 
L 240.845017 -71.915312 
L 240.336728 -71.915312 
L 239.828439 -71.915312 
L 239.320149 -71.915312 
L 238.81186 -71.915312 
L 238.303571 -71.915312 
L 237.795282 -71.915312 
L 237.286992 -71.915312 
L 236.778703 -71.915312 
L 236.270414 -71.915312 
L 235.762124 -71.915312 
L 235.253835 -71.915312 
L 234.745546 -71.915312 
L 234.237256 -71.915312 
L 233.728967 -71.915312 
L 233.220678 -71.915312 
L 232.712388 -71.915312 
L 232.204099 -71.915312 
L 231.69581 -71.915312 
L 231.187521 -71.915312 
L 230.679231 -71.915312 
L 230.170942 -71.915312 
L 229.662653 -71.915312 
L 229.154363 -71.915312 
L 228.646074 -71.915312 
L 228.137785 -71.915312 
L 227.629495 -71.915312 
L 227.121206 -71.915312 
L 226.612917 -71.915312 
L 226.104627 -71.915312 
L 225.596338 -71.915312 
L 225.088049 -71.915312 
L 224.57976 -71.915312 
L 224.07147 -71.915312 
L 223.563181 -71.915312 
L 223.054892 -71.915312 
L 222.546602 -71.915312 
L 222.038313 -71.915312 
L 221.530024 -71.915312 
L 221.021734 -71.915312 
L 220.513445 -71.915312 
L 220.005156 -71.915312 
L 219.496867 -71.915312 
L 218.988577 -71.915312 
L 218.480288 -71.915312 
L 217.971999 -71.915312 
L 217.463709 -71.915312 
L 216.95542 -71.915312 
L 216.447131 -71.915312 
z
" style="stroke: #a5d8ff; stroke-opacity: 0.4"/>
    </defs>
    <g clip-path="url(#p136541de5c)">
     <use xlink:href="#m2eba11d95d" x="0" y="437.192813" style="fill: #a5d8ff; fill-opacity: 0.4; stroke: #a5d8ff; stroke-opacity: 0.4"/>
    </g>
   </g>
   <g id="patch_3">
    <path d="M 64.265312 380.3975 
L 64.265312 47.7575 
" style="fill: none; stroke: #868e96; stroke-width: 0.8; stroke-linejoin: miter; stroke-linecap: square"/>
   </g>
   <g id="patch_4">
    <path d="M 64.265312 380.3975 
L 622.265312 380.3975 
" style="fill: none; stroke: #868e96; stroke-width: 0.8; stroke-linejoin: miter; stroke-linecap: square"/>
   </g>
   <g id="line2d_39">
    <path d="M 89.628949 365.2775 
L 97.761578 346.195996 
L 105.894207 327.736293 
L 113.010257 312.094123 
L 120.126307 296.928019 
L 127.242357 282.237981 
L 134.358408 268.02401 
L 141.474458 254.286104 
L 148.590508 241.024265 
L 155.706559 228.238491 
L 162.822609 215.928784 
L 169.938659 204.095142 
L 177.054709 192.737567 
L 184.17076 181.856057 
L 190.270231 172.907959 
L 196.369703 164.309623 
L 202.469175 156.061051 
L 208.568646 148.162241 
L 214.668118 140.613194 
L 220.76759 133.413909 
L 226.867061 126.564388 
L 232.966533 120.064629 
L 239.066005 113.914633 
L 245.165476 108.1144 
L 251.264948 102.66393 
L 257.36442 97.563222 
L 262.447313 93.579812 
L 267.530206 89.839293 
L 272.613099 86.341665 
L 277.695992 83.086928 
L 282.778885 80.075082 
L 287.861778 77.306126 
L 292.944671 74.780062 
L 298.027564 72.496888 
L 303.110457 70.456605 
L 308.19335 68.659213 
L 313.276243 67.104711 
L 318.359137 65.793101 
L 323.44203 64.724381 
L 328.524923 63.898552 
L 333.607816 63.315614 
L 338.690709 62.975567 
L 343.773602 62.878411 
L 348.856495 63.024145 
L 353.939388 63.412771 
L 359.022281 64.044287 
L 364.105174 64.918694 
L 369.188067 66.035992 
L 374.27096 67.39618 
L 379.353853 68.99926 
L 384.436746 70.84523 
L 389.519639 72.934091 
L 394.602532 75.265843 
L 399.685425 77.840486 
L 404.768319 80.65802 
L 409.851212 83.718444 
L 414.934105 87.02176 
L 420.016998 90.567966 
L 425.099891 94.357063 
L 430.182784 98.389051 
L 435.265677 102.66393 
L 441.365149 108.1144 
L 447.46462 113.914633 
L 453.564092 120.064629 
L 459.663564 126.564388 
L 465.763035 133.413909 
L 471.862507 140.613194 
L 477.961979 148.162241 
L 484.06145 156.061051 
L 490.160922 164.309623 
L 496.260394 172.907959 
L 502.359865 181.856057 
L 508.459337 191.153918 
L 515.575387 202.443484 
L 522.691437 214.209116 
L 529.807488 226.450815 
L 536.923538 239.168579 
L 544.039588 252.362409 
L 551.155639 266.032305 
L 558.271689 280.178267 
L 565.387739 294.800295 
L 572.503789 309.89839 
L 579.61984 325.47255 
L 586.73589 341.522776 
L 594.868519 360.44883 
L 596.901676 365.2775 
L 596.901676 365.2775 
" clip-path="url(#p136541de5c)" style="fill: none; stroke: #339af0; stroke-width: 2.5; stroke-linecap: square"/>
   </g>
   <g id="text_21">
    <!-- Definite Integral: Area Under a Curve -->
    <g transform="translate(174.629063 33.7575) scale(0.16 -0.16)">
     <defs>
      <path id="DejaVuSans-Bold-44" d="M 1791 3756 
L 1791 909 
L 2222 909 
Q 2959 909 3348 1275 
Q 3738 1641 3738 2338 
Q 3738 3031 3350 3393 
Q 2963 3756 2222 3756 
L 1791 3756 
z
M 588 4666 
L 1856 4666 
Q 2919 4666 3439 4514 
Q 3959 4363 4331 4000 
Q 4659 3684 4818 3271 
Q 4978 2859 4978 2338 
Q 4978 1809 4818 1395 
Q 4659 981 4331 666 
Q 3956 303 3431 151 
Q 2906 0 1856 0 
L 588 0 
L 588 4666 
z
" transform="scale(0.015625)"/>
      <path id="DejaVuSans-Bold-65" d="M 4031 1759 
L 4031 1441 
L 1416 1441 
Q 1456 1047 1700 850 
Q 1944 653 2381 653 
Q 2734 653 3104 758 
Q 3475 863 3866 1075 
L 3866 213 
Q 3469 63 3072 -14 
Q 2675 -91 2278 -91 
Q 1328 -91 801 392 
Q 275 875 275 1747 
Q 275 2603 792 3093 
Q 1309 3584 2216 3584 
Q 3041 3584 3536 3087 
Q 4031 2591 4031 1759 
z
M 2881 2131 
Q 2881 2450 2695 2645 
Q 2509 2841 2209 2841 
Q 1884 2841 1681 2658 
Q 1478 2475 1428 2131 
L 2881 2131 
z
" transform="scale(0.015625)"/>
      <path id="DejaVuSans-Bold-66" d="M 2841 4863 
L 2841 4128 
L 2222 4128 
Q 1984 4128 1890 4042 
Q 1797 3956 1797 3744 
L 1797 3500 
L 2753 3500 
L 2753 2700 
L 1797 2700 
L 1797 0 
L 678 0 
L 678 2700 
L 122 2700 
L 122 3500 
L 678 3500 
L 678 3744 
Q 678 4316 997 4589 
Q 1316 4863 1984 4863 
L 2841 4863 
z
" transform="scale(0.015625)"/>
      <path id="DejaVuSans-Bold-69" d="M 538 3500 
L 1656 3500 
L 1656 0 
L 538 0 
L 538 3500 
z
M 538 4863 
L 1656 4863 
L 1656 3950 
L 538 3950 
L 538 4863 
z
" transform="scale(0.015625)"/>
      <path id="DejaVuSans-Bold-6e" d="M 4056 2131 
L 4056 0 
L 2931 0 
L 2931 347 
L 2931 1631 
Q 2931 2084 2911 2256 
Q 2891 2428 2841 2509 
Q 2775 2619 2662 2680 
Q 2550 2741 2406 2741 
Q 2056 2741 1856 2470 
Q 1656 2200 1656 1722 
L 1656 0 
L 538 0 
L 538 3500 
L 1656 3500 
L 1656 2988 
Q 1909 3294 2193 3439 
Q 2478 3584 2822 3584 
Q 3428 3584 3742 3212 
Q 4056 2841 4056 2131 
z
" transform="scale(0.015625)"/>
      <path id="DejaVuSans-Bold-74" d="M 1759 4494 
L 1759 3500 
L 2913 3500 
L 2913 2700 
L 1759 2700 
L 1759 1216 
Q 1759 972 1856 886 
Q 1953 800 2241 800 
L 2816 800 
L 2816 0 
L 1856 0 
Q 1194 0 917 276 
Q 641 553 641 1216 
L 641 2700 
L 84 2700 
L 84 3500 
L 641 3500 
L 641 4494 
L 1759 4494 
z
" transform="scale(0.015625)"/>
      <path id="DejaVuSans-Bold-20" transform="scale(0.015625)"/>
      <path id="DejaVuSans-Bold-49" d="M 588 4666 
L 1791 4666 
L 1791 0 
L 588 0 
L 588 4666 
z
" transform="scale(0.015625)"/>
      <path id="DejaVuSans-Bold-67" d="M 2919 594 
Q 2688 288 2409 144 
Q 2131 0 1766 0 
Q 1125 0 706 504 
Q 288 1009 288 1791 
Q 288 2575 706 3076 
Q 1125 3578 1766 3578 
Q 2131 3578 2409 3434 
Q 2688 3291 2919 2981 
L 2919 3500 
L 4044 3500 
L 4044 353 
Q 4044 -491 3511 -936 
Q 2978 -1381 1966 -1381 
Q 1638 -1381 1331 -1331 
Q 1025 -1281 716 -1178 
L 716 -306 
Q 1009 -475 1290 -558 
Q 1572 -641 1856 -641 
Q 2406 -641 2662 -400 
Q 2919 -159 2919 353 
L 2919 594 
z
M 2181 2772 
Q 1834 2772 1640 2515 
Q 1447 2259 1447 1791 
Q 1447 1309 1634 1061 
Q 1822 813 2181 813 
Q 2531 813 2725 1069 
Q 2919 1325 2919 1791 
Q 2919 2259 2725 2515 
Q 2531 2772 2181 2772 
z
" transform="scale(0.015625)"/>
      <path id="DejaVuSans-Bold-72" d="M 3138 2547 
Q 2991 2616 2845 2648 
Q 2700 2681 2553 2681 
Q 2122 2681 1889 2404 
Q 1656 2128 1656 1613 
L 1656 0 
L 538 0 
L 538 3500 
L 1656 3500 
L 1656 2925 
Q 1872 3269 2151 3426 
Q 2431 3584 2822 3584 
Q 2878 3584 2943 3579 
Q 3009 3575 3134 3559 
L 3138 2547 
z
" transform="scale(0.015625)"/>
      <path id="DejaVuSans-Bold-61" d="M 2106 1575 
Q 1756 1575 1579 1456 
Q 1403 1338 1403 1106 
Q 1403 894 1545 773 
Q 1688 653 1941 653 
Q 2256 653 2472 879 
Q 2688 1106 2688 1447 
L 2688 1575 
L 2106 1575 
z
M 3816 1997 
L 3816 0 
L 2688 0 
L 2688 519 
Q 2463 200 2181 54 
Q 1900 -91 1497 -91 
Q 953 -91 614 226 
Q 275 544 275 1050 
Q 275 1666 698 1953 
Q 1122 2241 2028 2241 
L 2688 2241 
L 2688 2328 
Q 2688 2594 2478 2717 
Q 2269 2841 1825 2841 
Q 1466 2841 1156 2769 
Q 847 2697 581 2553 
L 581 3406 
Q 941 3494 1303 3539 
Q 1666 3584 2028 3584 
Q 2975 3584 3395 3211 
Q 3816 2838 3816 1997 
z
" transform="scale(0.015625)"/>
      <path id="DejaVuSans-Bold-6c" d="M 538 4863 
L 1656 4863 
L 1656 0 
L 538 0 
L 538 4863 
z
" transform="scale(0.015625)"/>
      <path id="DejaVuSans-Bold-3a" d="M 716 3500 
L 1844 3500 
L 1844 2291 
L 716 2291 
L 716 3500 
z
M 716 1209 
L 1844 1209 
L 1844 0 
L 716 0 
L 716 1209 
z
" transform="scale(0.015625)"/>
      <path id="DejaVuSans-Bold-41" d="M 3419 850 
L 1538 850 
L 1241 0 
L 31 0 
L 1759 4666 
L 3194 4666 
L 4922 0 
L 3713 0 
L 3419 850 
z
M 1838 1716 
L 3116 1716 
L 2478 3572 
L 1838 1716 
z
" transform="scale(0.015625)"/>
      <path id="DejaVuSans-Bold-55" d="M 588 4666 
L 1791 4666 
L 1791 1869 
Q 1791 1291 1980 1042 
Q 2169 794 2597 794 
Q 3028 794 3217 1042 
Q 3406 1291 3406 1869 
L 3406 4666 
L 4609 4666 
L 4609 1869 
Q 4609 878 4112 393 
Q 3616 -91 2597 -91 
Q 1581 -91 1084 393 
Q 588 878 588 1869 
L 588 4666 
z
" transform="scale(0.015625)"/>
      <path id="DejaVuSans-Bold-64" d="M 2919 2988 
L 2919 4863 
L 4044 4863 
L 4044 0 
L 2919 0 
L 2919 506 
Q 2688 197 2409 53 
Q 2131 -91 1766 -91 
Q 1119 -91 703 423 
Q 288 938 288 1747 
Q 288 2556 703 3070 
Q 1119 3584 1766 3584 
Q 2128 3584 2408 3439 
Q 2688 3294 2919 2988 
z
M 2181 722 
Q 2541 722 2730 984 
Q 2919 1247 2919 1747 
Q 2919 2247 2730 2509 
Q 2541 2772 2181 2772 
Q 1825 2772 1636 2509 
Q 1447 2247 1447 1747 
Q 1447 1247 1636 984 
Q 1825 722 2181 722 
z
" transform="scale(0.015625)"/>
      <path id="DejaVuSans-Bold-43" d="M 4288 256 
Q 3956 84 3597 -3 
Q 3238 -91 2847 -91 
Q 1681 -91 1000 561 
Q 319 1213 319 2328 
Q 319 3447 1000 4098 
Q 1681 4750 2847 4750 
Q 3238 4750 3597 4662 
Q 3956 4575 4288 4403 
L 4288 3438 
Q 3953 3666 3628 3772 
Q 3303 3878 2944 3878 
Q 2300 3878 1931 3465 
Q 1563 3053 1563 2328 
Q 1563 1606 1931 1193 
Q 2300 781 2944 781 
Q 3303 781 3628 887 
Q 3953 994 4288 1222 
L 4288 256 
z
" transform="scale(0.015625)"/>
      <path id="DejaVuSans-Bold-75" d="M 500 1363 
L 500 3500 
L 1625 3500 
L 1625 3150 
Q 1625 2866 1622 2436 
Q 1619 2006 1619 1863 
Q 1619 1441 1641 1255 
Q 1663 1069 1716 984 
Q 1784 875 1895 815 
Q 2006 756 2150 756 
Q 2500 756 2700 1025 
Q 2900 1294 2900 1772 
L 2900 3500 
L 4019 3500 
L 4019 0 
L 2900 0 
L 2900 506 
Q 2647 200 2364 54 
Q 2081 -91 1741 -91 
Q 1134 -91 817 281 
Q 500 653 500 1363 
z
" transform="scale(0.015625)"/>
      <path id="DejaVuSans-Bold-76" d="M 97 3500 
L 1216 3500 
L 2088 1081 
L 2956 3500 
L 4078 3500 
L 2700 0 
L 1472 0 
L 97 3500 
z
" transform="scale(0.015625)"/>
     </defs>
     <use xlink:href="#DejaVuSans-Bold-44"/>
     <use xlink:href="#DejaVuSans-Bold-65" transform="translate(83.007812 0)"/>
     <use xlink:href="#DejaVuSans-Bold-66" transform="translate(150.830078 0)"/>
     <use xlink:href="#DejaVuSans-Bold-69" transform="translate(194.335938 0)"/>
     <use xlink:href="#DejaVuSans-Bold-6e" transform="translate(228.613281 0)"/>
     <use xlink:href="#DejaVuSans-Bold-69" transform="translate(299.804688 0)"/>
     <use xlink:href="#DejaVuSans-Bold-74" transform="translate(334.082031 0)"/>
     <use xlink:href="#DejaVuSans-Bold-65" transform="translate(381.884766 0)"/>
     <use xlink:href="#DejaVuSans-Bold-20" transform="translate(449.707031 0)"/>
     <use xlink:href="#DejaVuSans-Bold-49" transform="translate(484.521484 0)"/>
     <use xlink:href="#DejaVuSans-Bold-6e" transform="translate(521.728516 0)"/>
     <use xlink:href="#DejaVuSans-Bold-74" transform="translate(592.919922 0)"/>
     <use xlink:href="#DejaVuSans-Bold-65" transform="translate(640.722656 0)"/>
     <use xlink:href="#DejaVuSans-Bold-67" transform="translate(708.544922 0)"/>
     <use xlink:href="#DejaVuSans-Bold-72" transform="translate(780.126953 0)"/>
     <use xlink:href="#DejaVuSans-Bold-61" transform="translate(829.443359 0)"/>
     <use xlink:href="#DejaVuSans-Bold-6c" transform="translate(896.923828 0)"/>
     <use xlink:href="#DejaVuSans-Bold-3a" transform="translate(931.201172 0)"/>
     <use xlink:href="#DejaVuSans-Bold-20" transform="translate(971.191406 0)"/>
     <use xlink:href="#DejaVuSans-Bold-41" transform="translate(1006.005859 0)"/>
     <use xlink:href="#DejaVuSans-Bold-72" transform="translate(1083.398438 0)"/>
     <use xlink:href="#DejaVuSans-Bold-65" transform="translate(1132.714844 0)"/>
     <use xlink:href="#DejaVuSans-Bold-61" transform="translate(1200.537109 0)"/>
     <use xlink:href="#DejaVuSans-Bold-20" transform="translate(1268.017578 0)"/>
     <use xlink:href="#DejaVuSans-Bold-55" transform="translate(1302.832031 0)"/>
     <use xlink:href="#DejaVuSans-Bold-6e" transform="translate(1384.033203 0)"/>
     <use xlink:href="#DejaVuSans-Bold-64" transform="translate(1455.224609 0)"/>
     <use xlink:href="#DejaVuSans-Bold-65" transform="translate(1526.806641 0)"/>
     <use xlink:href="#DejaVuSans-Bold-72" transform="translate(1594.628906 0)"/>
     <use xlink:href="#DejaVuSans-Bold-20" transform="translate(1643.945312 0)"/>
     <use xlink:href="#DejaVuSans-Bold-61" transform="translate(1678.759766 0)"/>
     <use xlink:href="#DejaVuSans-Bold-20" transform="translate(1746.240234 0)"/>
     <use xlink:href="#DejaVuSans-Bold-43" transform="translate(1781.054688 0)"/>
     <use xlink:href="#DejaVuSans-Bold-75" transform="translate(1854.443359 0)"/>
     <use xlink:href="#DejaVuSans-Bold-72" transform="translate(1925.634766 0)"/>
     <use xlink:href="#DejaVuSans-Bold-76" transform="translate(1974.951172 0)"/>
     <use xlink:href="#DejaVuSans-Bold-65" transform="translate(2040.136719 0)"/>
    </g>
   </g>
   <g id="legend_1">
    <g id="patch_5">
     <path d="M 502.015938 74.97125 
L 613.865313 74.97125 
Q 616.265313 74.97125 616.265313 72.57125 
L 616.265313 56.1575 
Q 616.265313 53.7575 613.865313 53.7575 
L 502.015938 53.7575 
Q 499.615938 53.7575 499.615938 56.1575 
L 499.615938 72.57125 
Q 499.615938 74.97125 502.015938 74.97125 
z
" style="fill: #ffffff; opacity: 0.9; stroke: #dee2e6; stroke-linejoin: miter"/>
    </g>
    <g id="line2d_40">
     <path d="M 504.415938 63.475625 
L 516.415938 63.475625 
L 528.415938 63.475625 
" style="fill: none; stroke: #339af0; stroke-width: 2.5; stroke-linecap: square"/>
    </g>
    <g id="text_22">
     <!-- y = -x² + 4x -->
     <g transform="translate(538.015938 67.675625) scale(0.12 -0.12)">
      <defs>
       <path id="DejaVuSans-20" transform="scale(0.015625)"/>
       <path id="DejaVuSans-3d" d="M 678 2906 
L 4684 2906 
L 4684 2381 
L 678 2381 
L 678 2906 
z
M 678 1631 
L 4684 1631 
L 4684 1100 
L 678 1100 
L 678 1631 
z
" transform="scale(0.015625)"/>
       <path id="DejaVuSans-2d" d="M 313 2009 
L 1997 2009 
L 1997 1497 
L 313 1497 
L 313 2009 
z
" transform="scale(0.015625)"/>
       <path id="DejaVuSans-b2" d="M 838 2444 
L 2163 2444 
L 2163 2088 
L 294 2088 
L 294 2431 
Q 400 2528 597 2703 
Q 1672 3656 1672 3950 
Q 1672 4156 1509 4282 
Q 1347 4409 1081 4409 
Q 919 4409 728 4354 
Q 538 4300 313 4191 
L 313 4575 
Q 553 4663 761 4706 
Q 969 4750 1147 4750 
Q 1600 4750 1872 4544 
Q 2144 4338 2144 4000 
Q 2144 3566 1109 2678 
Q 934 2528 838 2444 
z
" transform="scale(0.015625)"/>
       <path id="DejaVuSans-2b" d="M 2944 4013 
L 2944 2272 
L 4684 2272 
L 4684 1741 
L 2944 1741 
L 2944 0 
L 2419 0 
L 2419 1741 
L 678 1741 
L 678 2272 
L 2419 2272 
L 2419 4013 
L 2944 4013 
z
" transform="scale(0.015625)"/>
      </defs>
      <use xlink:href="#DejaVuSans-79"/>
      <use xlink:href="#DejaVuSans-20" transform="translate(59.179688 0)"/>
      <use xlink:href="#DejaVuSans-3d" transform="translate(90.966797 0)"/>
      <use xlink:href="#DejaVuSans-20" transform="translate(174.755859 0)"/>
      <use xlink:href="#DejaVuSans-2d" transform="translate(206.542969 0)"/>
      <use xlink:href="#DejaVuSans-78" transform="translate(242.626953 0)"/>
      <use xlink:href="#DejaVuSans-b2" transform="translate(301.806641 0)"/>
      <use xlink:href="#DejaVuSans-20" transform="translate(341.894531 0)"/>
      <use xlink:href="#DejaVuSans-2b" transform="translate(373.681641 0)"/>
      <use xlink:href="#DejaVuSans-20" transform="translate(457.470703 0)"/>
      <use xlink:href="#DejaVuSans-34" transform="translate(489.257812 0)"/>
      <use xlink:href="#DejaVuSans-78" transform="translate(552.880859 0)"/>
     </g>
    </g>
   </g>
  </g>
 </g>
 <defs>
  <clipPath id="p136541de5c">
   <rect x="64.265312" y="47.7575" width="558" height="332.64"/>
  </clipPath>
 </defs>
</svg>
