<?xml version="1.0" encoding="utf-8" standalone="no"?>
<!DOCTYPE svg PUBLIC "-//W3C//DTD SVG 1.1//EN"
  "http://www.w3.org/Graphics/SVG/1.1/DTD/svg11.dtd">
<svg xmlns:xlink="http://www.w3.org/1999/xlink" width="642.472188pt" height="437.192813pt" viewBox="0 0 642.472188 437.192813" xmlns="http://www.w3.org/2000/svg" version="1.1">
 <metadata>
  <rdf:RDF xmlns:dc="http://purl.org/dc/elements/1.1/" xmlns:cc="http://creativecommons.org/ns#" xmlns:rdf="http://www.w3.org/1999/02/22-rdf-syntax-ns#">
   <cc:Work>
    <dc:type rdf:resource="http://purl.org/dc/dcmitype/StillImage"/>
    <dc:date>2026-03-25T09:44:10.839326</dc:date>
    <dc:format>image/svg+xml</dc:format>
    <dc:creator>
     <cc:Agent>
      <dc:title>Matplotlib v3.10.8, https://matplotlib.org/</dc:title>
     </cc:Agent>
    </dc:creator>
   </cc:Work>
  </rdf:RDF>
 </metadata>
 <defs>
  <style type="text/css">*{stroke-linejoin: round; stroke-linecap: butt}</style>
 </defs>
 <g id="figure_1">
  <g id="patch_1">
   <path d="M 0 437.192813 
L 642.472188 437.192813 
L 642.472188 -0 
L 0 -0 
z
" style="fill: #ffffff"/>
  </g>
  <g id="axes_1">
   <g id="patch_2">
    <path d="M 62.872188 380.3975 
L 620.872187 380.3975 
L 620.872187 47.7575 
L 62.872188 47.7575 
z
" style="fill: #ffffff"/>
   </g>
   <g id="line2d_1">
    <path d="M 62.872188 214.0775 
L 620.872187 214.0775 
" clip-path="url(#p96fffb5f47)" style="fill: none; stroke: #868e96; stroke-width: 0.8; stroke-linecap: square"/>
   </g>
   <g id="matplotlib.axis_1">
    <g id="xtick_1">
     <g id="line2d_2">
      <path d="M 138.963097 380.3975 
L 138.963097 47.7575 
" clip-path="url(#p96fffb5f47)" style="fill: none; stroke: #dee2e6; stroke-opacity: 0.7; stroke-width: 0.5; stroke-linecap: square"/>
     </g>
     <g id="line2d_3">
      <defs>
       <path id="m276302410f" d="M 0 0 
L 0 3.5 
" style="stroke: #000000; stroke-width: 0.8"/>
      </defs>
      <g>
       <use xlink:href="#m276302410f" x="138.963097" y="380.3975" style="stroke: #000000; stroke-width: 0.8"/>
      </g>
     </g>
     <g id="text_1">
      <!-- −2 -->
      <g transform="translate(130.117784 396.515625) scale(0.12 -0.12)">
       <defs>
        <path id="DejaVuSans-2212" d="M 678 2272 
L 4684 2272 
L 4684 1741 
L 678 1741 
L 678 2272 
z
" transform="scale(0.015625)"/>
        <path id="DejaVuSans-32" d="M 1228 531 
L 3431 531 
L 3431 0 
L 469 0 
L 469 531 
Q 828 903 1448 1529 
Q 2069 2156 2228 2338 
Q 2531 2678 2651 2914 
Q 2772 3150 2772 3378 
Q 2772 3750 2511 3984 
Q 2250 4219 1831 4219 
Q 1534 4219 1204 4116 
Q 875 4013 500 3803 
L 500 4441 
Q 881 4594 1212 4672 
Q 1544 4750 1819 4750 
Q 2544 4750 2975 4387 
Q 3406 4025 3406 3419 
Q 3406 3131 3298 2873 
Q 3191 2616 2906 2266 
Q 2828 2175 2409 1742 
Q 1991 1309 1228 531 
z
" transform="scale(0.015625)"/>
       </defs>
       <use xlink:href="#DejaVuSans-2212"/>
       <use xlink:href="#DejaVuSans-32" transform="translate(83.789062 0)"/>
      </g>
     </g>
    </g>
    <g id="xtick_2">
     <g id="line2d_4">
      <path d="M 240.417642 380.3975 
L 240.417642 47.7575 
" clip-path="url(#p96fffb5f47)" style="fill: none; stroke: #dee2e6; stroke-opacity: 0.7; stroke-width: 0.5; stroke-linecap: square"/>
     </g>
     <g id="line2d_5">
      <g>
       <use xlink:href="#m276302410f" x="240.417642" y="380.3975" style="stroke: #000000; stroke-width: 0.8"/>
      </g>
     </g>
     <g id="text_2">
      <!-- −1 -->
      <g transform="translate(231.57233 396.515625) scale(0.12 -0.12)">
       <defs>
        <path id="DejaVuSans-31" d="M 794 531 
L 1825 531 
L 1825 4091 
L 703 3866 
L 703 4441 
L 1819 4666 
L 2450 4666 
L 2450 531 
L 3481 531 
L 3481 0 
L 794 0 
L 794 531 
z
" transform="scale(0.015625)"/>
       </defs>
       <use xlink:href="#DejaVuSans-2212"/>
       <use xlink:href="#DejaVuSans-31" transform="translate(83.789062 0)"/>
      </g>
     </g>
    </g>
    <g id="xtick_3">
     <g id="line2d_6">
      <path d="M 341.872187 380.3975 
L 341.872187 47.7575 
" clip-path="url(#p96fffb5f47)" style="fill: none; stroke: #dee2e6; stroke-opacity: 0.7; stroke-width: 0.5; stroke-linecap: square"/>
     </g>
     <g id="line2d_7">
      <g>
       <use xlink:href="#m276302410f" x="341.872187" y="380.3975" style="stroke: #000000; stroke-width: 0.8"/>
      </g>
     </g>
     <g id="text_3">
      <!-- 0 -->
      <g transform="translate(338.054688 396.515625) scale(0.12 -0.12)">
       <defs>
        <path id="DejaVuSans-30" d="M 2034 4250 
Q 1547 4250 1301 3770 
Q 1056 3291 1056 2328 
Q 1056 1369 1301 889 
Q 1547 409 2034 409 
Q 2525 409 2770 889 
Q 3016 1369 3016 2328 
Q 3016 3291 2770 3770 
Q 2525 4250 2034 4250 
z
M 2034 4750 
Q 2819 4750 3233 4129 
Q 3647 3509 3647 2328 
Q 3647 1150 3233 529 
Q 2819 -91 2034 -91 
Q 1250 -91 836 529 
Q 422 1150 422 2328 
Q 422 3509 836 4129 
Q 1250 4750 2034 4750 
z
" transform="scale(0.015625)"/>
       </defs>
       <use xlink:href="#DejaVuSans-30"/>
      </g>
     </g>
    </g>
    <g id="xtick_4">
     <g id="line2d_8">
      <path d="M 443.326733 380.3975 
L 443.326733 47.7575 
" clip-path="url(#p96fffb5f47)" style="fill: none; stroke: #dee2e6; stroke-opacity: 0.7; stroke-width: 0.5; stroke-linecap: square"/>
     </g>
     <g id="line2d_9">
      <g>
       <use xlink:href="#m276302410f" x="443.326733" y="380.3975" style="stroke: #000000; stroke-width: 0.8"/>
      </g>
     </g>
     <g id="text_4">
      <!-- 1 -->
      <g transform="translate(439.509233 396.515625) scale(0.12 -0.12)">
       <use xlink:href="#DejaVuSans-31"/>
      </g>
     </g>
    </g>
    <g id="xtick_5">
     <g id="line2d_10">
      <path d="M 544.781278 380.3975 
L 544.781278 47.7575 
" clip-path="url(#p96fffb5f47)" style="fill: none; stroke: #dee2e6; stroke-opacity: 0.7; stroke-width: 0.5; stroke-linecap: square"/>
     </g>
     <g id="line2d_11">
      <g>
       <use xlink:href="#m276302410f" x="544.781278" y="380.3975" style="stroke: #000000; stroke-width: 0.8"/>
      </g>
     </g>
     <g id="text_5">
      <!-- 2 -->
      <g transform="translate(540.963778 396.515625) scale(0.12 -0.12)">
       <use xlink:href="#DejaVuSans-32"/>
      </g>
     </g>
    </g>
    <g id="text_6">
     <!-- x -->
     <g transform="translate(338.025 412.889219) scale(0.13 -0.13)">
      <defs>
       <path id="DejaVuSans-78" d="M 3513 3500 
L 2247 1797 
L 3578 0 
L 2900 0 
L 1881 1375 
L 863 0 
L 184 0 
L 1544 1831 
L 300 3500 
L 978 3500 
L 1906 2253 
L 2834 3500 
L 3513 3500 
z
" transform="scale(0.015625)"/>
      </defs>
      <use xlink:href="#DejaVuSans-78"/>
     </g>
    </g>
   </g>
   <g id="matplotlib.axis_2">
    <g id="ytick_1">
     <g id="line2d_12">
      <path d="M 62.872188 362.951346 
L 620.872187 362.951346 
" clip-path="url(#p96fffb5f47)" style="fill: none; stroke: #dee2e6; stroke-opacity: 0.7; stroke-width: 0.5; stroke-linecap: square"/>
     </g>
     <g id="line2d_13">
      <defs>
       <path id="me7f4e8fac0" d="M 0 0 
L -3.5 0 
" style="stroke: #000000; stroke-width: 0.8"/>
      </defs>
      <g>
       <use xlink:href="#me7f4e8fac0" x="62.872188" y="362.951346" style="stroke: #000000; stroke-width: 0.8"/>
      </g>
     </g>
     <g id="text_7">
      <!-- −8 -->
      <g transform="translate(38.181562 367.510409) scale(0.12 -0.12)">
       <defs>
        <path id="DejaVuSans-38" d="M 2034 2216 
Q 1584 2216 1326 1975 
Q 1069 1734 1069 1313 
Q 1069 891 1326 650 
Q 1584 409 2034 409 
Q 2484 409 2743 651 
Q 3003 894 3003 1313 
Q 3003 1734 2745 1975 
Q 2488 2216 2034 2216 
z
M 1403 2484 
Q 997 2584 770 2862 
Q 544 3141 544 3541 
Q 544 4100 942 4425 
Q 1341 4750 2034 4750 
Q 2731 4750 3128 4425 
Q 3525 4100 3525 3541 
Q 3525 3141 3298 2862 
Q 3072 2584 2669 2484 
Q 3125 2378 3379 2068 
Q 3634 1759 3634 1313 
Q 3634 634 3220 271 
Q 2806 -91 2034 -91 
Q 1263 -91 848 271 
Q 434 634 434 1313 
Q 434 1759 690 2068 
Q 947 2378 1403 2484 
z
M 1172 3481 
Q 1172 3119 1398 2916 
Q 1625 2713 2034 2713 
Q 2441 2713 2670 2916 
Q 2900 3119 2900 3481 
Q 2900 3844 2670 4047 
Q 2441 4250 2034 4250 
Q 1625 4250 1398 4047 
Q 1172 3844 1172 3481 
z
" transform="scale(0.015625)"/>
       </defs>
       <use xlink:href="#DejaVuSans-2212"/>
       <use xlink:href="#DejaVuSans-38" transform="translate(83.789062 0)"/>
      </g>
     </g>
    </g>
    <g id="ytick_2">
     <g id="line2d_14">
      <path d="M 62.872188 325.732885 
L 620.872187 325.732885 
" clip-path="url(#p96fffb5f47)" style="fill: none; stroke: #dee2e6; stroke-opacity: 0.7; stroke-width: 0.5; stroke-linecap: square"/>
     </g>
     <g id="line2d_15">
      <g>
       <use xlink:href="#me7f4e8fac0" x="62.872188" y="325.732885" style="stroke: #000000; stroke-width: 0.8"/>
      </g>
     </g>
     <g id="text_8">
      <!-- −6 -->
      <g transform="translate(38.181562 330.291947) scale(0.12 -0.12)">
       <defs>
        <path id="DejaVuSans-36" d="M 2113 2584 
Q 1688 2584 1439 2293 
Q 1191 2003 1191 1497 
Q 1191 994 1439 701 
Q 1688 409 2113 409 
Q 2538 409 2786 701 
Q 3034 994 3034 1497 
Q 3034 2003 2786 2293 
Q 2538 2584 2113 2584 
z
M 3366 4563 
L 3366 3988 
Q 3128 4100 2886 4159 
Q 2644 4219 2406 4219 
Q 1781 4219 1451 3797 
Q 1122 3375 1075 2522 
Q 1259 2794 1537 2939 
Q 1816 3084 2150 3084 
Q 2853 3084 3261 2657 
Q 3669 2231 3669 1497 
Q 3669 778 3244 343 
Q 2819 -91 2113 -91 
Q 1303 -91 875 529 
Q 447 1150 447 2328 
Q 447 3434 972 4092 
Q 1497 4750 2381 4750 
Q 2619 4750 2861 4703 
Q 3103 4656 3366 4563 
z
" transform="scale(0.015625)"/>
       </defs>
       <use xlink:href="#DejaVuSans-2212"/>
       <use xlink:href="#DejaVuSans-36" transform="translate(83.789062 0)"/>
      </g>
     </g>
    </g>
    <g id="ytick_3">
     <g id="line2d_16">
      <path d="M 62.872188 288.514423 
L 620.872187 288.514423 
" clip-path="url(#p96fffb5f47)" style="fill: none; stroke: #dee2e6; stroke-opacity: 0.7; stroke-width: 0.5; stroke-linecap: square"/>
     </g>
     <g id="line2d_17">
      <g>
       <use xlink:href="#me7f4e8fac0" x="62.872188" y="288.514423" style="stroke: #000000; stroke-width: 0.8"/>
      </g>
     </g>
     <g id="text_9">
      <!-- −4 -->
      <g transform="translate(38.181562 293.073486) scale(0.12 -0.12)">
       <defs>
        <path id="DejaVuSans-34" d="M 2419 4116 
L 825 1625 
L 2419 1625 
L 2419 4116 
z
M 2253 4666 
L 3047 4666 
L 3047 1625 
L 3713 1625 
L 3713 1100 
L 3047 1100 
L 3047 0 
L 2419 0 
L 2419 1100 
L 313 1100 
L 313 1709 
L 2253 4666 
z
" transform="scale(0.015625)"/>
       </defs>
       <use xlink:href="#DejaVuSans-2212"/>
       <use xlink:href="#DejaVuSans-34" transform="translate(83.789062 0)"/>
      </g>
     </g>
    </g>
    <g id="ytick_4">
     <g id="line2d_18">
      <path d="M 62.872188 251.295962 
L 620.872187 251.295962 
" clip-path="url(#p96fffb5f47)" style="fill: none; stroke: #dee2e6; stroke-opacity: 0.7; stroke-width: 0.5; stroke-linecap: square"/>
     </g>
     <g id="line2d_19">
      <g>
       <use xlink:href="#me7f4e8fac0" x="62.872188" y="251.295962" style="stroke: #000000; stroke-width: 0.8"/>
      </g>
     </g>
     <g id="text_10">
      <!-- −2 -->
      <g transform="translate(38.181562 255.855024) scale(0.12 -0.12)">
       <use xlink:href="#DejaVuSans-2212"/>
       <use xlink:href="#DejaVuSans-32" transform="translate(83.789062 0)"/>
      </g>
     </g>
    </g>
    <g id="ytick_5">
     <g id="line2d_20">
      <path d="M 62.872188 214.0775 
L 620.872187 214.0775 
" clip-path="url(#p96fffb5f47)" style="fill: none; stroke: #dee2e6; stroke-opacity: 0.7; stroke-width: 0.5; stroke-linecap: square"/>
     </g>
     <g id="line2d_21">
      <g>
       <use xlink:href="#me7f4e8fac0" x="62.872188" y="214.0775" style="stroke: #000000; stroke-width: 0.8"/>
      </g>
     </g>
     <g id="text_11">
      <!-- 0 -->
      <g transform="translate(48.237188 218.636563) scale(0.12 -0.12)">
       <use xlink:href="#DejaVuSans-30"/>
      </g>
     </g>
    </g>
    <g id="ytick_6">
     <g id="line2d_22">
      <path d="M 62.872188 176.859038 
L 620.872187 176.859038 
" clip-path="url(#p96fffb5f47)" style="fill: none; stroke: #dee2e6; stroke-opacity: 0.7; stroke-width: 0.5; stroke-linecap: square"/>
     </g>
     <g id="line2d_23">
      <g>
       <use xlink:href="#me7f4e8fac0" x="62.872188" y="176.859038" style="stroke: #000000; stroke-width: 0.8"/>
      </g>
     </g>
     <g id="text_12">
      <!-- 2 -->
      <g transform="translate(48.237188 181.418101) scale(0.12 -0.12)">
       <use xlink:href="#DejaVuSans-32"/>
      </g>
     </g>
    </g>
    <g id="ytick_7">
     <g id="line2d_24">
      <path d="M 62.872188 139.640577 
L 620.872187 139.640577 
" clip-path="url(#p96fffb5f47)" style="fill: none; stroke: #dee2e6; stroke-opacity: 0.7; stroke-width: 0.5; stroke-linecap: square"/>
     </g>
     <g id="line2d_25">
      <g>
       <use xlink:href="#me7f4e8fac0" x="62.872188" y="139.640577" style="stroke: #000000; stroke-width: 0.8"/>
      </g>
     </g>
     <g id="text_13">
      <!-- 4 -->
      <g transform="translate(48.237188 144.199639) scale(0.12 -0.12)">
       <use xlink:href="#DejaVuSans-34"/>
      </g>
     </g>
    </g>
    <g id="ytick_8">
     <g id="line2d_26">
      <path d="M 62.872188 102.422115 
L 620.872187 102.422115 
" clip-path="url(#p96fffb5f47)" style="fill: none; stroke: #dee2e6; stroke-opacity: 0.7; stroke-width: 0.5; stroke-linecap: square"/>
     </g>
     <g id="line2d_27">
      <g>
       <use xlink:href="#me7f4e8fac0" x="62.872188" y="102.422115" style="stroke: #000000; stroke-width: 0.8"/>
      </g>
     </g>
     <g id="text_14">
      <!-- 6 -->
      <g transform="translate(48.237188 106.981178) scale(0.12 -0.12)">
       <use xlink:href="#DejaVuSans-36"/>
      </g>
     </g>
    </g>
    <g id="ytick_9">
     <g id="line2d_28">
      <path d="M 62.872188 65.203654 
L 620.872187 65.203654 
" clip-path="url(#p96fffb5f47)" style="fill: none; stroke: #dee2e6; stroke-opacity: 0.7; stroke-width: 0.5; stroke-linecap: square"/>
     </g>
     <g id="line2d_29">
      <g>
       <use xlink:href="#me7f4e8fac0" x="62.872188" y="65.203654" style="stroke: #000000; stroke-width: 0.8"/>
      </g>
     </g>
     <g id="text_15">
      <!-- 8 -->
      <g transform="translate(48.237188 69.762716) scale(0.12 -0.12)">
       <use xlink:href="#DejaVuSans-38"/>
      </g>
     </g>
    </g>
    <g id="text_16">
     <!-- y -->
     <g transform="translate(31.477969 217.924688) rotate(-90) scale(0.13 -0.13)">
      <defs>
       <path id="DejaVuSans-79" d="M 2059 -325 
Q 1816 -950 1584 -1140 
Q 1353 -1331 966 -1331 
L 506 -1331 
L 506 -850 
L 844 -850 
Q 1081 -850 1212 -737 
Q 1344 -625 1503 -206 
L 1606 56 
L 191 3500 
L 800 3500 
L 1894 763 
L 2988 3500 
L 3597 3500 
L 2059 -325 
z
" transform="scale(0.015625)"/>
      </defs>
      <use xlink:href="#DejaVuSans-79"/>
     </g>
    </g>
   </g>
   <g id="FillBetweenPolyCollection_1">
    <defs>
     <path id="m1271c365f0" d="M 166.14776 -223.115312 
L 166.14776 -223.115313 
L 167.030797 -224.079823 
L 167.913835 -225.029756 
L 168.796872 -225.965185 
L 169.679909 -226.886185 
L 170.562947 -227.792829 
L 171.445984 -228.685191 
L 172.329021 -229.563343 
L 173.212059 -230.427361 
L 174.095096 -231.277316 
L 174.978133 -232.113284 
L 175.861171 -232.935337 
L 176.744208 -233.74355 
L 177.627245 -234.537995 
L 178.510283 -235.318747 
L 179.39332 -236.085879 
L 180.276357 -236.839464 
L 181.159395 -237.579577 
L 182.042432 -238.306291 
L 182.925469 -239.01968 
L 183.808507 -239.719816 
L 184.691544 -240.406775 
L 185.574581 -241.080629 
L 186.457619 -241.741452 
L 187.340656 -242.389317 
L 188.223693 -243.0243 
L 189.106731 -243.646471 
L 189.989768 -244.255907 
L 190.872805 -244.85268 
L 191.755842 -245.436863 
L 192.63888 -246.008531 
L 193.521917 -246.567757 
L 194.404954 -247.114614 
L 195.287992 -247.649177 
L 196.171029 -248.171519 
L 197.054066 -248.681713 
L 197.937104 -249.179834 
L 198.820141 -249.665954 
L 199.703178 -250.140147 
L 200.586216 -250.602488 
L 201.469253 -251.053049 
L 202.35229 -251.491904 
L 203.235328 -251.919128 
L 204.118365 -252.334792 
L 205.001402 -252.738972 
L 205.88444 -253.131741 
L 206.767477 -253.513172 
L 207.650514 -253.883339 
L 208.533552 -254.242315 
L 209.416589 -254.590175 
L 210.299626 -254.926991 
L 211.182664 -255.252838 
L 212.065701 -255.56779 
L 212.948738 -255.871918 
L 213.831776 -256.165298 
L 214.714813 -256.448003 
L 215.59785 -256.720107 
L 216.480888 -256.981683 
L 217.363925 -257.232804 
L 218.246962 -257.473545 
L 219.13 -257.70398 
L 220.013037 -257.92418 
L 220.896074 -258.134221 
L 221.779111 -258.334176 
L 222.662149 -258.524119 
L 223.545186 -258.704122 
L 224.428223 -258.874261 
L 225.311261 -259.034607 
L 226.194298 -259.185236 
L 227.077335 -259.326221 
L 227.960373 -259.457634 
L 228.84341 -259.579551 
L 229.726447 -259.692044 
L 230.609485 -259.795187 
L 231.492522 -259.889054 
L 232.375559 -259.973718 
L 233.258597 -260.049253 
L 234.141634 -260.115733 
L 235.024671 -260.173231 
L 235.907709 -260.221821 
L 236.790746 -260.261577 
L 237.673783 -260.292571 
L 238.556821 -260.314878 
L 239.439858 -260.328572 
L 240.322895 -260.333725 
L 241.205933 -260.330412 
L 242.08897 -260.318707 
L 242.972007 -260.298682 
L 243.855045 -260.270411 
L 244.738082 -260.233969 
L 245.621119 -260.189428 
L 246.504157 -260.136863 
L 247.387194 -260.076346 
L 248.270231 -260.007952 
L 249.153269 -259.931754 
L 250.036306 -259.847826 
L 250.919343 -259.756241 
L 251.80238 -259.657074 
L 252.685418 -259.550397 
L 253.568455 -259.436284 
L 254.451492 -259.314809 
L 255.33453 -259.186046 
L 256.217567 -259.050068 
L 257.100604 -258.906948 
L 257.983642 -258.756761 
L 258.866679 -258.59958 
L 259.749716 -258.435479 
L 260.632754 -258.264531 
L 261.515791 -258.086809 
L 262.398828 -257.902388 
L 263.281866 -257.711342 
L 264.164903 -257.513743 
L 265.04794 -257.309665 
L 265.930978 -257.099182 
L 266.814015 -256.882368 
L 267.697052 -256.659296 
L 268.58009 -256.43004 
L 269.463127 -256.194673 
L 270.346164 -255.95327 
L 271.229202 -255.705903 
L 272.112239 -255.452646 
L 272.995276 -255.193573 
L 273.878314 -254.928758 
L 274.761351 -254.658274 
L 275.644388 -254.382195 
L 276.527426 -254.100595 
L 277.410463 -253.813546 
L 278.2935 -253.521123 
L 279.176538 -253.223399 
L 280.059575 -252.920448 
L 280.942612 -252.612344 
L 281.825649 -252.29916 
L 282.708687 -251.980969 
L 283.591724 -251.657846 
L 284.474761 -251.329864 
L 285.357799 -250.997097 
L 286.240836 -250.659618 
L 287.123873 -250.317501 
L 288.006911 -249.970819 
L 288.889948 -249.619646 
L 289.772985 -249.264056 
L 290.656023 -248.904123 
L 291.53906 -248.539919 
L 292.422097 -248.171519 
L 293.305135 -247.798996 
L 294.188172 -247.422424 
L 295.071209 -247.041877 
L 295.954247 -246.657427 
L 296.837284 -246.26915 
L 297.720321 -245.877117 
L 298.603359 -245.481404 
L 299.486396 -245.082083 
L 300.369433 -244.679228 
L 301.252471 -244.272913 
L 302.135508 -243.863212 
L 303.018545 -243.450198 
L 303.901583 -243.033944 
L 304.78462 -242.614524 
L 305.667657 -242.192013 
L 306.550695 -241.766483 
L 307.433732 -241.338008 
L 308.316769 -240.906662 
L 309.199807 -240.472518 
L 310.082844 -240.035651 
L 310.965881 -239.596133 
L 311.848918 -239.154038 
L 312.731956 -238.70944 
L 313.614993 -238.262413 
L 314.49803 -237.81303 
L 315.381068 -237.361364 
L 316.264105 -236.90749 
L 317.147142 -236.451481 
L 318.03018 -235.99341 
L 318.913217 -235.533352 
L 319.796254 -235.07138 
L 320.679292 -234.607567 
L 321.562329 -234.141987 
L 322.445366 -233.674714 
L 323.328404 -233.205821 
L 324.211441 -232.735382 
L 325.094478 -232.263471 
L 325.977516 -231.790161 
L 326.860553 -231.315526 
L 327.74359 -230.839639 
L 328.626628 -230.362574 
L 329.509665 -229.884405 
L 330.392702 -229.405205 
L 331.27574 -228.925048 
L 332.158777 -228.444008 
L 333.041814 -227.962158 
L 333.924852 -227.479572 
L 334.807889 -226.996323 
L 335.690926 -226.512485 
L 336.573964 -226.028131 
L 337.457001 -225.543337 
L 338.340038 -225.058173 
L 339.223076 -224.572716 
L 340.106113 -224.087037 
L 340.98915 -223.601212 
L 341.872187 -223.115312 
L 341.872187 -223.115312 
L 341.872187 -223.115312 
L 340.98915 -223.115312 
L 340.106113 -223.115312 
L 339.223076 -223.115312 
L 338.340038 -223.115312 
L 337.457001 -223.115312 
L 336.573964 -223.115312 
L 335.690926 -223.115312 
L 334.807889 -223.115312 
L 333.924852 -223.115312 
L 333.041814 -223.115312 
L 332.158777 -223.115312 
L 331.27574 -223.115312 
L 330.392702 -223.115312 
L 329.509665 -223.115312 
L 328.626628 -223.115312 
L 327.74359 -223.115312 
L 326.860553 -223.115312 
L 325.977516 -223.115312 
L 325.094478 -223.115312 
L 324.211441 -223.115312 
L 323.328404 -223.115312 
L 322.445366 -223.115312 
L 321.562329 -223.115312 
L 320.679292 -223.115312 
L 319.796254 -223.115312 
L 318.913217 -223.115312 
L 318.03018 -223.115312 
L 317.147142 -223.115312 
L 316.264105 -223.115312 
L 315.381068 -223.115312 
L 314.49803 -223.115312 
L 313.614993 -223.115312 
L 312.731956 -223.115312 
L 311.848918 -223.115312 
L 310.965881 -223.115312 
L 310.082844 -223.115312 
L 309.199807 -223.115312 
L 308.316769 -223.115312 
L 307.433732 -223.115312 
L 306.550695 -223.115312 
L 305.667657 -223.115312 
L 304.78462 -223.115312 
L 303.901583 -223.115312 
L 303.018545 -223.115312 
L 302.135508 -223.115312 
L 301.252471 -223.115312 
L 300.369433 -223.115312 
L 299.486396 -223.115312 
L 298.603359 -223.115312 
L 297.720321 -223.115312 
L 296.837284 -223.115312 
L 295.954247 -223.115312 
L 295.071209 -223.115312 
L 294.188172 -223.115312 
L 293.305135 -223.115312 
L 292.422097 -223.115312 
L 291.53906 -223.115312 
L 290.656023 -223.115312 
L 289.772985 -223.115312 
L 288.889948 -223.115312 
L 288.006911 -223.115312 
L 287.123873 -223.115312 
L 286.240836 -223.115312 
L 285.357799 -223.115312 
L 284.474761 -223.115312 
L 283.591724 -223.115312 
L 282.708687 -223.115312 
L 281.825649 -223.115312 
L 280.942612 -223.115312 
L 280.059575 -223.115312 
L 279.176538 -223.115312 
L 278.2935 -223.115312 
L 277.410463 -223.115312 
L 276.527426 -223.115312 
L 275.644388 -223.115312 
L 274.761351 -223.115312 
L 273.878314 -223.115312 
L 272.995276 -223.115312 
L 272.112239 -223.115312 
L 271.229202 -223.115312 
L 270.346164 -223.115312 
L 269.463127 -223.115312 
L 268.58009 -223.115312 
L 267.697052 -223.115312 
L 266.814015 -223.115312 
L 265.930978 -223.115312 
L 265.04794 -223.115312 
L 264.164903 -223.115312 
L 263.281866 -223.115312 
L 262.398828 -223.115312 
L 261.515791 -223.115312 
L 260.632754 -223.115312 
L 259.749716 -223.115312 
L 258.866679 -223.115312 
L 257.983642 -223.115312 
L 257.100604 -223.115312 
L 256.217567 -223.115312 
L 255.33453 -223.115312 
L 254.451492 -223.115312 
L 253.568455 -223.115312 
L 252.685418 -223.115312 
L 251.80238 -223.115312 
L 250.919343 -223.115312 
L 250.036306 -223.115312 
L 249.153269 -223.115312 
L 248.270231 -223.115312 
L 247.387194 -223.115312 
L 246.504157 -223.115312 
L 245.621119 -223.115312 
L 244.738082 -223.115312 
L 243.855045 -223.115312 
L 242.972007 -223.115312 
L 242.08897 -223.115312 
L 241.205933 -223.115312 
L 240.322895 -223.115312 
L 239.439858 -223.115312 
L 238.556821 -223.115312 
L 237.673783 -223.115312 
L 236.790746 -223.115312 
L 235.907709 -223.115312 
L 235.024671 -223.115312 
L 234.141634 -223.115312 
L 233.258597 -223.115312 
L 232.375559 -223.115312 
L 231.492522 -223.115312 
L 230.609485 -223.115312 
L 229.726447 -223.115312 
L 228.84341 -223.115312 
L 227.960373 -223.115312 
L 227.077335 -223.115312 
L 226.194298 -223.115312 
L 225.311261 -223.115312 
L 224.428223 -223.115312 
L 223.545186 -223.115312 
L 222.662149 -223.115312 
L 221.779111 -223.115312 
L 220.896074 -223.115312 
L 220.013037 -223.115312 
L 219.13 -223.115312 
L 218.246962 -223.115312 
L 217.363925 -223.115312 
L 216.480888 -223.115312 
L 215.59785 -223.115312 
L 214.714813 -223.115312 
L 213.831776 -223.115312 
L 212.948738 -223.115312 
L 212.065701 -223.115312 
L 211.182664 -223.115312 
L 210.299626 -223.115312 
L 209.416589 -223.115312 
L 208.533552 -223.115312 
L 207.650514 -223.115312 
L 206.767477 -223.115312 
L 205.88444 -223.115312 
L 205.001402 -223.115312 
L 204.118365 -223.115312 
L 203.235328 -223.115312 
L 202.35229 -223.115312 
L 201.469253 -223.115312 
L 200.586216 -223.115312 
L 199.703178 -223.115312 
L 198.820141 -223.115312 
L 197.937104 -223.115312 
L 197.054066 -223.115312 
L 196.171029 -223.115312 
L 195.287992 -223.115312 
L 194.404954 -223.115312 
L 193.521917 -223.115312 
L 192.63888 -223.115312 
L 191.755842 -223.115312 
L 190.872805 -223.115312 
L 189.989768 -223.115312 
L 189.106731 -223.115312 
L 188.223693 -223.115312 
L 187.340656 -223.115312 
L 186.457619 -223.115312 
L 185.574581 -223.115312 
L 184.691544 -223.115312 
L 183.808507 -223.115312 
L 182.925469 -223.115312 
L 182.042432 -223.115312 
L 181.159395 -223.115312 
L 180.276357 -223.115312 
L 179.39332 -223.115312 
L 178.510283 -223.115312 
L 177.627245 -223.115312 
L 176.744208 -223.115312 
L 175.861171 -223.115312 
L 174.978133 -223.115312 
L 174.095096 -223.115312 
L 173.212059 -223.115312 
L 172.329021 -223.115312 
L 171.445984 -223.115312 
L 170.562947 -223.115312 
L 169.679909 -223.115312 
L 168.796872 -223.115312 
L 167.913835 -223.115312 
L 167.030797 -223.115312 
L 166.14776 -223.115312 
z
" style="stroke: #b2f2bb; stroke-opacity: 0.5"/>
    </defs>
    <g clip-path="url(#p96fffb5f47)">
     <use xlink:href="#m1271c365f0" x="0" y="437.192813" style="fill: #b2f2bb; fill-opacity: 0.5; stroke: #b2f2bb; stroke-opacity: 0.5"/>
    </g>
   </g>
   <g id="FillBetweenPolyCollection_2">
    <defs>
     <path id="m9cb8349103" d="M 341.872187 -223.115312 
L 341.872187 -223.115312 
L 342.755225 -222.629413 
L 343.638262 -222.143588 
L 344.521299 -221.657909 
L 345.404337 -221.172452 
L 346.287374 -220.687288 
L 347.170411 -220.202494 
L 348.053449 -219.71814 
L 348.936486 -219.234302 
L 349.819523 -218.751053 
L 350.702561 -218.268467 
L 351.585598 -217.786617 
L 352.468635 -217.305577 
L 353.351673 -216.82542 
L 354.23471 -216.34622 
L 355.117747 -215.868051 
L 356.000785 -215.390986 
L 356.883822 -214.915099 
L 357.766859 -214.440464 
L 358.649897 -213.967154 
L 359.532934 -213.495243 
L 360.415971 -213.024804 
L 361.299009 -212.555911 
L 362.182046 -212.088638 
L 363.065083 -211.623058 
L 363.948121 -211.159245 
L 364.831158 -210.697273 
L 365.714195 -210.237215 
L 366.597233 -209.779144 
L 367.48027 -209.323135 
L 368.363307 -208.869261 
L 369.246345 -208.417595 
L 370.129382 -207.968212 
L 371.012419 -207.521185 
L 371.895457 -207.076587 
L 372.778494 -206.634492 
L 373.661531 -206.194974 
L 374.544568 -205.758107 
L 375.427606 -205.323963 
L 376.310643 -204.892617 
L 377.19368 -204.464142 
L 378.076718 -204.038612 
L 378.959755 -203.616101 
L 379.842792 -203.196681 
L 380.72583 -202.780427 
L 381.608867 -202.367413 
L 382.491904 -201.957712 
L 383.374942 -201.551397 
L 384.257979 -201.148542 
L 385.141016 -200.749221 
L 386.024054 -200.353508 
L 386.907091 -199.961475 
L 387.790128 -199.573198 
L 388.673166 -199.188748 
L 389.556203 -198.808201 
L 390.43924 -198.431629 
L 391.322278 -198.059106 
L 392.205315 -197.690706 
L 393.088352 -197.326502 
L 393.97139 -196.966569 
L 394.854427 -196.610979 
L 395.737464 -196.259806 
L 396.620502 -195.913124 
L 397.503539 -195.571007 
L 398.386576 -195.233528 
L 399.269614 -194.900761 
L 400.152651 -194.572779 
L 401.035688 -194.249656 
L 401.918726 -193.931465 
L 402.801763 -193.618281 
L 403.6848 -193.310177 
L 404.567837 -193.007226 
L 405.450875 -192.709502 
L 406.333912 -192.417079 
L 407.216949 -192.13003 
L 408.099987 -191.84843 
L 408.983024 -191.572351 
L 409.866061 -191.301867 
L 410.749099 -191.037052 
L 411.632136 -190.777979 
L 412.515173 -190.524722 
L 413.398211 -190.277355 
L 414.281248 -190.035952 
L 415.164285 -189.800585 
L 416.047323 -189.571329 
L 416.93036 -189.348257 
L 417.813397 -189.131443 
L 418.696435 -188.92096 
L 419.579472 -188.716882 
L 420.462509 -188.519283 
L 421.345547 -188.328237 
L 422.228584 -188.143816 
L 423.111621 -187.966094 
L 423.994659 -187.795146 
L 424.877696 -187.631045 
L 425.760733 -187.473864 
L 426.643771 -187.323677 
L 427.526808 -187.180557 
L 428.409845 -187.044579 
L 429.292883 -186.915816 
L 430.17592 -186.794341 
L 431.058957 -186.680228 
L 431.941995 -186.573551 
L 432.825032 -186.474384 
L 433.708069 -186.382799 
L 434.591106 -186.298871 
L 435.474144 -186.222673 
L 436.357181 -186.154279 
L 437.240218 -186.093762 
L 438.123256 -186.041197 
L 439.006293 -185.996656 
L 439.88933 -185.960214 
L 440.772368 -185.931943 
L 441.655405 -185.911918 
L 442.538442 -185.900213 
L 443.42148 -185.8969 
L 444.304517 -185.902053 
L 445.187554 -185.915747 
L 446.070592 -185.938054 
L 446.953629 -185.969048 
L 447.836666 -186.008804 
L 448.719704 -186.057394 
L 449.602741 -186.114892 
L 450.485778 -186.181372 
L 451.368816 -186.256907 
L 452.251853 -186.341571 
L 453.13489 -186.435438 
L 454.017928 -186.538581 
L 454.900965 -186.651074 
L 455.784002 -186.772991 
L 456.66704 -186.904404 
L 457.550077 -187.045389 
L 458.433114 -187.196018 
L 459.316152 -187.356364 
L 460.199189 -187.526503 
L 461.082226 -187.706506 
L 461.965264 -187.896449 
L 462.848301 -188.096404 
L 463.731338 -188.306445 
L 464.614375 -188.526645 
L 465.497413 -188.75708 
L 466.38045 -188.997821 
L 467.263487 -189.248942 
L 468.146525 -189.510518 
L 469.029562 -189.782622 
L 469.912599 -190.065327 
L 470.795637 -190.358707 
L 471.678674 -190.662835 
L 472.561711 -190.977787 
L 473.444749 -191.303634 
L 474.327786 -191.64045 
L 475.210823 -191.98831 
L 476.093861 -192.347286 
L 476.976898 -192.717453 
L 477.859935 -193.098884 
L 478.742973 -193.491653 
L 479.62601 -193.895833 
L 480.509047 -194.311497 
L 481.392085 -194.738721 
L 482.275122 -195.177576 
L 483.158159 -195.628137 
L 484.041197 -196.090478 
L 484.924234 -196.564671 
L 485.807271 -197.050791 
L 486.690309 -197.548912 
L 487.573346 -198.059106 
L 488.456383 -198.581448 
L 489.339421 -199.116011 
L 490.222458 -199.662868 
L 491.105495 -200.222094 
L 491.988533 -200.793762 
L 492.87157 -201.377945 
L 493.754607 -201.974718 
L 494.637644 -202.584154 
L 495.520682 -203.206325 
L 496.403719 -203.841308 
L 497.286756 -204.489173 
L 498.169794 -205.149996 
L 499.052831 -205.82385 
L 499.935868 -206.510809 
L 500.818906 -207.210945 
L 501.701943 -207.924334 
L 502.58498 -208.651048 
L 503.468018 -209.391161 
L 504.351055 -210.144746 
L 505.234092 -210.911878 
L 506.11713 -211.69263 
L 507.000167 -212.487075 
L 507.883204 -213.295288 
L 508.766242 -214.117341 
L 509.649279 -214.953309 
L 510.532316 -215.803264 
L 511.415354 -216.667282 
L 512.298391 -217.545434 
L 513.181428 -218.437796 
L 514.064466 -219.34444 
L 514.947503 -220.26544 
L 515.83054 -221.200869 
L 516.713578 -222.150802 
L 517.596615 -223.115312 
L 517.596615 -223.115312 
L 517.596615 -223.115312 
L 516.713578 -223.115312 
L 515.83054 -223.115312 
L 514.947503 -223.115312 
L 514.064466 -223.115312 
L 513.181428 -223.115312 
L 512.298391 -223.115312 
L 511.415354 -223.115312 
L 510.532316 -223.115312 
L 509.649279 -223.115312 
L 508.766242 -223.115312 
L 507.883204 -223.115312 
L 507.000167 -223.115312 
L 506.11713 -223.115312 
L 505.234092 -223.115312 
L 504.351055 -223.115312 
L 503.468018 -223.115312 
L 502.58498 -223.115312 
L 501.701943 -223.115312 
L 500.818906 -223.115312 
L 499.935868 -223.115312 
L 499.052831 -223.115312 
L 498.169794 -223.115312 
L 497.286756 -223.115312 
L 496.403719 -223.115312 
L 495.520682 -223.115312 
L 494.637644 -223.115312 
L 493.754607 -223.115312 
L 492.87157 -223.115312 
L 491.988533 -223.115312 
L 491.105495 -223.115312 
L 490.222458 -223.115312 
L 489.339421 -223.115312 
L 488.456383 -223.115312 
L 487.573346 -223.115312 
L 486.690309 -223.115312 
L 485.807271 -223.115312 
L 484.924234 -223.115312 
L 484.041197 -223.115312 
L 483.158159 -223.115312 
L 482.275122 -223.115312 
L 481.392085 -223.115312 
L 480.509047 -223.115312 
L 479.62601 -223.115312 
L 478.742973 -223.115312 
L 477.859935 -223.115312 
L 476.976898 -223.115312 
L 476.093861 -223.115312 
L 475.210823 -223.115312 
L 474.327786 -223.115312 
L 473.444749 -223.115312 
L 472.561711 -223.115312 
L 471.678674 -223.115312 
L 470.795637 -223.115312 
L 469.912599 -223.115312 
L 469.029562 -223.115312 
L 468.146525 -223.115312 
L 467.263487 -223.115312 
L 466.38045 -223.115312 
L 465.497413 -223.115312 
L 464.614375 -223.115312 
L 463.731338 -223.115312 
L 462.848301 -223.115312 
L 461.965264 -223.115312 
L 461.082226 -223.115312 
L 460.199189 -223.115312 
L 459.316152 -223.115312 
L 458.433114 -223.115312 
L 457.550077 -223.115312 
L 456.66704 -223.115312 
L 455.784002 -223.115312 
L 454.900965 -223.115312 
L 454.017928 -223.115312 
L 453.13489 -223.115312 
L 452.251853 -223.115312 
L 451.368816 -223.115312 
L 450.485778 -223.115312 
L 449.602741 -223.115312 
L 448.719704 -223.115312 
L 447.836666 -223.115312 
L 446.953629 -223.115312 
L 446.070592 -223.115312 
L 445.187554 -223.115312 
L 444.304517 -223.115312 
L 443.42148 -223.115312 
L 442.538442 -223.115312 
L 441.655405 -223.115312 
L 440.772368 -223.115312 
L 439.88933 -223.115312 
L 439.006293 -223.115312 
L 438.123256 -223.115312 
L 437.240218 -223.115312 
L 436.357181 -223.115312 
L 435.474144 -223.115312 
L 434.591106 -223.115312 
L 433.708069 -223.115312 
L 432.825032 -223.115312 
L 431.941995 -223.115312 
L 431.058957 -223.115312 
L 430.17592 -223.115312 
L 429.292883 -223.115312 
L 428.409845 -223.115312 
L 427.526808 -223.115312 
L 426.643771 -223.115312 
L 425.760733 -223.115312 
L 424.877696 -223.115312 
L 423.994659 -223.115312 
L 423.111621 -223.115312 
L 422.228584 -223.115312 
L 421.345547 -223.115312 
L 420.462509 -223.115312 
L 419.579472 -223.115312 
L 418.696435 -223.115312 
L 417.813397 -223.115312 
L 416.93036 -223.115312 
L 416.047323 -223.115312 
L 415.164285 -223.115312 
L 414.281248 -223.115312 
L 413.398211 -223.115312 
L 412.515173 -223.115312 
L 411.632136 -223.115312 
L 410.749099 -223.115312 
L 409.866061 -223.115312 
L 408.983024 -223.115312 
L 408.099987 -223.115312 
L 407.216949 -223.115312 
L 406.333912 -223.115312 
L 405.450875 -223.115312 
L 404.567837 -223.115312 
L 403.6848 -223.115312 
L 402.801763 -223.115312 
L 401.918726 -223.115312 
L 401.035688 -223.115312 
L 400.152651 -223.115312 
L 399.269614 -223.115312 
L 398.386576 -223.115312 
L 397.503539 -223.115312 
L 396.620502 -223.115312 
L 395.737464 -223.115312 
L 394.854427 -223.115312 
L 393.97139 -223.115312 
L 393.088352 -223.115312 
L 392.205315 -223.115312 
L 391.322278 -223.115312 
L 390.43924 -223.115312 
L 389.556203 -223.115312 
L 388.673166 -223.115312 
L 387.790128 -223.115312 
L 386.907091 -223.115312 
L 386.024054 -223.115312 
L 385.141016 -223.115312 
L 384.257979 -223.115312 
L 383.374942 -223.115312 
L 382.491904 -223.115312 
L 381.608867 -223.115312 
L 380.72583 -223.115312 
L 379.842792 -223.115312 
L 378.959755 -223.115312 
L 378.076718 -223.115312 
L 377.19368 -223.115312 
L 376.310643 -223.115312 
L 375.427606 -223.115312 
L 374.544568 -223.115312 
L 373.661531 -223.115312 
L 372.778494 -223.115312 
L 371.895457 -223.115312 
L 371.012419 -223.115312 
L 370.129382 -223.115312 
L 369.246345 -223.115312 
L 368.363307 -223.115312 
L 367.48027 -223.115312 
L 366.597233 -223.115312 
L 365.714195 -223.115312 
L 364.831158 -223.115312 
L 363.948121 -223.115312 
L 363.065083 -223.115312 
L 362.182046 -223.115312 
L 361.299009 -223.115312 
L 360.415971 -223.115312 
L 359.532934 -223.115312 
L 358.649897 -223.115312 
L 357.766859 -223.115312 
L 356.883822 -223.115312 
L 356.000785 -223.115312 
L 355.117747 -223.115312 
L 354.23471 -223.115312 
L 353.351673 -223.115312 
L 352.468635 -223.115312 
L 351.585598 -223.115312 
L 350.702561 -223.115312 
L 349.819523 -223.115312 
L 348.936486 -223.115312 
L 348.053449 -223.115312 
L 347.170411 -223.115312 
L 346.287374 -223.115312 
L 345.404337 -223.115312 
L 344.521299 -223.115312 
L 343.638262 -223.115312 
L 342.755225 -223.115312 
L 341.872187 -223.115312 
z
" style="stroke: #ffc9c9; stroke-opacity: 0.5"/>
    </defs>
    <g clip-path="url(#p96fffb5f47)">
     <use xlink:href="#m9cb8349103" x="0" y="437.192813" style="fill: #ffc9c9; fill-opacity: 0.5; stroke: #ffc9c9; stroke-opacity: 0.5"/>
    </g>
   </g>
   <g id="patch_3">
    <path d="M 62.872188 380.3975 
L 62.872188 47.7575 
" style="fill: none; stroke: #868e96; stroke-width: 0.8; stroke-linejoin: miter; stroke-linecap: square"/>
   </g>
   <g id="patch_4">
    <path d="M 62.872187 380.3975 
L 620.872187 380.3975 
" style="fill: none; stroke: #868e96; stroke-width: 0.8; stroke-linejoin: miter; stroke-linecap: square"/>
   </g>
   <g id="line2d_30">
    <path d="M 88.235824 365.2775 
L 93.318717 350.941345 
L 98.40161 337.291796 
L 103.484503 324.31481 
L 108.567396 311.996347 
L 113.650289 300.322366 
L 118.733182 289.278826 
L 123.816075 278.851686 
L 128.898968 269.026904 
L 133.981861 259.790441 
L 138.048176 252.815424 
L 142.11449 246.200755 
L 146.180805 239.939245 
L 150.247119 234.023706 
L 154.313434 228.446948 
L 158.379748 223.201782 
L 162.446063 218.281019 
L 166.512377 213.67747 
L 170.578691 209.383947 
L 174.645006 205.393261 
L 178.71132 201.698221 
L 182.777635 198.29164 
L 186.843949 195.166328 
L 190.910264 192.315097 
L 194.976578 189.730756 
L 199.042893 187.406119 
L 203.109207 185.333994 
L 207.175521 183.507194 
L 211.241836 181.918529 
L 215.30815 180.560811 
L 219.374465 179.42685 
L 223.440779 178.509458 
L 227.507094 177.801444 
L 231.573408 177.295622 
L 235.639723 176.9848 
L 239.706037 176.861791 
L 244.78893 176.96119 
L 249.871823 177.328771 
L 254.954716 177.950494 
L 260.037609 178.812319 
L 265.120502 179.900203 
L 270.203395 181.200107 
L 276.302867 183.020087 
L 282.402339 185.100892 
L 288.50181 187.418261 
L 295.617861 190.388477 
L 302.733911 193.609128 
L 310.86654 197.547104 
L 320.015747 202.236552 
L 331.198112 208.225517 
L 366.778363 227.507377 
L 375.927571 232.113421 
L 384.0602 235.954345 
L 391.17625 239.072385 
L 397.275722 241.533983 
L 403.375194 243.775193 
L 409.474665 245.771752 
L 415.574137 247.499398 
L 420.65703 248.716179 
L 425.739923 249.715325 
L 430.822816 250.482794 
L 435.905709 251.004545 
L 440.988602 251.266538 
L 445.054917 251.279671 
L 449.121231 251.110383 
L 453.187545 250.751485 
L 457.25386 250.195788 
L 461.320174 249.436104 
L 465.386489 248.465244 
L 469.452803 247.276017 
L 473.519118 245.861236 
L 477.585432 244.213712 
L 481.651747 242.326255 
L 485.718061 240.191676 
L 489.784376 237.802786 
L 493.85069 235.152397 
L 497.917004 232.23332 
L 501.983319 229.038365 
L 506.049633 225.560343 
L 510.115948 221.792065 
L 514.182262 217.726344 
L 518.248577 213.355988 
L 522.314891 208.67381 
L 526.381206 203.672621 
L 530.44752 198.345231 
L 534.513834 192.684451 
L 538.580149 186.683093 
L 542.646463 180.333967 
L 546.712778 173.629885 
L 550.779092 166.563658 
L 554.845407 159.128096 
L 558.911721 151.31601 
L 563.994614 141.010465 
L 569.077507 130.091328 
L 574.1604 118.544559 
L 579.243293 106.356115 
L 584.326186 93.511957 
L 589.409079 79.998044 
L 594.491973 65.800333 
L 595.508551 62.8775 
L 595.508551 62.8775 
" clip-path="url(#p96fffb5f47)" style="fill: none; stroke: #339af0; stroke-width: 2.5; stroke-linecap: square"/>
   </g>
   <g id="text_17">
    <!-- This area is -->
    <g style="fill: #2f9e44" transform="translate(204.737251 186.872522) scale(0.11 -0.11)">
     <defs>
      <path id="DejaVuSans-Bold-54" d="M 31 4666 
L 4331 4666 
L 4331 3756 
L 2784 3756 
L 2784 0 
L 1581 0 
L 1581 3756 
L 31 3756 
L 31 4666 
z
" transform="scale(0.015625)"/>
      <path id="DejaVuSans-Bold-68" d="M 4056 2131 
L 4056 0 
L 2931 0 
L 2931 347 
L 2931 1625 
Q 2931 2084 2911 2256 
Q 2891 2428 2841 2509 
Q 2775 2619 2662 2680 
Q 2550 2741 2406 2741 
Q 2056 2741 1856 2470 
Q 1656 2200 1656 1722 
L 1656 0 
L 538 0 
L 538 4863 
L 1656 4863 
L 1656 2988 
Q 1909 3294 2193 3439 
Q 2478 3584 2822 3584 
Q 3428 3584 3742 3212 
Q 4056 2841 4056 2131 
z
" transform="scale(0.015625)"/>
      <path id="DejaVuSans-Bold-69" d="M 538 3500 
L 1656 3500 
L 1656 0 
L 538 0 
L 538 3500 
z
M 538 4863 
L 1656 4863 
L 1656 3950 
L 538 3950 
L 538 4863 
z
" transform="scale(0.015625)"/>
      <path id="DejaVuSans-Bold-73" d="M 3272 3391 
L 3272 2541 
Q 2913 2691 2578 2766 
Q 2244 2841 1947 2841 
Q 1628 2841 1473 2761 
Q 1319 2681 1319 2516 
Q 1319 2381 1436 2309 
Q 1553 2238 1856 2203 
L 2053 2175 
Q 2913 2066 3209 1816 
Q 3506 1566 3506 1031 
Q 3506 472 3093 190 
Q 2681 -91 1863 -91 
Q 1516 -91 1145 -36 
Q 775 19 384 128 
L 384 978 
Q 719 816 1070 734 
Q 1422 653 1784 653 
Q 2113 653 2278 743 
Q 2444 834 2444 1013 
Q 2444 1163 2330 1236 
Q 2216 1309 1875 1350 
L 1678 1375 
Q 931 1469 631 1722 
Q 331 1975 331 2491 
Q 331 3047 712 3315 
Q 1094 3584 1881 3584 
Q 2191 3584 2531 3537 
Q 2872 3491 3272 3391 
z
" transform="scale(0.015625)"/>
      <path id="DejaVuSans-Bold-20" transform="scale(0.015625)"/>
      <path id="DejaVuSans-Bold-61" d="M 2106 1575 
Q 1756 1575 1579 1456 
Q 1403 1338 1403 1106 
Q 1403 894 1545 773 
Q 1688 653 1941 653 
Q 2256 653 2472 879 
Q 2688 1106 2688 1447 
L 2688 1575 
L 2106 1575 
z
M 3816 1997 
L 3816 0 
L 2688 0 
L 2688 519 
Q 2463 200 2181 54 
Q 1900 -91 1497 -91 
Q 953 -91 614 226 
Q 275 544 275 1050 
Q 275 1666 698 1953 
Q 1122 2241 2028 2241 
L 2688 2241 
L 2688 2328 
Q 2688 2594 2478 2717 
Q 2269 2841 1825 2841 
Q 1466 2841 1156 2769 
Q 847 2697 581 2553 
L 581 3406 
Q 941 3494 1303 3539 
Q 1666 3584 2028 3584 
Q 2975 3584 3395 3211 
Q 3816 2838 3816 1997 
z
" transform="scale(0.015625)"/>
      <path id="DejaVuSans-Bold-72" d="M 3138 2547 
Q 2991 2616 2845 2648 
Q 2700 2681 2553 2681 
Q 2122 2681 1889 2404 
Q 1656 2128 1656 1613 
L 1656 0 
L 538 0 
L 538 3500 
L 1656 3500 
L 1656 2925 
Q 1872 3269 2151 3426 
Q 2431 3584 2822 3584 
Q 2878 3584 2943 3579 
Q 3009 3575 3134 3559 
L 3138 2547 
z
" transform="scale(0.015625)"/>
      <path id="DejaVuSans-Bold-65" d="M 4031 1759 
L 4031 1441 
L 1416 1441 
Q 1456 1047 1700 850 
Q 1944 653 2381 653 
Q 2734 653 3104 758 
Q 3475 863 3866 1075 
L 3866 213 
Q 3469 63 3072 -14 
Q 2675 -91 2278 -91 
Q 1328 -91 801 392 
Q 275 875 275 1747 
Q 275 2603 792 3093 
Q 1309 3584 2216 3584 
Q 3041 3584 3536 3087 
Q 4031 2591 4031 1759 
z
M 2881 2131 
Q 2881 2450 2695 2645 
Q 2509 2841 2209 2841 
Q 1884 2841 1681 2658 
Q 1478 2475 1428 2131 
L 2881 2131 
z
" transform="scale(0.015625)"/>
     </defs>
     <use xlink:href="#DejaVuSans-Bold-54"/>
     <use xlink:href="#DejaVuSans-Bold-68" transform="translate(68.212891 0)"/>
     <use xlink:href="#DejaVuSans-Bold-69" transform="translate(139.404297 0)"/>
     <use xlink:href="#DejaVuSans-Bold-73" transform="translate(173.681641 0)"/>
     <use xlink:href="#DejaVuSans-Bold-20" transform="translate(233.203125 0)"/>
     <use xlink:href="#DejaVuSans-Bold-61" transform="translate(268.017578 0)"/>
     <use xlink:href="#DejaVuSans-Bold-72" transform="translate(335.498047 0)"/>
     <use xlink:href="#DejaVuSans-Bold-65" transform="translate(384.814453 0)"/>
     <use xlink:href="#DejaVuSans-Bold-61" transform="translate(452.636719 0)"/>
     <use xlink:href="#DejaVuSans-Bold-20" transform="translate(520.117188 0)"/>
     <use xlink:href="#DejaVuSans-Bold-69" transform="translate(554.931641 0)"/>
     <use xlink:href="#DejaVuSans-Bold-73" transform="translate(589.208984 0)"/>
    </g>
    <!-- POSITIVE -->
    <g style="fill: #2f9e44" transform="translate(211.891548 199.190115) scale(0.11 -0.11)">
     <defs>
      <path id="DejaVuSans-Bold-50" d="M 588 4666 
L 2584 4666 
Q 3475 4666 3951 4270 
Q 4428 3875 4428 3144 
Q 4428 2409 3951 2014 
Q 3475 1619 2584 1619 
L 1791 1619 
L 1791 0 
L 588 0 
L 588 4666 
z
M 1791 3794 
L 1791 2491 
L 2456 2491 
Q 2806 2491 2997 2661 
Q 3188 2831 3188 3144 
Q 3188 3456 2997 3625 
Q 2806 3794 2456 3794 
L 1791 3794 
z
" transform="scale(0.015625)"/>
      <path id="DejaVuSans-Bold-4f" d="M 2719 3878 
Q 2169 3878 1866 3472 
Q 1563 3066 1563 2328 
Q 1563 1594 1866 1187 
Q 2169 781 2719 781 
Q 3272 781 3575 1187 
Q 3878 1594 3878 2328 
Q 3878 3066 3575 3472 
Q 3272 3878 2719 3878 
z
M 2719 4750 
Q 3844 4750 4481 4106 
Q 5119 3463 5119 2328 
Q 5119 1197 4481 553 
Q 3844 -91 2719 -91 
Q 1597 -91 958 553 
Q 319 1197 319 2328 
Q 319 3463 958 4106 
Q 1597 4750 2719 4750 
z
" transform="scale(0.015625)"/>
      <path id="DejaVuSans-Bold-53" d="M 3834 4519 
L 3834 3531 
Q 3450 3703 3084 3790 
Q 2719 3878 2394 3878 
Q 1963 3878 1756 3759 
Q 1550 3641 1550 3391 
Q 1550 3203 1689 3098 
Q 1828 2994 2194 2919 
L 2706 2816 
Q 3484 2659 3812 2340 
Q 4141 2022 4141 1434 
Q 4141 663 3683 286 
Q 3225 -91 2284 -91 
Q 1841 -91 1394 -6 
Q 947 78 500 244 
L 500 1259 
Q 947 1022 1364 901 
Q 1781 781 2169 781 
Q 2563 781 2772 912 
Q 2981 1044 2981 1288 
Q 2981 1506 2839 1625 
Q 2697 1744 2272 1838 
L 1806 1941 
Q 1106 2091 782 2419 
Q 459 2747 459 3303 
Q 459 4000 909 4375 
Q 1359 4750 2203 4750 
Q 2588 4750 2994 4692 
Q 3400 4634 3834 4519 
z
" transform="scale(0.015625)"/>
      <path id="DejaVuSans-Bold-49" d="M 588 4666 
L 1791 4666 
L 1791 0 
L 588 0 
L 588 4666 
z
" transform="scale(0.015625)"/>
      <path id="DejaVuSans-Bold-56" d="M 31 4666 
L 1241 4666 
L 2478 1222 
L 3713 4666 
L 4922 4666 
L 3194 0 
L 1759 0 
L 31 4666 
z
" transform="scale(0.015625)"/>
      <path id="DejaVuSans-Bold-45" d="M 588 4666 
L 3834 4666 
L 3834 3756 
L 1791 3756 
L 1791 2888 
L 3713 2888 
L 3713 1978 
L 1791 1978 
L 1791 909 
L 3903 909 
L 3903 0 
L 588 0 
L 588 4666 
z
" transform="scale(0.015625)"/>
     </defs>
     <use xlink:href="#DejaVuSans-Bold-50"/>
     <use xlink:href="#DejaVuSans-Bold-4f" transform="translate(73.291016 0)"/>
     <use xlink:href="#DejaVuSans-Bold-53" transform="translate(158.300781 0)"/>
     <use xlink:href="#DejaVuSans-Bold-49" transform="translate(230.322266 0)"/>
     <use xlink:href="#DejaVuSans-Bold-54" transform="translate(267.529297 0)"/>
     <use xlink:href="#DejaVuSans-Bold-49" transform="translate(335.742188 0)"/>
     <use xlink:href="#DejaVuSans-Bold-56" transform="translate(372.949219 0)"/>
     <use xlink:href="#DejaVuSans-Bold-45" transform="translate(450.341797 0)"/>
    </g>
   </g>
   <g id="text_18">
    <!-- This area is -->
    <g style="fill: #c92a2a" transform="translate(407.646342 216.647291) scale(0.11 -0.11)">
     <use xlink:href="#DejaVuSans-Bold-54"/>
     <use xlink:href="#DejaVuSans-Bold-68" transform="translate(68.212891 0)"/>
     <use xlink:href="#DejaVuSans-Bold-69" transform="translate(139.404297 0)"/>
     <use xlink:href="#DejaVuSans-Bold-73" transform="translate(173.681641 0)"/>
     <use xlink:href="#DejaVuSans-Bold-20" transform="translate(233.203125 0)"/>
     <use xlink:href="#DejaVuSans-Bold-61" transform="translate(268.017578 0)"/>
     <use xlink:href="#DejaVuSans-Bold-72" transform="translate(335.498047 0)"/>
     <use xlink:href="#DejaVuSans-Bold-65" transform="translate(384.814453 0)"/>
     <use xlink:href="#DejaVuSans-Bold-61" transform="translate(452.636719 0)"/>
     <use xlink:href="#DejaVuSans-Bold-20" transform="translate(520.117188 0)"/>
     <use xlink:href="#DejaVuSans-Bold-69" transform="translate(554.931641 0)"/>
     <use xlink:href="#DejaVuSans-Bold-73" transform="translate(589.208984 0)"/>
    </g>
    <!-- NEGATIVE -->
    <g style="fill: #c92a2a" transform="translate(412.810327 228.964885) scale(0.11 -0.11)">
     <defs>
      <path id="DejaVuSans-Bold-4e" d="M 588 4666 
L 1931 4666 
L 3628 1466 
L 3628 4666 
L 4769 4666 
L 4769 0 
L 3425 0 
L 1728 3200 
L 1728 0 
L 588 0 
L 588 4666 
z
" transform="scale(0.015625)"/>
      <path id="DejaVuSans-Bold-47" d="M 4781 347 
Q 4331 128 3847 18 
Q 3363 -91 2847 -91 
Q 1681 -91 1000 561 
Q 319 1213 319 2328 
Q 319 3456 1012 4103 
Q 1706 4750 2913 4750 
Q 3378 4750 3804 4662 
Q 4231 4575 4609 4403 
L 4609 3438 
Q 4219 3659 3833 3768 
Q 3447 3878 3059 3878 
Q 2341 3878 1952 3476 
Q 1563 3075 1563 2328 
Q 1563 1588 1938 1184 
Q 2313 781 3003 781 
Q 3191 781 3352 804 
Q 3513 828 3641 878 
L 3641 1784 
L 2906 1784 
L 2906 2591 
L 4781 2591 
L 4781 347 
z
" transform="scale(0.015625)"/>
      <path id="DejaVuSans-Bold-41" d="M 3419 850 
L 1538 850 
L 1241 0 
L 31 0 
L 1759 4666 
L 3194 4666 
L 4922 0 
L 3713 0 
L 3419 850 
z
M 1838 1716 
L 3116 1716 
L 2478 3572 
L 1838 1716 
z
" transform="scale(0.015625)"/>
     </defs>
     <use xlink:href="#DejaVuSans-Bold-4e"/>
     <use xlink:href="#DejaVuSans-Bold-45" transform="translate(83.691406 0)"/>
     <use xlink:href="#DejaVuSans-Bold-47" transform="translate(152.001953 0)"/>
     <use xlink:href="#DejaVuSans-Bold-41" transform="translate(234.082031 0)"/>
     <use xlink:href="#DejaVuSans-Bold-54" transform="translate(303.724609 0)"/>
     <use xlink:href="#DejaVuSans-Bold-49" transform="translate(371.9375 0)"/>
     <use xlink:href="#DejaVuSans-Bold-56" transform="translate(409.144531 0)"/>
     <use xlink:href="#DejaVuSans-Bold-45" transform="translate(486.537109 0)"/>
    </g>
   </g>
   <g id="text_19">
    <g id="patch_5">
     <path d="M 441.164688 98.517825 
L 609.712188 98.517825 
Q 615.212188 98.517825 615.212188 93.017825 
L 615.212188 57.7367 
Q 615.212188 52.2367 609.712188 52.2367 
L 441.164688 52.2367 
Q 435.664688 52.2367 435.664688 57.7367 
L 435.664688 93.017825 
Q 435.664688 98.517825 441.164688 98.517825 
z
" style="fill: #ffd8a8; opacity: 0.9; stroke: #e8590c; stroke-linejoin: miter"/>
    </g>
    <!-- If the curve crosses the x-axis, -->
    <g transform="translate(441.164688 66.094981) scale(0.11 -0.11)">
     <defs>
      <path id="DejaVuSans-49" d="M 628 4666 
L 1259 4666 
L 1259 0 
L 628 0 
L 628 4666 
z
" transform="scale(0.015625)"/>
      <path id="DejaVuSans-66" d="M 2375 4863 
L 2375 4384 
L 1825 4384 
Q 1516 4384 1395 4259 
Q 1275 4134 1275 3809 
L 1275 3500 
L 2222 3500 
L 2222 3053 
L 1275 3053 
L 1275 0 
L 697 0 
L 697 3053 
L 147 3053 
L 147 3500 
L 697 3500 
L 697 3744 
Q 697 4328 969 4595 
Q 1241 4863 1831 4863 
L 2375 4863 
z
" transform="scale(0.015625)"/>
      <path id="DejaVuSans-20" transform="scale(0.015625)"/>
      <path id="DejaVuSans-74" d="M 1172 4494 
L 1172 3500 
L 2356 3500 
L 2356 3053 
L 1172 3053 
L 1172 1153 
Q 1172 725 1289 603 
Q 1406 481 1766 481 
L 2356 481 
L 2356 0 
L 1766 0 
Q 1100 0 847 248 
Q 594 497 594 1153 
L 594 3053 
L 172 3053 
L 172 3500 
L 594 3500 
L 594 4494 
L 1172 4494 
z
" transform="scale(0.015625)"/>
      <path id="DejaVuSans-68" d="M 3513 2113 
L 3513 0 
L 2938 0 
L 2938 2094 
Q 2938 2591 2744 2837 
Q 2550 3084 2163 3084 
Q 1697 3084 1428 2787 
Q 1159 2491 1159 1978 
L 1159 0 
L 581 0 
L 581 4863 
L 1159 4863 
L 1159 2956 
Q 1366 3272 1645 3428 
Q 1925 3584 2291 3584 
Q 2894 3584 3203 3211 
Q 3513 2838 3513 2113 
z
" transform="scale(0.015625)"/>
      <path id="DejaVuSans-65" d="M 3597 1894 
L 3597 1613 
L 953 1613 
Q 991 1019 1311 708 
Q 1631 397 2203 397 
Q 2534 397 2845 478 
Q 3156 559 3463 722 
L 3463 178 
Q 3153 47 2828 -22 
Q 2503 -91 2169 -91 
Q 1331 -91 842 396 
Q 353 884 353 1716 
Q 353 2575 817 3079 
Q 1281 3584 2069 3584 
Q 2775 3584 3186 3129 
Q 3597 2675 3597 1894 
z
M 3022 2063 
Q 3016 2534 2758 2815 
Q 2500 3097 2075 3097 
Q 1594 3097 1305 2825 
Q 1016 2553 972 2059 
L 3022 2063 
z
" transform="scale(0.015625)"/>
      <path id="DejaVuSans-63" d="M 3122 3366 
L 3122 2828 
Q 2878 2963 2633 3030 
Q 2388 3097 2138 3097 
Q 1578 3097 1268 2742 
Q 959 2388 959 1747 
Q 959 1106 1268 751 
Q 1578 397 2138 397 
Q 2388 397 2633 464 
Q 2878 531 3122 666 
L 3122 134 
Q 2881 22 2623 -34 
Q 2366 -91 2075 -91 
Q 1284 -91 818 406 
Q 353 903 353 1747 
Q 353 2603 823 3093 
Q 1294 3584 2113 3584 
Q 2378 3584 2631 3529 
Q 2884 3475 3122 3366 
z
" transform="scale(0.015625)"/>
      <path id="DejaVuSans-75" d="M 544 1381 
L 544 3500 
L 1119 3500 
L 1119 1403 
Q 1119 906 1312 657 
Q 1506 409 1894 409 
Q 2359 409 2629 706 
Q 2900 1003 2900 1516 
L 2900 3500 
L 3475 3500 
L 3475 0 
L 2900 0 
L 2900 538 
Q 2691 219 2414 64 
Q 2138 -91 1772 -91 
Q 1169 -91 856 284 
Q 544 659 544 1381 
z
M 1991 3584 
L 1991 3584 
z
" transform="scale(0.015625)"/>
      <path id="DejaVuSans-72" d="M 2631 2963 
Q 2534 3019 2420 3045 
Q 2306 3072 2169 3072 
Q 1681 3072 1420 2755 
Q 1159 2438 1159 1844 
L 1159 0 
L 581 0 
L 581 3500 
L 1159 3500 
L 1159 2956 
Q 1341 3275 1631 3429 
Q 1922 3584 2338 3584 
Q 2397 3584 2469 3576 
Q 2541 3569 2628 3553 
L 2631 2963 
z
" transform="scale(0.015625)"/>
      <path id="DejaVuSans-76" d="M 191 3500 
L 800 3500 
L 1894 563 
L 2988 3500 
L 3597 3500 
L 2284 0 
L 1503 0 
L 191 3500 
z
" transform="scale(0.015625)"/>
      <path id="DejaVuSans-6f" d="M 1959 3097 
Q 1497 3097 1228 2736 
Q 959 2375 959 1747 
Q 959 1119 1226 758 
Q 1494 397 1959 397 
Q 2419 397 2687 759 
Q 2956 1122 2956 1747 
Q 2956 2369 2687 2733 
Q 2419 3097 1959 3097 
z
M 1959 3584 
Q 2709 3584 3137 3096 
Q 3566 2609 3566 1747 
Q 3566 888 3137 398 
Q 2709 -91 1959 -91 
Q 1206 -91 779 398 
Q 353 888 353 1747 
Q 353 2609 779 3096 
Q 1206 3584 1959 3584 
z
" transform="scale(0.015625)"/>
      <path id="DejaVuSans-73" d="M 2834 3397 
L 2834 2853 
Q 2591 2978 2328 3040 
Q 2066 3103 1784 3103 
Q 1356 3103 1142 2972 
Q 928 2841 928 2578 
Q 928 2378 1081 2264 
Q 1234 2150 1697 2047 
L 1894 2003 
Q 2506 1872 2764 1633 
Q 3022 1394 3022 966 
Q 3022 478 2636 193 
Q 2250 -91 1575 -91 
Q 1294 -91 989 -36 
Q 684 19 347 128 
L 347 722 
Q 666 556 975 473 
Q 1284 391 1588 391 
Q 1994 391 2212 530 
Q 2431 669 2431 922 
Q 2431 1156 2273 1281 
Q 2116 1406 1581 1522 
L 1381 1569 
Q 847 1681 609 1914 
Q 372 2147 372 2553 
Q 372 3047 722 3315 
Q 1072 3584 1716 3584 
Q 2034 3584 2315 3537 
Q 2597 3491 2834 3397 
z
" transform="scale(0.015625)"/>
      <path id="DejaVuSans-2d" d="M 313 2009 
L 1997 2009 
L 1997 1497 
L 313 1497 
L 313 2009 
z
" transform="scale(0.015625)"/>
      <path id="DejaVuSans-61" d="M 2194 1759 
Q 1497 1759 1228 1600 
Q 959 1441 959 1056 
Q 959 750 1161 570 
Q 1363 391 1709 391 
Q 2188 391 2477 730 
Q 2766 1069 2766 1631 
L 2766 1759 
L 2194 1759 
z
M 3341 1997 
L 3341 0 
L 2766 0 
L 2766 531 
Q 2569 213 2275 61 
Q 1981 -91 1556 -91 
Q 1019 -91 701 211 
Q 384 513 384 1019 
Q 384 1609 779 1909 
Q 1175 2209 1959 2209 
L 2766 2209 
L 2766 2266 
Q 2766 2663 2505 2880 
Q 2244 3097 1772 3097 
Q 1472 3097 1187 3025 
Q 903 2953 641 2809 
L 641 3341 
Q 956 3463 1253 3523 
Q 1550 3584 1831 3584 
Q 2591 3584 2966 3190 
Q 3341 2797 3341 1997 
z
" transform="scale(0.015625)"/>
      <path id="DejaVuSans-69" d="M 603 3500 
L 1178 3500 
L 1178 0 
L 603 0 
L 603 3500 
z
M 603 4863 
L 1178 4863 
L 1178 4134 
L 603 4134 
L 603 4863 
z
" transform="scale(0.015625)"/>
      <path id="DejaVuSans-2c" d="M 750 794 
L 1409 794 
L 1409 256 
L 897 -744 
L 494 -744 
L 750 256 
L 750 794 
z
" transform="scale(0.015625)"/>
     </defs>
     <use xlink:href="#DejaVuSans-49"/>
     <use xlink:href="#DejaVuSans-66" transform="translate(29.492188 0)"/>
     <use xlink:href="#DejaVuSans-20" transform="translate(64.697266 0)"/>
     <use xlink:href="#DejaVuSans-74" transform="translate(96.484375 0)"/>
     <use xlink:href="#DejaVuSans-68" transform="translate(135.693359 0)"/>
     <use xlink:href="#DejaVuSans-65" transform="translate(199.072266 0)"/>
     <use xlink:href="#DejaVuSans-20" transform="translate(260.595703 0)"/>
     <use xlink:href="#DejaVuSans-63" transform="translate(292.382812 0)"/>
     <use xlink:href="#DejaVuSans-75" transform="translate(347.363281 0)"/>
     <use xlink:href="#DejaVuSans-72" transform="translate(410.742188 0)"/>
     <use xlink:href="#DejaVuSans-76" transform="translate(451.855469 0)"/>
     <use xlink:href="#DejaVuSans-65" transform="translate(511.035156 0)"/>
     <use xlink:href="#DejaVuSans-20" transform="translate(572.558594 0)"/>
     <use xlink:href="#DejaVuSans-63" transform="translate(604.345703 0)"/>
     <use xlink:href="#DejaVuSans-72" transform="translate(659.326172 0)"/>
     <use xlink:href="#DejaVuSans-6f" transform="translate(698.189453 0)"/>
     <use xlink:href="#DejaVuSans-73" transform="translate(759.371094 0)"/>
     <use xlink:href="#DejaVuSans-73" transform="translate(811.470703 0)"/>
     <use xlink:href="#DejaVuSans-65" transform="translate(863.570312 0)"/>
     <use xlink:href="#DejaVuSans-73" transform="translate(925.09375 0)"/>
     <use xlink:href="#DejaVuSans-20" transform="translate(977.193359 0)"/>
     <use xlink:href="#DejaVuSans-74" transform="translate(1008.980469 0)"/>
     <use xlink:href="#DejaVuSans-68" transform="translate(1048.189453 0)"/>
     <use xlink:href="#DejaVuSans-65" transform="translate(1111.568359 0)"/>
     <use xlink:href="#DejaVuSans-20" transform="translate(1173.091797 0)"/>
     <use xlink:href="#DejaVuSans-78" transform="translate(1204.878906 0)"/>
     <use xlink:href="#DejaVuSans-2d" transform="translate(1264.058594 0)"/>
     <use xlink:href="#DejaVuSans-61" transform="translate(1300.142578 0)"/>
     <use xlink:href="#DejaVuSans-78" transform="translate(1361.421875 0)"/>
     <use xlink:href="#DejaVuSans-69" transform="translate(1420.601562 0)"/>
     <use xlink:href="#DejaVuSans-73" transform="translate(1448.384766 0)"/>
     <use xlink:href="#DejaVuSans-2c" transform="translate(1500.484375 0)"/>
    </g>
    <!-- split the integral at the roots -->
    <g transform="translate(451.74875 78.412575) scale(0.11 -0.11)">
     <defs>
      <path id="DejaVuSans-70" d="M 1159 525 
L 1159 -1331 
L 581 -1331 
L 581 3500 
L 1159 3500 
L 1159 2969 
Q 1341 3281 1617 3432 
Q 1894 3584 2278 3584 
Q 2916 3584 3314 3078 
Q 3713 2572 3713 1747 
Q 3713 922 3314 415 
Q 2916 -91 2278 -91 
Q 1894 -91 1617 61 
Q 1341 213 1159 525 
z
M 3116 1747 
Q 3116 2381 2855 2742 
Q 2594 3103 2138 3103 
Q 1681 3103 1420 2742 
Q 1159 2381 1159 1747 
Q 1159 1113 1420 752 
Q 1681 391 2138 391 
Q 2594 391 2855 752 
Q 3116 1113 3116 1747 
z
" transform="scale(0.015625)"/>
      <path id="DejaVuSans-6c" d="M 603 4863 
L 1178 4863 
L 1178 0 
L 603 0 
L 603 4863 
z
" transform="scale(0.015625)"/>
      <path id="DejaVuSans-6e" d="M 3513 2113 
L 3513 0 
L 2938 0 
L 2938 2094 
Q 2938 2591 2744 2837 
Q 2550 3084 2163 3084 
Q 1697 3084 1428 2787 
Q 1159 2491 1159 1978 
L 1159 0 
L 581 0 
L 581 3500 
L 1159 3500 
L 1159 2956 
Q 1366 3272 1645 3428 
Q 1925 3584 2291 3584 
Q 2894 3584 3203 3211 
Q 3513 2838 3513 2113 
z
" transform="scale(0.015625)"/>
      <path id="DejaVuSans-67" d="M 2906 1791 
Q 2906 2416 2648 2759 
Q 2391 3103 1925 3103 
Q 1463 3103 1205 2759 
Q 947 2416 947 1791 
Q 947 1169 1205 825 
Q 1463 481 1925 481 
Q 2391 481 2648 825 
Q 2906 1169 2906 1791 
z
M 3481 434 
Q 3481 -459 3084 -895 
Q 2688 -1331 1869 -1331 
Q 1566 -1331 1297 -1286 
Q 1028 -1241 775 -1147 
L 775 -588 
Q 1028 -725 1275 -790 
Q 1522 -856 1778 -856 
Q 2344 -856 2625 -561 
Q 2906 -266 2906 331 
L 2906 616 
Q 2728 306 2450 153 
Q 2172 0 1784 0 
Q 1141 0 747 490 
Q 353 981 353 1791 
Q 353 2603 747 3093 
Q 1141 3584 1784 3584 
Q 2172 3584 2450 3431 
Q 2728 3278 2906 2969 
L 2906 3500 
L 3481 3500 
L 3481 434 
z
" transform="scale(0.015625)"/>
     </defs>
     <use xlink:href="#DejaVuSans-73"/>
     <use xlink:href="#DejaVuSans-70" transform="translate(52.099609 0)"/>
     <use xlink:href="#DejaVuSans-6c" transform="translate(115.576172 0)"/>
     <use xlink:href="#DejaVuSans-69" transform="translate(143.359375 0)"/>
     <use xlink:href="#DejaVuSans-74" transform="translate(171.142578 0)"/>
     <use xlink:href="#DejaVuSans-20" transform="translate(210.351562 0)"/>
     <use xlink:href="#DejaVuSans-74" transform="translate(242.138672 0)"/>
     <use xlink:href="#DejaVuSans-68" transform="translate(281.347656 0)"/>
     <use xlink:href="#DejaVuSans-65" transform="translate(344.726562 0)"/>
     <use xlink:href="#DejaVuSans-20" transform="translate(406.25 0)"/>
     <use xlink:href="#DejaVuSans-69" transform="translate(438.037109 0)"/>
     <use xlink:href="#DejaVuSans-6e" transform="translate(465.820312 0)"/>
     <use xlink:href="#DejaVuSans-74" transform="translate(529.199219 0)"/>
     <use xlink:href="#DejaVuSans-65" transform="translate(568.408203 0)"/>
     <use xlink:href="#DejaVuSans-67" transform="translate(629.931641 0)"/>
     <use xlink:href="#DejaVuSans-72" transform="translate(693.408203 0)"/>
     <use xlink:href="#DejaVuSans-61" transform="translate(734.521484 0)"/>
     <use xlink:href="#DejaVuSans-6c" transform="translate(795.800781 0)"/>
     <use xlink:href="#DejaVuSans-20" transform="translate(823.583984 0)"/>
     <use xlink:href="#DejaVuSans-61" transform="translate(855.371094 0)"/>
     <use xlink:href="#DejaVuSans-74" transform="translate(916.650391 0)"/>
     <use xlink:href="#DejaVuSans-20" transform="translate(955.859375 0)"/>
     <use xlink:href="#DejaVuSans-74" transform="translate(987.646484 0)"/>
     <use xlink:href="#DejaVuSans-68" transform="translate(1026.855469 0)"/>
     <use xlink:href="#DejaVuSans-65" transform="translate(1090.234375 0)"/>
     <use xlink:href="#DejaVuSans-20" transform="translate(1151.757812 0)"/>
     <use xlink:href="#DejaVuSans-72" transform="translate(1183.544922 0)"/>
     <use xlink:href="#DejaVuSans-6f" transform="translate(1222.408203 0)"/>
     <use xlink:href="#DejaVuSans-6f" transform="translate(1283.589844 0)"/>
     <use xlink:href="#DejaVuSans-74" transform="translate(1344.771484 0)"/>
     <use xlink:href="#DejaVuSans-73" transform="translate(1383.980469 0)"/>
    </g>
    <!-- and take absolute values. -->
    <g transform="translate(468.169688 90.730169) scale(0.11 -0.11)">
     <defs>
      <path id="DejaVuSans-64" d="M 2906 2969 
L 2906 4863 
L 3481 4863 
L 3481 0 
L 2906 0 
L 2906 525 
Q 2725 213 2448 61 
Q 2172 -91 1784 -91 
Q 1150 -91 751 415 
Q 353 922 353 1747 
Q 353 2572 751 3078 
Q 1150 3584 1784 3584 
Q 2172 3584 2448 3432 
Q 2725 3281 2906 2969 
z
M 947 1747 
Q 947 1113 1208 752 
Q 1469 391 1925 391 
Q 2381 391 2643 752 
Q 2906 1113 2906 1747 
Q 2906 2381 2643 2742 
Q 2381 3103 1925 3103 
Q 1469 3103 1208 2742 
Q 947 2381 947 1747 
z
" transform="scale(0.015625)"/>
      <path id="DejaVuSans-6b" d="M 581 4863 
L 1159 4863 
L 1159 1991 
L 2875 3500 
L 3609 3500 
L 1753 1863 
L 3688 0 
L 2938 0 
L 1159 1709 
L 1159 0 
L 581 0 
L 581 4863 
z
" transform="scale(0.015625)"/>
      <path id="DejaVuSans-62" d="M 3116 1747 
Q 3116 2381 2855 2742 
Q 2594 3103 2138 3103 
Q 1681 3103 1420 2742 
Q 1159 2381 1159 1747 
Q 1159 1113 1420 752 
Q 1681 391 2138 391 
Q 2594 391 2855 752 
Q 3116 1113 3116 1747 
z
M 1159 2969 
Q 1341 3281 1617 3432 
Q 1894 3584 2278 3584 
Q 2916 3584 3314 3078 
Q 3713 2572 3713 1747 
Q 3713 922 3314 415 
Q 2916 -91 2278 -91 
Q 1894 -91 1617 61 
Q 1341 213 1159 525 
L 1159 0 
L 581 0 
L 581 4863 
L 1159 4863 
L 1159 2969 
z
" transform="scale(0.015625)"/>
      <path id="DejaVuSans-2e" d="M 684 794 
L 1344 794 
L 1344 0 
L 684 0 
L 684 794 
z
" transform="scale(0.015625)"/>
     </defs>
     <use xlink:href="#DejaVuSans-61"/>
     <use xlink:href="#DejaVuSans-6e" transform="translate(61.279297 0)"/>
     <use xlink:href="#DejaVuSans-64" transform="translate(124.658203 0)"/>
     <use xlink:href="#DejaVuSans-20" transform="translate(188.134766 0)"/>
     <use xlink:href="#DejaVuSans-74" transform="translate(219.921875 0)"/>
     <use xlink:href="#DejaVuSans-61" transform="translate(259.130859 0)"/>
     <use xlink:href="#DejaVuSans-6b" transform="translate(320.410156 0)"/>
     <use xlink:href="#DejaVuSans-65" transform="translate(374.695312 0)"/>
     <use xlink:href="#DejaVuSans-20" transform="translate(436.21875 0)"/>
     <use xlink:href="#DejaVuSans-61" transform="translate(468.005859 0)"/>
     <use xlink:href="#DejaVuSans-62" transform="translate(529.285156 0)"/>
     <use xlink:href="#DejaVuSans-73" transform="translate(592.761719 0)"/>
     <use xlink:href="#DejaVuSans-6f" transform="translate(644.861328 0)"/>
     <use xlink:href="#DejaVuSans-6c" transform="translate(706.042969 0)"/>
     <use xlink:href="#DejaVuSans-75" transform="translate(733.826172 0)"/>
     <use xlink:href="#DejaVuSans-74" transform="translate(797.205078 0)"/>
     <use xlink:href="#DejaVuSans-65" transform="translate(836.414062 0)"/>
     <use xlink:href="#DejaVuSans-20" transform="translate(897.9375 0)"/>
     <use xlink:href="#DejaVuSans-76" transform="translate(929.724609 0)"/>
     <use xlink:href="#DejaVuSans-61" transform="translate(988.904297 0)"/>
     <use xlink:href="#DejaVuSans-6c" transform="translate(1050.183594 0)"/>
     <use xlink:href="#DejaVuSans-75" transform="translate(1077.966797 0)"/>
     <use xlink:href="#DejaVuSans-65" transform="translate(1141.345703 0)"/>
     <use xlink:href="#DejaVuSans-73" transform="translate(1202.869141 0)"/>
     <use xlink:href="#DejaVuSans-2e" transform="translate(1254.96875 0)"/>
    </g>
   </g>
   <g id="text_20">
    <!-- The Negative Area Trap -->
    <g transform="translate(235.875937 33.7575) scale(0.16 -0.16)">
     <defs>
      <path id="DejaVuSans-Bold-67" d="M 2919 594 
Q 2688 288 2409 144 
Q 2131 0 1766 0 
Q 1125 0 706 504 
Q 288 1009 288 1791 
Q 288 2575 706 3076 
Q 1125 3578 1766 3578 
Q 2131 3578 2409 3434 
Q 2688 3291 2919 2981 
L 2919 3500 
L 4044 3500 
L 4044 353 
Q 4044 -491 3511 -936 
Q 2978 -1381 1966 -1381 
Q 1638 -1381 1331 -1331 
Q 1025 -1281 716 -1178 
L 716 -306 
Q 1009 -475 1290 -558 
Q 1572 -641 1856 -641 
Q 2406 -641 2662 -400 
Q 2919 -159 2919 353 
L 2919 594 
z
M 2181 2772 
Q 1834 2772 1640 2515 
Q 1447 2259 1447 1791 
Q 1447 1309 1634 1061 
Q 1822 813 2181 813 
Q 2531 813 2725 1069 
Q 2919 1325 2919 1791 
Q 2919 2259 2725 2515 
Q 2531 2772 2181 2772 
z
" transform="scale(0.015625)"/>
      <path id="DejaVuSans-Bold-74" d="M 1759 4494 
L 1759 3500 
L 2913 3500 
L 2913 2700 
L 1759 2700 
L 1759 1216 
Q 1759 972 1856 886 
Q 1953 800 2241 800 
L 2816 800 
L 2816 0 
L 1856 0 
Q 1194 0 917 276 
Q 641 553 641 1216 
L 641 2700 
L 84 2700 
L 84 3500 
L 641 3500 
L 641 4494 
L 1759 4494 
z
" transform="scale(0.015625)"/>
      <path id="DejaVuSans-Bold-76" d="M 97 3500 
L 1216 3500 
L 2088 1081 
L 2956 3500 
L 4078 3500 
L 2700 0 
L 1472 0 
L 97 3500 
z
" transform="scale(0.015625)"/>
      <path id="DejaVuSans-Bold-70" d="M 1656 506 
L 1656 -1331 
L 538 -1331 
L 538 3500 
L 1656 3500 
L 1656 2988 
Q 1888 3294 2169 3439 
Q 2450 3584 2816 3584 
Q 3463 3584 3878 3070 
Q 4294 2556 4294 1747 
Q 4294 938 3878 423 
Q 3463 -91 2816 -91 
Q 2450 -91 2169 54 
Q 1888 200 1656 506 
z
M 2400 2772 
Q 2041 2772 1848 2508 
Q 1656 2244 1656 1747 
Q 1656 1250 1848 986 
Q 2041 722 2400 722 
Q 2759 722 2948 984 
Q 3138 1247 3138 1747 
Q 3138 2247 2948 2509 
Q 2759 2772 2400 2772 
z
" transform="scale(0.015625)"/>
     </defs>
     <use xlink:href="#DejaVuSans-Bold-54"/>
     <use xlink:href="#DejaVuSans-Bold-68" transform="translate(68.212891 0)"/>
     <use xlink:href="#DejaVuSans-Bold-65" transform="translate(139.404297 0)"/>
     <use xlink:href="#DejaVuSans-Bold-20" transform="translate(207.226562 0)"/>
     <use xlink:href="#DejaVuSans-Bold-4e" transform="translate(242.041016 0)"/>
     <use xlink:href="#DejaVuSans-Bold-65" transform="translate(325.732422 0)"/>
     <use xlink:href="#DejaVuSans-Bold-67" transform="translate(393.554688 0)"/>
     <use xlink:href="#DejaVuSans-Bold-61" transform="translate(465.136719 0)"/>
     <use xlink:href="#DejaVuSans-Bold-74" transform="translate(532.617188 0)"/>
     <use xlink:href="#DejaVuSans-Bold-69" transform="translate(580.419922 0)"/>
     <use xlink:href="#DejaVuSans-Bold-76" transform="translate(614.697266 0)"/>
     <use xlink:href="#DejaVuSans-Bold-65" transform="translate(679.882812 0)"/>
     <use xlink:href="#DejaVuSans-Bold-20" transform="translate(747.705078 0)"/>
     <use xlink:href="#DejaVuSans-Bold-41" transform="translate(782.519531 0)"/>
     <use xlink:href="#DejaVuSans-Bold-72" transform="translate(859.912109 0)"/>
     <use xlink:href="#DejaVuSans-Bold-65" transform="translate(909.228516 0)"/>
     <use xlink:href="#DejaVuSans-Bold-61" transform="translate(977.050781 0)"/>
     <use xlink:href="#DejaVuSans-Bold-20" transform="translate(1044.53125 0)"/>
     <use xlink:href="#DejaVuSans-Bold-54" transform="translate(1079.345703 0)"/>
     <use xlink:href="#DejaVuSans-Bold-72" transform="translate(1136.558594 0)"/>
     <use xlink:href="#DejaVuSans-Bold-61" transform="translate(1185.875 0)"/>
     <use xlink:href="#DejaVuSans-Bold-70" transform="translate(1253.355469 0)"/>
    </g>
   </g>
   <g id="legend_1">
    <g id="patch_6">
     <path d="M 70.572187 374.8975 
L 183.162344 374.8975 
Q 185.362344 374.8975 185.362344 372.6975 
L 185.362344 325.359688 
Q 185.362344 323.159688 183.162344 323.159688 
L 70.572187 323.159688 
Q 68.372187 323.159688 68.372187 325.359688 
L 68.372187 372.6975 
Q 68.372187 374.8975 70.572187 374.8975 
z
" style="fill: #ffffff; opacity: 0.9; stroke: #dee2e6; stroke-linejoin: miter"/>
    </g>
    <g id="line2d_31">
     <path d="M 72.772188 332.067969 
L 83.772188 332.067969 
L 94.772188 332.067969 
" style="fill: none; stroke: #339af0; stroke-width: 2.5; stroke-linecap: square"/>
    </g>
    <g id="text_21">
     <!-- y = x³ - 3x -->
     <g transform="translate(103.572187 335.917969) scale(0.11 -0.11)">
      <defs>
       <path id="DejaVuSans-3d" d="M 678 2906 
L 4684 2906 
L 4684 2381 
L 678 2381 
L 678 2906 
z
M 678 1631 
L 4684 1631 
L 4684 1100 
L 678 1100 
L 678 1631 
z
" transform="scale(0.015625)"/>
       <path id="DejaVuSans-b3" d="M 1638 3500 
Q 1925 3444 2083 3273 
Q 2241 3103 2241 2847 
Q 2241 2459 1944 2250 
Q 1647 2041 1094 2041 
Q 916 2041 720 2073 
Q 525 2106 306 2169 
L 306 2547 
Q 469 2463 655 2422 
Q 841 2381 1050 2381 
Q 1391 2381 1578 2504 
Q 1766 2628 1766 2847 
Q 1766 3078 1592 3197 
Q 1419 3316 1081 3316 
L 813 3316 
L 813 3653 
L 1106 3653 
Q 1400 3653 1551 3751 
Q 1703 3850 1703 4038 
Q 1703 4219 1547 4314 
Q 1391 4409 1094 4409 
Q 969 4409 809 4381 
Q 650 4353 397 4281 
L 397 4641 
Q 625 4694 825 4722 
Q 1025 4750 1197 4750 
Q 1647 4750 1911 4565 
Q 2175 4381 2175 4072 
Q 2175 3856 2034 3706 
Q 1894 3556 1638 3500 
z
" transform="scale(0.015625)"/>
       <path id="DejaVuSans-33" d="M 2597 2516 
Q 3050 2419 3304 2112 
Q 3559 1806 3559 1356 
Q 3559 666 3084 287 
Q 2609 -91 1734 -91 
Q 1441 -91 1130 -33 
Q 819 25 488 141 
L 488 750 
Q 750 597 1062 519 
Q 1375 441 1716 441 
Q 2309 441 2620 675 
Q 2931 909 2931 1356 
Q 2931 1769 2642 2001 
Q 2353 2234 1838 2234 
L 1294 2234 
L 1294 2753 
L 1863 2753 
Q 2328 2753 2575 2939 
Q 2822 3125 2822 3475 
Q 2822 3834 2567 4026 
Q 2313 4219 1838 4219 
Q 1578 4219 1281 4162 
Q 984 4106 628 3988 
L 628 4550 
Q 988 4650 1302 4700 
Q 1616 4750 1894 4750 
Q 2613 4750 3031 4423 
Q 3450 4097 3450 3541 
Q 3450 3153 3228 2886 
Q 3006 2619 2597 2516 
z
" transform="scale(0.015625)"/>
      </defs>
      <use xlink:href="#DejaVuSans-79"/>
      <use xlink:href="#DejaVuSans-20" transform="translate(59.179688 0)"/>
      <use xlink:href="#DejaVuSans-3d" transform="translate(90.966797 0)"/>
      <use xlink:href="#DejaVuSans-20" transform="translate(174.755859 0)"/>
      <use xlink:href="#DejaVuSans-78" transform="translate(206.542969 0)"/>
      <use xlink:href="#DejaVuSans-b3" transform="translate(265.722656 0)"/>
      <use xlink:href="#DejaVuSans-20" transform="translate(305.810547 0)"/>
      <use xlink:href="#DejaVuSans-2d" transform="translate(337.597656 0)"/>
      <use xlink:href="#DejaVuSans-20" transform="translate(373.681641 0)"/>
      <use xlink:href="#DejaVuSans-33" transform="translate(405.46875 0)"/>
      <use xlink:href="#DejaVuSans-78" transform="translate(469.091797 0)"/>
     </g>
    </g>
    <g id="patch_7">
     <path d="M 72.772188 352.063906 
L 94.772188 352.063906 
L 94.772188 344.363906 
L 72.772188 344.363906 
z
" style="fill: #b2f2bb; fill-opacity: 0.5; stroke: #b2f2bb; stroke-opacity: 0.5; stroke-linejoin: miter"/>
    </g>
    <g id="text_22">
     <!-- Positive area -->
     <g transform="translate(103.572187 352.063906) scale(0.11 -0.11)">
      <defs>
       <path id="DejaVuSans-50" d="M 1259 4147 
L 1259 2394 
L 2053 2394 
Q 2494 2394 2734 2622 
Q 2975 2850 2975 3272 
Q 2975 3691 2734 3919 
Q 2494 4147 2053 4147 
L 1259 4147 
z
M 628 4666 
L 2053 4666 
Q 2838 4666 3239 4311 
Q 3641 3956 3641 3272 
Q 3641 2581 3239 2228 
Q 2838 1875 2053 1875 
L 1259 1875 
L 1259 0 
L 628 0 
L 628 4666 
z
" transform="scale(0.015625)"/>
      </defs>
      <use xlink:href="#DejaVuSans-50"/>
      <use xlink:href="#DejaVuSans-6f" transform="translate(56.677734 0)"/>
      <use xlink:href="#DejaVuSans-73" transform="translate(117.859375 0)"/>
      <use xlink:href="#DejaVuSans-69" transform="translate(169.958984 0)"/>
      <use xlink:href="#DejaVuSans-74" transform="translate(197.742188 0)"/>
      <use xlink:href="#DejaVuSans-69" transform="translate(236.951172 0)"/>
      <use xlink:href="#DejaVuSans-76" transform="translate(264.734375 0)"/>
      <use xlink:href="#DejaVuSans-65" transform="translate(323.914062 0)"/>
      <use xlink:href="#DejaVuSans-20" transform="translate(385.4375 0)"/>
      <use xlink:href="#DejaVuSans-61" transform="translate(417.224609 0)"/>
      <use xlink:href="#DejaVuSans-72" transform="translate(478.503906 0)"/>
      <use xlink:href="#DejaVuSans-65" transform="translate(517.367188 0)"/>
      <use xlink:href="#DejaVuSans-61" transform="translate(578.890625 0)"/>
     </g>
    </g>
    <g id="patch_8">
     <path d="M 72.772188 368.209844 
L 94.772188 368.209844 
L 94.772188 360.509844 
L 72.772188 360.509844 
z
" style="fill: #ffc9c9; fill-opacity: 0.5; stroke: #ffc9c9; stroke-opacity: 0.5; stroke-linejoin: miter"/>
    </g>
    <g id="text_23">
     <!-- Negative area -->
     <g transform="translate(103.572187 368.209844) scale(0.11 -0.11)">
      <defs>
       <path id="DejaVuSans-4e" d="M 628 4666 
L 1478 4666 
L 3547 763 
L 3547 4666 
L 4159 4666 
L 4159 0 
L 3309 0 
L 1241 3903 
L 1241 0 
L 628 0 
L 628 4666 
z
" transform="scale(0.015625)"/>
      </defs>
      <use xlink:href="#DejaVuSans-4e"/>
      <use xlink:href="#DejaVuSans-65" transform="translate(74.804688 0)"/>
      <use xlink:href="#DejaVuSans-67" transform="translate(136.328125 0)"/>
      <use xlink:href="#DejaVuSans-61" transform="translate(199.804688 0)"/>
      <use xlink:href="#DejaVuSans-74" transform="translate(261.083984 0)"/>
      <use xlink:href="#DejaVuSans-69" transform="translate(300.292969 0)"/>
      <use xlink:href="#DejaVuSans-76" transform="translate(328.076172 0)"/>
      <use xlink:href="#DejaVuSans-65" transform="translate(387.255859 0)"/>
      <use xlink:href="#DejaVuSans-20" transform="translate(448.779297 0)"/>
      <use xlink:href="#DejaVuSans-61" transform="translate(480.566406 0)"/>
      <use xlink:href="#DejaVuSans-72" transform="translate(541.845703 0)"/>
      <use xlink:href="#DejaVuSans-65" transform="translate(580.708984 0)"/>
      <use xlink:href="#DejaVuSans-61" transform="translate(642.232422 0)"/>
     </g>
    </g>
   </g>
  </g>
 </g>
 <defs>
  <clipPath id="p96fffb5f47">
   <rect x="62.872188" y="47.7575" width="558" height="332.64"/>
  </clipPath>
 </defs>
</svg>
